<svg width="144" height="146" viewBox="0 0 144 146" fill="none" xmlns="http://www.w3.org/2000/svg">
<path fill-rule="evenodd" clip-rule="evenodd" d="M131.053 51.4006C133.58 48.6431 135.123 44.9751 135.123 40.9509C135.123 32.4112 128.166 25.4629 119.618 25.4629C111.069 25.4629 104.112 32.4112 104.112 40.9509C104.112 48.2956 109.257 54.4569 116.136 56.0396C116.07 56.1056 116.004 56.1688 115.941 56.2349L100.364 71.8004H82.1645C77.9794 71.8004 74.5756 75.2013 74.5756 79.3836C74.5756 80.4435 74.7939 81.4517 75.1903 82.3708H68.489C68.8854 81.4545 69.1037 80.4435 69.1037 79.3836C69.1037 75.2013 65.697 71.8004 61.5062 71.8004H43.3153L27.7469 56.2521C27.7814 56.1257 27.79 56.097 27.8274 55.9735C34.5631 54.2874 39.5697 48.195 39.5697 40.9537C39.5697 32.4141 32.6099 25.4658 24.0559 25.4658C15.5048 25.4658 8.55069 32.4141 8.55069 40.9537C8.55069 44.978 10.096 48.646 12.6237 51.4035C8.74889 52.9345 6 56.7088 6 61.1151V94.7308V97.0287V103.207C6 107.883 9.80593 111.687 14.4851 111.687H35.1462V137.521C35.1462 142.197 38.9521 146 43.6313 146C48.3104 146 52.1163 142.197 52.1163 137.521V103.207C52.1163 101.808 51.7745 100.49 51.1713 99.3266H69.5374V134.393H65.6626C62.457 134.393 59.8603 136.992 59.8603 140.195V143.699C59.8603 144.969 60.8886 145.997 62.1582 145.997H81.5211C82.7907 145.997 83.819 144.969 83.819 143.699V140.189C83.819 136.992 81.2109 134.39 78.0081 134.39H74.1333V99.3266H92.5051C91.9019 100.49 91.5601 101.811 91.5601 103.207V137.521C91.5601 142.197 95.366 146 100.045 146C104.724 146 108.53 142.197 108.53 137.521V111.687H129.191C133.871 111.687 137.676 107.883 137.676 103.207V97.0287V94.7308V61.1122C137.676 56.706 134.928 52.9288 131.053 51.4006ZM79.2232 140.192V141.404H64.4562V140.192C64.4562 139.532 64.999 138.989 65.6597 138.989H78.0081C78.6659 138.989 79.2232 139.54 79.2232 140.192ZM108.708 40.9509C108.708 34.9447 113.603 30.0587 119.618 30.0587C125.632 30.0587 130.527 34.9447 130.527 40.9509C130.527 46.957 125.632 51.843 119.618 51.843C113.603 51.843 108.708 46.957 108.708 40.9509ZM109.087 84.5337L113.123 80.5038V94.7279H105.506V86.6507C106.844 86.2744 108.056 85.5621 109.087 84.5337ZM100.91 94.7308H42.7609V86.9667H100.91V94.7308ZM30.5475 94.7308V80.498L34.5861 84.5309C35.6115 85.5621 36.8237 86.2773 38.1651 86.6536V94.7308H30.5475ZM24.053 30.0587C30.0736 30.0587 34.971 34.9447 34.971 40.9509C34.971 46.957 30.0736 51.843 24.053 51.843C18.0382 51.843 13.1437 46.957 13.1437 40.9509C13.1437 34.9447 18.0353 30.0587 24.053 30.0587ZM10.5901 61.1122C10.5901 57.8894 13.2212 55.2669 16.4527 55.2669C20.2586 55.2669 22.3181 57.3235 24.4954 59.5008L40.8508 75.8333C41.2099 76.1923 41.701 76.3963 42.2094 76.3963H61.5091C63.1636 76.3963 64.5107 77.7348 64.5107 79.3836C64.5107 81.0323 63.1636 82.3708 61.5091 82.3708H40.4659C39.4117 82.3708 38.5816 82.0262 37.8434 81.2851L23.7715 67.2304C22.8581 66.317 21.3645 66.3342 20.4711 67.2821C19.6094 68.1984 19.6985 69.6605 20.5889 70.548L25.9545 75.9051V94.7279H10.5901V61.1122ZM47.5176 103.207V137.521C47.5176 139.661 45.7712 141.404 43.6284 141.404C41.4827 141.404 39.7392 139.664 39.7392 137.521V109.113C39.7392 107.996 38.8344 107.091 37.717 107.091H14.4793C12.3336 107.091 10.5901 105.35 10.5901 103.207V99.3266H40.463H43.6255C45.7712 99.3266 47.5176 101.067 47.5176 103.207ZM133.081 103.207C133.081 105.347 131.334 107.091 129.191 107.091H105.957C104.839 107.091 103.934 107.996 103.934 109.113V137.521C103.934 139.661 102.188 141.404 100.045 141.404C97.8995 141.404 96.156 139.664 96.156 137.521V103.207C96.156 101.067 97.9024 99.3266 100.045 99.3266H103.208H133.081V103.207ZM117.719 94.7308V75.9166L123.09 70.5509C123.981 69.6634 124.073 68.2013 123.211 67.285C122.318 66.3371 120.827 66.317 119.911 67.2333L113.916 73.2165C113.833 73.2883 113.755 73.3659 113.683 73.4492L105.839 81.2851C105.098 82.0262 104.259 82.3708 103.208 82.3708H82.1645C80.5129 82.3708 79.1715 81.0323 79.1715 79.3836C79.1715 77.7348 80.5129 76.3963 82.1645 76.3963H101.47C101.978 76.3963 102.467 76.1952 102.829 75.8333L119.003 59.6703L119.184 59.4922C121.364 57.3207 123.424 55.2669 127.224 55.2669C130.452 55.2669 133.078 57.8894 133.078 61.1122V94.7308H117.719Z" fill="black"/>
<path d="M99.5728 99.3262C97.4271 99.3262 95.6836 101.067 95.6836 103.207V137.52C95.6836 139.66 97.43 141.404 99.5728 141.404C101.718 141.404 103.462 139.663 103.462 137.52V109.112C103.462 107.995 104.367 107.09 105.484 107.09H128.719C130.865 107.09 132.608 105.35 132.608 103.207V99.3262H102.735H99.5728Z" fill="#9EA3AD"/>
<path d="M130.055 40.9507C130.055 34.9445 125.16 30.0586 119.146 30.0586C113.131 30.0586 108.236 34.9445 108.236 40.9507C108.236 46.9569 113.131 51.8429 119.146 51.8429C125.163 51.8429 130.055 46.9569 130.055 40.9507Z" fill="#FFCDAC"/>
<path d="M81.6933 82.3705H102.736C103.791 82.3705 104.627 82.0259 105.368 81.2848L113.212 73.4489C113.284 73.3656 113.361 73.288 113.445 73.2162L119.439 67.2301C120.353 66.3167 121.847 66.334 122.74 67.2818C123.602 68.1981 123.51 69.6602 122.619 70.5478L117.248 75.9134V94.7276H132.609V61.1119C132.609 57.8891 129.984 55.2666 126.755 55.2666C122.955 55.2666 120.896 57.3175 118.716 59.4919L118.535 59.67L102.36 75.833C102.001 76.192 101.51 76.396 101.002 76.396H81.6962C80.0445 76.396 78.7031 77.7345 78.7031 79.3833C78.7031 81.032 80.0445 82.3705 81.6933 82.3705Z" fill="#E5C140"/>
<path d="M25.4797 75.9077L20.1141 70.5507C19.2236 69.6602 19.1317 68.2011 19.9963 67.2848C20.8896 66.3369 22.3804 66.3196 23.2967 67.2331L37.3685 81.2877C38.1067 82.0317 38.9397 82.3735 39.991 82.3735H61.0342C62.6887 82.3735 64.0359 81.0349 64.0359 79.3862C64.0359 77.7374 62.6887 76.3989 61.0342 76.3989H41.7346C41.2262 76.3989 40.7379 76.1978 40.3759 75.8359L24.0205 59.5034C21.8432 57.3262 19.7866 55.2695 15.9778 55.2695C12.7464 55.2695 10.1152 57.892 10.1152 61.1149V94.7305H25.4768V75.9077H25.4797Z" fill="#A5DDFF"/>
<path d="M23.5812 51.8429C29.6018 51.8429 34.4992 46.9569 34.4992 40.9507C34.4992 34.9445 29.6018 30.0586 23.5812 30.0586C17.5664 30.0586 12.6719 34.9445 12.6719 40.9507C12.6719 46.9569 17.5636 51.8429 23.5812 51.8429Z" fill="#FFCDAC"/>
<path d="M14.0064 107.09H37.2412C38.3586 107.09 39.2634 107.995 39.2634 109.112V137.52C39.2634 139.66 41.0098 141.404 43.1526 141.404C45.2983 141.404 47.0419 139.663 47.0419 137.52V103.207C47.0419 101.067 45.2954 99.3262 43.1526 99.3262H39.9901H10.1172V103.207C10.1172 105.347 11.8636 107.09 14.0064 107.09Z" fill="#9EA3AD"/>
<path d="M98.0382 28.6155C98.0382 43.3146 86.1223 55.2305 71.4232 55.2305C56.7245 55.2305 44.8086 43.3146 44.8086 28.6155C44.8086 13.9165 56.7245 2.00057 71.4232 2.00057C86.1223 2.00057 98.0382 13.9165 98.0382 28.6155Z" fill="#95E540"/>
<path d="M86.1136 6.42104C88.9061 10.6313 90.534 15.6809 90.534 21.1116C90.534 35.8106 78.6181 47.7265 63.9191 47.7265C58.4883 47.7265 53.4388 46.0986 49.2285 43.3061C53.9941 50.4918 62.1547 55.2305 71.423 55.2305C86.122 55.2305 98.0377 43.3146 98.0377 28.6155C98.0377 19.3472 93.2993 11.1866 86.1136 6.42104Z" fill="#95E540"/>
<path d="M83.8435 23.8833H76.1548V16.1946C76.1548 13.5813 74.0365 11.463 71.4231 11.463C68.8101 11.463 66.6918 13.5813 66.6918 16.1946V23.8833H59.0028C56.3898 23.8833 54.2715 26.0016 54.2715 28.6149C54.2715 31.228 56.3898 33.3463 59.0028 33.3463H66.6918V41.035C66.6918 43.6483 68.8101 45.7666 71.4231 45.7666C74.0365 45.7666 76.1548 43.6483 76.1548 41.035V33.3463H83.8435C86.4565 33.3463 88.5751 31.228 88.5751 28.6149C88.5751 26.0016 86.4565 23.8833 83.8435 23.8833Z" fill="white"/>
<path d="M95.3121 40.361C97.0568 36.8187 98.0375 32.8345 98.0375 28.616C98.0375 13.9143 86.1228 1.9996 71.424 1.9996C56.7253 1.9996 44.8105 13.9143 44.8105 28.616C44.8105 43.3148 56.7253 55.2295 71.424 55.2295C78.2128 55.2295 84.4102 52.6855 89.1117 48.4963" stroke="black" stroke-width="4" stroke-miterlimit="10" stroke-linecap="round" stroke-linejoin="round"/>
<path d="M83.8435 23.8833H76.1548V16.1946C76.1548 13.5813 74.0365 11.463 71.4231 11.463C68.8101 11.463 66.6918 13.5813 66.6918 16.1946V23.8833H59.0028C56.3898 23.8833 54.2715 26.0016 54.2715 28.6149C54.2715 31.228 56.3898 33.3463 59.0028 33.3463H66.6918V41.035C66.6918 43.6483 68.8101 45.7666 71.4231 45.7666C74.0365 45.7666 76.1548 43.6483 76.1548 41.035V33.3463H83.8435C86.4565 33.3463 88.5751 31.228 88.5751 28.6149C88.5751 26.0016 86.4565 23.8833 83.8435 23.8833Z" stroke="black" stroke-width="4" stroke-miterlimit="10" stroke-linecap="round" stroke-linejoin="round"/>
</svg>
