<svg width="28" height="24" viewBox="0 0 28 24" fill="none" xmlns="http://www.w3.org/2000/svg">
<path d="M18.3636 21.6363V19.4545C18.3636 18.2971 17.9039 17.1872 17.0856 16.3689C16.2672 15.5506 15.1573 15.0908 14 15.0908H6.36364C5.20633 15.0908 4.09642 15.5506 3.27808 16.3689C2.45974 17.1872 2 18.2971 2 19.4545V21.6363" stroke="#442477" stroke-width="3" stroke-linecap="round" stroke-linejoin="round"/>
<path d="M10.182 10.7273C12.592 10.7273 14.5456 8.77361 14.5456 6.36364C14.5456 3.95367 12.592 2 10.182 2C7.77203 2 5.81836 3.95367 5.81836 6.36364C5.81836 8.77361 7.77203 10.7273 10.182 10.7273Z" stroke="#442477" stroke-width="3" stroke-linecap="round" stroke-linejoin="round"/>
<path d="M22.7285 7.45312V13.9986" stroke="#442477" stroke-width="3" stroke-linecap="round" stroke-linejoin="round"/>
<path d="M26.0005 10.7266H19.4551" stroke="#442477" stroke-width="3" stroke-linecap="round" stroke-linejoin="round"/>
</svg>
