<svg width="133" height="144" viewBox="0 0 133 144" fill="none" xmlns="http://www.w3.org/2000/svg">
<path d="M92.4993 75.9971C62.8993 55.9971 33.8327 67.6638 22.9993 75.9971C12.9992 83.1971 7.49927 95.6638 5.99933 100.997C-2.40067 124.597 6.83267 134.164 12.4993 135.997C12.4993 135.997 78.8327 140.331 94.9993 137.997C106.499 125.664 122.099 95.9971 92.4993 75.9971Z" fill="#95D4FA"/>
<path d="M95.3431 76.5304C69.8708 55.6442 44.8575 67.8278 35.5348 76.5304C26.9292 84.0493 22.1962 97.0685 20.9055 102.638C13.6768 127.284 21.6226 137.274 26.499 139.189C26.499 139.189 81.4309 139.935 95.3431 137.498C105.239 124.618 120.815 97.4165 95.3431 76.5304Z" fill="#A5DDFF"/>
<path d="M130.937 106.469C130.937 91.8504 119.087 80 104.469 80C89.8504 80 78 91.8504 78 106.469C78 121.087 89.8504 132.937 104.469 132.937C119.087 132.937 130.937 121.087 130.937 106.469Z" fill="#95E540"/>
<path d="M116.955 102.573H109.427V95.0447C109.427 92.4859 107.353 90.4117 104.794 90.4117C102.235 90.4117 100.161 92.4859 100.161 95.0447V102.573H92.6327C90.0741 102.573 88 104.647 88 107.206C88 109.765 90.0741 111.839 92.6327 111.839H100.161V119.367C100.161 121.926 102.235 124 104.794 124C107.353 124 109.427 121.926 109.427 119.367V111.839H116.955C119.514 111.839 121.588 109.765 121.588 107.206C121.588 104.647 119.514 102.573 116.955 102.573Z" fill="white"/>
<path d="M116.955 102.573H109.427V95.0447C109.427 92.4859 107.353 90.4117 104.794 90.4117C102.235 90.4117 100.161 92.4859 100.161 95.0447V102.573H92.6327C90.0741 102.573 88 104.647 88 107.206C88 109.765 90.0741 111.839 92.6327 111.839H100.161V119.367C100.161 121.926 102.235 124 104.794 124C107.353 124 109.427 121.926 109.427 119.367V111.839H116.955C119.514 111.839 121.588 109.765 121.588 107.206C121.588 104.647 119.514 102.573 116.955 102.573Z" stroke="black" stroke-width="4" stroke-miterlimit="10" stroke-linecap="round" stroke-linejoin="round"/>
<path d="M104.5 79C100.265 78.9997 96.0875 79.9775 92.2927 81.8572C88.4978 83.7369 85.1884 86.4677 82.6224 89.8367C80.0564 93.2057 78.3033 97.1219 77.4997 101.28C76.696 105.438 76.8636 109.725 77.9894 113.808C79.1151 117.89 81.1686 121.658 83.9897 124.816C86.8108 127.974 90.3233 130.439 94.2533 132.016C98.1833 133.594 102.425 134.243 106.647 133.912C110.869 133.581 114.957 132.279 118.593 130.109C118.713 130.041 118.819 129.95 118.903 129.842C118.987 129.733 119.049 129.608 119.084 129.475C119.119 129.342 119.128 129.203 119.108 129.067C119.089 128.931 119.043 128.8 118.972 128.682C118.901 128.564 118.807 128.461 118.696 128.38C118.585 128.299 118.458 128.241 118.324 128.209C118.19 128.178 118.052 128.173 117.916 128.197C117.78 128.22 117.65 128.27 117.535 128.344C112.237 131.5 105.973 132.622 99.9097 131.501C93.8463 130.38 88.3974 127.093 84.5786 122.251C80.7598 117.41 78.8317 111.345 79.1538 105.188C79.4758 99.03 82.0259 93.1994 86.3289 88.7828C90.6318 84.3663 96.3939 81.6651 102.541 81.1827C108.688 80.7003 114.801 82.4697 119.741 86.1611C124.68 89.8524 128.108 95.2138 129.387 101.246C130.665 107.278 129.707 113.569 126.69 118.947C126.624 119.065 126.581 119.195 126.565 119.329C126.549 119.463 126.56 119.599 126.596 119.729C126.632 119.859 126.694 119.981 126.778 120.087C126.861 120.193 126.965 120.282 127.083 120.348C127.2 120.414 127.33 120.457 127.464 120.473C127.598 120.489 127.734 120.478 127.865 120.442C127.995 120.405 128.116 120.344 128.223 120.26C128.329 120.177 128.418 120.073 128.484 119.955C130.831 115.77 132.043 111.044 131.999 106.246C131.954 101.447 130.655 96.7442 128.23 92.6035C125.806 88.4628 122.34 85.0286 118.177 82.6422C114.014 80.2557 109.299 79.0001 104.5 79Z" fill="black" stroke="black" stroke-width="2"/>
<path d="M123.019 123.566C122.739 123.883 122.444 124.196 122.141 124.494C121.953 124.68 121.761 124.862 121.564 125.04C121.488 125.106 121.425 125.187 121.381 125.277C121.337 125.368 121.311 125.466 121.306 125.566C121.3 125.666 121.315 125.766 121.349 125.861C121.384 125.955 121.437 126.042 121.505 126.116C121.574 126.19 121.656 126.25 121.749 126.292C121.841 126.334 121.941 126.357 122.042 126.361C122.144 126.364 122.245 126.348 122.34 126.312C122.435 126.277 122.522 126.223 122.596 126.154C122.81 125.961 123.019 125.763 123.223 125.562C123.55 125.239 123.869 124.901 124.172 124.557C124.238 124.482 124.288 124.395 124.32 124.301C124.352 124.207 124.365 124.108 124.358 124.009C124.352 123.91 124.325 123.813 124.28 123.725C124.236 123.636 124.174 123.557 124.098 123.491C124.022 123.426 123.934 123.377 123.839 123.345C123.744 123.313 123.643 123.301 123.543 123.307C123.443 123.314 123.345 123.34 123.255 123.385C123.165 123.429 123.085 123.49 123.019 123.565V123.566Z" fill="black" stroke="black" stroke-width="2"/>
<path d="M58 63.998C74.5685 63.998 88 50.5666 88 33.998C88 17.4295 74.5685 3.99805 58 3.99805C41.4315 3.99805 28 17.4295 28 33.998C28 50.5666 41.4315 63.998 58 63.998Z" fill="#FFCDAC"/>
<path d="M3.43263 126.189C1.5361 126.189 0 124.654 0 122.76V114.309C0 97.1955 8.88622 80.7339 23.196 71.3352C39.3379 60.7365 62.019 58.6279 82.3831 65.8237C84.1724 66.4537 85.1078 68.4123 84.4727 70.1994C83.842 71.9823 81.8897 72.9209 80.0961 72.2866C61.9933 65.8923 41.1272 67.7651 26.9633 77.0652C14.5672 85.2082 6.86526 99.4798 6.86526 114.309V122.76C6.86526 124.654 5.32916 126.189 3.43263 126.189Z" fill="black"/>
<path d="M58.324 144C43.4178 144 28.5288 142.521 13.7856 139.569C11.9234 139.196 10.722 137.387 11.0953 135.531C11.4686 133.671 13.2836 132.476 15.1372 132.844C40.7146 137.966 66.7382 138.514 92.5087 134.464C94.3752 134.168 96.1387 135.446 96.4348 137.318C96.7266 139.187 95.4479 140.944 93.5771 141.236C81.8633 143.079 70.0894 143.996 58.3283 143.996L58.324 144Z" fill="black"/>
<path d="M14.4642 139.633C14.2411 139.633 14.0094 139.612 13.7863 139.565C5.79685 137.962 0 130.899 0 122.756C0 120.861 1.5361 119.327 3.43263 119.327C5.32916 119.327 6.86526 120.861 6.86526 122.756C6.86526 127.637 10.3451 131.88 15.1379 132.84C16.9958 133.213 18.2015 135.022 17.8239 136.877C17.4978 138.51 16.0647 139.633 14.4642 139.633Z" fill="black"/>
<path d="M58.1481 68.5362C55.0673 68.5362 52.0122 68.1162 49.0645 67.2934C32.1459 62.5533 21.3975 45.2945 24.5984 28.0101C27.7435 11.0427 43.9842 -1.47173 61.5335 0.139722C78.997 1.73831 92.6803 16.7342 92.6803 34.2758C92.6803 38.463 91.9294 42.5602 90.4534 46.4517C85.4289 59.6604 72.445 68.5405 58.1481 68.5405V68.5362ZM58.457 6.84695C45.3701 6.84695 33.7163 16.4771 31.3521 29.2444C28.7905 43.0831 37.3849 56.8875 50.9181 60.6804C53.2651 61.3405 55.698 61.6705 58.1438 61.6705C69.6087 61.6705 80.0096 54.5732 84.0301 44.0045C85.21 40.8974 85.8108 37.6187 85.8108 34.2673C85.8108 20.2357 74.8692 8.23553 60.8984 6.95409C60.0832 6.87695 59.2679 6.84266 58.4527 6.84266L58.457 6.84695Z" fill="black"/>
<path d="M92.6216 78.3038C91.9479 78.3038 91.2614 78.1066 90.6693 77.6952C87.3997 75.428 83.8469 73.6109 80.1011 72.2865C78.3118 71.6565 77.3764 69.698 78.0115 67.9108C78.6422 66.1236 80.5988 65.185 82.3881 65.8193C86.7089 67.3451 90.8109 69.4451 94.5868 72.0551C96.14 73.1351 96.5305 75.2694 95.4492 76.8295C94.7799 77.7895 93.7115 78.3038 92.6259 78.3038H92.6216Z" fill="black"/>
</svg>
