<svg width="246" height="48" viewBox="0 0 246 48" fill="none" xmlns="http://www.w3.org/2000/svg">
<path fill-rule="evenodd" clip-rule="evenodd" d="M43.2265 47.9807C38.6111 47.9807 34.0007 47.9807 29.3853 47.9807C28.6295 47.9807 28.7454 47.9756 28.4028 47.4365C26.5284 44.4687 24.6691 41.4909 22.7998 38.5181C21.6308 36.6588 20.4568 34.7995 19.2878 32.9403C19.2777 32.9252 19.2677 32.91 19.2576 32.8899C19.1518 32.7085 18.9956 32.5473 18.9805 32.3205C19.177 32.1341 19.4239 32.2248 19.6456 32.2248C21.4696 32.2147 23.2986 32.2248 25.1226 32.2248C25.2183 32.2248 25.3191 32.2248 25.4148 32.2248C25.6718 32.2097 25.8482 32.3104 25.9892 32.5422C26.4427 33.298 26.9214 34.0387 27.3849 34.7895C28.6043 36.7545 29.8186 38.7247 31.038 40.6948C31.2849 41.0928 31.5418 41.4909 31.7786 41.899C31.9248 42.1509 32.1263 42.2618 32.4085 42.2467C32.5042 42.2467 32.605 42.2467 32.7007 42.2467C37.1599 42.2467 41.6141 42.2467 46.0733 42.2467C46.2497 42.2467 46.426 42.2467 46.6024 42.2316C46.7283 42.2215 46.8089 42.0854 46.7636 41.9746C46.7334 41.904 46.6981 41.8335 46.6528 41.773C46.0028 40.8661 45.3477 39.9591 44.6927 39.0522C44.1888 38.3518 43.6799 37.6565 43.171 36.9561C42.1381 35.5251 41.1052 34.0941 40.0672 32.6632C40.032 32.6178 39.9917 32.5725 39.9564 32.5271C39.7246 32.1895 39.7196 32.1341 39.9463 31.7915C40.6719 30.6729 41.4025 29.5543 42.128 28.4408C42.5664 27.7656 43.0048 27.0904 43.4431 26.4203C43.5086 26.3195 43.5691 26.2238 43.6396 26.128C43.7706 25.9517 43.8613 25.9567 44.0024 26.1482C44.073 26.2439 44.1334 26.3447 44.1939 26.4455C45.6853 28.7985 47.1717 31.1516 48.6632 33.5046C50.7744 36.8352 52.8856 40.1607 54.9917 43.4912C55.7979 44.766 56.5991 46.0458 57.4052 47.3256C57.4758 47.4415 57.5614 47.5524 57.6219 47.6733C57.7076 47.8396 57.6118 47.9857 57.4204 47.9958C57.2642 48.0058 57.108 47.9958 56.9518 47.9958C52.3767 47.9958 47.8016 47.9958 43.2265 47.9958" fill="#E9751E"/>
<path fill-rule="evenodd" clip-rule="evenodd" d="M42.5773 23.9355C42.5873 24.1219 42.5067 24.2378 42.4362 24.3537C42.0533 24.9936 41.6703 25.6335 41.2874 26.2734C39.801 28.7423 38.3146 31.2163 36.8332 33.6852C35.7247 35.5344 34.6162 37.3836 33.5077 39.2328C33.4271 39.3688 33.3515 39.5049 33.2658 39.6359C33.0945 39.9029 32.9635 39.908 32.7922 39.651C32.4748 39.1572 32.1573 38.6584 31.8449 38.1646C31.1496 37.0712 30.4593 35.9778 29.764 34.8844C29.7136 34.8038 29.6632 34.7182 29.6078 34.6375C29.4768 34.4511 29.4919 34.2748 29.6078 34.0883C29.7539 33.8566 29.8899 33.6147 30.031 33.3829C31.588 30.8183 33.1399 28.2536 34.6968 25.6839C34.9286 25.2959 35.1553 24.9079 35.4022 24.53C35.5584 24.2882 35.5735 24.0765 35.4022 23.8296C35.1453 23.4568 34.9185 23.0688 34.6817 22.6859C32.9786 19.9801 31.2756 17.2744 29.5725 14.5686C29.1745 13.9388 28.7814 13.3089 28.3834 12.6741C28.3431 12.6086 28.3078 12.533 28.2625 12.4725C28.1466 12.3163 27.9853 12.3113 27.8745 12.4624C27.7939 12.5733 27.7183 12.6892 27.6477 12.8051C25.8338 15.6469 24.0249 18.4937 22.206 21.3355C21.6719 22.1669 21.8986 22.0762 20.8607 22.0762C19.0165 22.0762 17.1673 22.0762 15.3232 22.0762C15.172 22.0762 14.9806 22.1467 14.8848 21.9956C14.7538 21.7991 14.9705 21.6781 15.0561 21.5371C16.6635 18.9321 18.2758 16.3321 19.8933 13.7322C21.2386 11.5656 22.5839 9.39894 23.9292 7.23735C25.204 5.18662 26.4737 3.13589 27.7435 1.08516C27.7939 0.9995 27.8392 0.913843 27.8946 0.833224C28.0458 0.616562 28.1919 0.621601 28.333 0.843302C29.5171 2.76303 30.7062 4.67772 31.8903 6.59241C33.5631 9.29312 35.236 11.9938 36.9088 14.6946C38.7378 17.6422 40.5719 20.5948 42.406 23.5424C42.4916 23.6785 42.5622 23.8145 42.5873 23.9304" fill="#4FB817"/>
<path fill-rule="evenodd" clip-rule="evenodd" d="M13.111 47.8199C8.98936 47.8199 4.86774 47.8199 0.741086 47.8199C0.544578 47.8199 0.348071 47.8199 0.151563 47.8048C0.0104812 47.7947 -0.044944 47.6687 0.0407131 47.5478C0.458921 46.9532 0.781395 46.3032 1.14418 45.6734C2.47438 43.3657 3.79955 41.053 5.12471 38.7453C6.5305 36.2965 7.93124 33.8477 9.33199 31.3989C10.6269 29.1365 11.9067 26.8641 13.2168 24.6118C13.6148 23.9316 13.4486 23.9568 14.3656 23.9568C20.3163 23.9568 26.2619 23.9568 32.2125 23.9568C32.9784 23.9568 33.1144 23.8812 32.6458 24.7277C31.8296 26.2041 31.0385 27.6905 30.2424 29.1718C30.2071 29.2424 30.1769 29.3129 30.1315 29.3784C29.8393 29.8016 29.9905 29.8168 29.3405 29.8168C25.5514 29.8168 21.7623 29.8168 17.9733 29.8168C17.1923 29.8168 17.2779 29.7361 16.8547 30.4264C15.2222 33.0818 13.5997 35.7422 11.9722 38.4026C11.3071 39.491 10.637 40.5743 9.9719 41.6626C9.89128 41.7987 9.81066 41.9297 9.74012 42.0708C9.67966 42.1867 9.76027 42.3126 9.89128 42.3177C10.0475 42.3227 10.2037 42.3177 10.3599 42.3177H22.0798C22.0798 42.3177 22.1201 42.3177 22.1402 42.3177C22.8356 42.3177 22.7499 42.2774 23.1278 42.8518C24.1154 44.3583 25.108 45.8649 26.1006 47.3765C26.1309 47.4269 26.1712 47.4722 26.1964 47.5226C26.2619 47.6385 26.1964 47.7745 26.0704 47.7896C25.8739 47.8048 25.6774 47.8148 25.4859 47.8148C21.3643 47.8148 17.2427 47.8148 13.116 47.8148" fill="#5F4687"/>
<path fill-rule="evenodd" clip-rule="evenodd" d="M63.317 23.9762V1.04025C63.317 0.858861 63.3119 0.67747 63.322 0.501117C63.3422 0.259262 63.5387 0.0728314 63.7906 0.0224449C64.1887 -0.0480962 64.5162 0.0476382 64.6673 0.309648C64.7731 0.49104 64.8235 0.682508 64.8185 0.889093C64.8084 1.21157 64.8185 1.53908 64.8185 1.86155C64.8185 16.8818 64.8185 31.902 64.8185 46.9222C64.8185 47.1389 64.8538 47.3556 64.7479 47.5621C64.5968 47.8645 64.3549 47.9955 63.9619 47.9803C63.6042 47.9652 63.3573 47.7889 63.327 47.5067C63.3069 47.3253 63.317 47.1439 63.317 46.9676C63.317 39.3038 63.317 31.64 63.317 23.9762" fill="#707070"/>
<path fill-rule="evenodd" clip-rule="evenodd" d="M106.693 15.3462V22.6018C106.693 22.7883 106.698 22.9697 106.678 23.1561C106.562 24.2596 105.504 24.7584 104.522 24.3503C104.219 24.2243 103.977 24.0076 103.761 23.7658C103.312 23.2418 102.864 22.7177 102.42 22.1887C100.828 20.279 99.231 18.3744 97.6438 16.4648C96.6562 15.2807 95.6787 14.0916 94.6911 12.9024C94.5601 12.7462 94.4543 12.5598 94.2679 12.449C94.2024 12.4086 94.0512 12.4641 94.0462 12.5397C94.026 12.7462 94.0109 12.9528 94.0059 13.1544C94.0059 14.9532 94.0059 16.7469 94.0059 18.5457C94.0059 20.1127 94.0059 21.6798 94.0059 23.2468C94.0059 23.5491 93.9958 23.8414 93.8698 24.1235C93.6633 24.582 93.2753 24.8239 92.842 24.9751C92.6102 25.0557 92.3532 25.0204 92.1063 24.8995C91.4866 24.5972 91.1641 24.1134 91.154 23.4282C91.154 23.3576 91.154 23.2921 91.154 23.2216C91.1288 19.2814 91.1087 15.3462 91.0835 11.406C91.0784 10.4385 91.0784 9.47111 91.0684 8.50369C91.0684 8.22153 91.1238 7.96456 91.2195 7.69751C91.5521 6.78551 92.9024 6.54366 93.6028 7.19364C93.8195 7.39519 94.021 7.62193 94.2125 7.85371C94.9078 8.68508 95.5931 9.5215 96.2834 10.3478C97.4171 11.7083 98.5558 13.0687 99.6895 14.4291C100.395 15.2756 101.105 16.1272 101.806 16.9787C102.335 17.6186 102.859 18.2585 103.383 18.8984C103.428 18.9539 103.468 19.0143 103.529 19.0446C103.579 19.0748 103.655 19.0798 103.715 19.0697C103.746 19.0697 103.786 19.0042 103.786 18.9639C103.796 18.7574 103.801 18.5508 103.801 18.3442C103.801 14.8877 103.801 11.4312 103.801 7.97967C103.801 7.63201 103.801 7.29442 103.972 6.97194C104.3 6.34211 104.768 6.13553 105.524 6.20103C106.058 6.25142 106.517 6.6797 106.633 7.27426C106.683 7.52116 106.683 7.77813 106.688 8.03006C106.688 10.4738 106.688 12.9125 106.688 15.3563" fill="#707070"/>
<path fill-rule="evenodd" clip-rule="evenodd" d="M125.358 15.3342C125.358 17.7528 125.358 20.1764 125.358 22.5949C125.358 22.8015 125.378 23.0182 125.337 23.2147C125.111 24.2778 124.184 24.7414 123.176 24.3433C122.803 24.1922 122.516 23.9302 122.264 23.6279C121.81 23.0786 121.352 22.5294 120.893 21.9802C119.291 20.0454 117.694 18.1105 116.092 16.1807C115.124 15.0118 114.147 13.8428 113.174 12.6789C113.099 12.5882 113.028 12.5025 112.942 12.4219C112.897 12.3765 112.832 12.3312 112.761 12.3866C112.731 12.4118 112.69 12.4521 112.69 12.4874C112.68 12.6688 112.67 12.8552 112.67 13.0366C112.67 16.2865 112.67 19.5365 112.67 22.7864C112.67 23.0182 112.67 23.25 112.67 23.4767C112.65 24.1368 112.222 24.7212 111.602 24.948C111.426 25.0135 111.239 25.0135 111.053 24.9883C110.514 24.9127 109.934 24.3383 109.849 23.7941C109.818 23.5926 109.818 23.381 109.818 23.1744C109.798 20.2016 109.778 17.2288 109.758 14.256C109.748 12.3413 109.738 10.4316 109.723 8.51693C109.723 8.0433 109.808 7.60998 110.161 7.25223C110.781 6.61736 111.849 6.74333 112.287 7.222C112.66 7.63013 113.023 8.04834 113.376 8.47158C114.111 9.35839 114.837 10.2502 115.573 11.137C116.898 12.7292 118.233 14.3164 119.558 15.9086C120.354 16.866 121.145 17.8233 121.941 18.7807C121.972 18.8159 121.997 18.8512 122.032 18.8814C122.113 18.952 122.183 19.0578 122.324 18.9973C122.43 18.952 122.44 18.8562 122.445 18.7706C122.455 18.5892 122.455 18.4028 122.455 18.2163V8.11888C122.455 7.93245 122.445 7.75106 122.46 7.56463C122.486 7.23711 122.601 6.93983 122.798 6.67279C123.206 6.12861 123.781 6.11853 124.365 6.21931C124.834 6.29993 125.272 6.88441 125.342 7.44874C125.368 7.63013 125.353 7.81656 125.353 8.00299C125.353 10.4467 125.353 12.8905 125.353 15.3342" fill="#707070"/>
<path fill-rule="evenodd" clip-rule="evenodd" d="M207.473 15.8648V8.74521C207.473 8.55878 207.473 8.37739 207.473 8.19096C207.468 7.48051 207.957 6.91618 208.763 6.82549C209.237 6.77006 209.685 6.89099 210.017 7.26385C210.431 7.72741 210.839 8.196 211.237 8.67467C212.552 10.2467 213.857 11.8238 215.167 13.3959C216.638 15.1645 218.115 16.933 219.591 18.6966C219.712 18.8427 219.798 19.1148 220.054 18.9989C220.251 18.9082 220.18 18.6714 220.18 18.495C220.18 14.9931 220.18 11.4913 220.18 7.98942C220.18 7.69214 220.196 7.39486 220.261 7.09757C220.357 6.64913 220.977 6.18054 221.43 6.17046C222.382 6.15031 223.007 6.69448 223.047 7.64175C223.052 7.80299 223.047 7.96422 223.047 8.12546V22.4302C223.047 22.6166 223.047 22.798 223.047 22.9844C223.037 23.6294 222.705 24.0879 222.156 24.36C221.753 24.5565 221.304 24.5313 220.886 24.3449C220.523 24.1836 220.231 23.9317 219.974 23.6244C219.168 22.6469 218.356 21.6794 217.545 20.707C216.084 18.9586 214.623 17.2102 213.167 15.4567C212.371 14.5044 211.574 13.5471 210.778 12.5897C210.708 12.504 210.627 12.4184 210.542 12.3479C210.471 12.2924 210.38 12.3579 210.375 12.4033C210.35 12.6048 210.335 12.8164 210.335 13.018C210.335 16.3586 210.335 19.6992 210.335 23.0399C210.335 23.2263 210.325 23.4077 210.335 23.5941C210.355 24.1534 209.861 24.753 209.161 24.9697C208.924 25.0453 208.672 25.015 208.425 24.879C207.826 24.5565 207.493 24.098 207.503 23.3875C207.518 21.9112 207.498 20.4399 207.493 18.9636C207.493 17.9256 207.493 16.8927 207.493 15.8548H207.463L207.473 15.8648Z" fill="#707070"/>
<path fill-rule="evenodd" clip-rule="evenodd" d="M187.288 15.7341V8.26681C187.288 8.10558 187.288 7.94434 187.288 7.7831C187.303 7.12808 187.711 6.70483 188.361 6.69979C189.58 6.68971 190.805 6.69979 192.024 6.69979C194.261 6.69979 196.493 6.69979 198.73 6.70987C199.914 6.70987 200.978 7.10792 201.96 7.75791C202.776 8.30208 203.331 9.06292 203.648 9.96988C204.187 11.5167 204.323 13.109 204.081 14.7364C203.971 15.4872 203.819 16.2279 203.497 16.9283C203.069 17.8554 202.419 18.5809 201.587 19.1553C201.476 19.236 201.345 19.2964 201.24 19.377C201.088 19.498 201.068 19.6491 201.169 19.8003C201.235 19.896 201.31 19.9817 201.386 20.0673C202.555 21.4328 203.724 22.7983 204.893 24.1587C204.953 24.2293 205.029 24.2998 204.988 24.4006C204.938 24.5265 204.817 24.5417 204.701 24.5417C204.127 24.5417 203.547 24.5417 202.973 24.5417C202.625 24.5417 202.283 24.5366 201.935 24.5417C201.688 24.5417 201.497 24.461 201.335 24.2645C201.058 23.9269 200.751 23.6146 200.469 23.277C199.678 22.3448 198.881 21.4227 198.116 20.4704C197.854 20.148 197.566 20.0421 197.168 20.0421C195.44 20.0573 193.712 20.0522 191.984 20.0472C191.797 20.0472 191.616 20.0522 191.429 20.0421C190.956 20.0069 190.563 19.6592 190.467 19.1957C190.371 18.7271 190.598 18.2585 191.011 18.0267C191.288 17.8705 191.58 17.8654 191.883 17.8654C193.541 17.8654 195.203 17.8654 196.861 17.8654C197.32 17.8654 197.783 17.8554 198.242 17.8251C199.854 17.7143 200.942 16.9131 201.497 15.3764C201.809 14.5097 201.829 13.6128 201.774 12.7159C201.738 12.1667 201.693 11.6226 201.481 11.0935C200.978 9.80864 200.04 9.10827 198.695 8.93695C197.456 8.77572 196.211 8.84626 194.966 8.87649C193.767 8.90168 192.568 8.90168 191.374 8.91176C191.077 8.91176 190.774 8.90672 190.477 8.9168C190.155 8.93192 190.089 9.0075 190.074 9.34508C190.069 9.53152 190.074 9.71291 190.074 9.89934C190.074 14.3686 190.074 18.8429 190.074 23.3122C190.074 23.6851 190.064 24.0378 189.862 24.3804C189.429 25.111 188.421 25.3025 187.776 24.7634C187.414 24.461 187.272 24.0932 187.277 23.6146C187.293 20.9894 187.288 18.3592 187.288 15.7341" fill="#707070"/>
<path fill-rule="evenodd" clip-rule="evenodd" d="M167.223 13.153C167.223 11.7018 167.223 10.2507 167.223 8.79957C167.223 8.61314 167.223 8.43175 167.233 8.24532C167.253 7.48952 167.963 6.94031 168.659 6.94535C169.394 6.94535 170.024 7.61045 170.064 8.29067C170.075 8.47206 170.064 8.65849 170.064 8.84492C170.064 11.4499 170.075 14.0498 170.064 16.6548C170.064 17.5517 170.246 18.3932 170.654 19.1842C171.198 20.2524 172.035 21.0082 173.173 21.4164C174.498 21.89 175.859 22.0059 177.255 21.8245C177.895 21.7439 178.524 21.6431 179.134 21.4063C180.61 20.8218 181.447 19.7284 181.774 18.2017C181.971 17.2947 181.996 16.3827 181.976 15.4556C181.925 13.153 181.941 10.8503 181.93 8.54764C181.93 8.06393 182.051 7.64068 182.429 7.31317C183.079 6.7438 184.107 6.88992 184.571 7.67595C184.752 7.98331 184.813 8.31586 184.813 8.66857C184.803 9.49994 184.813 10.3263 184.813 11.1577C184.813 12.8406 184.797 14.5184 184.813 16.2014C184.818 17.2645 184.752 18.3226 184.535 19.3606C184.203 20.9881 183.457 22.3888 182.102 23.4066C181.452 23.8954 180.716 24.2229 179.945 24.4647C178.343 24.9585 176.695 25.1349 175.033 24.9736C173.284 24.8023 171.586 24.4295 170.115 23.3613C169.117 22.6357 168.407 21.6985 167.903 20.59C167.419 19.5218 167.223 18.3982 167.228 17.2343C167.238 15.8738 167.228 14.5184 167.228 13.158L167.223 13.153Z" fill="#707070"/>
<path fill-rule="evenodd" clip-rule="evenodd" d="M148.746 15.7895V8.18619C148.746 7.99976 148.736 7.81837 148.746 7.63194C148.781 7.12808 149.184 6.72498 149.673 6.69979C149.809 6.68971 149.95 6.69979 150.086 6.69979C153.22 6.69979 156.354 6.69979 159.488 6.69979C159.669 6.69979 159.856 6.69979 160.042 6.69979C161.126 6.69979 162.128 7.01219 163.06 7.53621C164.048 8.09046 164.693 8.94199 165.086 9.98499C165.635 11.4361 165.746 12.9528 165.575 14.4744C165.479 15.3108 165.293 16.1473 164.915 16.9283C164.204 18.4096 163.066 19.3468 161.504 19.8204C160.985 19.9766 160.476 20.0522 159.942 20.0522C157.684 20.0522 155.427 20.0522 153.17 20.0522C152.963 20.0522 152.741 20.0623 152.555 19.9867C152.142 19.8204 151.895 19.4778 151.875 19.0294C151.855 18.6112 152.026 18.2685 152.404 18.0519C152.63 17.9209 152.872 17.8705 153.129 17.8705C153.799 17.8755 154.465 17.8705 155.135 17.8705C156.47 17.8705 157.805 17.8705 159.145 17.8705C159.745 17.8705 160.33 17.805 160.899 17.5631C161.821 17.1752 162.461 16.5302 162.844 15.6182C163.06 15.1043 163.181 14.5702 163.202 14.0058C163.222 13.4062 163.237 12.8066 163.176 12.2121C163.111 11.6125 162.955 11.033 162.642 10.5141C162.098 9.60709 161.272 9.11331 160.244 8.94703C159.145 8.77068 158.037 8.86137 156.933 8.84626C156.425 8.84122 155.921 8.84626 155.412 8.85633C154.283 8.87145 153.155 8.89161 152.026 8.90672C151.955 8.90672 151.885 8.90672 151.819 8.9168C151.618 8.93695 151.517 9.02765 151.502 9.21408C151.487 9.42066 151.492 9.62725 151.492 9.83383C151.492 14.3283 151.492 18.8178 151.492 23.3122C151.492 23.7103 151.472 24.0882 151.245 24.4409C150.938 24.9196 150.499 25.0808 149.945 25.0556C149.396 25.0304 149.058 24.713 148.806 24.2797C148.7 24.0932 148.731 23.8766 148.731 23.67C148.731 22.4708 148.731 21.2716 148.731 20.0774V15.7895" fill="#707070"/>
<path fill-rule="evenodd" clip-rule="evenodd" d="M138.93 17.2704C139.414 17.2704 139.898 17.2704 140.382 17.2704C140.518 17.2704 140.659 17.2604 140.795 17.2452C140.896 17.2301 140.971 17.0739 140.936 16.9732C140.916 16.9077 140.89 16.8422 140.855 16.7817C139.963 15.0685 139.072 13.3554 138.175 11.6423C138.069 11.4407 137.877 11.4306 137.761 11.6423C137.454 12.2066 137.162 12.781 136.865 13.3554C135.323 16.3131 133.781 19.2758 132.239 22.2335C131.932 22.823 131.609 23.4126 131.312 24.0071C131.105 24.4152 130.783 24.6974 130.38 24.8939C130.047 25.0552 129.73 25.0501 129.397 24.8637C129.014 24.6521 128.752 24.3649 128.621 23.9416C128.521 23.6191 128.505 23.3118 128.662 23.0044C128.909 22.5106 129.14 22.0118 129.397 21.518C131.327 17.8045 133.262 14.091 135.197 10.3826C135.62 9.56634 136.099 8.77527 136.487 7.94389C136.965 6.90593 138.668 6.63384 139.379 7.81792C139.651 8.2714 139.888 8.74504 140.135 9.21363C142.054 12.8818 143.969 16.5549 145.884 20.2231C146.317 21.0595 146.735 21.906 147.174 22.7374C147.637 23.604 147.315 24.4757 146.483 24.8889C146.186 25.035 145.919 25.035 145.627 24.9191C145.158 24.7276 144.821 24.4001 144.589 23.9567C144.03 22.8734 143.465 21.7951 142.906 20.7118C142.851 20.6111 142.805 20.5053 142.74 20.4146C142.629 20.2584 142.478 20.1576 142.276 20.1626C142.115 20.1626 141.954 20.1626 141.792 20.1626C140.387 20.1626 138.981 20.1626 137.575 20.1626C137.368 20.1626 137.157 20.1677 136.955 20.1374C136.497 20.0669 136.149 19.8351 135.932 19.4068C135.555 18.6611 135.806 17.865 136.552 17.4821C136.824 17.341 137.111 17.2805 137.419 17.2805C137.928 17.2805 138.432 17.2805 138.941 17.2805L138.93 17.2704Z" fill="#707070"/>
<path fill-rule="evenodd" clip-rule="evenodd" d="M236.609 17.2691C237.093 17.2691 237.577 17.2691 238.061 17.2691C238.197 17.2691 238.338 17.2691 238.474 17.2389C238.595 17.2086 238.665 17.1079 238.63 16.9769C238.6 16.866 238.554 16.7602 238.504 16.6594C237.678 15.0672 236.851 13.475 236.025 11.8878C235.965 11.7669 235.889 11.646 235.803 11.5401C235.738 11.4595 235.632 11.4646 235.566 11.5452C235.471 11.6762 235.39 11.8122 235.32 11.9533C233.949 14.5835 232.574 17.2137 231.203 19.8438C230.533 21.1287 229.863 22.4136 229.203 23.7035C228.946 24.2023 228.633 24.6406 228.094 24.8825C227.777 25.0286 227.49 25.0437 227.177 24.8775C226.361 24.4391 226.094 23.7942 226.411 22.9124C226.502 22.6554 226.633 22.4085 226.759 22.1667C228.366 19.0881 229.984 16.0145 231.591 12.9409C232.377 11.4343 233.158 9.92274 233.944 8.41115C234.03 8.24991 234.11 8.08363 234.206 7.9224C234.856 6.82397 236.247 6.70304 237.028 7.72085C237.139 7.86697 237.224 8.02821 237.31 8.19448C238.927 11.2933 240.55 14.387 242.172 17.4858C243.054 19.1787 243.931 20.8717 244.807 22.5698C244.893 22.731 244.984 22.8973 245.029 23.0736C245.226 23.8597 244.898 24.555 244.173 24.9127C243.89 25.0538 243.598 25.0437 243.311 24.9127C242.832 24.691 242.495 24.3383 242.253 23.8647C241.734 22.8418 241.19 21.824 240.661 20.8062C240.615 20.7256 240.585 20.64 240.54 20.5593C240.404 20.2873 240.192 20.1462 239.875 20.1613C239.597 20.1714 239.32 20.1613 239.043 20.1613C237.778 20.1613 236.509 20.1613 235.239 20.1613C235.007 20.1613 234.78 20.1512 234.554 20.1109C233.959 20.0051 233.491 19.4105 233.45 18.8412C233.41 18.2869 233.667 17.8082 234.171 17.521C234.458 17.3598 234.76 17.2741 235.098 17.2792C235.602 17.2893 236.111 17.2792 236.62 17.2792L236.609 17.2691Z" fill="#707070"/>
<path fill-rule="evenodd" clip-rule="evenodd" d="M80.9365 17.2893C81.5109 17.2893 82.0903 17.2893 82.6647 17.2893C82.8612 17.2893 82.9519 17.1432 82.8612 16.9618C82.433 16.1203 81.9996 15.2839 81.5613 14.4475C81.138 13.6312 80.7047 12.82 80.2764 12.0038C80.2109 11.8828 80.1504 11.7569 80.0749 11.646C79.964 11.4898 79.7826 11.4898 79.6818 11.646C79.6063 11.7619 79.5408 11.8828 79.4803 12.0088C78.1652 14.5382 76.8451 17.0676 75.53 19.602C74.7742 21.0481 74.0184 22.4942 73.2676 23.9454C73.0611 24.3434 72.7688 24.6457 72.3607 24.8624C71.9727 25.0639 71.6402 25.0337 71.2572 24.8271C70.4309 24.3787 70.31 23.4516 70.6778 22.7411C72.6429 18.942 74.6281 15.1529 76.6083 11.3588C77.1625 10.3007 77.7117 9.23754 78.266 8.17942C78.4927 7.74609 78.7648 7.38331 79.2485 7.16665C79.9942 6.82402 80.9516 7.20192 81.2993 7.82167C81.4907 8.1643 81.6822 8.50693 81.8586 8.8546C83.2895 11.6107 84.7205 14.3719 86.1515 17.123C87.0836 18.9168 88.0309 20.7105 88.963 22.5043C89.0689 22.7059 89.1696 22.9175 89.2402 23.1341C89.482 23.9202 88.9328 24.8473 88.1317 24.9934C87.6278 25.0841 87.2549 24.8019 86.8972 24.5097C86.736 24.3787 86.6402 24.1872 86.5445 24.0058C86.0104 22.988 85.4713 21.9702 84.9372 20.9574C84.9069 20.897 84.8918 20.8264 84.8565 20.766C84.4887 20.1966 84.6097 20.1613 83.8337 20.1664C82.3826 20.1664 80.9314 20.1664 79.4803 20.1664C79.2737 20.1664 79.0621 20.1664 78.8605 20.1361C78.2509 20.0354 77.7974 19.592 77.7067 19.0176C77.5958 18.3424 77.8881 17.7831 78.4927 17.4757C78.7648 17.3347 79.0571 17.2742 79.3594 17.2843C79.4047 17.2843 79.4501 17.2843 79.4954 17.2843H80.9465V17.3044L80.9365 17.2893Z" fill="#707070"/>
<path fill-rule="evenodd" clip-rule="evenodd" d="M92.9188 35.5547C86.2123 35.5547 79.5059 35.5547 72.7994 35.5547C72.5676 35.5547 72.3359 35.5648 72.1091 35.5497C71.6053 35.5194 71.3685 35.2927 71.3332 34.8543C71.2929 34.3404 71.4894 34.0885 72.0739 33.9625C72.2704 33.9171 72.487 33.9474 72.6936 33.9474C80.3473 33.9474 87.996 33.9474 95.6447 33.9474H113.204C113.366 33.9474 113.527 33.9524 113.688 33.9474C113.88 33.9423 114.051 34.0028 114.212 34.0985C114.53 34.29 114.661 34.5722 114.6 34.9148C114.545 35.197 114.237 35.5043 113.935 35.5396C113.708 35.5648 113.476 35.5547 113.245 35.5547C106.468 35.5547 99.6958 35.5547 92.9188 35.5547Z" fill="#707070"/>
<path fill-rule="evenodd" clip-rule="evenodd" d="M222.174 35.5545C215.422 35.5545 208.67 35.5545 201.918 35.5545C201.712 35.5545 201.505 35.5645 201.299 35.5494C200.759 35.5041 200.437 35.0405 200.578 34.5165C200.679 34.1537 200.976 34.0227 201.299 33.9623C201.48 33.927 201.666 33.9471 201.848 33.9471C203.254 33.9471 204.659 33.9471 206.065 33.9471C218.138 33.9471 230.215 33.9471 242.288 33.9471C242.495 33.9471 242.701 33.9471 242.908 33.9471C243.286 33.9522 243.558 34.1487 243.779 34.4359C243.885 34.577 243.936 34.7432 243.86 34.8894C243.694 35.227 243.462 35.5192 243.044 35.5444C242.837 35.5595 242.631 35.5494 242.424 35.5494C235.672 35.5494 228.92 35.5494 222.169 35.5494" fill="#707070"/>
<path fill-rule="evenodd" clip-rule="evenodd" d="M162.063 35.0664C162.063 33.7311 162.063 32.3707 162.063 31.0153C162.063 30.9246 162.058 30.8289 162.073 30.7382C162.124 30.3754 162.265 30.0832 162.633 29.937C163.031 29.7758 163.353 29.9169 163.65 30.1638C163.721 30.2242 163.766 30.3049 163.827 30.3754C164.89 31.6502 165.953 32.9199 167.011 34.1947C167.54 34.8296 168.069 35.4695 168.598 36.1043C168.734 36.2605 168.876 36.4117 169.027 36.5578C169.133 36.6586 169.324 36.5881 169.334 36.4419C169.354 36.2353 169.359 36.0288 169.359 35.8222C169.359 34.1393 169.359 32.4564 169.359 30.7785C169.359 30.5266 169.359 30.2746 169.455 30.0328C169.621 29.6448 169.848 29.4785 170.241 29.4785C170.629 29.4785 170.866 29.6599 170.997 30.058C171.072 30.2797 171.093 30.5064 171.093 30.7382C171.093 33.4339 171.093 36.1295 171.093 38.8252C171.093 39.0318 171.077 39.2384 171.002 39.4349C170.79 39.9791 170.201 40.1957 169.697 39.8985C169.455 39.7574 169.274 39.5457 169.097 39.3291C167.525 37.4346 165.953 35.535 164.376 33.6404C164.255 33.4943 164.154 33.2273 163.902 33.3432C163.706 33.4339 163.792 33.6707 163.792 33.847C163.787 35.5299 163.792 37.2128 163.792 38.8907C163.792 39.1225 163.802 39.3543 163.761 39.581C163.64 40.231 163.111 40.3973 162.618 40.2108C162.33 40.1 162.169 39.8178 162.124 39.5054C162.099 39.324 162.109 39.1376 162.109 38.9562C162.094 37.6663 162.144 36.3764 162.063 35.0613" fill="#707070"/>
<path fill-rule="evenodd" clip-rule="evenodd" d="M145.527 34.7695C145.527 36.0845 145.527 37.3996 145.527 38.7097C145.527 38.8961 145.537 39.0825 145.512 39.2639C145.417 39.9038 144.767 40.2263 144.207 39.9089C144.006 39.798 143.834 39.6469 143.688 39.4604C143.31 38.9969 142.917 38.5434 142.534 38.0849C141.345 36.6489 140.156 35.2078 138.967 33.7718C138.891 33.6811 138.821 33.5955 138.74 33.5098C138.635 33.3989 138.539 33.1924 138.378 33.2427C138.141 33.3133 138.252 33.5551 138.252 33.7214C138.247 35.4749 138.252 37.2233 138.252 38.9767C138.252 39.1833 138.262 39.3949 138.231 39.5965C138.186 39.9139 138.015 40.1608 137.697 40.2515C137.314 40.3624 137.002 40.2414 136.785 39.9442C136.624 39.7325 136.579 39.4907 136.579 39.2287C136.579 38.4678 136.574 37.707 136.569 36.9462C136.569 35.0113 136.564 33.0714 136.559 31.1366C136.559 31.0207 136.559 30.9048 136.559 30.7889C136.559 30.3707 136.76 30.0886 137.138 29.9324C137.531 29.7711 137.859 29.9172 138.146 30.1792C138.231 30.2548 138.297 30.3506 138.373 30.4413C140.005 32.4063 141.643 34.3714 143.28 36.3365C143.381 36.4574 143.502 36.5683 143.618 36.6741C143.678 36.7245 143.829 36.664 143.839 36.5834C143.86 36.402 143.875 36.2206 143.875 36.0342C143.875 34.2807 143.875 32.5323 143.875 30.7788C143.875 30.5924 143.87 30.411 143.89 30.2246C143.93 29.8719 144.278 29.4335 144.736 29.4688C145.074 29.494 145.351 29.6754 145.467 30.0029C145.553 30.2498 145.543 30.5017 145.543 30.7537V34.7644" fill="#707070"/>
<path fill-rule="evenodd" clip-rule="evenodd" d="M154.889 35.4294C155.166 35.4294 155.443 35.4294 155.715 35.4294C155.861 35.4294 155.967 35.2833 155.937 35.1422C155.922 35.0767 155.907 35.0061 155.876 34.9457C155.458 34.1496 155.04 33.3585 154.622 32.5674C154.592 32.507 154.556 32.4465 154.516 32.3911C154.43 32.2701 154.259 32.2752 154.173 32.4062C154.108 32.5019 154.058 32.6027 154.007 32.7035C152.904 34.8247 151.795 36.941 150.687 39.0622C150.601 39.2235 150.505 39.3847 150.384 39.5208C150.137 39.818 149.734 39.8987 149.387 39.7374C149.16 39.6316 149.019 39.4603 148.989 39.2134C148.953 38.9312 148.994 38.6743 149.13 38.4173C149.775 37.1979 150.405 35.9685 151.039 34.7492C151.75 33.3837 152.46 32.0182 153.176 30.6527C153.337 30.3504 153.468 30.0279 153.74 29.7911C154.199 29.3931 154.753 29.4485 155.116 29.9372C155.211 30.0632 155.297 30.2043 155.368 30.3504C156.728 32.9604 158.083 35.5705 159.439 38.1805C159.524 38.3417 159.605 38.508 159.676 38.6793C159.837 39.0673 159.716 39.5157 159.399 39.7173C159.061 39.9289 158.527 39.8533 158.285 39.4956C158.028 39.1177 157.826 38.6995 157.605 38.2964C157.474 38.0545 157.363 37.8026 157.237 37.5557C157.086 37.2685 156.869 37.1173 156.521 37.1274C155.786 37.1476 155.05 37.1324 154.309 37.1375C154.078 37.1375 153.851 37.1375 153.629 37.0518C153.297 36.9309 153.085 36.6639 153.065 36.3414C153.045 35.9887 153.256 35.6763 153.594 35.5302C153.881 35.4042 154.178 35.4243 154.476 35.4243H154.889C154.889 35.4243 154.889 35.4395 154.889 35.4445" fill="#707070"/>
<path fill-rule="evenodd" clip-rule="evenodd" d="M180.243 39.8079C179.483 39.7928 178.656 39.7777 177.825 39.7575C177.261 39.7424 176.742 39.556 176.238 39.3242C175.2 38.8455 174.595 37.994 174.303 36.9308C173.925 35.5502 173.915 34.1394 174.303 32.7639C174.852 30.8341 176.464 29.7558 178.293 29.7256C179.79 29.7004 181.291 29.7205 182.788 29.7205C182.904 29.7205 183.02 29.7155 183.131 29.7356C183.393 29.786 183.594 29.9422 183.71 30.179C183.962 30.693 183.645 31.2976 183.07 31.3782C182.889 31.4034 182.702 31.3934 182.516 31.3934C181.271 31.3934 180.027 31.4034 178.782 31.3934C178.208 31.3833 177.684 31.5445 177.205 31.8216C176.51 32.2298 176.112 32.8747 175.956 33.6456C175.799 34.4165 175.794 35.2076 175.94 35.9836C176.172 37.2029 177.039 37.9789 178.178 38.0998C178.707 38.1552 179.236 38.1452 179.765 38.1401C180.707 38.1351 181.654 38.125 182.596 38.1149C182.828 38.1149 183.055 38.1099 183.272 38.2157C183.65 38.4021 183.806 38.6893 183.75 39.1176C183.7 39.4754 183.443 39.7323 183.06 39.7827C182.879 39.8079 182.692 39.8029 182.506 39.8029C182.138 39.8029 181.77 39.8029 181.397 39.8029C181.029 39.8029 180.662 39.8029 180.223 39.8029" fill="#707070"/>
<path fill-rule="evenodd" clip-rule="evenodd" d="M190.305 29.4688C191.434 29.4688 192.563 29.4738 193.691 29.4688C193.999 29.4688 194.215 29.5746 194.387 29.8265C194.785 30.4261 194.306 31.0307 193.832 31.0962C193.651 31.1214 193.465 31.1114 193.283 31.1114C191.787 31.1114 190.29 31.1114 188.789 31.1114C188.174 31.1114 188.159 31.1265 188.159 31.721C188.159 33.7264 188.159 35.7268 188.159 37.7321C188.159 38.362 188.169 38.367 188.834 38.367C190.285 38.367 191.736 38.367 193.187 38.367C193.349 38.367 193.51 38.367 193.671 38.367C193.918 38.367 194.115 38.4779 194.286 38.6441C194.528 38.8759 194.603 39.1631 194.487 39.4654C194.377 39.7526 194.165 39.9743 193.837 40.0197C193.701 40.0398 193.56 40.0348 193.424 40.0348C191.328 40.0348 189.232 40.0348 187.136 40.0348C186.995 40.0348 186.859 40.0348 186.723 40.0147C186.597 39.9995 186.516 39.9139 186.501 39.7879C186.486 39.672 186.491 39.5561 186.491 39.4453V30.0482C186.491 29.9323 186.491 29.8164 186.501 29.7056C186.511 29.5746 186.592 29.4939 186.718 29.4839C186.899 29.4687 187.086 29.4688 187.272 29.4688C188.285 29.4688 189.298 29.4688 190.31 29.4688H190.305Z" fill="#707070"/>
<path fill-rule="evenodd" clip-rule="evenodd" d="M121.14 29.503C121.301 29.4929 121.458 29.4677 121.614 29.4677C123.513 29.4677 125.408 29.4677 127.307 29.4677C127.509 29.4677 127.721 29.4375 127.917 29.5282C127.927 29.6743 128.038 29.77 128.098 29.891C128.355 30.3848 128.104 30.8282 127.554 30.8584C127.393 30.8685 127.232 30.8584 127.071 30.8584C125.761 30.8584 124.445 30.8534 123.135 30.8584C122.49 30.8584 122.385 30.9793 122.385 31.6343C122.385 33.8211 122.385 36.0029 122.385 38.1896C122.385 38.3509 122.385 38.5121 122.385 38.6733C122.385 38.9656 122.254 39.2024 122.052 39.409C121.896 39.5652 121.76 39.5954 121.558 39.4745C121.417 39.3939 121.301 39.278 121.125 39.2981H121.13C121.13 39.0261 121.14 38.7489 121.14 38.4768V29.4929" fill="#707070"/>
<path fill-rule="evenodd" clip-rule="evenodd" d="M133.248 34.6589C133.248 35.9941 133.248 37.3294 133.248 38.6646C133.248 38.8259 133.253 38.9871 133.243 39.1483C133.208 39.6068 132.885 39.9495 132.472 39.9747C132.064 40.0049 131.646 39.622 131.59 39.1685C131.575 39.0526 131.585 38.9367 131.585 38.8258V30.6128C131.585 30.497 131.58 30.3811 131.59 30.2702C131.666 29.6757 132.155 29.3381 132.729 29.5094C133.011 29.595 133.178 29.8268 133.228 30.114C133.258 30.2954 133.253 30.4818 133.253 30.6632C133.253 31.9985 133.253 33.3337 133.253 34.669" fill="#707070"/>
<path fill-rule="evenodd" clip-rule="evenodd" d="M121.125 39.309C121.301 39.2889 121.422 39.4047 121.558 39.4854C121.76 39.6063 121.896 39.5761 122.052 39.4199C122.254 39.2183 122.38 38.9765 122.385 38.6842C122.385 38.523 122.385 38.3617 122.385 38.2005C122.385 36.0137 122.385 33.827 122.385 31.6452C122.385 30.9902 122.49 30.8743 123.135 30.8693C124.445 30.8592 125.761 30.8693 127.071 30.8693C127.232 30.8693 127.393 30.8743 127.554 30.8693C128.104 30.834 128.355 30.3956 128.098 29.9018C128.038 29.7809 127.927 29.6852 127.917 29.5391C128.32 29.7507 128.522 30.053 128.476 30.3755C128.426 30.7131 128.008 31.1363 127.67 31.1212C127.509 31.1162 127.348 31.1212 127.186 31.1212C125.871 31.1212 124.561 31.1212 123.251 31.1212C122.667 31.1212 122.627 31.1665 122.621 31.751C122.616 32.5119 122.621 33.2727 122.621 34.0285C122.621 34.099 122.621 34.1645 122.627 34.2351C122.632 34.3258 122.642 34.4316 122.752 34.4417C122.803 34.4417 122.883 34.3963 122.914 34.351C123.13 33.9529 123.473 33.8622 123.901 33.8723C124.889 33.8925 125.881 33.8773 126.869 33.8773C127.081 33.8773 127.282 33.8874 127.464 34.0184C127.731 34.2149 127.912 34.6029 127.836 34.8548C127.731 35.2176 127.494 35.4544 127.126 35.53C126.97 35.5603 126.804 35.5502 126.642 35.5502C125.791 35.5502 124.939 35.5351 124.088 35.5552C123.599 35.5703 123.171 35.5048 122.883 35.0513C122.863 35.0211 122.803 35.006 122.763 35.011C122.687 35.0211 122.642 35.0765 122.637 35.1471C122.627 35.3083 122.621 35.4696 122.621 35.6308C122.621 36.6234 122.621 37.611 122.621 38.5986C122.621 38.8555 122.596 39.1024 122.445 39.3241C122.279 39.5609 122.072 39.7373 121.765 39.7373C121.468 39.7373 121.231 39.6113 121.125 39.314" fill="#707070"/>
<path fill-rule="evenodd" clip-rule="evenodd" d="M191.525 33.8778C192.079 33.8778 192.629 33.8627 193.183 33.8778C193.717 33.898 194.029 34.2607 193.989 34.7848C193.964 35.1123 193.687 35.4348 193.354 35.5154C193.243 35.5406 193.127 35.5456 193.012 35.5456C191.999 35.5456 190.986 35.5456 189.973 35.5456C189.736 35.5456 189.52 35.5204 189.323 35.3642C189.051 35.1425 188.915 34.8704 188.996 34.5177C189.066 34.2104 189.394 33.9131 189.731 33.8879C190.029 33.8677 190.331 33.8778 190.628 33.8778C190.926 33.8778 191.228 33.8778 191.525 33.8778Z" fill="#707070"/>
<path fill-rule="evenodd" clip-rule="evenodd" d="M121.139 29.5039C121.139 32.4969 121.139 35.4949 121.139 38.4878C121.139 38.7649 121.134 39.0421 121.129 39.3192C121.003 39.2739 120.963 39.168 120.953 39.0471C120.938 38.8405 120.928 38.6339 120.928 38.4274C120.928 35.641 120.928 32.8496 120.928 30.0632C120.928 29.9272 120.928 29.7861 120.943 29.65C120.953 29.5392 121.044 29.5089 121.139 29.5039" fill="#707070"/>
</svg>
