<svg width="24" height="24" viewBox="0 0 24 24" fill="none" xmlns="http://www.w3.org/2000/svg">
<path d="M12 0C14.3734 0 16.6934 0.703788 18.6668 2.02236C20.6402 3.34094 22.1783 5.21508 23.0865 7.4078C23.9948 9.60051 24.2324 12.0133 23.7694 14.3411C23.3064 16.6689 22.1635 18.807 20.4853 20.4853C18.807 22.1635 16.6689 23.3064 14.3411 23.7694C12.0133 24.2324 9.60051 23.9948 7.4078 23.0865C5.21508 22.1783 3.34094 20.6402 2.02236 18.6668C0.703788 16.6934 0 14.3734 0 12C0 8.8174 1.26428 5.76515 3.51472 3.51472C5.76515 1.26428 8.8174 0 12 0V0Z" fill="#442477"/>
<path d="M11 8L12.5 6.5C12.8283 6.1717 13.2181 5.91127 13.647 5.73359C14.076 5.55592 14.5357 5.46447 15 5.46447C15.4643 5.46447 15.924 5.55592 16.353 5.73359C16.7819 5.91127 17.1717 6.1717 17.5 6.5C17.8283 6.82831 18.0887 7.21806 18.2664 7.64701C18.4441 8.07596 18.5355 8.53571 18.5355 9C18.5355 9.46429 18.4441 9.92404 18.2664 10.353C18.0887 10.7819 17.8283 11.1717 17.5 11.5L16 13M13 16L11.5 17.5C11.1717 17.8283 10.7819 18.0887 10.353 18.2664C9.92404 18.4441 9.46429 18.5355 9 18.5355C8.06232 18.5355 7.16304 18.163 6.5 17.5C5.83696 16.837 5.46447 15.9377 5.46447 15C5.46447 14.0623 5.83696 13.163 6.5 12.5L8 11" stroke="white" stroke-width="1.905" stroke-linecap="round" stroke-linejoin="round"/>
<path d="M10 13.9998L14 9.99976" stroke="white" stroke-width="1.905" stroke-linecap="round" stroke-linejoin="round"/>
</svg>
