<svg width="1440" height="100" viewBox="0 0 1440 100" fill="none" xmlns="http://www.w3.org/2000/svg">
<path d="M0 0H720V100H10C4.47716 100 0 95.5229 0 90V0Z" fill="#442477"/>
<mask id="mask0_632_65915" style="mask-type:alpha" maskUnits="userSpaceOnUse" x="0" y="0" width="720" height="100">
<path d="M0 0H720V100H10C4.47716 100 0 95.5229 0 90V0Z" fill="url(#paint0_linear_632_65915)"/>
</mask>
<g mask="url(#mask0_632_65915)">
<g opacity="0.2">
<path opacity="0.2" d="M232.941 -12.2808H287.027L-19.4625 110.932H-73.5488L232.941 -12.2808Z" fill="white"/>
<path opacity="0.2" d="M141.005 -15.3997H195.091L-111.398 107.813H-165.484L141.005 -15.3997Z" fill="white"/>
<path opacity="0.2" d="M346.265 -12.2808H400.351L93.8618 110.932H39.7754L346.265 -12.2808Z" fill="white"/>
<path opacity="0.2" d="M459.589 -12.2808H513.675L207.186 110.932H153.1L459.589 -12.2808Z" fill="white"/>
<path opacity="0.2" d="M572.913 -12.2808H627L320.51 110.932H266.424L572.913 -12.2808Z" fill="white"/>
<path opacity="0.2" d="M686.235 -12.2808H740.322L433.832 110.932H379.746L686.235 -12.2808Z" fill="white"/>
<path opacity="0.2" d="M769.069 -2.729H823.156L516.666 120.484H462.58L769.069 -2.729Z" fill="white"/>
<path opacity="0.2" d="M830.036 6.62769H884.123L577.633 129.84H523.547L830.036 6.62769Z" fill="white"/>
</g>
<g opacity="0.2">
<path opacity="0.2" d="M485.7 -12.2808H431.614L738.103 110.932H792.189L485.7 -12.2808Z" fill="white"/>
<path opacity="0.2" d="M577.636 -15.3997H523.549L830.039 107.813H884.125L577.636 -15.3997Z" fill="white"/>
<path opacity="0.2" d="M372.376 -12.2808H318.289L624.779 110.932H678.865L372.376 -12.2808Z" fill="white"/>
<path opacity="0.2" d="M259.052 -12.2808H204.965L511.455 110.932H565.541L259.052 -12.2808Z" fill="white"/>
<path opacity="0.2" d="M145.727 -12.2808H91.6411L398.13 110.932H452.217L145.727 -12.2808Z" fill="white"/>
<path opacity="0.2" d="M32.4052 -12.2808H-21.6812L284.808 110.932H338.895L32.4052 -12.2808Z" fill="white"/>
<path opacity="0.2" d="M-50.4288 -2.729H-104.515L201.974 120.484H256.061L-50.4288 -2.729Z" fill="white"/>
<path opacity="0.2" d="M-111.396 6.62769H-165.482L141.007 129.84H195.094L-111.396 6.62769Z" fill="white"/>
</g>
</g>
<path d="M720 0H1440V90C1440 95.5228 1435.52 100 1430 100H720V0Z" fill="#442477"/>
<mask id="mask1_632_65915" style="mask-type:alpha" maskUnits="userSpaceOnUse" x="720" y="0" width="720" height="100">
<path d="M720 0H1440V90C1440 95.5228 1435.52 100 1430 100H720V0Z" fill="url(#paint1_linear_632_65915)"/>
</mask>
<g mask="url(#mask1_632_65915)">
<g opacity="0.2">
<path opacity="0.2" d="M951.145 -11.5591C952.331 -12.0358 953.614 -12.2808 954.892 -12.2808C965.893 -12.2808 969.279 2.89423 959.072 6.99755L702.333 110.21C701.147 110.687 699.864 110.932 698.586 110.932C687.585 110.932 684.199 95.7569 694.406 91.6535L951.145 -11.5591Z" fill="white"/>
<path opacity="0.2" d="M859.21 -14.678C860.396 -15.1547 861.679 -15.3997 862.957 -15.3997C873.958 -15.3997 877.344 -0.224662 867.137 3.87866L610.397 107.091C609.211 107.568 607.928 107.813 606.65 107.813C595.649 107.813 592.263 92.638 602.47 88.5346L859.21 -14.678Z" fill="white"/>
<path opacity="0.2" d="M1064.47 -11.5591C1065.66 -12.0358 1066.94 -12.2808 1068.22 -12.2808C1079.22 -12.2808 1082.6 2.89423 1072.4 6.99755L815.657 110.21C814.471 110.687 813.188 110.932 811.91 110.932C800.909 110.932 797.523 95.7569 807.73 91.6535L1064.47 -11.5591Z" fill="white"/>
<path opacity="0.2" d="M1177.79 -11.5591C1178.98 -12.0358 1180.26 -12.2808 1181.54 -12.2808C1192.54 -12.2808 1195.93 2.89423 1185.72 6.99755L928.981 110.21C927.795 110.687 926.512 110.932 925.234 110.932C914.233 110.932 910.847 95.7569 921.054 91.6535L1177.79 -11.5591Z" fill="white"/>
<path opacity="0.2" d="M1291.12 -11.5591C1292.3 -12.0358 1293.59 -12.2808 1294.86 -12.2808C1305.87 -12.2808 1309.25 2.89423 1299.05 6.99755L1042.31 110.21C1041.12 110.687 1039.84 110.932 1038.56 110.932C1027.56 110.932 1024.17 95.7569 1034.38 91.6535L1291.12 -11.5591Z" fill="white"/>
<path opacity="0.2" d="M1404.44 -11.5591C1405.63 -12.0358 1406.91 -12.2808 1408.19 -12.2808C1419.19 -12.2808 1422.57 2.89423 1412.37 6.99755L1155.63 110.21C1154.44 110.687 1153.16 110.932 1151.88 110.932C1140.88 110.932 1137.49 95.7569 1147.7 91.6535L1404.44 -11.5591Z" fill="white"/>
<path opacity="0.2" d="M1487.27 -2.00732C1488.46 -2.48402 1489.74 -2.729 1491.02 -2.729C1502.02 -2.729 1505.41 12.446 1495.2 16.5493L1238.46 119.762C1237.28 120.239 1235.99 120.484 1234.71 120.484C1223.71 120.484 1220.33 105.309 1230.53 101.205L1487.27 -2.00732Z" fill="white"/>
<path opacity="0.2" d="M1548.24 7.34937C1549.43 6.87267 1550.71 6.62769 1551.99 6.62769C1562.99 6.62769 1566.38 21.8027 1556.17 25.906L1299.43 129.119C1298.24 129.595 1296.96 129.84 1295.68 129.84C1284.68 129.84 1281.29 114.665 1291.5 110.562L1548.24 7.34937Z" fill="white"/>
</g>
<g opacity="0.2">
<path opacity="0.2" d="M1207.5 -11.5591C1206.31 -12.0358 1205.03 -12.2808 1203.75 -12.2808C1192.75 -12.2808 1189.36 2.89423 1199.57 6.99755L1456.31 110.21C1457.49 110.687 1458.78 110.932 1460.05 110.932C1471.06 110.932 1474.44 95.7569 1464.23 91.6535L1207.5 -11.5591Z" fill="white"/>
<path opacity="0.2" d="M1299.43 -14.678C1298.24 -15.1547 1296.96 -15.3997 1295.68 -15.3997C1284.68 -15.3997 1281.3 -0.224662 1291.5 3.87866L1548.24 107.091C1549.43 107.568 1550.71 107.813 1551.99 107.813C1562.99 107.813 1566.38 92.638 1556.17 88.5346L1299.43 -14.678Z" fill="white"/>
<path opacity="0.2" d="M1094.17 -11.5591C1092.99 -12.0358 1091.7 -12.2808 1090.42 -12.2808C1079.42 -12.2808 1076.04 2.89423 1086.24 6.99755L1342.98 110.21C1344.17 110.687 1345.45 110.932 1346.73 110.932C1357.73 110.932 1361.12 95.7569 1350.91 91.6535L1094.17 -11.5591Z" fill="white"/>
<path opacity="0.2" d="M980.847 -11.5591C979.661 -12.0358 978.378 -12.2808 977.1 -12.2808C966.099 -12.2808 962.713 2.89423 972.92 6.99755L1229.66 110.21C1230.85 110.687 1232.13 110.932 1233.41 110.932C1244.41 110.932 1247.79 95.7569 1237.59 91.6535L980.847 -11.5591Z" fill="white"/>
<path opacity="0.2" d="M867.523 -11.5591C866.337 -12.0358 865.054 -12.2808 863.776 -12.2808C852.775 -12.2808 849.389 2.89423 859.596 6.99755L1116.34 110.21C1117.52 110.687 1118.8 110.932 1120.08 110.932C1131.08 110.932 1134.47 95.7569 1124.26 91.6535L867.523 -11.5591Z" fill="white"/>
<path opacity="0.2" d="M754.2 -11.5591C753.015 -12.0358 751.732 -12.2808 750.453 -12.2808C739.453 -12.2808 736.066 2.89423 746.273 6.99755L1003.01 110.21C1004.2 110.687 1005.48 110.932 1006.76 110.932C1017.76 110.932 1021.15 95.7569 1010.94 91.6535L754.2 -11.5591Z" fill="white"/>
<path opacity="0.2" d="M671.366 -2.00732C670.181 -2.48402 668.898 -2.729 667.62 -2.729C656.619 -2.729 653.232 12.446 663.439 16.5493L920.179 119.762C921.365 120.239 922.648 120.484 923.926 120.484C934.927 120.484 938.313 105.309 928.106 101.205L671.366 -2.00732Z" fill="white"/>
<path opacity="0.2" d="M610.4 7.34937C609.214 6.87267 607.931 6.62769 606.653 6.62769C595.652 6.62769 592.266 21.8027 602.473 25.906L859.212 129.119C860.398 129.595 861.681 129.84 862.959 129.84C873.96 129.84 877.346 114.665 867.139 110.562L610.4 7.34937Z" fill="white"/>
</g>
</g>
<defs>
<linearGradient id="paint0_linear_632_65915" x1="708.387" y1="2.24171" x2="625.569" y2="283.924" gradientUnits="userSpaceOnUse">
<stop stop-color="#442477"/>
<stop offset="1" stop-color="#4201A9"/>
</linearGradient>
<linearGradient id="paint1_linear_632_65915" x1="1428.39" y1="2.24171" x2="1345.57" y2="283.924" gradientUnits="userSpaceOnUse">
<stop stop-color="#442477"/>
<stop offset="1" stop-color="#4201A9"/>
</linearGradient>
</defs>
</svg>
