<svg width="57" height="52" viewBox="0 0 57 52" fill="none" xmlns="http://www.w3.org/2000/svg">
<path d="M19.95 0L14.7345 5.68907H5.7C2.565 5.68907 0 8.24915 0 11.3781V45.5126C0 48.6415 2.565 51.2016 5.7 51.2016H51.3C54.435 51.2016 57 48.6415 57 45.5126V11.3781C57 8.24915 54.435 5.68907 51.3 5.68907H42.2655L37.05 0H19.95ZM28.5 42.668C20.634 42.668 14.25 36.2963 14.25 28.4453C14.25 20.5944 20.634 14.2227 28.5 14.2227C36.366 14.2227 42.75 20.5944 42.75 28.4453C42.75 36.2963 36.366 42.668 28.5 42.668Z" fill="#E6E9EE"/>
</svg>
