<svg width="34" height="31" viewBox="0 0 34 31" fill="none" xmlns="http://www.w3.org/2000/svg">
<path d="M17.0025 22.4462C20.0069 22.4462 22.4425 20.0099 22.4425 17.0046C22.4425 13.9993 20.0069 11.563 17.0025 11.563C13.9981 11.563 11.5625 13.9993 11.5625 17.0046C11.5625 20.0099 13.9981 22.4462 17.0025 22.4462Z" fill="white"/>
<path d="M14.2046 0C12.7363 0 11.3355 0.61707 10.3445 1.7005C9.35345 2.78394 7.95271 3.40101 6.48438 3.40101H3.4C1.53 3.40101 0 4.93146 0 6.80201V27.2081C0 29.0786 1.53 30.6091 3.4 30.6091H30.6C32.47 30.6091 34 29.0786 34 27.2081V6.80201C34 4.93146 32.47 3.40101 30.6 3.40101H27.5156C26.0473 3.40101 24.6465 2.78394 23.6555 1.7005C22.6645 0.61707 21.2637 0 19.7954 0H14.2046ZM17 25.5076C12.308 25.5076 8.5 21.6984 8.5 17.005C8.5 12.3116 12.308 8.50252 17 8.50252C21.692 8.50252 25.5 12.3116 25.5 17.005C25.5 21.6984 21.692 25.5076 17 25.5076Z" fill="white"/>
</svg>
