<svg width="34" height="31" viewBox="0 0 34 31" fill="none" xmlns="http://www.w3.org/2000/svg">
<path d="M17.0025 22.5453C20.0069 22.5453 22.4425 20.109 22.4425 17.1037C22.4425 14.0984 20.0069 11.6621 17.0025 11.6621C13.9981 11.6621 11.5625 14.0984 11.5625 17.1037C11.5625 20.109 13.9981 22.5453 17.0025 22.5453Z" fill="#442477"/>
<path d="M14.2046 0.0996094C12.7363 0.0996094 11.3355 0.716679 10.3445 1.80011C9.35345 2.88355 7.95271 3.50062 6.48438 3.50062H3.4C1.53 3.50062 0 5.03107 0 6.90162V27.3077C0 29.1782 1.53 30.7087 3.4 30.7087H30.6C32.47 30.7087 34 29.1782 34 27.3077V6.90162C34 5.03107 32.47 3.50062 30.6 3.50062H27.5156C26.0473 3.50062 24.6465 2.88355 23.6555 1.80011C22.6645 0.716679 21.2637 0.0996094 19.7954 0.0996094H14.2046ZM17 25.6072C12.308 25.6072 8.5 21.798 8.5 17.1046C8.5 12.4113 12.308 8.60213 17 8.60213C21.692 8.60213 25.5 12.4113 25.5 17.1046C25.5 21.798 21.692 25.6072 17 25.6072Z" fill="#442477"/>
</svg>
