<svg width="139" height="146" viewBox="0 0 139 146" fill="none" xmlns="http://www.w3.org/2000/svg">
<path d="M105.463 143.054H2.94531V2.94617H105.463V143.054Z" fill="white"/>
<path d="M50.5428 60.561C51.5863 61.5949 52.1725 62.9973 52.1725 64.4596C52.1668 64.7519 52.137 65.0432 52.0835 65.3307L63.3157 71.3956C63.9556 70.8163 64.7248 70.3955 65.5605 70.1678C66.3961 69.94 67.2744 69.9117 68.1232 70.0852L73.8617 60.6001C73.0334 59.6213 72.5779 58.3856 72.5745 57.1082C72.5745 56.0178 72.9009 54.9518 73.5123 54.0451C74.1237 53.1384 74.9927 52.4317 76.0094 52.0144C77.0261 51.5971 78.1449 51.4879 79.2242 51.7007C80.3036 51.9134 81.295 52.4385 82.0732 53.2096C82.8514 53.9807 83.3813 54.9631 83.596 56.0326C83.8107 57.1021 83.7005 58.2107 83.2794 59.2182C82.8582 60.2256 82.145 61.0867 81.23 61.6926C80.315 62.2984 79.2392 62.6218 78.1387 62.6218C77.7649 62.622 77.392 62.5844 77.0259 62.5096L71.2873 71.9947C72.1157 72.9735 72.5712 74.2092 72.5745 75.4866C72.5745 76.9489 71.9883 78.3513 70.9448 79.3853C69.9013 80.4192 68.4861 81.0001 67.0103 81.0001C65.5346 81.0001 64.1194 80.4192 63.0759 79.3853C62.0324 78.3513 61.4462 76.9489 61.4462 75.4866C61.4519 75.1943 61.4817 74.903 61.5352 74.6155L50.3029 68.5506C49.4557 69.3243 48.382 69.8106 47.2372 69.9391C46.0924 70.0677 44.9361 69.8318 43.9357 69.2655L35.0645 77.0929C35.3374 77.7494 35.4785 78.4523 35.4799 79.1623C35.4799 80.2528 35.1536 81.3187 34.5422 82.2254C33.9308 83.1321 33.0618 83.8388 32.0451 84.2561C31.0284 84.6734 29.9096 84.7826 28.8302 84.5699C27.7509 84.3571 26.7594 83.832 25.9813 83.0609C25.2031 82.2899 24.6732 81.3074 24.4585 80.2379C24.2438 79.1684 24.354 78.0598 24.7751 77.0524C25.1963 76.0449 25.9094 75.1838 26.8245 74.578C27.7395 73.9721 28.8153 73.6488 29.9158 73.6488C30.853 73.6548 31.7731 73.8984 32.5884 74.3563L41.4596 66.529C41.1867 65.8725 41.0456 65.1696 41.0441 64.4596C41.0441 62.9973 41.6304 61.5949 42.6738 60.561C43.7173 59.527 45.1326 58.9461 46.6083 58.9461C48.084 58.9461 49.4993 59.527 50.5428 60.561Z" fill="black"/>
<path d="M28.8848 80.6905C29.1899 80.8924 29.5484 81.0002 29.9153 81.0002C30.4072 81.0002 30.8789 80.8066 31.2268 80.4619C31.5746 80.1173 31.77 79.6498 31.77 79.1624C31.77 78.7989 31.6612 78.4436 31.4574 78.1414C31.2536 77.8391 30.964 77.6036 30.625 77.4645C30.2861 77.3254 29.9132 77.289 29.5534 77.3599C29.1937 77.4308 28.8632 77.6058 28.6038 77.8628C28.3444 78.1199 28.1678 78.4473 28.0962 78.8039C28.0246 79.1604 28.0614 79.5299 28.2017 79.8657C28.3421 80.2015 28.5798 80.4886 28.8848 80.6905Z" fill="#FF5046"/>
<path d="M45.5774 65.9878C45.8824 66.1897 46.241 66.2975 46.6078 66.2975C47.0997 66.2975 47.5715 66.1039 47.9193 65.7592C48.2672 65.4146 48.4626 64.9471 48.4626 64.4597C48.4626 64.0962 48.3538 63.7409 48.15 63.4387C47.9462 63.1364 47.6565 62.9009 47.3176 62.7618C46.9787 62.6227 46.6058 62.5863 46.246 62.6572C45.8862 62.7281 45.5557 62.9031 45.2964 63.1602C45.037 63.4172 44.8603 63.7446 44.7888 64.1012C44.7172 64.4577 44.7539 64.8272 44.8943 65.163C45.0347 65.4988 45.2724 65.7859 45.5774 65.9878Z" fill="#FF5046"/>
<path d="M79.1687 55.5802C78.8637 55.3783 78.5051 55.2705 78.1382 55.2705C77.6463 55.2705 77.1746 55.4641 76.8267 55.8088C76.4789 56.1535 76.2835 56.6209 76.2835 57.1083C76.2835 57.4718 76.3923 57.8272 76.5961 58.1294C76.7999 58.4316 77.0896 58.6672 77.4285 58.8063C77.7674 58.9454 78.1403 58.9818 78.5001 58.9109C78.8599 58.84 79.1903 58.6649 79.4497 58.4079C79.7091 58.1509 79.8858 57.8234 79.9573 57.4669C80.0289 57.1104 79.9922 56.7409 79.8518 56.405C79.7114 56.0692 79.4737 55.7822 79.1687 55.5802Z" fill="#FF5046"/>
<path d="M68.0403 73.9586C67.7353 73.7567 67.3767 73.6489 67.0099 73.6489C66.518 73.6489 66.0462 73.8425 65.6984 74.1872C65.3505 74.5318 65.1551 74.9993 65.1551 75.4867C65.1551 75.8502 65.2639 76.2055 65.4677 76.5078C65.6715 76.81 65.9612 77.0456 66.3001 77.1847C66.639 77.3238 67.0119 77.3602 67.3717 77.2892C67.7315 77.2183 68.062 77.0433 68.3214 76.7863C68.5808 76.5292 68.7574 76.2018 68.829 75.8453C68.9005 75.4888 68.8638 75.1192 68.7234 74.7834C68.583 74.4476 68.3453 74.1606 68.0403 73.9586Z" fill="#FF5046"/>
<path d="M28.8848 80.6905C29.1899 80.8924 29.5484 81.0002 29.9153 81.0002C30.4072 81.0002 30.8789 80.8066 31.2268 80.4619C31.5746 80.1173 31.77 79.6498 31.77 79.1624C31.77 78.7989 31.6612 78.4436 31.4574 78.1414C31.2536 77.8391 30.964 77.6036 30.625 77.4645C30.2861 77.3254 29.9132 77.289 29.5534 77.3599C29.1937 77.4308 28.8632 77.6058 28.6038 77.8628C28.3444 78.1199 28.1678 78.4473 28.0962 78.8039C28.0246 79.1604 28.0614 79.5299 28.2017 79.8657C28.3421 80.2015 28.5798 80.4886 28.8848 80.6905Z" stroke="#FF5046" stroke-width="2"/>
<path d="M45.5774 65.9878C45.8824 66.1897 46.241 66.2975 46.6078 66.2975C47.0997 66.2975 47.5715 66.1039 47.9193 65.7592C48.2672 65.4146 48.4626 64.9471 48.4626 64.4597C48.4626 64.0962 48.3538 63.7409 48.15 63.4387C47.9462 63.1364 47.6565 62.9009 47.3176 62.7618C46.9787 62.6227 46.6058 62.5863 46.246 62.6572C45.8862 62.7281 45.5557 62.9031 45.2964 63.1602C45.037 63.4172 44.8603 63.7446 44.7888 64.1012C44.7172 64.4577 44.7539 64.8272 44.8943 65.163C45.0347 65.4988 45.2724 65.7859 45.5774 65.9878Z" stroke="#FF5046" stroke-width="2"/>
<path d="M79.1687 55.5802C78.8637 55.3783 78.5051 55.2705 78.1382 55.2705C77.6463 55.2705 77.1746 55.4641 76.8267 55.8088C76.4789 56.1535 76.2835 56.6209 76.2835 57.1083C76.2835 57.4718 76.3923 57.8272 76.5961 58.1294C76.7999 58.4316 77.0896 58.6672 77.4285 58.8063C77.7674 58.9454 78.1403 58.9818 78.5001 58.9109C78.8599 58.84 79.1903 58.6649 79.4497 58.4079C79.7091 58.1509 79.8858 57.8234 79.9573 57.4669C80.0289 57.1104 79.9922 56.7409 79.8518 56.405C79.7114 56.0692 79.4737 55.7822 79.1687 55.5802Z" stroke="#FF5046" stroke-width="2"/>
<path d="M68.0403 73.9586C67.7353 73.7567 67.3767 73.6489 67.0099 73.6489C66.518 73.6489 66.0462 73.8425 65.6984 74.1872C65.3505 74.5318 65.1551 74.9993 65.1551 75.4867C65.1551 75.8502 65.2639 76.2055 65.4677 76.5078C65.6715 76.81 65.9612 77.0456 66.3001 77.1847C66.639 77.3238 67.0119 77.3602 67.3717 77.2892C67.7315 77.2183 68.062 77.0433 68.3214 76.7863C68.5808 76.5292 68.7574 76.2018 68.829 75.8453C68.9005 75.4888 68.8638 75.1192 68.7234 74.7834C68.583 74.4476 68.3453 74.1606 68.0403 73.9586Z" stroke="#FF5046" stroke-width="2"/>
<path d="M68.664 116.232C46.9543 130.604 24.1052 139.595 3.25586 143.054H105.464V84.3619C95.4376 95.8186 83.0388 106.716 68.664 116.232Z" fill="#A5DDFF" fill-opacity="0.2"/>
<path d="M26.2972 33.1125V18.8739C18.4334 18.8739 12.0586 25.2487 12.0586 33.1125C12.0586 40.9763 18.4334 47.3511 26.2972 47.3511C34.1613 47.3511 40.5358 40.9763 40.5358 33.1125H26.2972Z" fill="#FFA71C"/>
<path d="M26.2969 18.874V33.1125H40.5355C40.5355 25.2487 34.161 18.874 26.2969 18.874Z" fill="#95E540"/>
<path opacity="0.3" d="M13.1973 133.941H26.8664V124.829H13.1973V133.941Z" fill="#A5DDFF"/>
<path opacity="0.3" d="M35.9785 133.941H49.6474V111.16H35.9785V133.941Z" fill="#FFA71C"/>
<path d="M49.6474 127.329C45.0917 129.648 40.5265 131.737 35.9785 133.594V133.941H49.6474V127.329Z" fill="#FFA71C"/>
<path opacity="0.3" d="M58.7617 133.941H72.4306V94.0732H58.7617V133.941Z" fill="#FF5046"/>
<path d="M72.4306 113.668C71.1888 114.532 69.9368 115.389 68.664 116.232C65.3857 118.402 62.0809 120.448 58.7617 122.372V133.942H72.4306V113.668Z" fill="#FF5046"/>
<path d="M2.94531 103.378V2.94605H105.464V18.3523" stroke="black" stroke-width="4" stroke-miterlimit="10" stroke-linecap="round" stroke-linejoin="round"/>
<path d="M105.464 28.2189V143.054H2.94531V113.245" stroke="black" stroke-width="4" stroke-miterlimit="10" stroke-linecap="round" stroke-linejoin="round"/>
<path d="M136.645 108.296C136.645 94.8485 125.744 83.9475 112.297 83.9475C98.8502 83.9475 87.9492 94.8485 87.9492 108.296C87.9492 121.743 98.8502 132.644 112.297 132.644C125.744 132.644 136.645 121.743 136.645 108.296Z" fill="#95E540"/>
<path d="M122.759 99.0736L109.686 112.147L102.835 105.296C102.523 104.983 102.151 104.735 101.743 104.566C101.335 104.396 100.897 104.309 100.455 104.309C100.013 104.309 99.5749 104.396 99.1665 104.565C98.758 104.734 98.3869 104.982 98.0742 105.295C97.7616 105.608 97.5135 105.979 97.3443 106.387C97.1751 106.795 97.0879 107.233 97.0879 107.675C97.0878 108.117 97.1749 108.555 97.344 108.964C97.5131 109.372 97.761 109.743 98.0736 110.056L107.305 119.287C107.617 119.599 107.988 119.847 108.396 120.017C108.805 120.186 109.242 120.273 109.684 120.273C110.126 120.273 110.564 120.186 110.972 120.017C111.381 119.847 111.752 119.599 112.064 119.287L127.518 103.837C128.15 103.206 128.504 102.35 128.504 101.457C128.505 100.564 128.15 99.7083 127.519 99.077C126.888 98.4458 126.032 98.0911 125.139 98.0911C124.246 98.091 123.39 98.4456 122.759 99.0767L122.759 99.0736Z" fill="white" stroke="black" stroke-width="0.5"/>
<path d="M125.138 96.75C124.52 96.7482 123.908 96.8691 123.337 97.1057C122.766 97.3423 122.248 97.6898 121.812 98.1282C121.812 98.1283 121.812 98.1283 121.812 98.1283L109.684 110.255L103.778 104.349C102.896 103.467 101.7 102.972 100.453 102.972C99.2054 102.972 98.0092 103.467 97.1273 104.349C96.2454 105.231 95.7499 106.428 95.75 107.675C95.7501 108.922 96.2456 110.118 97.1276 111L106.359 120.231L106.359 120.231C107.241 121.113 108.437 121.608 109.684 121.608C110.931 121.608 112.127 121.113 113.009 120.231L113.009 120.231L128.463 104.778L128.286 104.601L128.463 104.778C129.12 104.12 129.568 103.282 129.75 102.37C129.931 101.458 129.838 100.512 129.482 99.6532C129.126 98.794 128.524 98.0596 127.75 97.5428C126.977 97.0261 126.068 96.7502 125.138 96.75ZM125.138 96.75C125.138 96.75 125.138 96.75 125.138 96.75L125.138 97L125.139 96.75C125.139 96.75 125.138 96.75 125.138 96.75ZM99.0186 109.11L99.0186 109.11L108.248 118.338C108.635 118.707 109.149 118.912 109.684 118.912C110.219 118.912 110.733 118.707 111.12 118.338L126.572 102.888L99.0186 109.11ZM99.0186 109.11C98.6381 108.73 98.4242 108.214 98.4241 107.675M99.0186 109.11L98.4241 107.675M98.4241 107.675C98.424 107.137 98.6376 106.621 99.0181 106.241M98.4241 107.675L99.0181 106.241M99.0181 106.241C99.3985 105.86 99.9145 105.646 100.453 105.646M99.0181 106.241L100.453 105.646M100.453 105.646C100.991 105.646 101.507 105.86 101.887 106.24M100.453 105.646L101.887 106.24M101.887 106.24C101.887 106.24 101.887 106.24 101.887 106.24M101.887 106.24L101.887 106.24M101.887 106.24L108.738 113.091L101.887 106.24ZM109.172 113.381C109.01 113.314 108.863 113.216 108.738 113.091L109.172 113.381ZM109.172 113.381C109.334 113.449 109.508 113.483 109.684 113.483M109.172 113.381L109.684 113.483M109.684 113.483C109.86 113.483 110.034 113.449 110.196 113.381M109.684 113.483L110.196 113.381M110.196 113.381C110.358 113.314 110.505 113.216 110.63 113.091M110.196 113.381L110.63 113.091M110.63 113.091C110.63 113.091 110.63 113.091 110.63 113.091M110.63 113.091L110.63 113.091M110.63 113.091L123.701 100.02C124.088 99.6513 124.603 99.4458 125.137 99.4458C125.672 99.4458 126.186 99.6512 126.573 100.02C126.952 100.4 127.165 100.915 127.165 101.452C127.165 101.99 126.952 102.506 126.572 102.887L110.63 113.091Z" fill="black" stroke="black" stroke-width="0.5"/>
<path d="M112.297 83C108.401 82.9997 104.558 83.8992 101.068 85.6283C97.5767 87.3574 94.5324 89.8694 92.172 92.9685C89.8116 96.0676 88.1989 99.67 87.4596 103.495C86.7204 107.32 86.8745 111.264 87.9101 115.019C88.9457 118.775 90.8346 122.24 93.4297 125.145C96.0248 128.051 99.2559 130.318 102.871 131.769C106.486 133.22 110.388 133.817 114.272 133.513C118.155 133.208 121.916 132.011 125.261 130.014C125.371 129.952 125.468 129.869 125.546 129.768C125.623 129.668 125.68 129.554 125.713 129.431C125.745 129.309 125.753 129.181 125.735 129.056C125.717 128.931 125.674 128.81 125.609 128.701C125.544 128.593 125.458 128.498 125.356 128.424C125.253 128.349 125.137 128.296 125.014 128.267C124.891 128.238 124.763 128.234 124.638 128.255C124.513 128.277 124.394 128.323 124.287 128.391C119.414 131.294 113.652 132.326 108.074 131.295C102.497 130.264 97.4843 127.24 93.9714 122.786C90.4586 118.333 88.685 112.754 88.9812 107.09C89.2774 101.425 91.6233 96.0618 95.5815 91.9991C99.5397 87.9364 104.84 85.4516 110.495 85.0078C116.15 84.5641 121.773 86.1917 126.316 89.5874C130.86 92.983 134.014 97.9149 135.19 103.464C136.366 109.013 135.484 114.8 132.709 119.747C132.648 119.855 132.609 119.974 132.594 120.098C132.579 120.221 132.589 120.346 132.623 120.466C132.656 120.586 132.713 120.698 132.79 120.795C132.867 120.893 132.962 120.975 133.07 121.036C133.179 121.096 133.298 121.135 133.421 121.15C133.545 121.165 133.67 121.155 133.79 121.122C133.909 121.088 134.021 121.031 134.119 120.955C134.217 120.878 134.298 120.782 134.359 120.674C136.519 116.824 137.634 112.477 137.593 108.063C137.552 103.649 136.357 99.3227 134.126 95.5137C131.896 91.7047 128.707 88.5456 124.878 86.3504C121.048 84.1551 116.711 83.0001 112.297 83Z" fill="black" stroke="black" stroke-width="2"/>
<path d="M129.333 123.996C129.076 124.288 128.804 124.575 128.525 124.849C128.352 125.021 128.175 125.188 127.994 125.352C127.924 125.413 127.867 125.487 127.826 125.57C127.785 125.653 127.762 125.743 127.757 125.835C127.752 125.927 127.765 126.02 127.797 126.106C127.828 126.193 127.877 126.273 127.94 126.341C128.003 126.409 128.079 126.464 128.164 126.503C128.249 126.542 128.341 126.563 128.434 126.566C128.528 126.57 128.621 126.555 128.708 126.522C128.796 126.489 128.876 126.44 128.943 126.376C129.14 126.198 129.333 126.017 129.52 125.831C129.821 125.534 130.115 125.224 130.394 124.907C130.454 124.838 130.501 124.758 130.53 124.672C130.559 124.585 130.571 124.494 130.565 124.403C130.559 124.312 130.534 124.223 130.493 124.141C130.452 124.06 130.395 123.987 130.325 123.927C130.256 123.867 130.175 123.821 130.087 123.792C129.999 123.763 129.907 123.751 129.815 123.758C129.723 123.764 129.633 123.788 129.55 123.829C129.467 123.869 129.393 123.926 129.333 123.994V123.996Z" fill="black" stroke="black" stroke-width="2"/>
<path d="M26.2969 18.874V33.1125H40.5355" stroke="black" stroke-width="4" stroke-miterlimit="10" stroke-linecap="round" stroke-linejoin="round"/>
<path d="M40.5358 33.1125C40.5358 40.9763 34.1613 47.3511 26.2972 47.3511C18.4337 47.3511 12.0586 40.9763 12.0586 33.1125C12.0586 25.2487 18.4337 18.8739 26.2972 18.8739C34.1613 18.8739 40.5358 25.2487 40.5358 33.1125Z" stroke="black" stroke-width="4" stroke-miterlimit="10" stroke-linecap="round" stroke-linejoin="round"/>
<path d="M13.1973 133.941H26.8664V124.829H13.1973V133.941Z" stroke="black" stroke-width="4" stroke-miterlimit="10" stroke-linecap="round" stroke-linejoin="round"/>
<path d="M35.9785 133.941H49.6474V111.16H35.9785V133.941Z" stroke="black" stroke-width="4" stroke-miterlimit="10" stroke-linecap="round" stroke-linejoin="round"/>
<path d="M58.7617 133.941H72.4306V94.0732H58.7617V133.941Z" stroke="black" stroke-width="4" stroke-miterlimit="10" stroke-linecap="round" stroke-linejoin="round"/>
<path d="M54.5137 28.2434H96.66" stroke="#95E540" stroke-width="4" stroke-miterlimit="10" stroke-linecap="round" stroke-linejoin="round"/>
<path d="M54.5137 38.3264H79.5738" stroke="#FFA71C" stroke-width="4" stroke-miterlimit="10" stroke-linecap="round" stroke-linejoin="round"/>
</svg>
