<svg width="140" height="146" viewBox="0 0 140 146" fill="none" xmlns="http://www.w3.org/2000/svg">
<path d="M105.463 143.054H2.94531V2.94617H105.463V143.054Z" fill="white"/>
<path d="M50.5428 60.561C51.5863 61.5949 52.1725 62.9973 52.1725 64.4596C52.1668 64.7519 52.137 65.0432 52.0835 65.3307L63.3157 71.3956C63.9556 70.8163 64.7248 70.3955 65.5605 70.1678C66.3961 69.94 67.2744 69.9117 68.1232 70.0852L73.8617 60.6001C73.0334 59.6213 72.5779 58.3856 72.5745 57.1082C72.5745 56.0178 72.9009 54.9518 73.5123 54.0451C74.1237 53.1384 74.9927 52.4317 76.0094 52.0144C77.0261 51.5971 78.1449 51.4879 79.2242 51.7007C80.3036 51.9134 81.295 52.4385 82.0732 53.2096C82.8514 53.9807 83.3813 54.9631 83.596 56.0326C83.8107 57.1021 83.7005 58.2107 83.2794 59.2182C82.8582 60.2256 82.145 61.0867 81.23 61.6926C80.315 62.2984 79.2392 62.6218 78.1387 62.6218C77.7649 62.622 77.392 62.5844 77.0259 62.5096L71.2873 71.9947C72.1157 72.9735 72.5712 74.2092 72.5745 75.4866C72.5745 76.9489 71.9883 78.3513 70.9448 79.3853C69.9013 80.4192 68.4861 81.0001 67.0103 81.0001C65.5346 81.0001 64.1194 80.4192 63.0759 79.3853C62.0324 78.3513 61.4462 76.9489 61.4462 75.4866C61.4519 75.1943 61.4817 74.903 61.5352 74.6155L50.3029 68.5506C49.4557 69.3243 48.382 69.8106 47.2372 69.9391C46.0924 70.0677 44.9361 69.8318 43.9357 69.2655L35.0645 77.0929C35.3374 77.7494 35.4785 78.4523 35.4799 79.1623C35.4799 80.2528 35.1536 81.3187 34.5422 82.2254C33.9308 83.1321 33.0618 83.8388 32.0451 84.2561C31.0284 84.6734 29.9096 84.7826 28.8302 84.5699C27.7509 84.3571 26.7594 83.832 25.9813 83.0609C25.2031 82.2899 24.6732 81.3074 24.4585 80.2379C24.2438 79.1684 24.354 78.0598 24.7751 77.0524C25.1963 76.0449 25.9094 75.1838 26.8245 74.578C27.7395 73.9721 28.8153 73.6488 29.9158 73.6488C30.853 73.6548 31.7731 73.8984 32.5884 74.3563L41.4596 66.529C41.1867 65.8725 41.0456 65.1696 41.0441 64.4596C41.0441 62.9973 41.6304 61.5949 42.6738 60.561C43.7173 59.527 45.1326 58.9461 46.6083 58.9461C48.084 58.9461 49.4993 59.527 50.5428 60.561Z" fill="black"/>
<path d="M28.8848 80.6905C29.1899 80.8924 29.5484 81.0002 29.9153 81.0002C30.4072 81.0002 30.8789 80.8066 31.2268 80.4619C31.5746 80.1173 31.77 79.6498 31.77 79.1624C31.77 78.7989 31.6612 78.4436 31.4574 78.1414C31.2536 77.8391 30.964 77.6036 30.625 77.4645C30.2861 77.3254 29.9132 77.289 29.5534 77.3599C29.1937 77.4308 28.8632 77.6058 28.6038 77.8628C28.3444 78.1199 28.1678 78.4473 28.0962 78.8039C28.0246 79.1604 28.0614 79.5299 28.2017 79.8657C28.3421 80.2015 28.5798 80.4886 28.8848 80.6905Z" fill="#FF5046"/>
<path d="M45.5774 65.9878C45.8824 66.1897 46.241 66.2975 46.6078 66.2975C47.0997 66.2975 47.5715 66.1039 47.9193 65.7592C48.2672 65.4146 48.4626 64.9471 48.4626 64.4597C48.4626 64.0962 48.3538 63.7409 48.15 63.4387C47.9462 63.1364 47.6565 62.9009 47.3176 62.7618C46.9787 62.6227 46.6058 62.5863 46.246 62.6572C45.8862 62.7281 45.5557 62.9031 45.2964 63.1602C45.037 63.4172 44.8603 63.7446 44.7888 64.1012C44.7172 64.4577 44.7539 64.8272 44.8943 65.163C45.0347 65.4988 45.2724 65.7859 45.5774 65.9878Z" fill="#FF5046"/>
<path d="M79.1687 55.5802C78.8637 55.3783 78.5051 55.2705 78.1382 55.2705C77.6463 55.2705 77.1746 55.4641 76.8267 55.8088C76.4789 56.1535 76.2835 56.6209 76.2835 57.1083C76.2835 57.4718 76.3923 57.8272 76.5961 58.1294C76.7999 58.4316 77.0896 58.6672 77.4285 58.8063C77.7674 58.9454 78.1403 58.9818 78.5001 58.9109C78.8599 58.84 79.1903 58.6649 79.4497 58.4079C79.7091 58.1509 79.8858 57.8234 79.9573 57.4669C80.0289 57.1104 79.9922 56.7409 79.8518 56.405C79.7114 56.0692 79.4737 55.7822 79.1687 55.5802Z" fill="#FF5046"/>
<path d="M68.0403 73.9586C67.7353 73.7567 67.3767 73.6489 67.0099 73.6489C66.518 73.6489 66.0462 73.8425 65.6984 74.1872C65.3505 74.5318 65.1551 74.9993 65.1551 75.4867C65.1551 75.8502 65.2639 76.2055 65.4677 76.5078C65.6715 76.81 65.9612 77.0456 66.3001 77.1847C66.639 77.3238 67.0119 77.3602 67.3717 77.2892C67.7315 77.2183 68.062 77.0433 68.3214 76.7863C68.5808 76.5292 68.7574 76.2018 68.829 75.8453C68.9005 75.4888 68.8638 75.1192 68.7234 74.7834C68.583 74.4476 68.3453 74.1606 68.0403 73.9586Z" fill="#FF5046"/>
<path d="M28.8848 80.6905C29.1899 80.8924 29.5484 81.0002 29.9153 81.0002C30.4072 81.0002 30.8789 80.8066 31.2268 80.4619C31.5746 80.1173 31.77 79.6498 31.77 79.1624C31.77 78.7989 31.6612 78.4436 31.4574 78.1414C31.2536 77.8391 30.964 77.6036 30.625 77.4645C30.2861 77.3254 29.9132 77.289 29.5534 77.3599C29.1937 77.4308 28.8632 77.6058 28.6038 77.8628C28.3444 78.1199 28.1678 78.4473 28.0962 78.8039C28.0246 79.1604 28.0614 79.5299 28.2017 79.8657C28.3421 80.2015 28.5798 80.4886 28.8848 80.6905Z" stroke="#FF5046" stroke-width="2"/>
<path d="M45.5774 65.9878C45.8824 66.1897 46.241 66.2975 46.6078 66.2975C47.0997 66.2975 47.5715 66.1039 47.9193 65.7592C48.2672 65.4146 48.4626 64.9471 48.4626 64.4597C48.4626 64.0962 48.3538 63.7409 48.15 63.4387C47.9462 63.1364 47.6565 62.9009 47.3176 62.7618C46.9787 62.6227 46.6058 62.5863 46.246 62.6572C45.8862 62.7281 45.5557 62.9031 45.2964 63.1602C45.037 63.4172 44.8603 63.7446 44.7888 64.1012C44.7172 64.4577 44.7539 64.8272 44.8943 65.163C45.0347 65.4988 45.2724 65.7859 45.5774 65.9878Z" stroke="#FF5046" stroke-width="2"/>
<path d="M79.1687 55.5802C78.8637 55.3783 78.5051 55.2705 78.1382 55.2705C77.6463 55.2705 77.1746 55.4641 76.8267 55.8088C76.4789 56.1535 76.2835 56.6209 76.2835 57.1083C76.2835 57.4718 76.3923 57.8272 76.5961 58.1294C76.7999 58.4316 77.0896 58.6672 77.4285 58.8063C77.7674 58.9454 78.1403 58.9818 78.5001 58.9109C78.8599 58.84 79.1903 58.6649 79.4497 58.4079C79.7091 58.1509 79.8858 57.8234 79.9573 57.4669C80.0289 57.1104 79.9922 56.7409 79.8518 56.405C79.7114 56.0692 79.4737 55.7822 79.1687 55.5802Z" stroke="#FF5046" stroke-width="2"/>
<path d="M68.0403 73.9586C67.7353 73.7567 67.3767 73.6489 67.0099 73.6489C66.518 73.6489 66.0462 73.8425 65.6984 74.1872C65.3505 74.5318 65.1551 74.9993 65.1551 75.4867C65.1551 75.8502 65.2639 76.2055 65.4677 76.5078C65.6715 76.81 65.9612 77.0456 66.3001 77.1847C66.639 77.3238 67.0119 77.3602 67.3717 77.2892C67.7315 77.2183 68.062 77.0433 68.3214 76.7863C68.5808 76.5292 68.7574 76.2018 68.829 75.8453C68.9005 75.4888 68.8638 75.1192 68.7234 74.7834C68.583 74.4476 68.3453 74.1606 68.0403 73.9586Z" stroke="#FF5046" stroke-width="2"/>
<path d="M68.664 116.232C46.9543 130.604 24.1052 139.595 3.25586 143.054H105.464V84.3619C95.4376 95.8186 83.0388 106.716 68.664 116.232Z" fill="#A5DDFF" fill-opacity="0.2"/>
<path d="M26.2972 33.1125V18.8739C18.4334 18.8739 12.0586 25.2487 12.0586 33.1125C12.0586 40.9763 18.4334 47.3511 26.2972 47.3511C34.1613 47.3511 40.5358 40.9763 40.5358 33.1125H26.2972Z" fill="#FFA71C"/>
<path d="M26.2969 18.874V33.1125H40.5355C40.5355 25.2487 34.161 18.874 26.2969 18.874Z" fill="#95E540"/>
<path opacity="0.3" d="M13.1973 133.941H26.8664V124.829H13.1973V133.941Z" fill="#A5DDFF"/>
<path opacity="0.3" d="M35.9785 133.941H49.6474V111.16H35.9785V133.941Z" fill="#FFA71C"/>
<path d="M49.6474 127.329C45.0917 129.648 40.5265 131.737 35.9785 133.594V133.941H49.6474V127.329Z" fill="#FFA71C"/>
<path opacity="0.3" d="M58.7617 133.941H72.4306V94.0732H58.7617V133.941Z" fill="#FF5046"/>
<path d="M72.4306 113.668C71.1888 114.532 69.9368 115.389 68.664 116.232C65.3857 118.402 62.0809 120.448 58.7617 122.372V133.942H72.4306V113.668Z" fill="#FF5046"/>
<path d="M2.94531 103.378V2.94605H105.464V18.3523" stroke="black" stroke-width="4" stroke-miterlimit="10" stroke-linecap="round" stroke-linejoin="round"/>
<path d="M105.464 28.2189V143.054H2.94531V113.245" stroke="black" stroke-width="4" stroke-miterlimit="10" stroke-linecap="round" stroke-linejoin="round"/>
<path d="M136.59 110.295C136.59 124.265 125.265 135.59 111.295 135.59C97.325 135.59 86 124.265 86 110.295C86 96.3249 97.325 85.0002 111.295 85.0002C125.265 85.0002 136.59 96.3249 136.59 110.295Z" fill="#FF5046"/>
<path d="M107.5 112.293C107.5 114.521 109.384 116.188 111.531 116.188C113.678 116.188 115.562 114.521 115.562 112.293V97.3944C115.562 95.1661 113.678 93.5 111.531 93.5C109.384 93.5 107.5 95.1661 107.5 97.3944V112.293Z" fill="white" stroke="black" stroke-width="3"/>
<path d="M111.531 128.562C113.758 128.562 115.562 126.758 115.562 124.531C115.562 122.305 113.758 120.5 111.531 120.5C109.305 120.5 107.5 122.305 107.5 124.531C107.5 126.758 109.305 128.562 111.531 128.562Z" fill="white" stroke="black" stroke-width="3"/>
<path d="M111.294 85.0001C109.521 85.0001 107.79 85.1843 106.119 85.5317C117.607 87.9205 126.239 98.0988 126.239 110.295C126.239 122.491 117.607 132.67 106.119 135.058C107.79 135.406 109.521 135.59 111.294 135.59C125.264 135.59 136.589 124.265 136.589 110.295C136.589 96.3251 125.264 85.0001 111.294 85.0001Z" fill="#FF5046"/>
<path d="M133.221 97.6745C135.364 101.389 136.59 105.699 136.59 110.295C136.59 124.265 125.265 135.59 111.295 135.59C97.325 135.59 86 124.265 86 110.295C86 96.3249 97.325 85.0002 111.295 85.0002C116.347 85.0002 121.053 86.4809 125.002 89.0322" stroke="black" stroke-width="5" stroke-miterlimit="10" stroke-linecap="round" stroke-linejoin="round"/>
<path d="M26.2969 18.874V33.1125H40.5355" stroke="black" stroke-width="4" stroke-miterlimit="10" stroke-linecap="round" stroke-linejoin="round"/>
<path d="M40.5358 33.1125C40.5358 40.9763 34.1613 47.3511 26.2972 47.3511C18.4337 47.3511 12.0586 40.9763 12.0586 33.1125C12.0586 25.2487 18.4337 18.8739 26.2972 18.8739C34.1613 18.8739 40.5358 25.2487 40.5358 33.1125Z" stroke="black" stroke-width="4" stroke-miterlimit="10" stroke-linecap="round" stroke-linejoin="round"/>
<path d="M13.1973 133.941H26.8664V124.829H13.1973V133.941Z" stroke="black" stroke-width="4" stroke-miterlimit="10" stroke-linecap="round" stroke-linejoin="round"/>
<path d="M35.9785 133.941H49.6474V111.16H35.9785V133.941Z" stroke="black" stroke-width="4" stroke-miterlimit="10" stroke-linecap="round" stroke-linejoin="round"/>
<path d="M58.7617 133.941H72.4306V94.0732H58.7617V133.941Z" stroke="black" stroke-width="4" stroke-miterlimit="10" stroke-linecap="round" stroke-linejoin="round"/>
<path d="M54.5137 28.2434H96.66" stroke="#95E540" stroke-width="4" stroke-miterlimit="10" stroke-linecap="round" stroke-linejoin="round"/>
<path d="M54.5137 38.3264H79.5738" stroke="#FFA71C" stroke-width="4" stroke-miterlimit="10" stroke-linecap="round" stroke-linejoin="round"/>
</svg>
