<svg width="23" height="24" viewBox="0 0 23 24" fill="none" xmlns="http://www.w3.org/2000/svg">
<path d="M3.41987 23.5526C3.28104 23.5526 3.14428 23.4961 3.03912 23.3867C2.86524 23.206 2.82057 22.9241 2.92778 22.6914L4.72913 18.7928C2.08519 18.5578 0 16.1534 0 13.2328V6.25682C0 3.18009 2.31336 0.676758 5.15592 0.676758H17.5481C20.3921 0.676758 22.7054 3.18009 22.7054 6.25682V13.2321C22.7054 16.3088 20.3921 18.8114 17.5481 18.8114H11.494L3.68516 23.4775C3.602 23.5273 3.51059 23.5518 3.41987 23.5518V23.5526ZM5.15592 1.8667C2.91885 1.8667 1.09964 3.83604 1.09964 6.25682V13.2321C1.09964 15.6529 2.91954 17.6215 5.15592 17.6215H5.60952C5.7999 17.6215 5.97722 17.7286 6.07756 17.9033C6.1779 18.0781 6.18683 18.2975 6.10161 18.482L4.70232 21.5096L11.0864 17.6951C11.1675 17.6468 11.2589 17.6207 11.3524 17.6207H17.5481C19.7852 17.6207 21.6058 15.6514 21.6058 13.2313V6.25682C21.6058 3.83604 19.7859 1.8667 17.5481 1.8667H5.15592Z" fill="#A9A9A9"/>
<path d="M7.91864 10.6964C8.40417 10.171 8.40417 9.3192 7.91864 8.79379C7.43311 8.26839 6.64591 8.26839 6.16038 8.79379C5.67485 9.3192 5.67485 10.171 6.16038 10.6964C6.64591 11.2218 7.43311 11.2218 7.91864 10.6964Z" fill="#A9A9A9"/>
<path d="M11.8268 10.9877C12.4611 10.7033 12.7624 9.91633 12.4996 9.22986C12.2369 8.54339 11.5096 8.2174 10.8752 8.50175C10.2408 8.78609 9.93958 9.5731 10.2023 10.2596C10.4651 10.946 11.1924 11.272 11.8268 10.9877Z" fill="#A9A9A9"/>
<path d="M16.8736 10.0538C17.0314 9.33065 16.6175 8.60605 15.9492 8.43537C15.2809 8.26469 14.6113 8.71256 14.4536 9.43572C14.2958 10.1589 14.7097 10.8835 15.378 11.0542C16.0463 11.2248 16.7159 10.777 16.8736 10.0538Z" fill="#A9A9A9"/>
</svg>
