<svg width="24" height="23" viewBox="0 0 24 23" fill="none" xmlns="http://www.w3.org/2000/svg">
<g clip-path="url(#clip0_542_78864)">
<path d="M3.61497 22.2222C3.46822 22.2222 3.32365 22.1673 3.2125 22.0611C3.0287 21.8856 2.98147 21.6117 3.09481 21.3856L4.99891 17.5985C2.20414 17.3702 0 15.0344 0 12.1973V5.42064C0 2.43181 2.44533 0 5.45005 0H18.5492C21.5554 0 24.0007 2.43181 24.0007 5.42064V12.1966C24.0007 15.1854 21.5554 17.6165 18.5492 17.6165H12.1497L3.89539 22.1493C3.80748 22.1977 3.71086 22.2222 3.61497 22.2222ZM5.45005 1.15594C3.08536 1.15594 1.16237 3.06902 1.16237 5.42064V12.1966C1.16237 14.5482 3.08609 16.4606 5.45005 16.4606H5.92953C6.13077 16.4606 6.3182 16.5646 6.42426 16.7344C6.53033 16.9042 6.53977 17.1173 6.44969 17.2965L4.97058 20.2376L11.7189 16.5321C11.8046 16.4851 11.9012 16.4599 12 16.4599H18.5492C20.9139 16.4599 22.8384 14.5468 22.8384 12.1959V5.42064C22.8384 3.06902 20.9146 1.15594 18.5492 1.15594H5.45005Z" fill="#442477"/>
<path d="M8.36988 9.73371C8.88311 9.22332 8.8831 8.39582 8.36988 7.88543C7.85665 7.37504 7.02454 7.37504 6.51131 7.88543C5.99809 8.39582 5.99809 9.22332 6.51131 9.73371C7.02454 10.2441 7.85665 10.2441 8.36988 9.73371Z" fill="#442477"/>
<path d="M12.5013 10.0163C13.1718 9.7401 13.4903 8.97558 13.2125 8.30873C12.9347 7.64187 12.166 7.3252 11.4954 7.60142C10.8248 7.87764 10.5064 8.64216 10.7842 9.30901C11.0619 9.97587 11.8307 10.2925 12.5013 10.0163Z" fill="#442477"/>
<path d="M17.8366 9.10872C18.0033 8.40622 17.5658 7.70232 16.8594 7.53652C16.153 7.37071 15.4452 7.80579 15.2784 8.50829C15.1117 9.21079 15.5492 9.91468 16.2556 10.0805C16.962 10.2463 17.6698 9.81122 17.8366 9.10872Z" fill="#442477"/>
</g>
<defs>
<clipPath id="clip0_542_78864">
<rect width="24" height="22.2222" fill="white"/>
</clipPath>
</defs>
</svg>
