<svg width="24" height="23" viewBox="0 0 24 23" fill="none" xmlns="http://www.w3.org/2000/svg">
<g clip-path="url(#clip0_542_80323)">
<path d="M3.61497 22.2222C3.46822 22.2222 3.32365 22.1673 3.2125 22.0611C3.0287 21.8856 2.98147 21.6117 3.09481 21.3856L4.99891 17.5985C2.20414 17.3702 0 15.0344 0 12.1973V5.42064C0 2.43181 2.44533 0 5.45005 0H18.5492C21.5554 0 24.0007 2.43181 24.0007 5.42064V12.1966C24.0007 15.1854 21.5554 17.6165 18.5492 17.6165H12.1497L3.89539 22.1493C3.80748 22.1977 3.71086 22.2222 3.61497 22.2222ZM5.45005 1.15594C3.08536 1.15594 1.16237 3.06902 1.16237 5.42064V12.1966C1.16237 14.5482 3.08609 16.4606 5.45005 16.4606H5.92953C6.13077 16.4606 6.3182 16.5646 6.42426 16.7344C6.53033 16.9042 6.53977 17.1173 6.44969 17.2965L4.97058 20.2376L11.7189 16.5321C11.8046 16.4851 11.9012 16.4599 12 16.4599H18.5492C20.9139 16.4599 22.8384 14.5468 22.8384 12.1959V5.42064C22.8384 3.06902 20.9146 1.15594 18.5492 1.15594H5.45005Z" fill="#442477"/>
<path d="M8.36988 9.73371C8.88311 9.22332 8.8831 8.39582 8.36988 7.88543C7.85665 7.37504 7.02454 7.37504 6.51131 7.88543C5.99809 8.39582 5.99809 9.22332 6.51131 9.73371C7.02454 10.2441 7.85665 10.2441 8.36988 9.73371Z" fill="#442477"/>
<path d="M12.5013 10.0163C13.1718 9.7401 13.4903 8.97558 13.2125 8.30873C12.9347 7.64187 12.166 7.3252 11.4954 7.60142C10.8248 7.87764 10.5064 8.64216 10.7842 9.30901C11.0619 9.97587 11.8307 10.2925 12.5013 10.0163Z" fill="#442477"/>
<path d="M17.8366 9.10872C18.0033 8.40622 17.5658 7.70232 16.8594 7.53652C16.153 7.37071 15.4452 7.80579 15.2784 8.50829C15.1117 9.21079 15.5492 9.91468 16.2556 10.0805C16.962 10.2463 17.6698 9.81122 17.8366 9.10872Z" fill="#442477"/>
<g clip-path="url(#clip1_542_80323)">
<path d="M17.3996 0.600098H5.39961L2.39961 1.8001L0.599609 3.6001V7.8001V12.0001L1.19961 14.4001L3.59961 16.8001H5.99961L4.19961 21.0001L10.1996 18.0001L11.9996 16.8001H13.7996H17.9996L20.9996 16.2001L22.7996 14.4001L23.3996 11.4001V5.4001L22.1996 2.4001L19.7996 0.600098H17.3996Z" fill="#442477"/>
<path d="M8.36988 9.73371C8.88311 9.22332 8.8831 8.39582 8.36988 7.88543C7.85665 7.37504 7.02454 7.37504 6.51131 7.88543C5.99809 8.39582 5.99809 9.22332 6.51131 9.73371C7.02454 10.2441 7.85665 10.2441 8.36988 9.73371Z" fill="white"/>
<path d="M12.5013 10.0163C13.1718 9.7401 13.4903 8.97558 13.2125 8.30873C12.9347 7.64187 12.166 7.3252 11.4954 7.60142C10.8248 7.87764 10.5064 8.64216 10.7842 9.30901C11.0619 9.97587 11.8307 10.2925 12.5013 10.0163Z" fill="white"/>
<path d="M17.8366 9.10872C18.0033 8.40622 17.5658 7.70232 16.8594 7.53652C16.153 7.37071 15.4452 7.80579 15.2784 8.50829C15.1117 9.21079 15.5492 9.91468 16.2556 10.0805C16.962 10.2463 17.6698 9.81122 17.8366 9.10872Z" fill="white"/>
<path d="M3.55791 21.6996L3.55785 21.6995C3.53282 21.6756 3.52694 21.6395 3.54174 21.6098C3.54176 21.6097 3.54179 21.6097 3.54181 21.6096L5.44563 17.8231L5.77875 17.1605L5.03962 17.1001C2.49978 16.8927 0.5 14.7695 0.5 12.1973V5.42064C0.5 2.71052 2.7189 0.5 5.45005 0.5H18.5492C21.2819 0.5 23.5007 2.7106 23.5007 5.42064V12.1966C23.5007 14.9066 21.282 17.1165 18.5492 17.1165H12.1497H12.0214L11.909 17.1783L3.65472 21.711L3.6542 21.7113C3.6393 21.7195 3.62553 21.7222 3.61497 21.7222C3.5931 21.7222 3.57333 21.7143 3.55791 21.6996ZM4.52388 20.013L3.80109 21.4502L5.21124 20.6759L11.9591 16.9706C11.9592 16.9706 11.9593 16.9705 11.9594 16.9704C11.9727 16.9633 11.9867 16.9599 12 16.9599H18.5492C21.1873 16.9599 23.3384 14.8257 23.3384 12.1959V5.42064C23.3384 2.79021 21.1881 0.65594 18.5492 0.65594H5.45005C2.81173 0.65594 0.662368 2.79038 0.662368 5.42064V12.1966C0.662368 14.827 2.81262 16.9606 5.45005 16.9606H5.92953C5.95862 16.9606 5.98565 16.976 6.00021 16.9993C6.01326 17.0202 6.0151 17.0477 6.003 17.0718C6.00299 17.0718 6.00298 17.0719 6.00298 17.0719L4.52388 20.013Z" stroke="#442477"/>
</g>
</g>
<defs>
<clipPath id="clip0_542_80323">
<rect width="24" height="22.2222" fill="white"/>
</clipPath>
<clipPath id="clip1_542_80323">
<rect width="24" height="22.2222" fill="white"/>
</clipPath>
</defs>
</svg>
