<svg width="40" height="40" viewBox="0 0 40 40" fill="none" xmlns="http://www.w3.org/2000/svg">
<g filter="url(#filter0_d_542_75280)">
<rect x="6" y="3" width="28" height="28" rx="14" fill="#4FB817"/>
<path d="M27.3642 11.3879C27.6923 11.716 27.8766 12.1611 27.8766 12.6251C27.8766 13.0892 27.6923 13.5342 27.3642 13.8624L18.6142 22.6124C18.286 22.9404 17.841 23.1247 17.3769 23.1247C16.9129 23.1247 16.4679 22.9404 16.1397 22.6124L12.6397 19.1124C12.3209 18.7823 12.1445 18.3403 12.1485 17.8814C12.1525 17.4226 12.3365 16.9836 12.661 16.6592C12.9855 16.3347 13.4244 16.1507 13.8832 16.1467C14.3421 16.1427 14.7841 16.3191 15.1142 16.6379L17.3769 18.9006L24.8897 11.3879C25.2179 11.0598 25.6629 10.8755 26.1269 10.8755C26.591 10.8755 27.036 11.0598 27.3642 11.3879Z" fill="white"/>
<rect x="6.5" y="3.5" width="27" height="27" rx="13.5" stroke="#4FB817"/>
</g>
<defs>
<filter id="filter0_d_542_75280" x="0" y="0" width="40" height="40" filterUnits="userSpaceOnUse" color-interpolation-filters="sRGB">
<feFlood flood-opacity="0" result="BackgroundImageFix"/>
<feColorMatrix in="SourceAlpha" type="matrix" values="0 0 0 0 0 0 0 0 0 0 0 0 0 0 0 0 0 0 127 0" result="hardAlpha"/>
<feOffset dy="3"/>
<feGaussianBlur stdDeviation="3"/>
<feComposite in2="hardAlpha" operator="out"/>
<feColorMatrix type="matrix" values="0 0 0 0 0.368627 0 0 0 0 0.737255 0 0 0 0 0.168627 0 0 0 0.2 0"/>
<feBlend mode="normal" in2="BackgroundImageFix" result="effect1_dropShadow_542_75280"/>
<feBlend mode="normal" in="SourceGraphic" in2="effect1_dropShadow_542_75280" result="shape"/>
</filter>
</defs>
</svg>
