<svg width="144" height="144" viewBox="0 0 144 144" fill="none" xmlns="http://www.w3.org/2000/svg">
<path d="M141.304 71.996C141.304 33.7228 110.278 2.69629 72.0048 2.69629C33.7316 2.69629 2.70508 33.7228 2.70508 71.996C2.70508 110.269 33.7316 141.296 72.0048 141.296C110.278 141.296 141.304 110.269 141.304 71.996Z" fill="#95E540"/>
<path d="M96.7019 46.9417L64.2928 79.3508L47.3082 62.3662C46.5333 61.5912 45.6134 60.9763 44.6009 60.5568C43.5884 60.1372 42.5032 59.9212 41.4073 59.9211C40.3113 59.9209 39.226 60.1367 38.2134 60.556C37.2009 60.9752 36.2808 61.5898 35.5057 62.3647C34.7306 63.1396 34.1158 64.0595 33.6962 65.072C33.2767 66.0845 33.0607 67.1697 33.0605 68.2656C33.0604 69.3616 33.2761 70.4469 33.6954 71.4595C34.1147 72.472 34.7293 73.3922 35.5042 74.1672L58.3885 97.0515C59.1631 97.8264 60.0829 98.4411 61.0952 98.8605C62.1074 99.2799 63.1924 99.4958 64.2882 99.4958C65.3839 99.4958 66.4689 99.2799 67.4812 98.8605C68.4935 98.4411 69.4132 97.8264 70.1879 97.0515L108.5 58.7503C110.065 57.1856 110.944 55.0634 110.944 52.8504C110.944 50.6374 110.065 48.515 108.501 46.9501C106.936 45.3852 104.814 44.506 102.601 44.5059C100.388 44.5057 98.2653 45.3847 96.7004 46.9494L96.7019 46.9417Z" fill="white"/>
<path d="M102.598 41.8018C101.147 41.7975 99.7106 42.0812 98.3706 42.6363C97.0306 43.1914 95.8141 44.007 94.7917 45.0358L64.2875 75.5369L49.2079 60.4588C47.1375 58.3887 44.3296 57.2258 41.4019 57.2259C38.4741 57.2261 35.6663 58.3892 33.5962 60.4596C31.526 62.5299 30.3631 65.3378 30.3633 68.2656C30.3634 71.1933 31.5266 74.0011 33.597 76.0713L56.4828 98.9556C58.5529 101.025 61.3602 102.188 64.2875 102.188C67.2147 102.188 70.0221 101.025 72.0922 98.9556L110.403 60.6452C111.946 59.1014 112.997 57.1346 113.423 54.9936C113.849 52.8525 113.63 50.6332 112.795 48.6164C111.959 46.5995 110.545 44.8757 108.73 43.6627C106.915 42.4497 104.781 41.8021 102.598 41.8018ZM106.591 56.8352L68.2807 95.1441C67.2045 96.1709 65.7742 96.7438 64.2867 96.7438C62.7992 96.7438 61.3689 96.1709 60.2927 95.1441L37.4084 72.2613C36.3488 71.2021 35.7533 69.7652 35.753 68.2669C35.7527 66.7686 36.3476 65.3315 37.4069 64.2718C38.4662 63.2122 39.903 62.6167 41.4013 62.6164C42.8996 62.6161 44.3367 63.211 45.3964 64.2703L62.381 81.2549C62.6311 81.5054 62.9282 81.7041 63.2552 81.8396C63.5822 81.9752 63.9327 82.045 64.2867 82.045C64.6407 82.045 64.9912 81.9752 65.3182 81.8396C65.6452 81.7041 65.9423 81.5054 66.1924 81.2549L98.6031 48.8442C99.6793 47.8178 101.109 47.2452 102.596 47.2452C104.083 47.2452 105.513 47.8178 106.59 48.8442C107.648 49.9046 108.242 51.3414 108.242 52.8394C108.243 54.3374 107.649 55.7744 106.591 56.8352Z" fill="black"/>
<path d="M72.0005 2.35001e-07C60.9128 -0.000895552 49.9746 2.55917 40.039 7.48059C30.1033 12.402 21.4386 19.5518 14.7205 28.3725C8.00231 37.1931 3.41226 47.4463 1.30819 58.3326C-0.795883 69.2188 -0.357106 80.444 2.59031 91.1328C5.53772 101.822 10.9141 111.685 18.3003 119.955C25.6865 128.224 34.8828 134.675 45.1724 138.806C55.4619 142.937 66.5664 144.636 77.6203 143.769C88.6741 142.903 99.3784 139.495 108.899 133.812C109.213 133.635 109.489 133.397 109.709 133.112C109.93 132.827 110.091 132.501 110.184 132.153C110.276 131.805 110.298 131.441 110.247 131.084C110.197 130.727 110.075 130.384 109.89 130.075C109.704 129.766 109.459 129.498 109.168 129.285C108.877 129.073 108.546 128.921 108.195 128.838C107.844 128.756 107.48 128.745 107.125 128.805C106.77 128.866 106.43 128.997 106.127 129.192C92.2576 137.455 75.8569 140.393 59.9818 137.458C44.1067 134.523 29.8404 125.916 19.8421 113.24C9.84385 100.565 4.7958 84.6862 5.63892 68.5641C6.48204 52.4421 13.1588 37.1766 24.4247 25.6133C35.6906 14.0499 50.7769 6.97762 66.8715 5.71469C82.9661 4.45176 98.9708 9.08436 111.902 18.749C124.834 28.4136 133.81 42.4508 137.158 58.244C140.505 74.0372 137.996 90.5089 130.097 104.589C129.923 104.897 129.813 105.237 129.77 105.588C129.728 105.939 129.756 106.295 129.851 106.636C129.947 106.976 130.109 107.295 130.327 107.573C130.546 107.851 130.817 108.084 131.125 108.257C131.434 108.43 131.773 108.541 132.125 108.583C132.476 108.625 132.832 108.598 133.173 108.502C133.513 108.407 133.832 108.245 134.11 108.026C134.388 107.808 134.62 107.537 134.794 107.228C140.94 96.2713 144.113 83.8968 143.997 71.334C143.881 58.7713 140.479 46.4577 134.13 35.6165C127.782 24.7753 118.707 15.784 107.808 9.53589C96.9083 3.28773 84.5638 0.00023176 72.0005 2.35001e-07Z" fill="black"/>
<path d="M122.19 115.78C121.204 116.912 120.163 118.027 119.096 119.093C118.433 119.758 117.754 120.408 117.06 121.042C116.791 121.279 116.572 121.567 116.416 121.89C116.26 122.212 116.17 122.562 116.15 122.92C116.131 123.277 116.183 123.635 116.304 123.972C116.425 124.31 116.611 124.619 116.853 124.884C117.095 125.148 117.387 125.361 117.712 125.512C118.037 125.662 118.389 125.745 118.747 125.758C119.105 125.771 119.462 125.712 119.797 125.585C120.132 125.458 120.438 125.266 120.698 125.019C121.452 124.329 122.189 123.624 122.909 122.904C124.063 121.751 125.188 120.545 126.256 119.316C126.488 119.049 126.666 118.739 126.779 118.403C126.892 118.068 126.937 117.713 126.913 117.36C126.888 117.007 126.795 116.662 126.637 116.344C126.479 116.027 126.261 115.745 125.994 115.512C125.727 115.279 125.417 115.102 125.081 114.989C124.745 114.876 124.391 114.831 124.038 114.855C123.684 114.879 123.339 114.973 123.022 115.131C122.705 115.288 122.422 115.507 122.19 115.774V115.78Z" fill="black"/>
</svg>
