<?xml version="1.0" standalone="no"?>
<!DOCTYPE svg PUBLIC "-//W3C//DTD SVG 20010904//EN"
 "http://www.w3.org/TR/2001/REC-SVG-20010904/DTD/svg10.dtd">
<svg version="1.0" xmlns="http://www.w3.org/2000/svg"
 width="449.000000pt" height="500.000000pt" viewBox="0 0 449.000000 500.000000"
 preserveAspectRatio="xMidYMid meet">

<g transform="translate(0.000000,500.000000) scale(0.100000,-0.100000)"
fill="#000000" stroke="none">
<path d="M1914 4795 c-10 -8 -33 -15 -50 -15 -17 0 -42 -8 -55 -17 -55 -40
-106 -66 -121 -61 -4 2 -13 -4 -20 -14 -7 -9 -22 -18 -33 -20 -11 -2 -25 -14
-32 -28 -8 -16 -21 -25 -36 -26 -28 -1 -106 -53 -107 -71 0 -6 -18 -27 -40
-46 -22 -19 -40 -39 -40 -44 0 -6 -13 -16 -30 -23 -16 -7 -30 -16 -30 -21 0
-4 -8 -10 -18 -13 -24 -8 -66 -82 -58 -102 3 -9 0 -22 -8 -30 -8 -7 -23 -44
-35 -81 -25 -83 -23 -181 7 -268 12 -36 22 -100 26 -160 6 -100 27 -190 57
-235 9 -14 24 -46 34 -72 10 -27 19 -48 20 -48 3 0 -5 175 -13 260 -4 41 -4
107 0 145 4 39 5 86 2 106 -9 60 16 158 53 210 29 41 120 117 218 184 41 28
113 54 150 55 17 0 67 -2 113 -4 57 -4 82 -2 82 6 0 6 3 8 7 5 3 -4 12 -2 19
4 9 7 17 4 31 -10 11 -12 34 -21 56 -23 32 -2 37 -5 33 -21 -4 -18 -4 -18 15
1 15 17 27 20 61 15 51 -6 45 -6 133 2 86 7 183 7 195 0 6 -3 36 -13 67 -21
57 -15 132 -72 133 -101 0 -7 6 -16 13 -20 33 -21 75 -203 46 -203 -8 0 -10
-11 -6 -35 3 -19 1 -37 -4 -41 -14 -9 -4 -44 36 -125 28 -57 35 -87 46 -186 7
-65 17 -121 23 -125 7 -5 4 -8 -6 -8 -14 0 -17 -7 -14 -30 2 -16 -2 -31 -8
-34 -7 -3 -6 -5 2 -5 10 -1 10 -5 -2 -16 -13 -13 -15 -42 -12 -174 3 -139 2
-159 -11 -157 -9 2 -22 11 -29 21 -13 18 -14 18 -14 -5 0 -22 -1 -23 -20 -5
-20 18 -20 17 -20 -10 0 -21 -4 -26 -17 -21 -17 6 -17 5 0 -8 21 -16 22 -27 2
-20 -16 6 -19 -4 -9 -30 3 -9 10 -13 15 -10 5 3 6 10 3 16 -4 7 -2 8 4 4 7 -4
12 -2 12 5 0 7 2 10 5 7 9 -9 -19 -53 -35 -53 -15 0 -65 -64 -81 -106 -10 -26
-34 -34 -55 -18 -6 5 -11 33 -12 64 -1 32 -9 70 -21 92 -20 39 -97 121 -86 92
4 -12 -1 -18 -20 -23 -34 -9 -55 13 -55 56 0 52 -79 148 -121 148 -18 0 -15
-5 18 -29 72 -52 60 -111 -24 -124 -19 -3 -49 -21 -71 -42 -45 -43 -75 -52
-110 -34 -15 7 -30 15 -35 17 -4 2 -4 -5 0 -15 7 -17 6 -17 -11 -1 -9 10 -15
22 -12 26 6 10 -36 32 -59 32 -25 0 -17 -16 18 -32 l32 -16 -30 -12 c-16 -7
-46 -13 -66 -15 -20 -1 -42 -6 -49 -10 -9 -6 -11 -4 -5 5 6 10 2 12 -16 8 -13
-3 -32 -9 -41 -13 -30 -12 -21 19 22 76 40 54 47 69 32 69 -19 0 -171 -175
-184 -211 -3 -8 -2 -21 3 -30 14 -27 21 -111 8 -103 -6 3 -15 0 -20 -7 -7 -11
-9 -10 -9 5 0 12 -5 16 -14 13 -9 -4 -16 1 -19 11 -3 14 -6 12 -15 -8 -6 -14
-11 -18 -11 -9 -2 28 -23 40 -38 21 -13 -16 -14 -15 -10 4 4 17 0 20 -20 16
-18 -3 -22 -1 -17 12 4 11 1 16 -10 16 -8 0 -18 11 -22 25 -5 19 -10 23 -19
15 -22 -18 -43 57 -50 178 -2 26 -3 53 -4 60 -1 6 -6 12 -12 12 -6 0 -8 -11
-5 -27 3 -16 8 -66 11 -113 3 -47 8 -92 10 -100 3 -8 9 -46 15 -85 10 -73 49
-207 74 -253 47 -89 87 -185 88 -210 1 -16 -5 -66 -13 -111 -12 -80 -12 -86
11 -150 48 -136 137 -262 195 -277 25 -6 23 -3 -19 36 -55 50 -130 160 -151
220 -10 27 -15 80 -15 148 l0 105 60 -59 c89 -87 104 -99 122 -96 8 2 22 -3
29 -10 36 -34 166 -92 214 -95 70 -5 75 -6 75 -13 0 -9 69 1 75 11 3 4 15 -1
25 -11 21 -21 66 -28 54 -9 -4 8 1 9 17 4 13 -5 33 -8 44 -9 12 -1 22 -11 25
-26 4 -14 12 -24 18 -22 7 1 11 -4 10 -10 -2 -8 5 -12 15 -10 9 2 20 -4 23
-13 11 -27 51 -18 66 15 14 32 43 40 68 17 12 -10 12 -9 1 6 -11 14 -11 17 2
17 28 0 37 -23 23 -64 -7 -21 -18 -41 -23 -45 -6 -3 -13 -22 -16 -41 -3 -19
-10 -53 -14 -75 -9 -37 -7 -42 18 -62 26 -22 27 -22 32 -3 5 18 34 27 69 21 4
0 5 6 2 14 -4 9 0 15 7 16 28 2 54 -3 60 -13 4 -7 9 -6 14 1 5 9 10 9 20 1 9
-8 14 -6 19 5 3 9 10 14 15 11 18 -11 78 71 96 130 40 135 61 187 76 191 28 8
52 76 47 133 -7 73 -72 154 -157 195 -55 27 -61 32 -55 55 3 14 10 28 15 31 6
3 11 13 13 21 1 8 16 44 34 80 32 66 44 136 42 260 0 25 6 66 15 90 8 23 15
51 15 61 0 10 5 15 10 12 6 -3 14 5 20 19 5 14 14 26 19 26 15 0 38 49 46 95
l6 40 -15 -32 c-15 -34 -34 -47 -21 -15 4 9 10 38 14 65 8 46 7 48 -31 83 -36
33 -38 36 -19 41 15 4 21 14 21 32 0 14 7 34 14 43 11 16 14 8 19 -56 4 -40
10 -83 15 -96 7 -19 10 -12 15 40 10 93 8 190 -3 190 -6 0 -9 6 -8 13 2 6 -3
11 -9 9 -7 -1 -13 5 -13 14 0 11 -5 14 -17 9 -10 -4 -24 -10 -32 -13 -11 -4
-13 -1 -6 14 23 56 48 312 48 504 0 51 -25 173 -33 160 -6 -10 -13 -3 -23 22
-8 20 -20 39 -26 42 -6 4 -11 12 -11 18 0 6 10 3 22 -8 l22 -19 -21 30 c-12
17 -33 41 -48 55 -15 14 -33 41 -41 60 -17 40 -52 80 -70 80 -7 0 -20 7 -28
16 -9 8 -16 12 -16 8 0 -3 -7 -1 -15 6 -8 6 -19 9 -25 5 -6 -4 -29 13 -51 36
-26 27 -50 44 -67 45 -15 1 -66 15 -114 32 -48 16 -91 26 -95 22 -4 -4 -17 -4
-28 0 l-20 9 20 1 c29 1 1 16 -49 25 -22 3 -63 18 -90 32 -98 50 -204 67 -242
38z m66 -75 c0 -13 -60 -13 -80 0 -11 7 -2 10 33 10 26 0 47 -4 47 -10z m97
-6 c-3 -3 -12 -4 -19 -1 -8 3 -5 6 6 6 11 1 17 -2 13 -5z m405 -100 c36 -19
47 -29 39 -37 -8 -8 -16 -6 -29 6 -10 9 -22 17 -26 17 -4 0 -14 7 -22 15 -19
18 -38 20 -28 3 5 -9 2 -9 -9 1 -9 7 -17 15 -17 17 0 12 47 1 92 -22z m78 -15
c0 -6 -4 -7 -10 -4 -5 3 -10 11 -10 16 0 6 5 7 10 4 6 -3 10 -11 10 -16z m204
-134 c11 -19 17 -37 14 -40 -7 -7 -21 12 -36 48 -17 39 0 33 22 -8z m136
-1347 c0 -18 -2 -20 -9 -8 -6 8 -7 18 -5 22 9 14 14 9 14 -14z m-827 -245 c9
-3 17 -11 17 -19 0 -10 16 -12 64 -10 36 2 69 7 74 10 5 3 15 -1 22 -9 10 -12
16 -13 27 -4 22 19 36 -2 24 -34 -11 -29 -26 -35 -34 -14 -3 8 -9 7 -19 -6 -8
-11 -23 -17 -34 -15 -12 2 -18 -2 -16 -11 2 -8 -3 -11 -13 -8 -8 4 -15 2 -15
-3 0 -6 6 -10 13 -11 37 -3 74 -1 90 6 13 6 17 2 17 -15 0 -21 1 -22 24 -6 35
22 41 4 8 -27 -27 -26 -109 -67 -98 -49 3 6 -1 15 -9 22 -10 9 -15 9 -15 1 0
-6 -9 -11 -20 -11 -11 0 -20 -4 -20 -8 0 -13 -202 -12 -217 0 -10 8 -13 6 -13
-6 0 -22 41 -120 52 -124 5 -2 6 -8 2 -13 -3 -5 -2 -9 3 -9 4 0 9 -15 10 -33
2 -26 0 -29 -8 -15 -8 15 -13 15 -23 5 -8 -6 -12 -15 -9 -19 2 -4 -3 -5 -11
-2 -9 3 -16 12 -16 20 0 7 -13 20 -29 28 -16 9 -32 27 -35 42 -4 16 -12 24
-20 21 -21 -8 -28 4 -13 21 10 13 9 15 -5 9 -12 -4 -18 -2 -18 8 0 8 -4 15
-10 15 -5 0 -6 7 -3 17 4 9 2 14 -3 11 -5 -4 -9 23 -9 60 -1 37 -4 82 -7 100
-8 41 11 43 64 6 21 -15 53 -28 71 -30 l32 -2 -23 18 c-25 21 -29 45 -7 54 8
3 15 13 15 23 0 12 8 18 24 18 13 0 22 -4 19 -10 -3 -5 0 -5 7 2 7 6 19 9 26
6 8 -3 14 0 14 7 0 8 6 9 18 5 9 -4 25 -10 35 -12z m338 -70 c-12 -23 -61 -69
-61 -58 0 8 60 75 67 75 2 0 -1 -8 -6 -17z m47 -29 c1 -20 4 -46 8 -57 4 -13
2 -17 -5 -13 -6 4 -12 1 -13 -6 0 -7 -2 -18 -2 -24 -1 -6 -6 -22 -13 -35 -6
-13 -17 -39 -24 -58 -15 -40 -75 -101 -100 -101 -39 0 -33 46 8 56 16 4 22 11
18 21 -3 10 -1 13 9 10 10 -4 13 -1 9 9 -3 8 4 34 16 59 12 25 21 50 21 55 0
6 9 28 20 49 10 21 16 41 13 45 -8 7 17 37 26 31 4 -2 8 -21 9 -41z"/>
<path d="M2058 2853 c7 -3 16 -2 19 1 4 3 -2 6 -13 5 -11 0 -14 -3 -6 -6z"/>
<path d="M1948 2843 c7 -3 16 -2 19 1 4 3 -2 6 -13 5 -11 0 -14 -3 -6 -6z"/>
<path d="M1960 2760 c0 -5 7 -10 16 -10 8 0 12 5 9 10 -3 6 -10 10 -16 10 -5
0 -9 -4 -9 -10z"/>
<path d="M2005 2750 c-3 -5 -1 -10 4 -10 6 0 11 5 11 10 0 6 -2 10 -4 10 -3 0
-8 -4 -11 -10z"/>
<path d="M2102 2751 c-11 -7 -11 -9 2 -14 10 -4 16 -1 16 8 0 17 -1 17 -18 6z"/>
<path d="M2440 3729 c-89 -7 -123 -16 -169 -41 -48 -27 -62 -44 -54 -64 5 -14
3 -16 -11 -11 -14 5 -17 3 -12 -8 3 -8 2 -15 -3 -15 -18 0 -33 -61 -27 -108 4
-26 9 -65 12 -87 7 -48 15 -60 47 -63 22 -1 25 2 26 41 4 71 2 80 -11 88 -18
11 42 64 107 96 l50 24 -62 -4 c-35 -2 -63 -1 -63 2 1 30 95 61 186 61 57 0
74 -4 117 -31 65 -40 77 -53 77 -80 0 -21 -1 -21 -12 -6 -14 18 -153 57 -197
56 -23 0 -24 -1 -6 -9 17 -6 13 -9 -20 -15 -68 -12 -109 -27 -132 -48 -31 -28
-29 -37 10 -37 23 0 28 3 17 10 -8 5 -12 10 -10 12 43 28 54 30 65 14 9 -11
28 -16 66 -16 48 -1 52 -2 36 -14 -12 -9 -14 -16 -8 -21 6 -3 11 -2 11 4 0 15
146 7 165 -9 13 -10 19 -10 33 2 20 18 52 20 52 4 0 -6 5 -3 11 7 5 9 7 22 4
28 -4 5 -1 23 5 40 10 24 9 35 -6 66 -10 21 -17 45 -16 54 2 14 -45 43 -70 44
-3 0 -10 3 -14 8 -4 4 -17 7 -29 7 -13 0 -38 6 -56 13 -23 9 -57 11 -109 6z
m-30 -199 c0 -5 -5 -10 -11 -10 -5 0 -7 5 -4 10 3 6 8 10 11 10 2 0 4 -4 4
-10z m290 -20 c0 -5 -10 -10 -22 -9 -22 0 -22 1 -3 9 11 5 21 9 23 9 1 1 2 -3
2 -9z"/>
<path d="M1655 3702 c-22 -5 -97 -46 -133 -73 -13 -10 -30 -15 -38 -12 -8 3
-14 2 -13 -3 1 -5 -3 -22 -9 -37 -16 -37 -16 -37 13 -37 14 0 30 9 37 20 7 11
20 20 30 20 9 0 20 5 23 10 3 6 19 10 35 10 15 0 30 4 32 10 2 6 44 10 103 9
157 -2 183 -4 179 -10 -5 -9 27 -21 34 -14 3 3 0 5 -7 5 -7 0 -11 5 -9 12 8
22 -50 64 -106 78 -48 11 -63 11 -114 -4 -69 -19 -72 -19 -72 -5 0 6 7 9 15 6
8 -4 17 -2 21 4 8 14 3 16 -21 11z"/>
<path d="M1791 3563 c-19 -4 -21 -7 -10 -14 10 -6 6 -9 -14 -9 -35 0 -129 -33
-170 -59 l-32 -21 57 0 c47 0 56 3 52 15 -4 8 -1 15 5 15 7 0 14 -7 17 -15 5
-11 21 -15 61 -15 46 0 56 3 60 20 4 16 9 18 24 10 10 -6 16 -17 13 -25 -5
-12 2 -15 30 -15 20 0 36 4 36 10 0 5 -8 6 -17 3 -15 -6 -16 -5 -3 8 8 9 24
14 36 11 15 -3 26 3 34 18 14 26 3 41 -32 45 -13 2 -41 8 -63 14 -41 11 -44
11 -84 4z m-41 -63 c0 -5 -4 -10 -10 -10 -5 0 -10 5 -10 10 0 6 5 10 10 10 6
0 10 -4 10 -10z"/>
<path d="M1615 3531 c-40 -18 -77 -51 -57 -51 6 0 14 5 18 11 3 6 30 22 58 35
28 13 44 24 36 24 -8 0 -33 -9 -55 -19z"/>
<path d="M2575 3420 c27 -12 43 -12 25 0 -8 5 -22 9 -30 9 -10 0 -8 -3 5 -9z"/>
<path d="M2468 3403 c6 -2 18 -2 25 0 6 3 1 5 -13 5 -14 0 -19 -2 -12 -5z"/>
<path d="M1351 3274 c0 -11 3 -14 6 -6 3 7 2 16 -1 19 -3 4 -6 -2 -5 -13z"/>
<path d="M1361 3230 c0 -8 4 -24 9 -35 5 -13 9 -14 9 -5 0 8 -4 24 -9 35 -5
13 -9 14 -9 5z"/>
<path d="M3241 2066 c11 -26 26 -77 34 -114 10 -52 13 -59 14 -31 1 44 -35
163 -55 180 -9 8 -7 -4 7 -35z"/>
<path d="M3297 1820 c3 -36 7 -67 9 -69 8 -8 2 84 -6 109 -6 16 -7 1 -3 -40z"/>
<path d="M1561 1778 c-65 -76 -164 -166 -203 -184 -52 -23 -39 -35 25 -20 62
15 92 32 106 62 5 13 19 28 30 33 25 14 53 -13 69 -67 6 -21 17 -45 24 -55 11
-15 12 -10 10 33 -4 49 -3 51 28 63 22 8 33 20 37 40 8 38 31 29 117 -47 38
-33 67 -56 65 -51 -22 54 -78 137 -94 140 -11 2 -32 6 -47 9 -15 4 -48 24 -73
46 -25 22 -49 40 -52 40 -4 0 -23 -19 -42 -42z"/>
<path d="M1855 1730 c-4 -6 -10 -8 -14 -6 -4 3 -13 1 -20 -4 -11 -6 -8 -11 10
-20 15 -9 24 -9 27 -2 1 5 12 8 22 5 26 -7 26 9 0 24 -12 8 -21 9 -25 3z"/>
<path d="M2110 1694 c0 -6 25 -44 55 -85 30 -41 78 -121 107 -178 50 -102 51
-103 64 -78 10 19 11 36 5 64 -7 29 -9 32 -10 13 -2 -24 -3 -23 -16 8 -9 19
-12 45 -8 64 6 28 4 31 -15 26 -16 -5 -27 1 -42 22 -11 15 -20 32 -20 37 0 4
-13 14 -29 21 -17 7 -31 22 -33 34 -2 12 -12 26 -23 32 -11 6 -23 16 -27 21
-5 6 -8 6 -8 -1z"/>
<path d="M2500 1650 c0 -11 2 -20 4 -20 2 0 6 9 9 20 3 11 1 20 -4 20 -5 0 -9
-9 -9 -20z"/>
<path d="M3040 1649 c-2 -65 -72 -139 -134 -139 -17 1 -76 -3 -131 -8 -118
-10 -197 -42 -306 -122 -103 -77 -151 -142 -175 -235 -5 -20 -2 -22 20 -18 18
4 23 9 18 19 -5 9 10 33 46 71 85 93 171 147 360 228 51 22 71 25 105 19 68
-12 116 -5 186 27 55 26 74 30 114 24 33 -4 47 -2 42 5 -3 5 -14 10 -23 10
-25 0 -94 60 -88 76 3 8 1 14 -5 14 -6 0 -8 3 -5 8 2 4 -2 16 -10 27 -13 18
-14 18 -14 -6z"/>
<path d="M2138 1487 c-3 -19 -2 -25 4 -19 6 6 8 18 6 28 -3 14 -5 12 -10 -9z"/>
<path d="M3756 1438 c-8 -29 -22 -81 -31 -116 -8 -34 -29 -99 -45 -143 -32
-86 -35 -98 -21 -84 10 11 91 216 109 275 16 53 22 109 12 115 -5 3 -15 -18
-24 -47z"/>
<path d="M3588 1110 c-4 -14 -7 -65 -7 -115 1 -89 1 -90 11 -35 10 65 7 189
-4 150z"/>
<path d="M3680 1008 c-53 -192 -59 -238 -59 -393 0 -147 9 -167 24 -56 5 38 4
52 -4 47 -19 -12 -13 81 15 209 45 213 55 267 51 272 -3 2 -15 -33 -27 -79z"/>
<path d="M2270 1054 c0 -17 18 -36 30 -32 7 2 4 10 -9 22 -12 11 -21 15 -21
10z"/>
<path d="M3836 979 c-31 -25 -95 -108 -121 -159 -10 -19 -21 -37 -25 -40 -4
-3 -11 -21 -14 -40 -7 -32 -5 -31 23 19 17 30 57 88 89 129 97 126 99 131 48
91z"/>
<path d="M3582 870 c0 -14 2 -19 5 -12 2 6 2 18 0 25 -3 6 -5 1 -5 -13z"/>
<path d="M3579 768 c0 -40 -4 -140 -7 -221 -7 -134 -9 -150 -28 -165 -34 -27
-36 -59 -6 -87 21 -20 26 -35 29 -87 2 -34 9 -65 15 -69 15 -9 4 -90 -14 -100
-7 -4 -22 -15 -33 -23 -19 -14 -17 -15 33 -16 l52 0 0 38 c0 20 -7 69 -15 107
-12 54 -15 141 -15 383 0 171 -2 312 -5 312 -3 0 -5 -33 -6 -72z"/>
<path d="M2484 750 c3 -47 6 -155 6 -240 0 -98 4 -149 10 -139 10 17 6 353 -5
414 -13 70 -18 53 -11 -35z"/>
<path d="M1018 720 c2 -22 6 -40 8 -40 2 0 4 18 4 40 0 22 -3 40 -8 40 -4 0
-6 -18 -4 -40z"/>
<path d="M3661 684 c0 -11 3 -14 6 -6 3 7 2 16 -1 19 -3 4 -6 -2 -5 -13z"/>
<path d="M951 630 c0 -8 4 -22 9 -30 12 -18 12 -2 0 25 -6 13 -9 15 -9 5z"/>
<path d="M2171 630 c-2 -18 22 -187 36 -250 25 -117 27 -64 2 82 -18 113 -36
188 -38 168z"/>
<path d="M948 513 c24 -34 62 -168 62 -221 0 -18 5 -43 11 -55 9 -16 9 -22 0
-25 -6 -2 -9 -8 -5 -13 3 -5 -2 -9 -12 -9 -14 0 -14 -2 3 -18 19 -16 36 -62
48 -129 3 -18 4 -33 1 -33 -2 0 -23 7 -46 15 -23 8 -57 15 -74 14 -25 0 -20
-3 29 -19 33 -11 76 -20 96 -20 l35 0 -7 53 c-4 28 -8 92 -8 141 -1 49 -4 86
-8 82 -4 -4 -6 -22 -5 -41 2 -19 -2 -35 -7 -35 -10 0 -15 14 -25 75 -7 41 -53
226 -57 228 -2 1 -15 11 -28 22 l-25 20 22 -32z"/>
<path d="M3613 265 c0 -22 2 -30 4 -17 2 12 2 30 0 40 -3 9 -5 -1 -4 -23z"/>
<path d="M2791 178 c-5 -29 -13 -73 -16 -98 -4 -25 -9 -53 -11 -62 -4 -13 0
-18 15 -18 12 0 22 3 22 8 1 4 3 43 5 87 2 44 6 92 8 108 3 15 1 27 -4 27 -5
0 -13 -24 -19 -52z"/>
<path d="M868 43 c6 -2 18 -2 25 0 6 3 1 5 -13 5 -14 0 -19 -2 -12 -5z"/>
<path d="M360 30 c-34 -7 -34 -7 -5 -8 17 0 41 4 55 8 33 11 0 11 -50 0z"/>
<path d="M3630 31 c0 -5 5 -13 10 -16 6 -3 10 -2 10 4 0 5 -4 13 -10 16 -5 3
-10 2 -10 -4z"/>
<path d="M245 10 c-18 -8 -18 -9 5 -9 14 0 32 4 40 9 12 8 12 10 -5 9 -11 0
-29 -4 -40 -9z"/>
</g>
</svg>
