<svg width="462" height="462" viewBox="0 0 462 462" fill="none" xmlns="http://www.w3.org/2000/svg">
<path d="M230.998 37.9556C124.363 37.9556 37.9531 124.365 37.9531 231.001C37.9531 337.636 124.363 424.046 230.998 424.046C337.633 424.046 424.043 337.636 424.043 231.001C424.043 124.365 337.581 37.9556 230.998 37.9556ZM230.998 407.42C133.576 407.42 54.5256 328.423 54.5256 231.001C54.5256 133.578 133.523 54.528 230.998 54.528C328.474 54.528 407.471 133.525 407.471 231.001C407.471 328.476 328.474 407.42 230.998 407.42Z" fill="#59AA24"/>
<path d="M323.844 358.12C394.043 306.837 409.376 208.356 358.093 138.157C306.809 67.9583 208.328 52.6247 138.129 103.908C67.9307 155.192 52.5971 253.673 103.881 323.872C155.164 394.07 253.645 409.404 323.844 358.12Z" fill="#DFDDDE"/>
<path d="M346.5 346.5C410.289 282.711 410.289 179.289 346.5 115.5C282.711 51.7111 179.289 51.7111 115.5 115.5C51.7111 179.289 51.7111 282.711 115.5 346.5C179.289 410.289 282.711 410.289 346.5 346.5Z" fill="#CCCCCC"/>
<path d="M323.844 358.12C394.043 306.837 409.376 208.356 358.093 138.157C306.809 67.9583 208.328 52.6247 138.129 103.908C67.9307 155.192 52.5971 253.673 103.881 323.872C155.164 394.07 253.645 409.404 323.844 358.12Z" fill="#DFDDDE"/>
<path d="M189.684 277.17C188.678 278.599 188.678 280.505 188.36 282.253C187.036 289.453 180.153 294.007 173.853 297.713C153.203 309.785 132.501 321.645 112.328 334.406C141.184 367.497 183.648 388.464 230.982 388.464C280.7 388.464 325.069 365.38 353.926 329.323C336.453 320.269 318.98 311.215 301.508 302.161C297.378 300.043 293.301 297.925 288.96 296.231C285.571 294.907 281.971 293.848 279.217 291.518C274.876 287.865 275.935 281.988 274.77 276.958C274.452 275.581 274.134 274.152 273.234 273.04C271.169 270.446 267.039 270.604 264.763 268.222C263.386 266.792 262.963 264.674 262.91 262.662C262.91 261.392 263.015 260.068 263.598 258.956C264.339 257.632 265.98 256.997 267.092 256.044C268.31 255.038 269.528 254.191 270.852 253.291C273.605 251.438 276.146 249.373 277.417 246.196C279.27 241.589 280.541 236.242 281.07 231.265C281.653 226.023 280.488 219.828 282.712 214.904C284.883 210.139 289.33 208.021 290.336 202.461C291.183 197.749 290.336 191.607 288.43 187.266C287.53 185.201 286.1 183.93 284.936 182.183C283.665 180.33 284.512 178.106 284.777 175.935C285.571 169.475 284.194 162.963 282.818 156.609C282.341 154.333 281.865 152.109 281.017 149.938C279.27 145.437 275.987 141.572 271.858 139.031C269.793 137.76 267.41 137.178 265.345 135.96C263.068 134.636 260.739 133.524 258.25 132.465C252.797 130.136 247.237 128.124 241.519 126.694C230.294 123.888 218.169 123.359 207.527 128.389C202.02 130.983 196.779 135.642 196.196 141.731C188.413 139.507 179.306 143.161 175.176 150.15C171.894 155.709 171.205 162.169 171.523 168.522C171.788 174.347 173.853 179.588 174.7 185.36C174.912 186.948 175.123 188.695 174.223 190.072C173.482 191.184 172.105 191.819 171.417 192.931C170.888 193.778 170.835 194.837 170.782 195.843C170.358 203.044 170.093 210.774 173.959 216.81C174.488 217.657 175.123 218.504 175.918 219.087C176.553 219.563 177.294 219.934 177.93 220.358C181.212 222.423 183.436 225.917 184.654 229.623C185.766 233.065 185.607 236.612 186.507 240.054C187.248 242.86 188.148 245.878 189.154 248.631C190.001 250.908 191.537 252.285 193.231 253.926C194.978 255.62 196.037 257.579 198.579 258.268C198.738 258.797 199.002 259.221 199.214 259.697C199.744 260.968 199.797 262.398 199.85 263.827C199.956 266.369 200.167 270.393 198.473 272.405C196.302 274.999 191.802 274.152 189.79 277.117L189.684 277.17Z" fill="#546F7A"/>
</svg>
