<svg width="133" height="144" viewBox="0 0 133 144" fill="none" xmlns="http://www.w3.org/2000/svg">
<path d="M92.5013 75.9976C62.9013 55.9976 33.8346 67.6643 23.0013 75.9976C13.0011 83.1976 7.50123 95.6643 6.00129 100.998C-2.39871 124.598 6.83462 134.164 12.5013 135.998C12.5013 135.998 78.8346 140.331 95.0013 137.998C106.501 125.664 122.101 95.9976 92.5013 75.9976Z" fill="#95D4FA"/>
<path d="M95.3431 76.5299C69.8708 55.6437 44.8575 67.8273 35.5348 76.5299C26.9292 84.0489 22.1962 97.068 20.9055 102.638C13.6768 127.283 21.6226 137.274 26.499 139.188C26.499 139.188 81.4309 139.934 95.3431 137.498C105.239 124.618 120.815 97.4161 95.3431 76.5299Z" fill="#A5DDFF"/>
<path d="M130.969 106.498C130.969 91.8802 119.118 80.0298 104.5 80.0298C89.8817 80.0298 78.0312 91.8802 78.0312 106.498C78.0312 121.117 89.8817 132.967 104.5 132.967C119.118 132.967 130.969 121.117 130.969 106.498Z" fill="#95E540"/>
<path d="M114.782 97.22L100.571 111.432L93.1227 103.984C92.7829 103.644 92.3795 103.374 91.9356 103.19C91.4916 103.006 91.0157 102.912 90.5351 102.912C90.0545 102.912 89.5786 103.006 89.1346 103.19C88.6906 103.374 88.2871 103.643 87.9472 103.983C87.6073 104.323 87.3377 104.726 87.1538 105.17C86.9698 105.614 86.8751 106.09 86.875 106.571C86.8749 107.051 86.9695 107.527 87.1534 107.971C87.3372 108.415 87.6068 108.819 87.9465 109.159L97.9815 119.194C98.3212 119.533 98.7245 119.803 99.1684 119.987C99.6123 120.171 100.088 120.265 100.569 120.265C101.049 120.265 101.525 120.171 101.969 119.987C102.413 119.803 102.816 119.533 103.156 119.194L119.956 102.398C120.642 101.712 121.028 100.781 121.028 99.811C121.028 98.8406 120.642 97.9099 119.956 97.2237C119.27 96.5375 118.339 96.1519 117.369 96.1519C116.399 96.1518 115.468 96.5372 114.782 97.2234L114.782 97.22Z" fill="white" stroke="black" stroke-width="0.5"/>
<path d="M117.371 94.7158C116.702 94.7139 116.04 94.8448 115.421 95.1008C114.803 95.3569 114.242 95.7331 113.771 96.2077C113.771 96.2077 113.77 96.2077 113.77 96.2077L100.571 109.405L94.1356 102.97C93.1809 102.016 91.886 101.479 90.5358 101.479C89.1857 101.48 87.8908 102.016 86.9362 102.971C85.9815 103.925 85.4452 105.22 85.4453 106.57C85.4454 107.921 85.9818 109.215 86.9365 110.17L96.9722 120.205L96.9722 120.205C97.9268 121.16 99.2215 121.696 100.571 121.696C101.921 121.696 103.216 121.16 104.171 120.205L104.171 120.205L120.97 103.406L120.793 103.229L120.97 103.406C121.682 102.694 122.167 101.787 122.363 100.799C122.559 99.8119 122.458 98.7885 122.073 97.8584C121.688 96.9283 121.036 96.1334 120.199 95.574C119.362 95.0147 118.378 94.7161 117.371 94.7158ZM117.371 94.7158C117.371 94.7158 117.371 94.7158 117.371 94.7158L117.371 94.9658L117.372 94.7158C117.371 94.7158 117.371 94.7158 117.371 94.7158ZM88.9614 108.146L88.9614 108.146L98.9943 118.178C99.4195 118.583 99.984 118.808 100.571 118.808C101.158 118.808 101.723 118.583 102.148 118.178L118.945 101.382C119.362 100.963 119.596 100.397 119.596 99.806C119.596 99.2163 119.362 98.6507 118.946 98.2328C118.521 97.8284 117.957 97.6028 117.37 97.6028C116.783 97.6028 116.219 97.8284 115.794 98.2329L101.584 112.443C101.584 112.443 101.584 112.443 101.584 112.443C101.451 112.576 101.293 112.682 101.119 112.754C100.945 112.826 100.759 112.863 100.571 112.863C100.383 112.863 100.197 112.826 100.023 112.754C99.8493 112.682 99.6915 112.576 99.5586 112.443L88.9614 108.146ZM88.9614 108.146C88.5436 107.728 88.3089 107.162 88.3088 106.571C88.3086 105.98 88.5432 105.414 88.9608 104.996C89.3784 104.578 89.9449 104.343 90.5356 104.343C91.1264 104.343 91.6929 104.578 92.1107 104.995C92.1107 104.995 92.1107 104.995 92.1107 104.995L99.5585 112.443L88.9614 108.146Z" fill="black" stroke="black" stroke-width="0.5"/>
<path d="M104.5 79C100.265 78.9997 96.0875 79.9775 92.2927 81.8572C88.4978 83.7369 85.1884 86.4677 82.6224 89.8367C80.0564 93.2057 78.3033 97.1219 77.4997 101.28C76.696 105.438 76.8636 109.725 77.9894 113.808C79.1151 117.89 81.1686 121.658 83.9897 124.816C86.8108 127.974 90.3233 130.439 94.2533 132.016C98.1833 133.594 102.425 134.243 106.647 133.912C110.869 133.581 114.957 132.279 118.593 130.109C118.713 130.041 118.819 129.95 118.903 129.842C118.987 129.733 119.049 129.608 119.084 129.475C119.119 129.342 119.128 129.203 119.108 129.067C119.089 128.931 119.043 128.8 118.972 128.682C118.901 128.564 118.807 128.461 118.696 128.38C118.585 128.299 118.458 128.241 118.324 128.209C118.19 128.178 118.052 128.173 117.916 128.197C117.78 128.22 117.65 128.27 117.535 128.344C112.237 131.5 105.973 132.622 99.9097 131.501C93.8463 130.38 88.3974 127.093 84.5786 122.251C80.7598 117.41 78.8317 111.345 79.1538 105.188C79.4758 99.03 82.0259 93.1994 86.3289 88.7828C90.6318 84.3663 96.3939 81.6651 102.541 81.1827C108.688 80.7003 114.801 82.4697 119.741 86.1611C124.68 89.8524 128.108 95.2138 129.387 101.246C130.665 107.278 129.707 113.569 126.69 118.947C126.624 119.065 126.581 119.195 126.565 119.329C126.549 119.463 126.56 119.599 126.596 119.729C126.632 119.859 126.694 119.981 126.778 120.087C126.861 120.193 126.965 120.282 127.083 120.348C127.2 120.414 127.33 120.457 127.464 120.473C127.598 120.489 127.734 120.478 127.865 120.442C127.995 120.405 128.116 120.344 128.223 120.26C128.329 120.177 128.418 120.073 128.484 119.955C130.831 115.77 132.043 111.044 131.999 106.246C131.954 101.447 130.655 96.7442 128.23 92.6035C125.806 88.4628 122.34 85.0286 118.177 82.6422C114.014 80.2557 109.299 79.0001 104.5 79Z" fill="black" stroke="black" stroke-width="2"/>
<path d="M123.019 123.566C122.739 123.883 122.444 124.196 122.141 124.494C121.953 124.68 121.761 124.862 121.564 125.04C121.488 125.106 121.425 125.187 121.381 125.277C121.337 125.368 121.311 125.466 121.306 125.566C121.3 125.666 121.315 125.766 121.349 125.861C121.384 125.955 121.437 126.042 121.505 126.116C121.574 126.19 121.656 126.25 121.749 126.292C121.841 126.334 121.941 126.357 122.042 126.361C122.144 126.364 122.245 126.348 122.34 126.312C122.435 126.277 122.522 126.223 122.596 126.154C122.81 125.961 123.019 125.763 123.223 125.562C123.55 125.239 123.869 124.901 124.172 124.557C124.238 124.482 124.288 124.395 124.32 124.301C124.352 124.207 124.365 124.108 124.358 124.009C124.352 123.91 124.325 123.813 124.28 123.725C124.236 123.636 124.174 123.557 124.098 123.491C124.022 123.426 123.934 123.377 123.839 123.345C123.744 123.313 123.643 123.301 123.543 123.307C123.443 123.314 123.345 123.34 123.255 123.385C123.165 123.429 123.085 123.49 123.019 123.565V123.566Z" fill="black" stroke="black" stroke-width="2"/>
<path d="M58 63.9976C74.5685 63.9976 88 50.5661 88 33.9976C88 17.429 74.5685 3.99756 58 3.99756C41.4315 3.99756 28 17.429 28 33.9976C28 50.5661 41.4315 63.9976 58 63.9976Z" fill="#FFCDAC"/>
<path d="M3.43263 126.188C1.5361 126.188 0 124.654 0 122.76V114.308C0 97.1952 8.88622 80.7336 23.196 71.3349C39.3379 60.7362 62.019 58.6276 82.3831 65.8234C84.1724 66.4534 85.1078 68.412 84.4727 70.1992C83.842 71.9821 81.8897 72.9207 80.0961 72.2864C61.9933 65.892 41.1272 67.7649 26.9633 77.065C14.5672 85.208 6.86526 99.4795 6.86526 114.308V122.76C6.86526 124.654 5.32916 126.188 3.43263 126.188Z" fill="black"/>
<path d="M58.324 144C43.4178 144 28.5288 142.521 13.7856 139.568C11.9234 139.196 10.722 137.387 11.0953 135.531C11.4686 133.671 13.2836 132.475 15.1372 132.844C40.7146 137.966 66.7382 138.514 92.5087 134.464C94.3752 134.168 96.1387 135.445 96.4348 137.318C96.7266 139.187 95.4479 140.944 93.5771 141.236C81.8633 143.078 70.0894 143.996 58.3283 143.996L58.324 144Z" fill="black"/>
<path d="M14.4642 139.633C14.2411 139.633 14.0094 139.611 13.7863 139.564C5.79685 137.961 0 130.898 0 122.756C0 120.861 1.5361 119.327 3.43263 119.327C5.32916 119.327 6.86526 120.861 6.86526 122.756C6.86526 127.637 10.3451 131.88 15.1379 132.84C16.9958 133.213 18.2015 135.021 17.8239 136.877C17.4978 138.51 16.0647 139.633 14.4642 139.633Z" fill="black"/>
<path d="M58.1481 68.5362C55.0673 68.5362 52.0122 68.1162 49.0645 67.2934C32.1459 62.5533 21.3975 45.2945 24.5984 28.0101C27.7435 11.0427 43.9842 -1.47173 61.5335 0.139722C78.997 1.73831 92.6803 16.7342 92.6803 34.2758C92.6803 38.463 91.9294 42.5602 90.4534 46.4517C85.4289 59.6604 72.445 68.5405 58.1481 68.5405V68.5362ZM58.457 6.84695C45.3701 6.84695 33.7163 16.4771 31.3521 29.2444C28.7905 43.0831 37.3849 56.8875 50.9181 60.6804C53.2651 61.3405 55.698 61.6705 58.1438 61.6705C69.6087 61.6705 80.0096 54.5732 84.0301 44.0045C85.21 40.8974 85.8108 37.6187 85.8108 34.2673C85.8108 20.2357 74.8692 8.23553 60.8984 6.95409C60.0832 6.87695 59.2679 6.84266 58.4527 6.84266L58.457 6.84695Z" fill="black"/>
<path d="M92.6216 78.3035C91.9479 78.3035 91.2614 78.1064 90.6693 77.6949C87.3997 75.4278 83.8469 73.6106 80.1011 72.2863C78.3118 71.6563 77.3764 69.6977 78.0115 67.9105C78.6422 66.1234 80.5988 65.1848 82.3881 65.8191C86.7089 67.3448 90.8109 69.4448 94.5868 72.0549C96.14 73.1349 96.5305 75.2692 95.4492 76.8292C94.7799 77.7892 93.7115 78.3035 92.6259 78.3035H92.6216Z" fill="black"/>
</svg>
