<svg width="26" height="26" viewBox="0 0 26 26" fill="none" xmlns="http://www.w3.org/2000/svg">
<path d="M19.48 19.4807C17.6152 20.9022 15.3445 21.6897 13 21.728C5.36364 21.728 1 13.0007 1 13.0007C2.35697 10.4719 4.23906 8.26249 6.52 6.52074M10.7091 4.53528C11.46 4.35952 12.2288 4.27165 13 4.27346C20.6364 4.27346 25 13.0007 25 13.0007C24.3378 14.2396 23.5481 15.4059 22.6436 16.4807M15.3127 15.3135C15.0131 15.635 14.6518 15.8929 14.2503 16.0718C13.8489 16.2507 13.4155 16.3468 12.9761 16.3546C12.5367 16.3623 12.1002 16.2815 11.6927 16.1169C11.2852 15.9523 10.915 15.7073 10.6042 15.3965C10.2934 15.0858 10.0484 14.7156 9.88383 14.3081C9.71923 13.9006 9.63839 13.4641 9.64615 13.0246C9.6539 12.5852 9.75008 12.1518 9.92896 11.7504C10.1078 11.3489 10.3657 10.9876 10.6873 10.688" stroke="#A9A9A9" stroke-width="2" stroke-linecap="round" stroke-linejoin="round"/>
<path d="M1 1L25 25" stroke="#A9A9A9" stroke-width="2" stroke-linecap="round" stroke-linejoin="round"/>
</svg>
