<svg width="32" height="36" viewBox="0 0 32 36" fill="none" xmlns="http://www.w3.org/2000/svg">
<g clip-path="url(#clip0_542_85829)">
<path d="M14.3588 35.38C13.6389 35.0379 12.9294 34.6616 12.4976 34.0068C12.1391 33.4641 11.8793 32.8651 11.5447 32.2326C10.1347 32.2377 8.61506 32.2427 7.09549 32.2485C5.62154 32.2538 4.14783 32.2669 2.67436 32.263C1.64743 32.2604 0.922716 31.6301 0.896047 30.7382C0.882267 30.2773 1.08002 29.8954 1.42168 29.5692C2.474 28.5638 3.33156 27.4302 3.99981 26.1719C5.09796 24.1047 5.48795 21.9099 5.4377 19.6187C5.39755 17.7927 5.34204 15.9614 5.43967 14.1389C5.62524 10.6784 7.38335 8.04249 10.5639 6.2477C11.1436 5.92108 11.7942 5.70032 12.4227 5.45463C12.619 5.37803 12.6904 5.29756 12.6897 5.09638C12.6865 4.32852 12.6626 3.55694 12.728 2.79299C12.8461 1.42551 14.3783 0.263949 15.8474 0.377061C17.5872 0.51155 18.7448 1.65494 18.7837 3.28475C18.7966 3.81929 18.818 4.35573 18.7845 4.88862C18.7624 5.24341 18.9052 5.38992 19.2575 5.49704C20.7674 5.95482 22.0725 6.73737 23.1787 7.78928C25.2181 9.72682 26.1864 12.0688 26.1996 14.7725C26.2105 16.9443 26.1858 19.1198 26.3129 21.2865C26.4511 23.642 27.3467 25.7924 28.8235 27.7133C29.3451 28.392 29.9762 28.9964 30.5366 29.65C31.2443 30.4755 30.8858 31.6884 29.8241 32.0494C29.5726 32.1345 29.285 32.1574 29.0135 32.1595C26.1982 32.1773 23.3819 32.1902 20.5668 32.1883C20.2427 32.1881 20.1298 32.2774 20.0542 32.572C19.5586 34.518 17.6506 35.7764 15.5064 35.5999C15.4499 35.5949 15.3911 35.612 15.3335 35.6192L14.3581 35.3807L14.3588 35.38ZM18.3728 6.43438C16.1149 5.91225 14.0981 5.97758 12.1766 6.78856C8.85878 8.18874 6.97968 10.6195 6.71694 13.992C6.56198 15.9832 6.67078 17.9937 6.69489 19.9959C6.7284 22.7444 6.05447 25.3135 4.54933 27.6844C3.93187 28.6567 3.18694 29.538 2.35973 30.364C2.2445 30.4789 2.15771 30.7305 2.21685 30.8516C2.27841 30.9768 2.53303 31.0213 2.70495 31.0983C2.72345 31.1063 2.75199 31.0943 2.77555 31.0937C11.3895 31.0598 20.0027 31.0275 28.6163 30.9852C28.9494 30.9837 29.3958 31.1564 29.5838 30.7541C29.7789 30.3354 29.3239 30.1509 29.0901 29.9125C26.7432 27.5117 25.3253 24.7088 25.0575 21.4767C24.8991 19.5617 24.9653 17.6309 24.9428 15.7067C24.929 14.5594 24.954 13.4104 24.5883 12.2962C23.5882 9.25016 21.42 7.30248 18.372 6.4344L18.3728 6.43438ZM13.9225 5.01367C15.1164 4.85261 16.2099 4.81598 17.3061 4.97552C17.3634 4.98397 17.5026 4.855 17.5036 4.78909C17.5097 4.17826 17.5362 3.56408 17.4725 2.95859C17.3897 2.17436 16.6555 1.60949 15.7635 1.56443C14.9956 1.52538 14.1819 2.04008 14.0564 2.77583C13.934 3.49166 13.9629 4.22981 13.9225 5.01367Z" fill="black"/>
<path d="M18.3734 6.4343C21.4206 7.30168 23.5889 9.25007 24.5896 12.2961C24.9554 13.4103 24.9304 14.56 24.9442 15.7066C24.9667 17.6308 24.9012 19.5616 25.0589 21.4766C25.3259 24.7087 26.7439 27.5124 29.0915 29.9124C29.3245 30.1508 29.7803 30.3353 29.5852 30.754C29.3979 31.1563 28.9516 30.9836 28.6177 30.9851C20.0041 31.0274 11.3908 31.059 2.77693 31.0935C2.75337 31.0942 2.72483 31.1062 2.70633 31.0982C2.53441 31.0211 2.27979 30.9767 2.21824 30.8515C2.15909 30.7304 2.24665 30.4788 2.36111 30.3639C3.18754 29.5372 3.93325 28.6566 4.55071 27.6843C6.05586 25.3134 6.73054 22.7443 6.69628 19.9958C6.67142 17.9944 6.56336 15.9831 6.71832 13.9919C6.98107 10.6194 8.86019 8.18934 12.178 6.78845C14.0987 5.97749 16.1163 5.91285 18.3742 6.43428L18.3734 6.4343Z" fill="#A5DDFF"/>
<path d="M13.9221 5.01339C13.9625 4.22882 13.9336 3.49067 14.056 2.77555C14.1823 2.03978 14.9953 1.5251 15.7631 1.56415C16.6552 1.60922 17.3894 2.17408 17.4721 2.95831C17.5359 3.5638 17.5086 4.17871 17.5033 4.78881C17.503 4.8547 17.3631 4.98369 17.3058 4.97525C16.2095 4.815 15.116 4.85162 13.9221 5.01339Z" fill="#BAEE83"/>
</g>
<defs>
<clipPath id="clip0_542_85829">
<rect width="29.9984" height="35.2445" fill="white" transform="matrix(0.999669 -0.02571 0.0298876 0.999553 0 0.770996)"/>
</clipPath>
</defs>
</svg>
