<svg width="26" height="26" viewBox="0 0 26 26" fill="none" xmlns="http://www.w3.org/2000/svg">
<path d="M13 25C19.6274 25 25 19.6274 25 13C25 6.37258 19.6274 1 13 1C6.37258 1 1 6.37258 1 13C1 19.6274 6.37258 25 13 25Z" stroke="black" stroke-width="2" stroke-linecap="round" stroke-linejoin="round"/>
<path d="M9.50586 9.39902C9.78798 8.59702 10.3448 7.92075 11.0778 7.48998C11.8108 7.05921 12.6725 6.90175 13.5105 7.04548C14.3484 7.18921 15.1084 7.62485 15.656 8.27526C16.2035 8.92566 16.5031 9.74885 16.5019 10.599C16.5019 12.999 12.9019 14.199 12.9019 14.199" stroke="black" stroke-width="2" stroke-linecap="round" stroke-linejoin="round"/>
<path d="M13 19H13.0115" stroke="black" stroke-width="2" stroke-linecap="round" stroke-linejoin="round"/>
</svg>
