<svg width="144" height="144" viewBox="0 0 144 144" fill="none" xmlns="http://www.w3.org/2000/svg">
<path d="M139.995 112.959L84.15 16.1272C78.7535 6.77011 65.2469 6.77011 59.8504 16.1272L4.00574 112.959C-1.38636 122.306 5.36255 133.984 16.1544 133.984H127.846C138.638 133.984 145.386 122.306 139.995 112.959Z" fill="#E6E6E6"/>
<path d="M16.1539 125.547C13.2425 125.547 11.8011 123.595 11.3155 122.755C10.831 121.916 9.86092 119.692 11.3133 117.173L67.1591 20.3418C68.6148 17.8193 71.0296 17.5469 71.9997 17.5469C72.9708 17.5469 75.3846 17.8193 76.8402 20.3418L132.686 117.173C134.138 119.692 133.168 121.916 132.684 122.755C132.198 123.595 130.757 125.547 127.845 125.547H16.1539Z" fill="#FF5046"/>
<path d="M72 91.2344C69.204 91.2344 66.9375 88.9679 66.9375 86.1719V54.6719C66.9375 51.8759 69.204 49.6094 72 49.6094C74.796 49.6094 77.0625 51.8759 77.0625 54.6719V86.1719C77.0625 88.9679 74.796 91.2344 72 91.2344Z" fill="white"/>
<path d="M77.0625 104.734C77.0625 107.53 74.796 109.797 72 109.797C69.204 109.797 66.9375 107.53 66.9375 104.734C66.9375 101.938 69.204 99.6719 72 99.6719C74.796 99.6719 77.0625 101.938 77.0625 104.734Z" fill="white"/>
<path d="M141.818 111.905L94.2154 29.3628C93.6331 28.3531 92.3433 28.007 91.3348 28.5893C90.3262 29.1716 89.9791 30.4614 90.5613 31.4699L138.163 114.014C140.314 117.742 140.312 122.194 138.159 125.922C136.005 129.65 132.148 131.876 127.841 131.876H16.1586C11.8519 131.876 7.99462 129.65 5.8413 125.922C3.68798 122.194 3.68578 117.742 5.83691 114.014L13.7976 100.208C14.3799 99.1996 14.0338 97.9087 13.0242 97.3275C12.0145 96.7453 10.7258 97.0913 10.1435 98.101L2.18285 111.905C-0.729629 116.956 -0.727432 122.984 2.18834 128.032C5.10412 133.08 10.327 136.095 16.1586 136.095H127.841C133.673 136.095 138.896 133.08 141.812 128.032C144.727 122.984 144.729 116.956 141.818 111.905Z" fill="black"/>
<path d="M15.4074 93.1911C15.7392 93.3823 16.1018 93.4735 16.4588 93.4735C17.1883 93.4735 17.898 93.0944 18.2881 92.4177L61.6764 17.181C63.8297 13.4479 67.6881 11.2188 71.9981 11.2188C76.308 11.2188 80.1664 13.4479 82.3197 17.181L86.0496 23.6487C86.6319 24.6583 87.9217 25.0033 88.9302 24.4221C89.9399 23.841 90.2859 22.5512 89.7037 21.5415L85.9738 15.0728C83.0591 10.0179 77.834 7 71.9981 7C66.1621 7 60.937 10.0179 58.0224 15.0728L14.634 90.3094C14.0517 91.3191 14.3989 92.6088 15.4074 93.1911Z" fill="black"/>
<path d="M127.84 123.438H117.167C116.002 123.438 115.058 124.381 115.058 125.547C115.058 126.713 116.002 127.656 117.167 127.656H127.84C131.85 127.656 133.838 124.967 134.506 123.81C135.174 122.654 136.51 119.591 134.508 116.12L78.6665 19.2882C76.6615 15.8132 73.3359 15.4375 71.9989 15.4375C70.6618 15.4375 67.3363 15.8132 65.3323 19.2882L9.48989 116.12C7.48817 119.591 8.82521 122.654 9.49318 123.81C10.1612 124.966 12.1475 127.656 16.1575 127.656H107.854C109.02 127.656 109.963 126.713 109.963 125.547C109.963 124.381 109.02 123.438 107.854 123.438H16.1575C14.4107 123.438 13.5208 122.349 13.145 121.7C12.7715 121.051 12.2727 119.739 13.1439 118.228L68.9864 21.3965C69.8587 19.8826 71.2485 19.6563 71.9989 19.6563C72.7492 19.6563 74.139 19.8826 75.0124 21.3965L130.854 118.227C131.725 119.739 131.227 121.051 130.853 121.7C130.478 122.349 129.588 123.438 127.84 123.438Z" fill="black"/>
<path d="M79.1727 54.6719C79.1727 50.7168 75.9548 47.5 72.0009 47.5C68.0469 47.5 64.8301 50.7168 64.8301 54.6719V86.1719C64.8301 90.127 68.0469 93.3438 72.0009 93.3438C75.9548 93.3438 79.1727 90.127 79.1727 86.1719V54.6719ZM74.954 86.1719C74.954 87.8001 73.629 89.125 72.0009 89.125C70.3727 89.125 69.0477 87.8001 69.0477 86.1719V54.6719C69.0477 53.0437 70.3727 51.7188 72.0009 51.7188C73.629 51.7188 74.954 53.0437 74.954 54.6719V86.1719Z" fill="black"/>
<path d="M72.0009 97.5625C68.0469 97.5625 64.8301 100.779 64.8301 104.734C64.8301 108.689 68.0469 111.906 72.0009 111.906C75.9548 111.906 79.1727 108.689 79.1727 104.734C79.1727 100.779 75.9548 97.5625 72.0009 97.5625ZM72.0009 107.688C70.3727 107.688 69.0477 106.363 69.0477 104.734C69.0477 103.106 70.3727 101.781 72.0009 101.781C73.629 101.781 74.954 103.106 74.954 104.734C74.954 106.363 73.629 107.688 72.0009 107.688Z" fill="black"/>
</svg>
