<svg width="144" height="144" viewBox="0 0 144 144" fill="none" xmlns="http://www.w3.org/2000/svg">
<g clip-path="url(#clip0_542_85209)">
<mask id="mask0_542_85209" style="mask-type:luminance" maskUnits="userSpaceOnUse" x="0" y="0" width="144" height="144">
<path d="M0 1.52588e-05H144V144H0V1.52588e-05Z" fill="white"/>
</mask>
<g mask="url(#mask0_542_85209)">
<path d="M69.5278 51.5307C76.0606 53.4297 81.6586 57.2282 85.694 61.9678C85.6968 61.9678 85.6996 61.9707 85.6996 61.9735C86.4427 62.8403 87.1683 63.776 87.7837 64.6622V64.665C88.3696 65.495 89.1092 66.6841 89.4853 67.3735C89.4881 67.3763 89.4909 67.3794 89.4909 67.3819C90.7287 69.5759 91.7648 72.02 92.5087 74.6016C92.5115 74.6016 92.5087 74.6044 92.5087 74.6044C95.8145 86.1424 92.8366 98.8943 83.9334 107.798L60.4265 131.302C47.2471 144.484 25.8778 144.484 12.6984 131.302C-0.484066 118.119 -0.481534 96.7534 12.6984 83.5737L36.2025 60.0669C40.5506 55.7213 45.7846 52.8075 51.3253 51.3282C50.5631 54.1857 50.1806 57.1275 50.1806 60.0669C50.1806 63.211 50.6165 66.3525 51.4912 69.3985C50.2931 70.1044 49.1625 70.9707 48.1359 72L24.629 95.5044C18.0506 102.085 18.0506 112.79 24.629 119.371C31.2103 125.95 41.9146 125.95 48.4959 119.371L72 95.8641C78.5809 89.2828 78.5801 78.5802 72 72C66.4481 66.4482 65.579 57.96 69.3984 51.4913C69.4406 51.5025 69.4856 51.5166 69.5278 51.5307Z" fill="#E5C140"/>
<path d="M131.301 12.6987C118.122 -0.483505 96.7525 -0.483505 83.5734 12.6987L60.0666 36.2025C46.9131 49.356 46.8551 70.7225 60.0666 83.9334C64.26 88.1243 69.28 90.9846 74.6013 92.509C78.4206 86.0402 77.5519 77.5521 71.9997 72.0002C65.4187 65.419 65.4199 54.7163 71.9997 48.1362L95.9259 24.2102L95.9341 24.2156C102.51 18.0672 112.92 18.1786 119.371 24.6293C125.949 31.2103 125.949 41.9149 119.371 48.4959L95.8638 72.0002C94.8445 73.0195 93.7395 73.8728 92.5085 74.6043C93.3803 77.6477 93.8191 80.7918 93.8191 83.9334C93.8191 86.8725 93.4366 89.8143 92.6744 92.6721C98.215 91.1927 103.449 88.2787 107.797 83.9334L131.301 60.4265C144.484 47.2441 144.481 25.8783 131.301 12.6987Z" fill="#A5DDFF"/>
<path d="M69.3971 51.4912C74.7195 53.0167 79.7401 55.8756 83.9327 60.0676C97.1126 73.2479 97.1126 94.6172 83.9327 107.797L60.4272 131.302C47.2473 144.483 25.8779 144.483 12.6977 131.302C-0.482555 118.122 -0.482555 96.7531 12.6977 83.5728L36.2028 60.0676C40.5496 55.7209 45.7873 52.8077 51.3279 51.3281C45.7873 52.8077 40.5496 55.7209 36.2028 60.0676L12.6977 83.5728C-0.482555 96.7531 -0.482555 118.122 12.6977 131.302C25.8779 144.483 47.2473 144.483 60.4272 131.302L83.9327 107.797C97.1126 94.6172 97.1126 73.2479 83.9327 60.0676C79.7401 55.8756 74.7195 53.0167 69.3971 51.4912Z" stroke="black" stroke-width="5" stroke-miterlimit="10" stroke-linecap="round" stroke-linejoin="round"/>
<path d="M92.5098 74.603C93.7082 73.896 94.8371 73.0283 95.8656 72.0001L119.371 48.4952C125.95 41.915 125.95 31.2101 119.371 24.63C113.459 18.7184 104.217 18.1182 97.6291 22.8294" stroke="black" stroke-width="5" stroke-miterlimit="10" stroke-linecap="round" stroke-linejoin="round"/>
<path d="M81.584 38.5515L72.0001 48.1353C65.42 54.7152 65.42 65.4201 72.0001 72.0002C78.5799 78.5801 78.5799 89.2853 72.0001 95.8649L48.4952 119.37C41.915 125.95 31.2101 125.95 24.63 119.37C18.0504 112.79 18.0504 102.085 24.63 95.5051L48.1352 72.0002C49.1637 70.9717 50.2926 70.1043 51.491 69.3973" stroke="black" stroke-width="5" stroke-miterlimit="10" stroke-linecap="round" stroke-linejoin="round"/>
<path d="M74.6022 92.5092C69.2798 90.9837 64.2592 88.1248 60.0666 83.9328C46.8867 70.7526 46.8867 49.3832 60.0666 36.203L83.5721 12.6981C96.752 -0.482417 118.121 -0.482417 131.302 12.6981C144.482 25.878 144.482 47.2474 131.302 60.4276L107.796 83.9328C103.45 88.2795 98.212 91.1927 92.6713 92.6724C98.212 91.1927 103.45 88.2795 107.796 83.9328L131.302 60.4276C144.482 47.2474 144.482 25.878 131.302 12.6981C118.121 -0.482417 96.752 -0.482417 83.5721 12.6981L60.0666 36.203C46.8867 49.3832 46.8867 70.7526 60.0666 83.9328C64.2592 88.1248 69.2798 90.9837 74.6022 92.5092Z" stroke="black" stroke-width="5" stroke-miterlimit="10" stroke-linecap="round" stroke-linejoin="round"/>
<path d="M91.528 32.5852C90.4297 33.6832 88.6488 33.6832 87.5503 32.5852C86.452 31.4869 86.452 29.706 87.5503 28.6075C88.6488 27.5092 90.4297 27.5092 91.528 28.6075C92.6263 29.706 92.6263 31.4869 91.528 32.5852Z" fill="black"/>
<path d="M24.2695 24.2703L36.2021 36.2029" stroke="black" stroke-width="5" stroke-miterlimit="10" stroke-linecap="round" stroke-linejoin="round"/>
<path d="M10.6875 50.0625H27.5625" stroke="black" stroke-width="5" stroke-miterlimit="10" stroke-linecap="round" stroke-linejoin="round"/>
<path d="M50.0625 9.84399V26.719" stroke="black" stroke-width="5" stroke-miterlimit="10" stroke-linecap="round" stroke-linejoin="round"/>
<path d="M107.797 107.797L119.729 119.73" stroke="black" stroke-width="5" stroke-miterlimit="10" stroke-linecap="round" stroke-linejoin="round"/>
<path d="M93.6562 117.281V134.156" stroke="black" stroke-width="5" stroke-miterlimit="10" stroke-linecap="round" stroke-linejoin="round"/>
<path d="M117.281 93.6562H134.156" stroke="black" stroke-width="5" stroke-miterlimit="10" stroke-linecap="round" stroke-linejoin="round"/>
</g>
</g>
<defs>
<clipPath id="clip0_542_85209">
<rect width="144" height="144" fill="white"/>
</clipPath>
</defs>
</svg>
