<svg width="18" height="18" viewBox="0 0 18 18" fill="none" xmlns="http://www.w3.org/2000/svg">
<path d="M9 18C6.50625 18 4.38281 17.1234 2.62969 15.3703C0.876563 13.6172 0 11.4937 0 9C0 6.50625 0.876563 4.38281 2.62969 2.62969C4.38281 0.876563 6.50625 0 9 0C10.5938 0 11.9906 0.323438 13.1906 0.970313C14.3906 1.61719 15.4312 2.50312 16.3125 3.62812V0H18V7.14375H10.8562V5.45625H15.5813C14.8688 4.33125 13.9594 3.42188 12.8531 2.72813C11.7469 2.03438 10.4625 1.6875 9 1.6875C6.95625 1.6875 5.22656 2.39531 3.81094 3.81094C2.39531 5.22656 1.6875 6.95625 1.6875 9C1.6875 11.0437 2.39531 12.7734 3.81094 14.1891C5.22656 15.6047 6.95625 16.3125 9 16.3125C10.5562 16.3125 11.9812 15.8672 13.275 14.9766C14.5688 14.0859 15.4688 12.9094 15.975 11.4469H17.7188C17.175 13.4156 16.0969 15 14.4844 16.2C12.8719 17.4 11.0437 18 9 18Z" fill="#442477"/>
</svg>
