<svg width="147" height="145" viewBox="0 0 147 145" fill="none" xmlns="http://www.w3.org/2000/svg">
<path d="M97.9991 3.00098H38C33.0294 3.00098 29 7.03041 29 12.001V132.002C29 136.972 33.0294 141.002 38 141.002H97.9991C102.97 141.002 106.999 136.972 106.999 132.002V12.001C106.999 7.03041 102.97 3.00098 97.9991 3.00098Z" fill="#A5DDFF"/>
<path d="M98.0028 144H93.7166C93.3149 144.012 92.9149 143.944 92.5403 143.799C92.1656 143.653 91.8239 143.434 91.5354 143.155C91.247 142.875 91.0177 142.54 90.8611 142.17C90.7045 141.8 90.6238 141.402 90.6238 141C90.6238 140.599 90.7045 140.201 90.8611 139.831C91.0177 139.461 91.247 139.126 91.5354 138.846C91.8239 138.567 92.1656 138.348 92.5403 138.202C92.9149 138.057 93.3149 137.989 93.7166 138.001H98.0028C99.5937 137.999 101.119 137.366 102.243 136.24C103.368 135.115 104 133.59 104.002 131.999V12.0009C104 10.4106 103.367 8.88598 102.242 7.76143C101.118 6.63687 99.5932 6.00411 98.0028 6.00187H38.0009C36.4106 6.00411 34.886 6.63687 33.7614 7.76143C32.6369 8.88598 32.0041 10.4106 32.0019 12.0009V131.999C32.0041 133.589 32.6369 135.114 33.7614 136.239C34.886 137.363 36.4106 137.996 38.0009 137.998H69.7175C70.1191 137.986 70.5191 138.054 70.8938 138.2C71.2685 138.345 71.6102 138.564 71.8986 138.843C72.1871 139.123 72.4164 139.458 72.573 139.828C72.7296 140.198 72.8103 140.596 72.8103 140.998C72.8103 141.399 72.7296 141.797 72.573 142.167C72.4164 142.537 72.1871 142.872 71.8986 143.152C71.6102 143.432 71.2685 143.651 70.8938 143.796C70.5191 143.941 70.1191 144.009 69.7175 143.997H38.0009C34.819 143.994 31.7682 142.729 29.5183 140.479C27.2683 138.229 26.003 135.178 26 131.996V12.0009C26.0037 8.81923 27.2693 5.76891 29.5191 3.5191C31.7689 1.2693 34.8192 0.00372173 38.0009 0L98.0028 0C101.185 0.00372173 104.235 1.2693 106.485 3.5191C108.734 5.76891 110 8.81923 110.004 12.0009V131.999C110.001 135.181 108.735 138.232 106.485 140.482C104.235 142.732 101.185 143.997 98.0028 144ZM84.7166 144H78.7175C77.9379 143.976 77.1982 143.65 76.6551 143.09C76.1121 142.53 75.8084 141.78 75.8084 141C75.8084 140.22 76.1121 139.471 76.6551 138.911C77.1982 138.351 77.9379 138.025 78.7175 138.001H84.7166C85.1182 137.989 85.5182 138.057 85.8929 138.202C86.2675 138.348 86.6092 138.567 86.8977 138.846C87.1861 139.126 87.4154 139.461 87.5721 139.831C87.7287 140.201 87.8094 140.599 87.8094 141C87.8094 141.402 87.7287 141.8 87.5721 142.17C87.4154 142.54 87.1861 142.875 86.8977 143.155C86.6092 143.434 86.2675 143.653 85.8929 143.799C85.5182 143.944 85.1182 144.012 84.7166 144Z" fill="black"/>
<path d="M81.3158 14.999H54.687C53.3506 14.9969 52.0532 14.5486 51.0005 13.7252C49.9479 12.9018 49.2003 11.7505 48.8764 10.454L47.0117 2.99805H89.0023L87.1264 10.454C86.8025 11.7505 86.0549 12.9018 85.0023 13.7252C83.9496 14.5486 82.6522 14.9969 81.3158 14.999Z" fill="white"/>
<path d="M81.3175 18H54.6887C52.6837 17.9972 50.737 17.3249 49.1575 16.0899C47.5781 14.8548 46.4562 13.1277 45.97 11.1825L44.0969 3.72656C43.9868 3.28477 43.9786 2.82373 44.0731 2.37834C44.1676 1.93294 44.3621 1.51488 44.6421 1.15581C44.922 0.796744 45.28 0.506079 45.6889 0.30583C46.0978 0.105581 46.5469 0.00099742 47.0022 0L89.0041 0C89.4594 0.00099742 89.9085 0.105581 90.3174 0.30583C90.7262 0.506079 91.0842 0.796744 91.3642 1.15581C91.6441 1.51488 91.8387 1.93294 91.9331 2.37834C92.0276 2.82373 92.0195 3.28477 91.9094 3.72656L90.0447 11.1825C89.5581 13.1291 88.435 14.8573 86.8538 16.0925C85.2726 17.3277 83.324 17.9991 81.3175 18ZM50.8469 5.99906L51.7778 9.72563C51.9393 10.3752 52.3138 10.952 52.8414 11.3639C53.369 11.7757 54.0194 11.9991 54.6887 11.9981H81.3203C81.9897 11.9991 82.64 11.7757 83.1677 11.3639C83.6953 10.952 84.0697 10.3752 84.2312 9.72563L85.1594 5.99906H50.8469Z" fill="black"/>
<path d="M144.121 105.06C144.121 119.452 132.453 131.12 118.06 131.12C103.668 131.12 92 119.452 92 105.06C92 90.6672 103.668 79 118.06 79C132.453 79 144.121 90.6672 144.121 105.06Z" fill="#FFA71C"/>
<path d="M113.5 106.293C113.5 108.521 115.384 110.188 117.531 110.188C119.678 110.188 121.562 108.521 121.562 106.293V91.3944C121.562 89.1661 119.678 87.5 117.531 87.5C115.384 87.5 113.5 89.1661 113.5 91.3944V106.293Z" fill="white" stroke="black" stroke-width="3"/>
<path d="M117.531 122.562C119.758 122.562 121.562 120.758 121.562 118.531C121.562 116.305 119.758 114.5 117.531 114.5C115.305 114.5 113.5 116.305 113.5 118.531C113.5 120.758 115.305 122.562 117.531 122.562Z" fill="white" stroke="black" stroke-width="3"/>
<path d="M118.058 78.9996C116.231 78.9996 114.448 79.1894 112.727 79.5473C124.562 82.0084 133.455 92.4946 133.455 105.06C133.455 117.625 124.562 128.111 112.727 130.572C114.448 130.93 116.231 131.12 118.058 131.12C132.451 131.12 144.118 119.452 144.118 105.06C144.118 90.6672 132.451 78.9996 118.058 78.9996Z" fill="#FFA71C"/>
<path d="M140.65 92.0577C142.858 95.8847 144.121 100.325 144.121 105.06C144.121 119.452 132.453 131.12 118.06 131.12C103.668 131.12 92 119.452 92 105.06C92 90.6672 103.668 79 118.06 79C123.265 79 128.113 80.5255 132.182 83.154" stroke="black" stroke-width="5" stroke-miterlimit="10" stroke-linecap="round" stroke-linejoin="round"/>
</svg>
