<svg width="114" height="140" viewBox="0 0 114 140" fill="none" xmlns="http://www.w3.org/2000/svg">
<path d="M90.7313 11.0254V120.247H11.2695V128.931H99.415V11.0254H90.7313Z" fill="#9EA3AD"/>
<path d="M24.9935 2.45093L2.69531 24.7491V120.356H90.8408V2.45093H24.9935Z" fill="white"/>
<path d="M53.4869 111.193C70.9231 111.193 85.0578 97.0578 85.0578 79.6217C85.0578 62.1856 70.9231 48.0508 53.4869 48.0508C36.0508 48.0508 21.916 62.1856 21.916 79.6217C21.916 97.0578 36.0508 111.193 53.4869 111.193Z" fill="#FF5046"/>
<path d="M69.4361 95.5928C60.6434 104.386 46.3306 104.386 37.5379 95.5928C28.7452 86.8001 28.7452 72.4874 37.5379 63.6946C46.3306 54.9019 60.6434 54.9019 69.4361 63.6946C78.2506 72.4656 78.2506 86.7783 69.4361 95.5928Z" fill="#FF5046"/>
<path d="M49.5 81.2931C49.5 83.5214 51.3844 85.1875 53.5312 85.1875C55.6781 85.1875 57.5625 83.5214 57.5625 81.2931V66.3944C57.5625 64.1661 55.6781 62.5 53.5312 62.5C51.3844 62.5 49.5 64.1661 49.5 66.3944V81.2931Z" fill="white" stroke="black" stroke-width="3"/>
<path d="M53.5312 97.5625C55.7577 97.5625 57.5625 95.7577 57.5625 93.5312C57.5625 91.3048 55.7577 89.5 53.5312 89.5C51.3048 89.5 49.5 91.3048 49.5 93.5312C49.5 95.7577 51.3048 97.5625 53.5312 97.5625Z" fill="white" stroke="black" stroke-width="3"/>
<path d="M82.7465 103.622L78.2738 99.1492C77.5102 100.109 76.7029 101.047 75.8083 101.942C74.9138 102.836 73.9756 103.644 73.0156 104.407L77.4884 108.88C76.9865 111.149 77.5974 113.593 79.3429 115.36L99.4811 135.498C102.208 138.226 106.637 138.226 109.365 135.498C112.092 132.771 112.092 128.342 109.365 125.615L89.2265 105.476C87.4593 103.731 85.0156 103.12 82.7465 103.622Z" fill="black"/>
<path d="M24.8841 24.64V2.3418L2.58594 24.64H24.8841Z" fill="#9EA3AD"/>
<path d="M70.572 62.5164C66.012 57.9564 59.9247 55.4255 53.4447 55.4255C46.9647 55.4255 40.8775 57.9346 36.3175 62.5164C31.7575 67.0983 29.2266 73.1637 29.2266 79.6437C29.2266 86.1237 31.7357 92.211 36.3175 96.771C40.8775 101.331 46.9647 103.862 53.4447 103.862C59.9247 103.862 66.012 101.353 70.572 96.771C79.9975 87.3237 79.9975 71.9637 70.572 62.5164ZM68.2593 94.4583C64.3102 98.4073 59.052 100.589 53.4447 100.589C47.8375 100.589 42.5793 98.4073 38.6302 94.4583C34.6811 90.5092 32.4993 85.251 32.4993 79.6437C32.4993 74.0364 34.6811 68.7783 38.6302 64.8292C42.5793 60.8801 47.8375 58.6983 53.4447 58.6983C59.052 58.6983 64.3102 60.8801 68.2593 64.8292C76.4193 72.9892 76.4193 86.2764 68.2593 94.4583Z" fill="black"/>
<path d="M110.543 124.545L90.3829 104.364C88.5066 102.487 85.9102 101.614 83.292 101.898L80.3902 98.9963C89.7284 86.0145 88.5938 67.7963 76.9429 56.1236C63.9829 43.1636 42.9066 43.1636 29.9466 56.1236C16.9866 69.0836 16.9866 90.1599 29.9466 103.12C36.4266 109.6 44.9357 112.829 53.4447 112.829C60.252 112.829 67.0593 110.713 72.8193 106.567L75.7211 109.469C75.4157 112.087 76.3102 114.684 78.1866 116.538L98.3466 136.72C100.027 138.4 102.23 139.251 104.456 139.251C106.659 139.251 108.885 138.4 110.565 136.72C112.201 135.084 113.096 132.924 113.096 130.611C113.074 128.342 112.157 126.16 110.543 124.545ZM32.2375 100.829C20.5647 89.1563 20.5647 70.1308 32.2375 58.4581C38.0847 52.6108 45.7429 49.6872 53.4229 49.6872C61.1029 49.6872 68.7611 52.6108 74.6084 58.4581C86.2811 70.1308 86.2811 89.1563 74.6084 100.829C62.9357 112.502 43.932 112.502 32.2375 100.829ZM108.23 134.429C106.136 136.524 102.732 136.524 100.659 134.429L80.4993 114.269C79.212 112.982 78.6666 111.105 79.0811 109.294C79.212 108.749 79.0375 108.182 78.6447 107.789L75.4375 104.582C75.4811 104.538 75.5029 104.494 75.5247 104.451C76.0047 104.014 76.5066 103.622 76.9647 103.142C77.4229 102.684 77.8157 102.204 78.252 101.724C78.2957 101.68 78.3611 101.658 78.3829 101.614L81.5902 104.822C81.9829 105.214 82.5502 105.389 83.0957 105.258C84.9066 104.844 86.7611 105.389 88.0702 106.676L108.23 126.858C109.234 127.862 109.801 129.214 109.801 130.654C109.801 132.073 109.234 133.425 108.23 134.429Z" fill="black"/>
<path d="M37.1891 13.709H78.5346C79.4291 13.709 80.1709 12.9672 80.1709 12.0726C80.1709 11.1781 79.4291 10.4363 78.5346 10.4363H37.1891C36.2946 10.4363 35.5527 11.1781 35.5527 12.0726C35.5527 12.9672 36.2946 13.709 37.1891 13.709Z" fill="black"/>
<path d="M78.5567 19.0981H37.1676C36.2731 19.0981 35.5312 19.84 35.5312 20.7345C35.5312 21.6291 36.2731 22.3709 37.1676 22.3709H78.5567C79.4513 22.3709 80.1931 21.6291 80.1931 20.7345C80.1931 19.84 79.4513 19.0981 78.5567 19.0981Z" fill="black"/>
<path d="M78.5567 27.8474H56.8258C55.9313 27.8474 55.1895 28.5892 55.1895 29.4838C55.1895 30.3783 55.9313 31.1201 56.8258 31.1201H78.5567C79.4513 31.1201 80.1931 30.3783 80.1931 29.4838C80.1931 28.5892 79.4513 27.8474 78.5567 27.8474Z" fill="black"/>
<path d="M78.5567 36.5745H56.8258C55.9313 36.5745 55.1895 37.3163 55.1895 38.2108C55.1895 39.1054 55.9313 39.8472 56.8258 39.8472H78.5567C79.4513 39.8472 80.1931 39.1054 80.1931 38.2108C80.1931 37.3163 79.4513 36.5745 78.5567 36.5745Z" fill="black"/>
<path d="M83.7495 127.469H12.9059V122.058H75.0659C75.9605 122.058 76.7023 121.316 76.7023 120.422C76.7023 119.527 75.9605 118.785 75.0659 118.785H4.20046V26.32H24.8841C25.7786 26.32 26.5205 25.5782 26.5205 24.6837V4.00002H89.1823V98.6909C89.1823 99.5855 89.9241 100.327 90.8186 100.327C91.7132 100.327 92.455 99.5855 92.455 98.6909V12.6837H97.8659V106.567C97.8659 107.462 98.6077 108.204 99.5023 108.204C100.397 108.204 101.139 107.462 101.139 106.567V11.0473C101.139 10.1528 100.397 9.41093 99.5023 9.41093H92.455V2.36366C92.455 1.46911 91.7132 0.727295 90.8186 0.727295H24.9059C24.4696 0.727295 24.055 0.90184 23.7496 1.2073L1.40773 23.5273C1.10228 23.8328 0.927734 24.2473 0.927734 24.6837V120.4C0.927734 121.295 1.66955 122.036 2.5641 122.036H9.61137V129.084C9.61137 129.978 10.3532 130.72 11.2477 130.72H83.7277C84.6223 130.72 85.3641 129.978 85.3641 129.084C85.3641 128.189 84.6441 127.469 83.7495 127.469ZM6.51319 23.0473L23.2477 6.31275V23.0473H6.51319Z" fill="black"/>
</svg>
