<svg width="133" height="144" viewBox="0 0 133 144" fill="none" xmlns="http://www.w3.org/2000/svg">
<path d="M130.121 106.058C130.121 120.45 118.453 132.118 104.06 132.118C89.6676 132.118 78 120.45 78 106.058C78 91.6648 89.6676 79.9975 104.06 79.9975C118.453 79.9975 130.121 91.6648 130.121 106.058Z" fill="#FF5046"/>
<path d="M100.5 107.291C100.5 109.519 102.384 111.185 104.531 111.185C106.678 111.185 108.562 109.519 108.562 107.291V92.392C108.562 90.1637 106.678 88.4976 104.531 88.4976C102.384 88.4976 100.5 90.1637 100.5 92.392V107.291Z" fill="white" stroke="black" stroke-width="3"/>
<path d="M104.531 123.56C106.758 123.56 108.562 121.755 108.562 119.529C108.562 117.302 106.758 115.498 104.531 115.498C102.305 115.498 100.5 117.302 100.5 119.529C100.5 121.755 102.305 123.56 104.531 123.56Z" fill="white" stroke="black" stroke-width="3"/>
<path d="M104.06 79.9977C102.233 79.9977 100.45 80.1875 98.7285 80.5454C110.564 83.0064 119.457 93.4926 119.457 106.058C119.457 118.623 110.564 129.109 98.7285 131.57C100.45 131.928 102.233 132.118 104.06 132.118C118.453 132.118 130.12 120.451 130.12 106.058C130.12 91.6653 118.453 79.9977 104.06 79.9977Z" fill="#FF5046"/>
<path d="M126.65 93.0553C128.858 96.8823 130.121 101.322 130.121 106.058C130.121 120.45 118.453 132.118 104.06 132.118C89.6676 132.118 78 120.45 78 106.058C78 91.6648 89.6676 79.9975 104.06 79.9975C109.265 79.9975 114.113 81.5231 118.182 84.1515" stroke="black" stroke-width="5" stroke-miterlimit="10" stroke-linecap="round" stroke-linejoin="round"/>
<path d="M58 63.9976C74.5685 63.9976 88 50.5661 88 33.9976C88 17.429 74.5685 3.99756 58 3.99756C41.4315 3.99756 28 17.429 28 33.9976C28 50.5661 41.4315 63.9976 58 63.9976Z" fill="#FFCDAC"/>
<path d="M3.43263 126.188C1.5361 126.188 0 124.654 0 122.76V114.308C0 97.1952 8.88622 80.7336 23.196 71.3349C39.3379 60.7362 62.019 58.6276 82.3831 65.8234C84.1724 66.4534 85.1078 68.412 84.4727 70.1992C83.842 71.9821 81.8897 72.9207 80.0961 72.2864C61.9933 65.892 41.1272 67.7649 26.9633 77.065C14.5672 85.208 6.86526 99.4795 6.86526 114.308V122.76C6.86526 124.654 5.32916 126.188 3.43263 126.188Z" fill="black"/>
<path d="M58.324 144C43.4178 144 28.5288 142.521 13.7856 139.568C11.9234 139.196 10.722 137.387 11.0953 135.531C11.4686 133.671 13.2836 132.475 15.1372 132.844C40.7146 137.966 66.7382 138.514 92.5087 134.464C94.3752 134.168 96.1387 135.445 96.4348 137.318C96.7266 139.187 95.4479 140.944 93.5771 141.236C81.8633 143.078 70.0894 143.996 58.3283 143.996L58.324 144Z" fill="black"/>
<path d="M14.4642 139.633C14.2411 139.633 14.0094 139.611 13.7863 139.564C5.79685 137.961 0 130.898 0 122.756C0 120.861 1.5361 119.327 3.43263 119.327C5.32916 119.327 6.86526 120.861 6.86526 122.756C6.86526 127.637 10.3451 131.88 15.1379 132.84C16.9958 133.213 18.2015 135.021 17.8239 136.877C17.4978 138.51 16.0647 139.633 14.4642 139.633Z" fill="black"/>
<path d="M58.1481 68.5362C55.0673 68.5362 52.0122 68.1162 49.0645 67.2934C32.1459 62.5533 21.3975 45.2945 24.5984 28.0101C27.7435 11.0427 43.9842 -1.47173 61.5335 0.139722C78.997 1.73831 92.6803 16.7342 92.6803 34.2758C92.6803 38.463 91.9294 42.5602 90.4534 46.4517C85.4289 59.6604 72.445 68.5405 58.1481 68.5405V68.5362ZM58.457 6.84695C45.3701 6.84695 33.7163 16.4771 31.3521 29.2444C28.7905 43.0831 37.3849 56.8875 50.9181 60.6804C53.2651 61.3405 55.698 61.6705 58.1438 61.6705C69.6087 61.6705 80.0096 54.5732 84.0301 44.0045C85.21 40.8974 85.8108 37.6187 85.8108 34.2673C85.8108 20.2357 74.8692 8.23553 60.8984 6.95409C60.0832 6.87695 59.2679 6.84266 58.4527 6.84266L58.457 6.84695Z" fill="black"/>
<path d="M92.6216 78.3035C91.9479 78.3035 91.2614 78.1064 90.6693 77.6949C87.3997 75.4278 83.8469 73.6106 80.1011 72.2863C78.3118 71.6563 77.3764 69.6977 78.0115 67.9105C78.6422 66.1234 80.5988 65.1848 82.3881 65.8191C86.7089 67.3448 90.8109 69.4448 94.5868 72.0549C96.14 73.1349 96.5305 75.2692 95.4492 76.8292C94.7799 77.7892 93.7115 78.3035 92.6259 78.3035H92.6216Z" fill="black"/>
</svg>
