<svg width="24" height="26" viewBox="0 0 24 26" fill="none" xmlns="http://www.w3.org/2000/svg">
<path d="M19.0033 8.20132C19.0033 6.29141 18.2446 4.45973 16.8941 3.10922C15.5436 1.75871 13.7119 1 11.802 1C9.89207 1 8.06038 1.75871 6.70988 3.10922C5.35937 4.45973 4.60066 6.29141 4.60066 8.20132C4.60066 16.6029 1 19.0033 1 19.0033H22.6039C22.6039 19.0033 19.0033 16.6029 19.0033 8.20132Z" stroke="black" stroke-width="2" stroke-linecap="round" stroke-linejoin="round"/>
<path d="M13.8774 23.8037C13.6664 24.1675 13.3635 24.4694 12.9991 24.6793C12.6347 24.8892 12.2215 24.9997 11.801 24.9997C11.3805 24.9997 10.9673 24.8892 10.6029 24.6793C10.2385 24.4694 9.93562 24.1675 9.72461 23.8037" stroke="black" stroke-width="2" stroke-linecap="round" stroke-linejoin="round"/>
</svg>
