<svg width="144" height="144" viewBox="0 0 144 144" fill="none" xmlns="http://www.w3.org/2000/svg">
<mask id="mask0_542_85519" style="mask-type:luminance" maskUnits="userSpaceOnUse" x="0" y="0" width="144" height="144">
<path d="M0 1.52588e-05H144V144H0V1.52588e-05Z" fill="white"/>
</mask>
<g mask="url(#mask0_542_85519)">
<path d="M3.97533 41.5959C1.48739 39.0368 1.48739 34.8869 3.97533 32.3279C22.1452 13.6368 46.3035 3.34336 71.9999 3.34336C97.696 3.34336 121.854 13.6371 140.024 32.3279C142.513 34.8869 142.513 39.0368 140.024 41.5959C137.536 44.1555 133.502 44.1555 131.015 41.5959C115.251 25.3807 94.2929 16.4504 71.9999 16.4504C49.7071 16.4504 28.7487 25.3807 12.9852 41.5959C10.497 44.1553 6.46355 44.1553 3.97533 41.5959Z" fill="#A5DDFF"/>
<path d="M63.5627 16.4508C41.27 16.4508 20.3115 25.3807 4.54775 41.5959C4.45607 41.6907 4.35791 41.7742 4.26172 41.8623C6.76372 44.1446 10.5893 44.0608 12.9853 41.5959C27.7503 26.4076 47.0736 17.6118 67.7815 16.5585C66.3811 16.487 64.9749 16.4508 63.5627 16.4508Z" fill="#A5DDFF"/>
<path d="M140.024 32.328C121.854 13.637 97.6961 3.34322 72 3.34322C70.5884 3.34322 69.1827 3.37978 67.7812 3.44165C91.8934 4.50506 114.415 14.6635 131.587 32.328C134.075 34.8871 134.075 39.0369 131.587 41.5957C131.495 41.6905 131.397 41.7743 131.301 41.8618C133.802 44.1447 137.628 44.0609 140.024 41.5957C142.513 39.0369 142.513 34.8871 140.024 32.328Z" fill="#A5DDFF"/>
<path d="M112.995 64.3505C90.3895 41.0981 53.6093 41.0987 31.0044 64.3505C28.5168 66.9099 24.4828 66.9099 21.9949 64.3505C19.5069 61.7914 19.5069 57.6416 21.9949 55.0827C49.5675 26.7198 94.4314 26.7198 122.004 55.0827C124.493 57.6416 124.493 61.7914 122.004 64.3505C119.516 66.9099 115.483 66.9099 112.995 64.3505Z" fill="#A5DDFF"/>
<path d="M22.5673 64.3508C22.4753 64.4456 22.3772 64.5294 22.2812 64.6169C24.783 66.8995 28.6088 66.8157 31.0048 64.3508C41.2358 53.827 54.3707 48.067 67.781 47.0692C51.5622 45.8626 34.9412 51.6229 22.5673 64.3508Z" fill="#A5DDFF"/>
<path d="M122.005 55.083C107.147 39.7996 87.2693 32.7568 67.7812 33.9445C84.4594 34.9607 100.852 42.0035 113.567 55.083C116.056 57.6421 116.056 61.7919 113.567 64.3507C113.476 64.4455 113.377 64.5293 113.281 64.6168C115.783 66.8997 119.609 66.8156 122.005 64.3507C124.493 61.7919 124.493 57.6421 122.005 55.083Z" fill="#A5DDFF"/>
<path d="M94.9746 87.1059C82.3057 74.0747 61.6931 74.0747 49.0242 87.1059C46.5363 89.6652 42.5023 89.6652 40.0144 87.1059C37.5265 84.5468 37.5265 80.3969 40.0144 77.8381C57.651 59.6955 86.3481 59.6955 103.984 77.8381C106.473 80.3969 106.473 84.5468 103.984 87.1059C101.496 89.6652 97.4628 89.6652 94.9746 87.1059Z" fill="#A5DDFF"/>
<path d="M40.5871 87.1061C40.4951 87.2006 40.397 87.2844 40.3008 87.3719C42.8028 89.6545 46.6286 89.5704 49.0246 87.1061C54.2859 81.6943 60.9175 78.5325 67.7809 77.6156C58.1177 76.3246 47.9947 79.4865 40.5871 87.1061Z" fill="#A5DDFF"/>
<path d="M103.985 77.838C94.095 67.6641 80.7269 63.1964 67.7812 64.4334C77.9209 65.402 87.8009 69.8691 95.5474 77.838C98.0356 80.3971 98.0356 84.547 95.5474 87.1061C95.4554 87.2006 95.3573 87.2844 95.2611 87.3719C97.7633 89.6545 101.588 89.5704 103.985 87.1061C106.473 84.547 106.473 80.3971 103.985 77.838Z" fill="#A5DDFF"/>
<path d="M40.8284 8.62853C50.7303 5.15172 61.2302 3.34356 72.0001 3.34356C97.6963 3.34356 121.854 13.6373 140.024 32.3281C142.513 34.8872 142.513 39.037 140.024 41.5961C137.536 44.1555 133.502 44.1555 131.015 41.5961C115.251 25.3806 94.2929 16.4507 72.0001 16.4507C49.7071 16.4507 28.7487 25.3806 12.9852 41.5961C11.7412 42.8758 10.1108 43.5156 8.48011 43.5156C6.8497 43.5156 5.2193 42.8758 3.97533 41.5961C1.48739 39.037 1.48739 34.8872 3.97533 32.3281C12.1344 23.9353 21.5006 17.2356 31.6714 12.4007" stroke="black" stroke-width="5" stroke-miterlimit="10" stroke-linecap="round" stroke-linejoin="round"/>
<path d="M117.5 66.27C115.869 66.27 114.239 65.6302 112.995 64.3505C90.3895 41.0981 53.6093 41.0987 31.0047 64.3505C28.5168 66.9096 24.4828 66.9096 21.9949 64.3505C19.5069 61.7914 19.5069 57.6416 21.9949 55.0827C49.5675 26.7198 94.4314 26.7198 122.005 55.0827C124.493 57.6416 124.493 61.7914 122.005 64.3505C120.761 65.6302 119.13 66.27 117.5 66.27Z" stroke="black" stroke-width="5" stroke-miterlimit="10" stroke-linecap="round" stroke-linejoin="round"/>
<path d="M99.4796 89.0254C97.8492 89.0254 96.2185 88.3855 94.9746 87.1059C82.3057 74.0747 61.6931 74.0747 49.0242 87.1059C46.5366 89.665 42.5023 89.665 40.0144 87.1059C37.5265 84.5468 37.5265 80.3969 40.0144 77.8381C57.6513 59.6955 86.3484 59.6955 103.985 77.8381C106.473 80.3969 106.473 84.5468 103.985 87.1059C102.741 88.3855 101.11 89.0254 99.4796 89.0254Z" stroke="black" stroke-width="5" stroke-miterlimit="10" stroke-linecap="round" stroke-linejoin="round"/>
</g>
<path d="M96 116.5C96 130.031 85.0309 141 71.5002 141C57.9691 141 47 130.031 47 116.5C47 102.969 57.9691 92.0003 71.5002 92.0003C85.0309 92.0003 96 102.969 96 116.5Z" fill="#FF5046"/>
<path d="M71.5007 92C69.7827 92 68.1066 92.1784 66.4883 92.5149C77.6148 94.8287 85.9757 104.687 85.9757 116.5C85.9757 128.313 77.6148 138.171 66.4883 140.485C68.1066 140.822 69.7827 141 71.5007 141C85.0314 141 96.0005 130.031 96.0005 116.5C96.0005 102.969 85.0314 92 71.5007 92Z" fill="#FF5046"/>
<path d="M77.2311 117.052L82.6084 111.675C84.0273 110.256 84.0273 107.956 82.6084 106.537C81.1896 105.118 78.8892 105.118 77.4704 106.537L72.0931 111.914L66.7158 106.537C65.297 105.118 62.9966 105.118 61.5778 106.537C60.159 107.956 60.159 110.256 61.5778 111.675L66.9551 117.052L61.5778 122.429C60.159 123.848 60.159 126.149 61.5778 127.567C62.2871 128.277 63.217 128.631 64.1467 128.631C65.0763 128.631 66.0062 128.277 66.7155 127.567L72.0928 122.19L77.4701 127.567C78.1794 128.277 79.1094 128.631 80.039 128.631C80.9687 128.631 81.8986 128.277 82.6079 127.567C84.0267 126.149 84.0267 123.848 82.6079 122.429L77.2311 117.052Z" fill="#FAF7F7"/>
<path d="M82.609 122.429C84.0289 123.849 84.0289 126.149 82.609 127.567C81.9005 128.278 80.9698 128.631 80.0418 128.631C79.111 128.631 78.1803 128.278 77.4718 127.567L77.4523 127.547C78.8528 126.13 78.8472 123.843 77.4356 122.429L73.3339 118.329C72.6285 117.624 72.6282 116.481 73.3336 115.776L77.4356 111.674C78.847 110.262 78.8525 107.976 77.4523 106.556L77.4718 106.536C78.8918 105.116 81.1921 105.116 82.609 106.536C84.0289 107.956 84.0289 110.256 82.609 111.673L77.2328 117.052L82.609 122.429Z" fill="#EDE1DD"/>
<path d="M85.7578 109.106C85.7578 107.579 85.1632 106.143 84.0836 105.063C83.0036 103.983 81.5678 103.389 80.041 103.389C78.5142 103.389 77.0784 103.983 75.9985 105.063L72.0949 108.967L68.1909 105.063C67.111 103.983 65.6755 103.389 64.1484 103.389C62.6214 103.389 61.1858 103.983 60.1062 105.063C59.0263 106.143 58.4316 107.578 58.4316 109.105C58.4316 110.633 59.0263 112.068 60.1059 113.148L64.0101 117.052L60.1062 120.956C59.0263 122.035 58.4316 123.471 58.4316 124.998C58.4316 126.525 59.0263 127.961 60.1056 129.041C61.1853 130.121 62.6211 130.715 64.1484 130.715C65.6758 130.715 67.1116 130.121 68.1907 129.041L72.0949 125.137L75.9983 129.041C77.0779 130.121 78.5137 130.715 80.041 130.715C81.5684 130.715 83.0042 130.121 84.0833 129.041C85.1632 127.962 85.7578 126.526 85.7578 124.999C85.7578 123.472 85.1632 122.036 84.0836 120.956L80.1793 117.052L84.0833 113.149C85.1629 112.069 85.7578 110.633 85.7578 109.106ZM81.136 110.201L75.7587 115.579C75.368 115.969 75.1485 116.499 75.1485 117.052C75.1485 117.605 75.368 118.135 75.7587 118.525L81.1365 123.903C81.4293 124.196 81.5901 124.584 81.5901 124.998C81.5901 125.842 80.8811 126.547 80.0408 126.547C79.627 126.547 79.238 126.386 78.9455 126.094L73.5682 120.716C73.1773 120.325 72.6472 120.106 72.0946 120.106C71.542 120.106 71.0119 120.326 70.6209 120.716L65.2431 126.094C64.2965 127.042 62.5985 126.339 62.5988 124.998C62.5988 124.584 62.7599 124.195 63.0526 123.903L68.4302 118.525C68.8209 118.134 69.0405 117.604 69.0405 117.052C69.0405 116.499 68.8209 115.969 68.4302 115.578L63.0524 110.201C62.7596 109.908 62.5988 109.519 62.5988 109.105C62.5988 108.244 63.2972 107.556 64.1481 107.556C64.5619 107.556 64.9509 107.717 65.2439 108.01L70.6212 113.387C71.0122 113.778 71.542 113.997 72.0949 113.997C72.6478 113.997 73.1776 113.778 73.5685 113.387L78.9458 108.01C80.385 106.57 82.64 108.699 81.136 110.201Z" fill="black"/>
<path d="M92.7373 104.276C94.8127 107.874 96 112.049 96 116.5C96 130.031 85.0309 141 71.4998 141C57.9691 141 47 130.031 47 116.5C47 102.969 57.9691 92.0003 71.4998 92.0003C76.3929 92.0003 80.9508 93.4345 84.7763 95.9056" stroke="black" stroke-width="5" stroke-miterlimit="10" stroke-linecap="round" stroke-linejoin="round"/>
</svg>
