<?xml version="1.0" standalone="no"?>
<!DOCTYPE svg PUBLIC "-//W3C//DTD SVG 20010904//EN"
 "http://www.w3.org/TR/2001/REC-SVG-20010904/DTD/svg10.dtd">
<svg version="1.0" xmlns="http://www.w3.org/2000/svg"
 width="448.000000pt" height="500.000000pt" viewBox="0 0 448.000000 500.000000"
 preserveAspectRatio="xMidYMid meet">

<g transform="translate(0.000000,500.000000) scale(0.100000,-0.100000)"
fill="#000000" stroke="none">
<path d="M543 4855 c-7 -8 -13 -19 -13 -24 0 -5 -5 -22 -10 -37 -8 -21 -14
-24 -22 -16 -17 17 -39 15 -54 -5 -16 -22 -17 -33 -4 -33 6 0 10 6 10 14 0 20
30 29 36 11 7 -18 -14 -47 -28 -39 -5 3 -7 -14 -5 -43 3 -26 3 -40 0 -30 -2 9
-8 17 -13 17 -5 0 -10 15 -12 33 -3 32 -3 32 -16 9 -10 -18 -11 -26 -1 -38 8
-10 8 -14 0 -14 -18 0 -13 -28 14 -70 22 -34 24 -47 19 -92 -5 -41 -1 -66 15
-108 13 -33 21 -78 21 -112 0 -37 4 -58 11 -58 8 0 10 16 6 51 -4 31 -2 60 5
73 11 20 11 20 19 1 12 -32 9 -147 -6 -185 l-13 -35 -10 25 c-8 18 -11 20 -11
7 -1 -10 -7 -28 -15 -40 -42 -67 -43 -208 -3 -272 l22 -35 120 3 c110 2 120 4
124 22 2 11 9 24 17 30 19 14 36 100 28 143 -3 21 -20 66 -38 102 l-31 65 -5
-35 -5 -35 -13 41 c-6 23 -12 54 -13 70 0 16 -4 38 -8 49 -7 17 -8 17 -15 -8
-3 -15 -4 -46 -1 -69 4 -34 2 -31 -9 15 -19 82 -30 84 -22 5 7 -68 1 -118 -14
-118 -12 0 -16 66 -9 145 3 39 7 64 7 58 4 -26 20 -12 26 22 6 32 26 50 26 24
0 -8 4 -8 15 1 12 10 15 6 21 -29 4 -23 9 -41 13 -41 12 0 46 174 46 236 0 33
5 67 12 75 22 27 33 70 27 109 -7 42 -24 45 -24 4 0 -13 -5 -24 -11 -24 -8 0
-10 16 -6 53 6 47 5 50 -8 33 -8 -11 -15 -24 -15 -29 0 -4 -4 -5 -10 -2 -5 3
-10 15 -10 26 0 10 -7 19 -15 19 -8 0 -17 11 -21 25 -3 14 -12 25 -19 25 -8 0
-10 9 -7 25 4 24 2 25 -39 25 -25 -1 -49 -7 -56 -15z m70 -32 c2 -5 -1 -21 -8
-37 -12 -27 -12 -28 -18 -6 -8 32 -33 19 -29 -15 3 -25 2 -26 -13 -12 -21 22
-10 65 18 70 38 7 46 7 50 0z m44 -120 c-3 -10 -5 -4 -5 12 0 17 2 24 5 18 2
-7 2 -21 0 -30z m-143 -78 c3 -9 0 -15 -9 -15 -8 0 -15 7 -15 15 0 8 4 15 9
15 5 0 11 -7 15 -15z m59 -389 c-3 -47 -10 -86 -14 -86 -5 0 -9 10 -10 23 -1
12 -3 47 -5 77 -3 30 -2 65 1 78 5 20 7 21 20 9 11 -12 13 -33 8 -101z m-9
-131 c-4 -8 -8 -15 -10 -15 -2 0 -4 7 -4 15 0 8 4 15 10 15 5 0 7 -7 4 -15z
m-64 -5 c0 -5 -5 -10 -11 -10 -5 0 -7 5 -4 10 3 6 8 10 11 10 2 0 4 -4 4 -10z
m13 -131 c9 -6 17 -17 17 -26 0 -12 -6 -14 -27 -8 -34 8 -31 3 -33 45 -3 57 1
67 14 32 6 -19 19 -38 29 -43z m195 -14 c-5 -44 -20 -32 -23 18 -3 45 -2 47
12 28 8 -12 13 -33 11 -46z m19 -17 c-3 -8 -6 -5 -6 6 -1 11 2 17 5 13 3 -3 4
-12 1 -19z"/>
<path d="M3886 4572 c-37 -22 -61 -45 -76 -72 l-12 -22 26 18 c14 11 26 22 26
27 0 4 6 7 14 7 7 0 19 7 26 15 7 8 29 15 50 15 105 0 179 -134 196 -354 8
-98 24 -126 24 -42 0 182 -62 364 -141 410 -35 21 -96 20 -133 -2z"/>
<path d="M3913 4483 c-36 -7 -108 -78 -141 -141 -36 -67 -37 -72 -19 -72 6 0
18 12 24 28 22 48 99 127 135 139 94 28 168 -93 168 -273 0 -34 4 -54 11 -54
8 0 10 30 7 103 -9 188 -79 291 -185 270z"/>
<path d="M1609 4388 c-6 -50 -5 -118 2 -118 5 0 9 29 9 65 0 36 -2 65 -5 65
-3 0 -6 -6 -6 -12z"/>
<path d="M2976 4384 c-7 -17 -8 -120 -2 -113 5 5 16 129 11 129 -1 0 -6 -7 -9
-16z"/>
<path d="M3181 4335 l2 -70 7 60 c4 33 3 64 -2 70 -4 5 -7 -22 -7 -60z"/>
<path d="M1862 4373 c-5 -10 -6 -29 -1 -43 6 -21 7 -22 9 -5 1 11 3 30 4 43 3
27 0 28 -12 5z"/>
<path d="M2336 4383 c-3 -3 -6 -13 -6 -22 0 -14 2 -14 10 -1 5 8 10 11 11 5 1
-5 3 -23 5 -39 4 -36 13 -60 19 -54 7 7 -15 107 -24 113 -5 2 -11 2 -15 -2z"/>
<path d="M1103 4340 c0 -25 2 -35 4 -22 2 12 2 32 0 45 -2 12 -4 2 -4 -23z"/>
<path d="M1532 4350 c0 -19 2 -27 5 -17 2 9 2 25 0 35 -3 9 -5 1 -5 -18z"/>
<path d="M2070 4356 c0 -22 3 -27 11 -19 8 8 8 16 0 30 -9 16 -10 14 -11 -11z"/>
<path d="M2471 4335 l1 -50 8 40 c5 22 4 44 -1 50 -5 5 -9 -11 -8 -40z"/>
<path d="M2522 4350 c0 -19 2 -27 5 -17 2 9 2 25 0 35 -3 9 -5 1 -5 -18z"/>
<path d="M2931 4364 c0 -11 3 -14 6 -6 3 7 2 16 -1 19 -3 4 -6 -2 -5 -13z"/>
<path d="M3905 4363 c-36 -20 -43 -27 -82 -84 -26 -38 -83 -151 -83 -165 0 -2
7 -4 15 -4 8 0 22 17 30 37 20 48 76 132 108 161 15 14 34 22 48 20 43 -6 89
-104 59 -123 -6 -3 -14 4 -19 17 -15 40 -38 53 -66 38 -25 -13 -73 -77 -92
-122 -20 -45 8 -40 38 6 14 23 36 50 48 61 l23 20 19 -24 c10 -13 19 -35 19
-50 0 -14 5 -33 10 -41 8 -12 10 -11 10 7 0 28 10 53 21 53 5 0 9 -10 9 -22 0
-31 15 -54 25 -39 18 31 -26 224 -58 249 -24 19 -52 21 -82 5z"/>
<path d="M1780 4325 c0 -27 2 -46 4 -44 8 8 10 78 3 85 -4 4 -7 -14 -7 -41z"/>
<path d="M2740 4349 c0 -11 5 -17 10 -14 6 3 10 13 10 21 0 8 -4 14 -10 14 -5
0 -10 -9 -10 -21z"/>
<path d="M1191 4334 c0 -11 3 -14 6 -6 3 7 2 16 -1 19 -3 4 -6 -2 -5 -13z"/>
<path d="M1263 4310 c0 -25 2 -35 4 -22 2 12 2 32 0 45 -2 12 -4 2 -4 -23z"/>
<path d="M1333 4298 c-1 -29 3 -60 8 -68 5 -10 9 9 9 53 0 37 -4 67 -8 67 -5
0 -9 -24 -9 -52z"/>
<path d="M1373 4315 c0 -22 2 -30 4 -17 2 12 2 30 0 40 -3 9 -5 -1 -4 -23z"/>
<path d="M1408 4310 c-2 -22 0 -40 4 -40 5 0 8 18 8 40 0 22 -2 40 -4 40 -2 0
-6 -18 -8 -40z"/>
<path d="M1709 4343 c0 -5 -2 -18 -3 -30 -1 -12 1 -28 6 -35 4 -8 8 4 8 30 0
23 -2 42 -5 42 -3 0 -5 -3 -6 -7z"/>
<path d="M1895 4310 c0 -22 3 -40 8 -40 4 0 7 18 7 40 0 22 -4 40 -8 40 -4 0
-8 -18 -7 -40z"/>
<path d="M2223 4310 c0 -25 2 -35 4 -22 2 12 2 32 0 45 -2 12 -4 2 -4 -23z"/>
<path d="M2260 4307 c4 -41 5 -41 8 -8 2 18 0 37 -5 42 -5 5 -6 -11 -3 -34z"/>
<path d="M2400 4310 c0 -22 3 -40 8 -40 4 0 6 18 4 40 -2 22 -6 40 -8 40 -2 0
-4 -18 -4 -40z"/>
<path d="M2438 4316 c-7 -39 -4 -55 8 -44 3 3 4 23 2 44 l-3 39 -7 -39z"/>
<path d="M2660 4340 c0 -5 5 -10 10 -10 6 0 10 5 10 10 0 6 -4 10 -10 10 -5 0
-10 -4 -10 -10z"/>
<path d="M3073 4310 c0 -25 2 -35 4 -22 2 12 2 32 0 45 -2 12 -4 2 -4 -23z"/>
<path d="M3223 4310 c0 -25 2 -35 4 -22 2 12 2 32 0 45 -2 12 -4 2 -4 -23z"/>
<path d="M3278 4310 c2 -22 6 -40 8 -40 2 0 4 18 4 40 0 22 -3 40 -8 40 -4 0
-6 -18 -4 -40z"/>
<path d="M2711 4324 c0 -11 3 -14 6 -6 3 7 2 16 -1 19 -3 4 -6 -2 -5 -13z"/>
<path d="M3142 4315 c0 -16 2 -22 5 -12 2 9 2 23 0 30 -3 6 -5 -1 -5 -18z"/>
<path d="M1232 4300 c0 -19 2 -27 5 -17 2 9 2 25 0 35 -3 9 -5 1 -5 -18z"/>
<path d="M1291 4314 c0 -11 3 -14 6 -6 3 7 2 16 -1 19 -3 4 -6 -2 -5 -13z"/>
<path d="M1440 4311 c0 -18 3 -19 25 -9 25 11 34 28 15 28 -5 0 -10 -5 -10
-11 0 -8 -5 -8 -15 1 -13 10 -15 9 -15 -9z"/>
<path d="M1640 4309 c0 -11 4 -18 10 -14 5 3 7 12 3 20 -7 21 -13 19 -13 -6z"/>
<path d="M1670 4315 c0 -8 2 -15 4 -15 2 0 6 7 10 15 3 8 1 15 -4 15 -6 0 -10
-7 -10 -15z"/>
<path d="M2031 4318 c0 -7 4 -22 9 -33 7 -16 8 -14 7 12 -1 18 -5 33 -9 33 -5
0 -8 -6 -7 -12z"/>
<path d="M2192 4310 c0 -14 2 -19 5 -12 2 6 2 18 0 25 -3 6 -5 1 -5 -13z"/>
<path d="M2562 4300 c0 -19 2 -27 5 -17 2 9 2 25 0 35 -3 9 -5 1 -5 -18z"/>
<path d="M2592 4310 c0 -14 2 -19 5 -12 2 6 2 18 0 25 -3 6 -5 1 -5 -13z"/>
<path d="M2632 4310 c0 -14 2 -19 5 -12 2 6 2 18 0 25 -3 6 -5 1 -5 -13z"/>
<path d="M2794 4285 c1 -38 3 -43 14 -28 15 21 15 33 -2 56 -12 15 -13 12 -12
-28z"/>
<path d="M3112 4300 c0 -19 2 -27 5 -17 2 9 2 25 0 35 -3 9 -5 1 -5 -18z"/>
<path d="M2318 4295 c-6 -30 -2 -32 12 -6 6 11 6 22 1 25 -5 3 -11 -5 -13 -19z"/>
<path d="M1191 4284 c0 -11 3 -14 6 -6 3 7 2 16 -1 19 -3 4 -6 -2 -5 -13z"/>
<path d="M1831 4284 c0 -11 3 -14 6 -6 3 7 2 16 -1 19 -3 4 -6 -2 -5 -13z"/>
<path d="M1861 4284 c0 -11 3 -14 6 -6 3 7 2 16 -1 19 -3 4 -6 -2 -5 -13z"/>
<path d="M2000 4291 c0 -6 4 -13 10 -16 6 -3 7 1 4 9 -7 18 -14 21 -14 7z"/>
<path d="M2661 4284 c0 -11 3 -14 6 -6 3 7 2 16 -1 19 -3 4 -6 -2 -5 -13z"/>
<path d="M2711 4284 c0 -11 3 -14 6 -6 3 7 2 16 -1 19 -3 4 -6 -2 -5 -13z"/>
<path d="M3717 4223 c-10 -10 -8 -45 2 -39 11 7 21 46 12 46 -4 0 -11 -3 -14
-7z"/>
<path d="M940 3980 l0 -170 1281 2 1281 3 0 165 0 165 -1281 3 -1281 2 0 -170z
m975 10 c-2 -3 75 -4 171 -2 102 2 174 7 174 12 0 15 30 12 30 -2 1 -8 7 -5
15 6 9 12 22 17 35 13 11 -3 23 0 26 5 13 20 26 -23 19 -63 -6 -36 -24 -55
-26 -26 0 10 -2 10 -6 0 -10 -26 -42 -14 -52 20 l-9 32 -1 -30 -1 -31 -106 1
c-98 0 -108 2 -115 20 -8 20 -8 20 -8 0 -1 -17 -8 -20 -43 -21 -24 0 -46 5
-50 11 -5 7 -8 6 -8 -2 0 -7 -16 -11 -42 -10 -42 2 -43 2 -46 42 -3 29 1 43
15 52 15 12 18 11 24 -4 4 -10 5 -20 4 -23z m505 15 c0 -20 49 -20 64 1 12 15
46 10 46 -7 0 -5 9 -9 21 -9 17 0 20 -5 17 -32 -3 -32 -4 -33 -57 -36 -37 -2
-57 1 -62 10 -5 7 -9 8 -9 3 0 -6 -9 -11 -20 -12 -18 -2 -20 4 -20 48 0 27 5
49 10 49 6 0 10 -7 10 -15z"/>
<path d="M2320 3975 c0 -8 5 -15 10 -15 6 0 10 7 10 15 0 8 -4 15 -10 15 -5 0
-10 -7 -10 -15z"/>
<path d="M3902 4138 c-19 -19 -14 -30 10 -26 13 2 24 11 26 21 4 20 -18 23
-36 5z"/>
<path d="M3726 4032 c-4 -7 -9 -35 -12 -64 -2 -29 -2 -47 2 -40 8 18 32 15 38
-5 3 -10 3 6 1 35 -5 57 -18 92 -29 74z"/>
<path d="M3806 4023 c-3 -10 -7 -40 -10 -68 -3 -27 -3 -42 0 -32 7 21 34 23
34 2 0 -8 5 -15 11 -15 6 0 8 8 5 18 -2 9 -8 36 -11 59 -7 47 -21 63 -29 36z"/>
<path d="M3877 4033 c-4 -3 -7 -33 -7 -65 0 -55 1 -58 24 -58 27 0 36 16 36
69 0 48 -30 78 -53 54z m39 -37 c8 -34 1 -61 -16 -61 -16 0 -26 45 -16 71 8
22 25 17 32 -10z"/>
<path d="M3963 3975 c-1 -44 2 -59 6 -40 3 17 11 30 16 30 5 0 12 -13 16 -30
5 -26 6 -24 10 18 2 26 1 55 -3 65 -5 14 -7 13 -7 -5 -1 -33 -29 -29 -34 5 -2
15 -4 -4 -4 -43z"/>
<path d="M4050 3985 c-6 -31 -9 -61 -7 -68 3 -7 6 -5 6 6 1 22 27 22 35 1 4
-9 9 -15 11 -12 8 7 -16 128 -25 128 -5 0 -14 -25 -20 -55z"/>
<path d="M4136 4023 c-3 -10 -8 -40 -12 -68 -6 -47 -5 -49 10 -30 16 20 16 20
31 1 18 -24 18 -17 4 57 -12 58 -23 72 -33 40z"/>
<path d="M4211 3973 c1 -51 3 -60 9 -38 l7 30 11 -25 c10 -21 11 -17 9 35 -2
48 -5 60 -19 63 -16 3 -18 -5 -17 -65z m29 27 c0 -5 -4 -10 -10 -10 -5 0 -10
5 -10 10 0 6 5 10 10 10 6 0 10 -4 10 -10z"/>
<path d="M415 3340 c-9 -16 -23 -30 -31 -30 -11 0 -14 -6 -10 -16 5 -12 1 -14
-15 -9 -14 5 -25 1 -34 -12 -20 -25 -18 -53 5 -90 12 -21 18 -43 14 -60 -3
-16 4 -52 14 -82 17 -47 21 -51 27 -31 6 18 9 20 16 9 18 -29 7 -119 -15 -119
-12 0 -22 -15 -44 -72 -14 -35 -1 -110 23 -134 12 -13 39 -19 97 -22 78 -5 81
-4 104 23 13 15 27 43 30 62 8 40 -9 105 -31 123 -8 7 -15 22 -16 34 0 20 -1
20 -8 2 -9 -23 -16 -14 -26 33 -5 24 -10 30 -16 20 -7 -11 -9 -11 -9 -1 0 7
-5 10 -11 6 -7 -4 -9 -24 -5 -55 4 -26 2 -50 -3 -53 -29 -18 -20 105 10 138
18 19 19 19 19 1 0 -18 0 -18 13 0 13 17 14 15 22 -16 7 -32 8 -30 26 46 10
44 17 89 14 100 -2 11 5 34 15 50 25 38 25 56 -1 86 -15 17 -23 20 -26 11 -6
-17 -48 24 -62 61 -15 40 -65 38 -86 -3z m55 -32 c0 -19 -2 -20 -10 -8 -13 19
-13 30 0 30 6 0 10 -10 10 -22z m-28 -363 c-2 -25 -8 -45 -13 -45 -11 0 -12
103 -2 114 12 11 18 -20 15 -69z m-42 -181 c0 -19 -16 -18 -24 2 -11 27 -7 37
9 24 8 -7 15 -19 15 -26z m150 10 c0 -8 -4 -12 -10 -9 -5 3 -10 13 -10 21 0 8
5 12 10 9 6 -3 10 -13 10 -21z"/>
<path d="M2630 3216 c-36 -25 -75 -66 -62 -66 4 1 23 14 42 30 45 39 84 39
132 0 47 -39 75 -112 88 -232 12 -106 20 -125 20 -47 0 232 -111 391 -220 315z"/>
<path d="M2613 3125 c-39 -33 -93 -111 -93 -134 0 -21 16 -10 34 23 49 91 131
127 177 77 27 -28 47 -93 55 -177 4 -35 11 -64 17 -64 15 0 -3 148 -25 205
-22 55 -70 105 -103 105 -12 0 -40 -16 -62 -35z"/>
<path d="M2616 3023 c-42 -42 -99 -146 -94 -171 2 -11 16 6 37 44 38 71 85
124 111 124 22 0 60 -45 60 -71 0 -24 -11 -24 -33 1 -9 11 -23 20 -30 20 -24
0 -87 -79 -87 -109 0 -22 19 -10 39 24 11 20 28 38 37 42 21 8 44 -21 44 -54
0 -13 5 -23 10 -23 6 0 10 12 10 26 0 14 4 23 10 19 6 -3 10 -15 10 -26 0 -10
5 -19 10 -19 25 0 0 145 -31 185 -28 35 -59 31 -103 -12z"/>
<path d="M4121 2994 c0 -11 3 -14 6 -6 3 7 2 16 -1 19 -3 4 -6 -2 -5 -13z"/>
<path d="M2490 2920 c0 -11 2 -20 4 -20 2 0 6 9 9 20 3 11 1 20 -4 20 -5 0 -9
-9 -9 -20z"/>
<path d="M1421 2868 c-1 -14 -12 -16 -71 -15 -38 1 -70 5 -70 9 0 18 -21 6
-30 -16 -13 -36 -31 -42 -50 -16 -11 14 -19 18 -21 11 -2 -6 -15 -13 -29 -15
-14 -2 -32 -6 -40 -10 -8 -3 -36 -4 -62 -3 -33 2 -48 0 -48 -9 0 -7 -8 -26
-17 -43 -17 -29 -17 -31 2 -45 11 -8 27 -13 35 -11 8 3 28 -2 43 -10 27 -14
29 -14 39 15 12 36 38 40 38 6 0 -21 6 -25 43 -29 33 -3 45 0 56 14 16 23 39
25 47 4 4 -9 19 -15 35 -15 16 0 29 -5 29 -11 0 -7 10 -9 25 -7 13 3 26 0 29
-6 3 -7 10 -4 19 7 8 9 18 17 22 17 5 0 17 7 27 17 17 15 18 15 18 0 0 -12 9
-17 29 -17 16 0 32 -6 34 -12 4 -9 8 -10 14 -2 5 7 46 11 102 12 75 0 96 3
103 16 5 9 20 16 33 16 18 0 25 5 25 20 0 28 20 25 21 -2 1 -17 2 -19 6 -5 2
9 11 17 18 17 8 0 17 9 20 21 5 14 10 17 19 10 17 -14 97 -11 122 5 25 17 62
13 74 -6 11 -18 16 -13 25 22 6 23 4 26 -14 21 -14 -3 -23 0 -27 11 -4 10 -18
16 -41 16 -33 0 -35 -2 -29 -27 7 -26 7 -26 -18 -10 -23 16 -26 16 -36 -1 -10
-14 -11 -15 -6 0 7 23 -16 50 -37 42 -9 -3 -17 -12 -17 -19 0 -8 -9 -13 -20
-12 -11 1 -20 7 -20 15 0 7 -5 10 -12 6 -8 -5 -9 0 -6 14 4 12 2 22 -3 22 -5
0 -9 -7 -9 -15 0 -8 -7 -15 -15 -15 -8 0 -15 -5 -15 -12 0 -9 -3 -9 -12 0 -18
18 -49 15 -42 -3 8 -20 -22 -31 -41 -15 -8 7 -15 9 -15 5 0 -4 -7 -2 -15 5
-13 10 -15 9 -15 -9 0 -16 -6 -21 -26 -21 -33 0 -64 17 -64 35 0 18 -36 20
-43 3 -3 -7 -6 -1 -6 15 -1 30 -12 35 -31 12 -7 -9 -19 -14 -26 -11 -8 3 -18
-3 -23 -12 -8 -14 -10 -15 -15 -2 -14 46 -14 46 -15 28z m-58 -38 c-3 -11 -9
-17 -15 -14 -5 3 -4 12 3 20 16 19 18 18 12 -6z m414 -12 c-3 -8 -6 -5 -6 6
-1 11 2 17 5 13 3 -3 4 -12 1 -19z m-744 -75 c-7 -2 -21 -2 -30 0 -10 3 -4 5
12 5 17 0 24 -2 18 -5z"/>
<path d="M2640 2865 c-10 -13 -9 -15 9 -15 12 0 21 6 21 15 0 8 -4 15 -9 15
-5 0 -14 -7 -21 -15z"/>
<path d="M3481 2868 c-1 -21 -9 -22 -45 -8 -17 6 -26 6 -26 0 0 -6 -9 -10 -20
-10 -11 0 -20 6 -20 13 0 8 -3 8 -9 -2 -7 -11 -13 -12 -23 -3 -16 13 -38 -1
-38 -24 0 -22 -21 -26 -41 -8 -10 9 -19 12 -19 6 0 -7 -12 -10 -30 -8 -16 2
-30 -1 -30 -6 0 -5 -17 -9 -37 -8 -21 1 -47 1 -58 0 -18 -1 -18 -2 -3 -8 17
-7 16 -8 -2 -20 -18 -11 -20 -10 -21 10 0 18 -3 16 -14 -12 -20 -51 -18 -60
10 -60 14 0 28 -7 31 -15 4 -9 19 -15 40 -15 32 0 34 2 34 36 0 44 21 42 34
-4 7 -26 14 -32 37 -32 15 0 34 -3 43 -6 11 -4 16 0 16 14 0 14 7 20 26 20 14
0 28 -7 31 -14 3 -8 15 -14 27 -14 12 0 26 -4 31 -9 19 -17 73 -21 79 -6 3 8
13 15 22 15 9 0 22 8 29 17 12 15 13 15 19 -3 5 -16 14 -19 53 -18 31 2 54 -3
66 -13 15 -15 17 -15 17 0 0 14 12 17 75 17 60 0 75 3 75 15 0 9 9 15 25 15
16 0 25 6 25 15 0 21 18 19 23 -2 4 -17 5 -17 6 0 1 10 9 17 21 17 13 0 20 7
20 20 0 11 5 20 10 20 6 0 10 -4 10 -10 0 -15 47 -12 53 3 4 10 6 10 6 0 2
-28 71 -2 71 27 0 12 -15 11 -50 -4 -10 -4 -21 4 -33 24 -21 34 -46 39 -54 10
-6 -23 -23 -27 -23 -5 0 13 -4 14 -20 5 -14 -7 -20 -7 -20 0 0 15 -21 12 -42
-7 -17 -15 -18 -15 -19 3 0 18 -1 18 -9 -1 -8 -18 -9 -18 -10 5 -2 18 -4 20
-7 7 -10 -37 -123 -67 -123 -32 0 12 -4 13 -18 4 -14 -9 -27 -9 -48 -1 -17 6
-22 11 -11 11 30 2 18 21 -13 21 -20 0 -30 5 -30 15 0 8 -4 15 -10 15 -5 0
-10 -7 -10 -15 0 -9 -9 -15 -25 -15 -14 0 -28 -7 -31 -15 -4 -8 -13 -15 -22
-15 -14 0 -14 1 0 13 11 8 13 18 8 32 -7 17 -9 17 -9 3z"/>
<path d="M4070 2840 c0 -5 4 -10 9 -10 6 0 13 5 16 10 3 6 -1 10 -9 10 -9 0
-16 -4 -16 -10z"/>
<path d="M3730 2824 c0 -8 5 -12 10 -9 6 4 8 11 5 16 -9 14 -15 11 -15 -7z"/>
<path d="M4120 2815 c0 -8 9 -15 20 -15 11 0 23 -7 26 -15 8 -19 29 -4 37 25
5 18 0 20 -39 20 -32 0 -44 -4 -44 -15z"/>
<path d="M2500 2778 c0 -8 -3 -29 -6 -45 -5 -25 -3 -29 16 -29 19 0 21 4 15
36 -7 37 -25 65 -25 38z"/>
<path d="M2566 2775 c-8 -22 -8 -80 1 -72 3 4 13 2 20 -5 12 -10 14 -6 8 28
-10 54 -20 71 -29 49z"/>
<path d="M2627 2783 c-4 -3 -7 -26 -7 -50 0 -31 4 -43 15 -43 15 0 41 38 32
47 -3 2 -8 -5 -12 -16 -10 -33 -25 -25 -25 14 0 25 4 35 16 35 8 0 12 5 9 10
-7 12 -19 13 -28 3z"/>
<path d="M2766 2759 c-9 -46 -8 -61 5 -53 6 3 15 0 21 -7 6 -9 7 2 3 31 -9 58
-21 70 -29 29z"/>
<path d="M2832 2755 c-15 -49 -16 -77 -3 -56 5 7 14 10 20 7 12 -8 13 11 2 59
l-7 30 -12 -40z"/>
<path d="M2890 2747 c0 -24 5 -33 18 -34 14 -1 18 6 19 33 1 27 -3 34 -18 34
-15 0 -19 -7 -19 -33z m30 19 c0 -3 -4 -8 -10 -11 -5 -3 -10 -1 -10 4 0 6 5
11 10 11 6 0 10 -2 10 -4z"/>
<path d="M2692 2735 c0 -23 3 -30 5 -17 5 23 23 31 24 10 0 -7 4 -4 8 7 10 24
2 43 -10 24 -8 -12 -11 -11 -19 1 -7 11 -9 4 -8 -25z"/>
<path d="M910 2345 c0 -8 4 -15 10 -15 5 0 7 7 4 15 -4 8 -8 15 -10 15 -2 0
-4 -7 -4 -15z"/>
<path d="M993 2295 c0 -38 2 -53 4 -32 2 20 2 52 0 70 -2 17 -4 1 -4 -38z"/>
<path d="M2436 2294 c-4 -9 -4 -19 -1 -22 2 -3 7 3 11 12 4 9 4 19 1 22 -2 3
-7 -3 -11 -12z"/>
<path d="M2602 2285 c0 -16 2 -22 5 -12 2 9 2 23 0 30 -3 6 -5 -1 -5 -18z"/>
<path d="M1161 2274 c0 -11 3 -14 6 -6 3 7 2 16 -1 19 -3 4 -6 -2 -5 -13z"/>
<path d="M1218 2243 c5 -76 10 -83 11 -15 0 34 -2 62 -7 62 -4 0 -6 -21 -4
-47z"/>
<path d="M1101 2244 c0 -11 3 -14 6 -6 3 7 2 16 -1 19 -3 4 -6 -2 -5 -13z"/>
<path d="M1330 2234 c0 -8 5 -12 10 -9 6 3 10 10 10 16 0 5 -4 9 -10 9 -5 0
-10 -7 -10 -16z"/>
<path d="M2597 2203 c7 -71 11 -75 12 -10 1 31 -3 57 -8 57 -5 0 -6 -21 -4
-47z"/>
<path d="M2722 2230 c0 -14 2 -19 5 -12 2 6 2 18 0 25 -3 6 -5 1 -5 -13z"/>
<path d="M2792 2220 c0 -14 2 -19 5 -12 2 6 2 18 0 25 -3 6 -5 1 -5 -13z"/>
<path d="M3072 2220 c0 -14 2 -19 5 -12 2 6 2 18 0 25 -3 6 -5 1 -5 -13z"/>
<path d="M2922 2210 c0 -14 2 -19 5 -12 2 6 2 18 0 25 -3 6 -5 1 -5 -13z"/>
<path d="M980 2195 c0 -8 5 -15 10 -15 6 0 10 7 10 15 0 8 -4 15 -10 15 -5 0
-10 -7 -10 -15z"/>
<path d="M2862 2180 c0 -19 2 -27 5 -17 2 9 2 25 0 35 -3 9 -5 1 -5 -18z"/>
<path d="M2411 2184 c0 -11 3 -14 6 -6 3 7 2 16 -1 19 -3 4 -6 -2 -5 -13z"/>
<path d="M2460 2193 c0 -5 5 -15 10 -23 8 -12 10 -11 10 8 0 12 -4 22 -10 22
-5 0 -10 -3 -10 -7z"/>
<path d="M2721 2144 c0 -11 3 -14 6 -6 3 7 2 16 -1 19 -3 4 -6 -2 -5 -13z"/>
<path d="M395 2107 c-29 -18 -52 -47 -82 -102 -23 -44 -27 -63 -30 -165 -1
-63 -6 -142 -9 -175 -3 -40 0 -79 10 -115 9 -30 27 -95 41 -145 28 -101 33
-185 11 -185 -14 0 -25 -28 -26 -65 -1 -23 -33 -65 -49 -65 -6 0 -11 -4 -11
-8 0 -4 -30 -24 -67 -43 -37 -18 -73 -41 -80 -49 -7 -9 -12 -45 -13 -87 l0
-73 370 0 370 0 0 71 c0 82 0 81 -97 129 -75 37 -128 93 -137 145 -4 21 -14
44 -22 52 -8 8 -14 23 -14 33 0 29 39 193 51 214 31 54 51 209 30 232 -5 5
-11 68 -13 139 -4 98 -9 138 -22 162 -24 45 -74 93 -96 93 -10 0 -22 5 -25 10
-8 14 -65 12 -90 -3z"/>
<path d="M936 1965 c15 -47 15 -66 0 -90 -18 -28 -20 -35 -7 -35 5 0 12 11 15
25 4 14 11 25 16 25 5 0 12 -11 16 -25 3 -14 10 -25 14 -25 10 0 1 38 -11 46
-5 3 -9 16 -9 30 0 13 -4 24 -8 24 -5 0 -14 10 -21 23 -9 16 -10 17 -5 2z"/>
<path d="M1140 1971 c0 -5 5 -13 10 -16 6 -3 10 -2 10 4 0 5 -4 13 -10 16 -5
3 -10 2 -10 -4z"/>
<path d="M1361 1951 c9 -24 9 -43 1 -69 -6 -20 -9 -38 -7 -40 2 -2 7 7 11 22
8 33 20 33 38 -1 18 -33 21 -25 5 14 -7 15 -11 38 -10 50 0 13 -3 22 -8 20 -5
-1 -17 7 -25 18 -15 19 -15 18 -5 -14z"/>
<path d="M1781 1980 c-1 -3 3 -20 8 -38 7 -24 6 -43 -5 -70 -13 -33 -13 -35 1
-18 8 11 15 23 15 28 0 19 18 6 24 -18 4 -15 9 -24 12 -21 3 3 0 21 -7 41 -10
27 -10 41 -1 61 7 15 8 25 2 25 -6 0 -10 -7 -10 -15 0 -22 -15 -18 -28 8 -6
12 -11 20 -11 17z"/>
<path d="M1040 1968 c0 -4 4 -18 10 -32 7 -18 5 -35 -6 -61 -8 -19 -12 -35 -9
-35 3 0 10 11 15 25 12 32 23 32 38 -2 10 -25 11 -25 5 -3 -3 14 -6 45 -6 70
0 25 -2 37 -4 28 -3 -10 -8 -18 -13 -18 -5 0 -14 8 -19 18 -6 9 -11 14 -11 10z"/>
<path d="M1260 1952 c7 -13 9 -35 6 -48 -5 -18 -3 -22 8 -18 10 4 17 -3 22
-21 3 -14 9 -24 11 -21 3 2 -1 20 -8 40 -10 27 -10 41 -1 61 7 15 8 25 2 25
-6 0 -10 -7 -10 -15 0 -20 -10 -19 -27 3 -13 15 -13 15 -3 -6z"/>
<path d="M1472 1939 c8 -22 7 -38 -1 -57 -11 -25 -10 -26 4 -8 17 22 20 21 35
-14 l11 -25 -7 25 c-4 14 -7 39 -8 56 -1 21 -5 30 -13 27 -7 -3 -13 2 -13 11
0 9 -4 16 -9 16 -6 0 -6 -12 1 -31z"/>
<path d="M1606 1954 c-3 -8 -10 -12 -16 -9 -6 4 -10 -6 -10 -24 0 -17 4 -31
10 -31 5 0 16 -12 25 -27 15 -26 15 -27 8 -3 -4 14 -7 44 -7 68 2 45 0 51 -10
26z"/>
<path d="M1684 1927 c0 -23 -4 -53 -7 -67 -6 -22 -5 -22 5 3 11 25 28 37 28
19 0 -5 7 -17 15 -28 14 -17 14 -15 1 18 -11 27 -12 47 -6 70 8 29 8 31 -4 15
-13 -16 -15 -17 -23 -3 -6 11 -9 2 -9 -27z"/>
<path d="M1895 1925 c0 -22 -3 -51 -7 -65 -6 -21 -5 -20 4 3 7 15 17 27 24 27
17 0 13 41 -6 60 -14 14 -15 11 -15 -25z"/>
<path d="M2003 1940 c9 -23 8 -36 -6 -65 -9 -19 -13 -35 -8 -35 5 0 12 11 15
25 4 14 11 25 16 25 5 0 12 -11 16 -25 3 -14 10 -25 15 -25 5 0 1 16 -8 35
-14 30 -15 41 -5 68 10 27 9 29 -2 15 -16 -22 -26 -23 -26 -3 0 8 -4 15 -9 15
-5 0 -4 -13 2 -30z"/>
<path d="M1174 1942 c-6 -4 -14 -18 -17 -32 -3 -14 -8 -36 -11 -50 -6 -22 -5
-22 5 3 13 34 27 34 40 1 5 -15 12 -24 15 -21 3 3 0 16 -7 28 -6 13 -12 36
-11 51 0 15 0 28 -1 28 -1 0 -7 -4 -13 -8z"/>
<path d="M2401 1933 c-1 -7 4 -23 10 -36 9 -19 7 -31 -5 -56 -9 -17 -12 -31
-6 -31 5 0 10 7 10 15 0 21 26 19 40 -2 10 -16 11 -16 4 2 -4 11 -9 32 -12 48
-2 15 -8 27 -13 27 -6 0 -14 10 -19 23 -5 12 -9 17 -9 10z"/>
<path d="M2507 1925 c4 -11 7 -35 7 -53 1 -21 5 -31 13 -28 7 3 15 -4 18 -15
4 -10 11 -19 16 -19 5 0 2 14 -7 31 -13 25 -14 37 -5 57 7 13 9 27 7 30 -3 3
-8 -3 -12 -12 -8 -22 -19 -20 -33 7 -8 15 -9 16 -4 2z"/>
<path d="M2611 1933 c-1 -7 4 -24 11 -38 9 -20 8 -31 -2 -50 -7 -14 -10 -28
-7 -32 4 -3 7 2 7 11 0 13 6 17 18 14 15 -4 18 1 18 26 0 17 3 42 7 56 7 24 7
24 -4 3 -7 -13 -15 -23 -19 -23 -4 0 -12 10 -18 23 -6 12 -11 17 -11 10z"/>
<path d="M2710 1932 c0 -6 5 -14 10 -17 13 -8 13 -61 0 -86 -6 -11 -7 -19 -2
-19 6 0 12 9 15 21 6 23 27 17 27 -7 0 -8 5 -14 10 -14 7 0 7 6 0 19 -5 11
-10 29 -10 40 0 11 -11 32 -25 47 -14 15 -25 22 -25 16z"/>
<path d="M2761 1924 c0 -11 3 -14 6 -6 3 7 2 16 -1 19 -3 4 -6 -2 -5 -13z"/>
<path d="M2827 1920 c9 -33 9 -59 -1 -90 l-8 -25 18 24 17 24 14 -24 14 -24
-8 25 c-9 31 -9 58 0 90 7 24 7 24 -4 3 -7 -13 -15 -23 -19 -23 -4 0 -12 10
-19 23 -11 21 -11 21 -4 -3z"/>
<path d="M2975 1920 c-4 -12 -12 -19 -19 -17 -9 4 -13 -4 -13 -21 0 -15 -3
-36 -5 -47 -3 -11 -3 -14 -1 -7 6 17 24 15 39 -5 7 -10 14 -13 14 -6 0 6 -4
15 -10 18 -13 8 -13 51 1 77 6 11 8 22 6 25 -3 2 -8 -5 -12 -17z"/>
<path d="M3147 1920 c8 -30 8 -56 -2 -90 -7 -24 -7 -24 8 -5 l16 20 15 -20
c13 -17 15 -18 16 -3 0 9 -5 20 -11 24 -6 3 -9 17 -6 30 2 15 -1 24 -8 24 -7
0 -17 10 -24 23 -11 21 -11 21 -4 -3z"/>
<path d="M3253 1904 c8 -26 8 -44 -1 -67 l-12 -32 20 25 20 25 6 -22 c4 -13
10 -23 16 -23 5 0 4 10 -3 21 -6 12 -9 37 -7 56 3 29 2 32 -7 19 -14 -18 -25
-11 -25 16 0 10 -4 18 -9 18 -5 0 -4 -16 2 -36z"/>
<path d="M3356 1925 c16 -49 16 -58 4 -81 -8 -13 -10 -27 -7 -31 4 -3 7 1 7
10 0 22 26 22 39 0 9 -15 10 -15 11 -2 0 8 -5 20 -12 27 -9 9 -9 20 1 48 7 19
11 38 8 41 -3 2 -8 -5 -12 -16 -8 -27 -19 -27 -34 2 -9 17 -10 17 -5 2z"/>
<path d="M3465 1876 c0 -57 1 -61 12 -37 6 14 12 21 12 15 1 -5 8 -19 17 -30
15 -18 15 -18 5 3 -6 12 -11 33 -11 47 0 14 -4 26 -8 26 -5 0 -13 9 -18 20 -7
15 -9 3 -9 -44z"/>
<path d="M3506 1923 c-6 -14 -5 -15 5 -6 7 7 10 15 7 18 -3 3 -9 -2 -12 -12z"/>
<path d="M3617 1920 c-6 -25 -24 -26 -30 -2 -3 9 -3 -2 0 -25 4 -27 1 -48 -7
-58 -7 -9 -10 -18 -7 -22 4 -3 9 2 13 11 8 20 34 21 34 1 0 -8 5 -15 10 -15 6
0 3 14 -6 31 -13 26 -13 36 -3 60 6 16 9 32 7 35 -3 3 -8 -4 -11 -16z"/>
<path d="M3686 1920 c8 -32 8 -59 0 -90 -6 -24 -6 -24 3 -2 6 12 15 22 21 22
5 0 10 9 10 20 0 11 -4 20 -8 20 -5 0 -13 12 -20 28 -11 24 -11 25 -6 2z"/>
<path d="M3726 1925 c-9 -26 -7 -32 5 -12 6 10 9 21 6 23 -2 3 -7 -2 -11 -11z"/>
<path d="M3831 1924 c0 -11 3 -14 6 -6 3 7 2 16 -1 19 -3 4 -6 -2 -5 -13z"/>
<path d="M3897 1920 c4 -14 7 -37 8 -52 0 -16 5 -28 12 -28 7 0 17 -8 22 -17
6 -10 11 -13 11 -6 0 6 -5 15 -11 19 -7 4 -9 22 -6 47 4 26 2 36 -3 27 -10
-16 -11 -15 -29 15 -11 18 -11 18 -4 -5z"/>
<path d="M4256 1923 c-6 -14 -5 -15 5 -6 7 7 10 15 7 18 -3 3 -9 -2 -12 -12z"/>
<path d="M4006 1905 c4 -16 8 -32 10 -34 2 -2 -4 -18 -12 -35 -12 -24 -12 -27
-1 -13 8 9 18 17 22 17 4 0 14 -8 21 -17 12 -16 13 -14 3 12 -6 16 -8 46 -5
65 2 19 2 27 0 18 -3 -10 -9 -18 -14 -18 -5 0 -14 8 -20 18 -8 13 -9 11 -4
-13z"/>
<path d="M4143 1912 c-11 -15 -13 -15 -23 -2 -8 11 -9 4 -4 -27 4 -29 3 -43
-5 -43 -6 0 -11 -8 -11 -17 1 -16 2 -16 16 2 15 20 15 20 30 1 17 -24 19 -4 2
23 -9 15 -9 26 0 47 15 31 11 41 -5 16z"/>
<path d="M4210 1927 c0 -3 5 -18 12 -32 9 -20 8 -31 -2 -50 -7 -14 -10 -28 -7
-32 4 -3 7 1 7 10 0 22 19 22 37 0 14 -17 14 -17 8 2 -4 11 -10 31 -13 45 -5
22 -42 73 -42 57z"/>
<path d="M3047 1884 c3 -25 1 -44 -6 -48 -6 -4 -11 -13 -11 -19 0 -7 9 -1 20
13 l19 25 11 -25 c10 -24 10 -23 4 5 -4 17 -7 41 -7 55 0 14 -2 19 -4 12 -4
-10 -8 -8 -18 5 -12 16 -13 13 -8 -23z"/>
<path d="M3806 1886 c3 -8 -2 -29 -11 -48 -11 -23 -12 -28 -2 -15 17 21 37 22
37 2 0 -8 4 -15 9 -15 6 0 3 16 -5 35 -8 20 -12 40 -9 45 4 6 -1 10 -9 10 -9
0 -13 -6 -10 -14z"/>
<path d="M1566 1865 c-9 -26 -7 -32 5 -12 6 10 9 21 6 23 -2 3 -7 -2 -11 -11z"/>
<path d="M1930 1868 c0 -9 5 -20 10 -23 13 -8 13 5 0 25 -8 13 -10 13 -10 -2z"/>
<path d="M3720 1831 c0 -5 5 -13 10 -16 6 -3 10 -2 10 4 0 5 -4 13 -10 16 -5
3 -10 2 -10 -4z"/>
<path d="M914 1595 c0 -55 1 -76 3 -47 2 29 2 74 0 100 -2 26 -3 2 -3 -53z"/>
<path d="M1211 1674 c0 -11 3 -14 6 -6 3 7 2 16 -1 19 -3 4 -6 -2 -5 -13z"/>
<path d="M2404 1657 c11 -28 13 -45 5 -64 -5 -14 -8 -28 -5 -30 2 -3 7 5 11
16 3 12 10 19 15 16 4 -3 10 11 12 30 3 27 1 32 -9 23 -7 -6 -13 -6 -13 -1 0
5 -7 18 -15 29 -14 17 -14 15 -1 -19z"/>
<path d="M2710 1678 c0 -9 5 -20 10 -23 6 -3 10 -17 10 -30 0 -13 11 -36 24
-50 l24 -26 -13 37 c-10 31 -10 43 1 71 17 40 10 44 -9 6 l-14 -27 -16 30
c-11 19 -16 23 -17 12z"/>
<path d="M3036 1675 c15 -44 16 -68 4 -91 -8 -13 -10 -27 -7 -31 4 -3 7 0 7 8
0 8 5 20 12 27 10 10 15 7 26 -10 13 -23 13 -23 5 2 -9 31 -9 59 1 85 5 13 2
12 -7 -4 l-15 -24 -16 29 c-10 16 -14 20 -10 9z"/>
<path d="M3191 1678 c-1 -26 -23 -33 -39 -12 -14 18 -14 18 -7 -6 4 -14 7 -33
8 -42 2 -31 27 -30 27 0 0 16 5 33 11 39 6 6 9 17 6 25 -4 9 -6 8 -6 -4z"/>
<path d="M2545 1659 c-7 -21 -8 -22 -20 -5 -12 15 -13 12 -8 -22 3 -24 1 -42
-6 -46 -6 -4 -11 -15 -10 -24 0 -12 3 -11 9 6 11 26 25 28 39 5 13 -23 14 -12
1 21 -6 17 -6 35 1 52 5 15 8 29 5 31 -2 3 -7 -6 -11 -18z"/>
<path d="M2617 1660 c9 -32 8 -49 -1 -80 l-7 -25 14 23 14 24 16 -24 c9 -13
16 -18 16 -11 1 6 -3 15 -9 18 -5 3 -10 17 -10 31 0 13 -4 24 -8 24 -5 0 -14
10 -21 23 -11 21 -11 21 -4 -3z"/>
<path d="M2656 1663 c-6 -14 -5 -15 5 -6 7 7 10 15 7 18 -3 3 -9 -2 -12 -12z"/>
<path d="M2825 1664 c11 -24 11 -63 1 -89 -7 -18 -6 -18 4 -2 15 23 27 22 35
-4 4 -11 9 -18 12 -16 3 3 -1 22 -8 42 -11 28 -11 40 -1 55 19 30 14 35 -8 9
-16 -20 -19 -21 -20 -7 0 9 -5 20 -12 24 -8 5 -9 2 -3 -12z"/>
<path d="M3240 1671 c0 -6 5 -13 10 -16 6 -3 10 -19 10 -35 0 -16 -4 -32 -10
-35 -5 -3 -10 -14 -9 -23 0 -14 2 -14 6 -2 8 19 33 44 33 33 0 -5 7 -18 16
-29 14 -18 14 -18 3 5 -7 14 -9 43 -5 70 5 43 4 44 -8 22 l-14 -24 -6 21 c-7
22 -26 31 -26 13z"/>
<path d="M3355 1665 c4 -11 11 -35 17 -52 5 -18 13 -33 18 -33 6 0 10 -7 10
-17 0 -9 3 -14 6 -10 3 3 0 22 -7 42 -11 28 -11 40 -1 55 17 28 15 38 -3 14
-15 -19 -15 -19 -31 1 l-17 20 8 -20z"/>
<path d="M3465 1660 c9 -35 10 -51 2 -80 -7 -25 -7 -25 5 -2 l11 22 19 -27
c13 -20 18 -23 18 -11 0 9 -5 20 -11 24 -7 4 -9 23 -6 48 5 32 3 37 -5 22 -10
-18 -11 -18 -25 5 l-14 24 6 -25z"/>
<path d="M3560 1671 c0 -6 5 -13 10 -16 6 -3 10 -19 10 -35 0 -16 -4 -32 -10
-35 -5 -3 -10 -11 -10 -17 0 -6 8 -4 19 6 17 16 19 15 34 -6 15 -21 15 -20 1
15 -10 27 -12 43 -4 57 16 29 11 48 -5 20 l-15 -25 -6 23 c-6 22 -24 31 -24
13z"/>
<path d="M3671 1678 c-1 -4 4 -19 11 -33 8 -19 8 -31 -1 -51 -6 -15 -9 -29 -6
-32 3 -4 8 4 12 16 7 29 17 28 31 -5 11 -25 11 -26 6 -3 -9 34 -9 71 0 95 5
14 3 13 -5 -2 -7 -13 -15 -23 -19 -23 -4 0 -12 10 -18 23 -6 12 -11 19 -11 15z"/>
<path d="M3785 1650 c14 -27 14 -34 0 -67 -13 -33 -13 -36 0 -19 8 11 15 25
15 30 1 6 7 0 15 -14 14 -24 15 -24 9 16 -4 24 -1 50 5 63 8 14 8 21 1 21 -5
0 -10 -7 -10 -15 0 -8 -5 -15 -10 -15 -6 0 -13 7 -16 15 -4 8 -10 15 -15 15
-5 0 -3 -13 6 -30z"/>
<path d="M3880 1671 c0 -5 5 -13 10 -16 6 -3 10 -2 10 4 0 5 -4 13 -10 16 -5
3 -10 2 -10 -4z"/>
<path d="M3925 1661 c-3 -12 -11 -21 -16 -21 -5 0 -9 -11 -9 -24 0 -14 -4 -28
-10 -31 -5 -3 -10 -14 -9 -23 0 -14 2 -14 6 -2 13 34 25 41 40 23 13 -16 13
-16 3 5 -8 17 -9 32 -1 54 6 17 9 33 7 35 -2 3 -7 -5 -11 -16z"/>
<path d="M3995 1660 c10 -33 10 -60 1 -85 -5 -14 -3 -13 7 4 12 20 15 21 20 7
4 -9 11 -16 16 -16 5 0 4 13 -2 30 -9 23 -9 35 1 50 17 28 14 39 -4 15 l-15
-20 -16 20 c-15 19 -15 19 -8 -5z"/>
<path d="M2966 1654 c-3 -9 -11 -12 -18 -8 -8 5 -9 2 -5 -10 4 -9 0 -34 -8
-54 -15 -36 -15 -36 3 -14 11 15 21 19 27 13 7 -7 10 7 10 40 0 27 -1 49 -1
49 -1 0 -5 -7 -8 -16z"/>
<path d="M1211 1624 c-1 -29 1 -31 27 -25 24 5 25 6 5 9 -13 2 -23 12 -26 25
-3 16 -5 13 -6 -9z"/>
<path d="M1002 1620 c0 -14 2 -19 5 -12 2 6 2 18 0 25 -3 6 -5 1 -5 -13z"/>
<path d="M1052 1590 c0 -19 2 -27 5 -17 2 9 2 25 0 35 -3 9 -5 1 -5 -18z"/>
<path d="M1152 1600 c0 -14 2 -19 5 -12 2 6 2 18 0 25 -3 6 -5 1 -5 -13z"/>
<path d="M1537 1590 c3 -11 7 -20 9 -20 2 0 4 9 4 20 0 11 -4 20 -9 20 -5 0
-7 -9 -4 -20z"/>
<path d="M1640 1589 c0 -11 5 -17 10 -14 6 3 10 13 10 21 0 8 -4 14 -10 14 -5
0 -10 -9 -10 -21z"/>
<path d="M1750 1593 c0 -34 17 -46 18 -14 0 17 -4 31 -9 31 -5 0 -9 -8 -9 -17z"/>
<path d="M1850 1584 c0 -14 4 -23 10 -19 6 3 10 15 10 26 0 10 -4 19 -10 19
-5 0 -10 -12 -10 -26z"/>
<path d="M1960 1590 c0 -11 5 -20 10 -20 6 0 10 9 10 20 0 11 -4 20 -10 20 -5
0 -10 -9 -10 -20z"/>
<path d="M1001 1564 c0 -11 3 -14 6 -6 3 7 2 16 -1 19 -3 4 -6 -2 -5 -13z"/>
<path d="M1213 1540 c0 -25 2 -35 4 -22 2 12 2 32 0 45 -2 12 -4 2 -4 -23z"/>
<path d="M1272 1550 c0 -19 2 -27 5 -17 2 9 2 25 0 35 -3 9 -5 1 -5 -18z"/>
<path d="M3186 1565 c4 -8 8 -15 10 -15 2 0 4 7 4 15 0 8 -4 15 -10 15 -5 0
-7 -7 -4 -15z"/>
<path d="M3351 1564 c0 -11 3 -14 6 -6 3 7 2 16 -1 19 -3 4 -6 -2 -5 -13z"/>
<path d="M1060 1541 c0 -6 4 -13 10 -16 6 -3 7 1 4 9 -7 18 -14 21 -14 7z"/>
<path d="M2501 1420 c-1 -9 4 -21 10 -27 8 -8 7 -24 -5 -60 -13 -39 -13 -44
-1 -28 8 11 19 25 25 32 5 7 10 22 10 33 0 12 5 31 11 43 9 19 7 18 -10 -3
l-20 -25 -10 25 c-5 14 -10 18 -10 10z"/>
<path d="M2710 1420 c0 -9 5 -21 12 -28 9 -9 9 -20 -1 -48 -7 -19 -11 -38 -8
-41 3 -2 8 5 12 16 3 12 10 21 15 21 4 0 10 14 12 30 3 19 1 29 -6 27 -6 -2
-16 5 -23 17 -9 15 -12 17 -13 6z"/>
<path d="M3037 1405 c12 -55 16 -65 24 -65 5 0 9 -9 9 -19 0 -11 5 -23 10 -26
13 -8 13 -2 -6 56 -9 27 -20 49 -24 49 -5 0 -10 6 -13 13 -2 6 -2 3 0 -8z"/>
<path d="M3406 1408 c-6 -23 -6 -23 -22 -3 -14 19 -15 18 -8 -20 4 -22 10 -42
14 -45 4 -3 11 -13 16 -22 6 -11 9 3 9 48 0 35 -1 64 -1 64 -1 0 -5 -10 -8
-22z"/>
<path d="M3475 1410 c10 -34 10 -60 2 -90 -7 -24 -7 -24 4 -2 7 12 15 22 19
22 4 0 12 -10 19 -22 8 -16 9 -17 4 -3 -4 11 -7 37 -7 57 0 20 -4 34 -9 31 -4
-3 -15 3 -23 13 -15 18 -15 18 -9 -6z"/>
<path d="M3619 1408 c-11 -21 -12 -21 -27 -2 -14 19 -15 19 -7 -1 10 -26 10
-34 1 -70 -7 -28 -6 -29 8 -10 14 20 15 19 26 -9 6 -16 13 -27 15 -24 3 2 -1
18 -7 35 -9 23 -9 41 -1 67 13 41 9 46 -8 14z"/>
<path d="M3693 1395 c8 -26 7 -42 -2 -61 -6 -15 -9 -29 -6 -32 3 -4 8 4 12 16
7 28 17 28 32 0 9 -17 10 -18 5 -3 -14 40 -16 73 -5 79 6 4 11 13 11 19 0 7
-5 4 -11 -5 -12 -22 -29 -23 -29 -4 0 8 -4 17 -9 20 -5 4 -4 -10 2 -29z"/>
<path d="M3833 1410 c-7 -25 -18 -26 -33 -2 -10 15 -11 15 -5 -3 4 -11 10 -29
13 -40 3 -11 12 -26 19 -33 7 -7 13 -21 13 -29 0 -9 3 -14 6 -10 3 3 1 22 -6
42 -8 25 -9 44 -1 65 5 17 8 30 5 30 -3 0 -8 -9 -11 -20z"/>
<path d="M2826 1383 c4 -28 2 -48 -6 -58 -7 -9 -10 -18 -7 -21 3 -3 11 4 18
17 10 20 13 21 23 7 9 -12 11 -4 11 37 0 40 -2 49 -11 37 -10 -13 -13 -13 -23
4 -9 15 -10 11 -5 -23z"/>
<path d="M2959 1401 c-9 -9 -18 -33 -22 -52 -3 -19 -3 -28 0 -21 7 18 21 15
28 -9 4 -11 9 -19 11 -16 2 2 -1 19 -7 37 -9 25 -9 37 0 52 16 26 9 32 -10 9z"/>
<path d="M3146 1385 c4 -21 11 -44 16 -50 5 -5 15 -19 24 -30 13 -17 12 -15
-1 19 -8 22 -13 48 -9 59 4 12 2 17 -4 13 -6 -4 -16 2 -22 11 -8 14 -9 9 -4
-22z"/>
<path d="M3248 1403 c7 -12 12 -31 12 -42 0 -12 5 -21 10 -21 6 0 10 8 10 18
0 9 3 28 6 42 4 19 3 21 -4 11 -9 -13 -13 -13 -28 0 -16 13 -16 12 -6 -8z"/>
<path d="M2407 1379 c3 -19 12 -39 19 -46 9 -10 12 -4 10 26 0 22 -3 37 -5 35
-2 -2 -10 1 -18 7 -11 9 -12 5 -6 -22z"/>
<path d="M2634 1392 c-6 -4 -14 -23 -17 -42 -5 -24 -4 -30 3 -20 8 13 11 12
25 -5 17 -20 17 -20 9 0 -4 11 -7 32 -6 48 1 30 1 30 -14 19z"/>
<path d="M922 1320 c0 -19 2 -27 5 -17 2 9 2 25 0 35 -3 9 -5 1 -5 -18z"/>
<path d="M2395 1319 c-4 -6 -5 -12 -2 -15 2 -3 7 2 10 11 7 17 1 20 -8 4z"/>
<path d="M2540 1321 c0 -5 5 -13 10 -16 6 -3 10 -2 10 4 0 5 -4 13 -10 16 -5
3 -10 2 -10 -4z"/>
<path d="M2756 1317 c3 -10 9 -15 12 -12 3 3 0 11 -7 18 -10 9 -11 8 -5 -6z"/>
<path d="M3135 1319 c-4 -6 -5 -12 -2 -15 2 -3 7 2 10 11 7 17 1 20 -8 4z"/>
<path d="M1160 1251 c0 -11 5 -23 10 -26 6 -4 10 5 10 19 0 14 -4 26 -10 26
-5 0 -10 -9 -10 -19z"/>
<path d="M1550 1255 c0 -8 5 -15 10 -15 6 0 10 7 10 15 0 8 -4 15 -10 15 -5 0
-10 -7 -10 -15z"/>
<path d="M1660 1255 c0 -8 5 -15 10 -15 6 0 10 7 10 15 0 8 -4 15 -10 15 -5 0
-10 -7 -10 -15z"/>
<path d="M1911 1244 c-6 -14 -9 -35 -6 -45 3 -10 1 -27 -4 -38 -9 -16 -7 -21
9 -26 15 -5 20 -15 20 -45 0 -21 5 -42 10 -45 6 -4 10 8 10 29 0 35 14 57 23
34 2 -7 2 -37 -1 -66 -4 -43 -2 -55 13 -66 20 -14 11 -41 -11 -32 -7 3 -17 -2
-22 -11 -8 -13 -10 -12 -14 5 -3 11 -2 26 3 33 18 28 9 39 -30 39 -38 0 -68
-19 -43 -28 17 -5 15 -37 -3 -52 -13 -11 -15 -6 -15 34 l0 46 -45 0 c-50 0
-51 -3 -31 -51 14 -34 11 -95 -5 -105 -12 -7 -11 -134 1 -134 6 0 10 29 10 68
l1 67 21 -40 c12 -22 23 -34 25 -27 8 21 23 13 23 -12 0 -14 11 -37 25 -52 28
-31 29 -34 25 -163 -2 -67 1 -92 9 -87 6 4 11 36 11 77 0 62 2 68 15 57 45
-38 46 -39 39 -91 -6 -46 -6 -51 8 -39 13 10 17 10 22 0 5 -10 7 -10 12 0 8
17 51 15 58 -3 4 -11 21 -15 61 -15 l55 0 0 114 c0 92 -3 115 -15 120 -8 3
-15 16 -15 30 0 14 -4 28 -10 31 -12 8 -13 75 -1 75 5 0 11 -18 15 -40 3 -22
11 -40 16 -40 16 0 7 238 -9 253 -11 10 -13 0 -8 -55 4 -52 2 -68 -8 -68 -8 0
-15 -8 -18 -17 -4 -17 -4 -17 -12 0 -4 11 -2 28 5 43 14 26 5 48 -10 24 -7
-11 -10 -3 -10 27 0 23 -4 45 -10 48 -6 3 -10 -5 -10 -19 0 -14 -4 -28 -10
-31 -6 -4 -10 7 -10 24 0 31 -14 42 -23 19 -3 -7 -6 -1 -6 14 -1 15 4 30 9 33
22 13 4 106 -25 128 -6 5 -2 14 13 24 22 16 30 47 13 57 -5 4 -11 0 -14 -6 -3
-10 -8 -10 -21 1 -15 12 -20 11 -46 -14 -27 -26 -30 -27 -30 -9 0 37 -16 47
-29 18z m99 -34 c0 -5 -9 -24 -20 -42 l-20 -33 0 31 c0 29 15 54 32 54 4 0 8
-4 8 -10z m5 -60 c3 -5 1 -10 -4 -10 -6 0 -11 5 -11 10 0 6 2 10 4 10 3 0 8
-4 11 -10z m-18 -127 c-3 -10 -5 -4 -5 12 0 17 2 24 5 18 2 -7 2 -21 0 -30z
m38 -63 c3 -5 1 -10 -4 -10 -6 0 -11 5 -11 10 0 6 2 10 4 10 3 0 8 -4 11 -10z
m-205 -35 c0 -19 -2 -35 -4 -35 -2 0 -6 16 -8 35 -2 19 0 35 4 35 4 0 8 -16 8
-35z m245 -15 c9 -17 11 -30 5 -30 -5 0 -10 -7 -10 -15 0 -8 5 -15 10 -15 6 0
10 5 10 12 0 6 7 3 15 -8 8 -10 15 -38 15 -61 0 -41 -1 -43 -31 -43 -29 0 -31
2 -24 27 6 27 -21 103 -37 103 -13 0 -9 19 9 40 10 11 19 20 20 20 1 0 9 -13
18 -30z m-170 0 c8 -13 -3 -50 -15 -50 -12 0 -23 37 -15 50 3 5 10 10 15 10 5
0 12 -5 15 -10z m100 -29 c8 -16 20 -31 27 -34 10 -4 10 -7 0 -18 -11 -12 -15
-11 -26 4 -7 9 -18 17 -25 17 -6 0 -11 14 -11 30 0 38 15 38 35 1z m-198 -23
c-3 -8 -6 -5 -6 6 -1 11 2 17 5 13 3 -3 4 -12 1 -19z m73 -23 c0 -8 -7 -15
-15 -15 -16 0 -20 12 -8 23 11 12 23 8 23 -8z m50 -17 c0 -32 0 -32 -16 -10
-15 22 -12 42 7 42 5 0 9 -15 9 -32z m42 -58 c-5 -39 -3 -43 10 -33 12 11 17
7 31 -23 21 -43 21 -54 2 -54 -11 0 -14 -7 -9 -25 5 -21 3 -25 -16 -25 -21 0
-22 3 -16 41 5 29 2 44 -9 55 -16 16 -22 124 -8 138 13 13 21 -28 15 -74z
m-95 -2 c-3 -8 -6 -5 -6 6 -1 11 2 17 5 13 3 -3 4 -12 1 -19z m163 -2 c0 -14
-4 -28 -10 -31 -5 -3 -10 1 -10 9 0 9 -4 16 -10 16 -5 0 -10 7 -10 15 0 8 9
15 20 15 15 0 20 -7 20 -24z m100 -22 c0 -8 -5 -12 -10 -9 -6 4 -8 11 -5 16 9
14 15 11 15 -7z m-40 -59 c0 -38 -3 -45 -20 -45 -17 0 -20 7 -20 45 0 38 3 45
20 45 17 0 20 -7 20 -45z m-157 -11 c-9 -23 -32 3 -25 28 5 20 6 20 18 4 7
-10 10 -24 7 -32z m227 -24 c0 -5 -4 -10 -10 -10 -5 0 -10 5 -10 10 0 6 5 10
10 10 6 0 10 -4 10 -10z m-34 -96 c-3 -8 -10 -14 -16 -14 -11 0 -4 64 9 85 8
13 14 -52 7 -71z m-96 15 c0 -10 -4 -19 -10 -19 -5 0 -10 12 -10 26 0 14 4 23
10 19 6 -3 10 -15 10 -26z m121 -62 c-13 -13 -15 11 -4 40 7 16 8 15 11 -6 2
-13 -1 -28 -7 -34z"/>
<path d="M2090 804 c0 -8 5 -12 10 -9 6 4 8 11 5 16 -9 14 -15 11 -15 -7z"/>
<path d="M2076 681 c-4 -7 -5 -15 -2 -18 9 -9 19 4 14 18 -4 11 -6 11 -12 0z"/>
<path d="M2075 1252 c-3 -8 -5 -58 -5 -113 l0 -99 60 0 60 0 0 109 0 109 -55
4 c-39 2 -56 -1 -60 -10z m93 -105 l3 -78 -38 3 -38 3 -3 69 c-3 75 4 88 48
84 24 -3 25 -6 28 -81z"/>
<path d="M2104 1187 c-3 -8 -4 -30 -2 -49 2 -28 7 -33 28 -33 23 0 25 4 25 45
0 39 -3 45 -23 48 -13 2 -24 -3 -28 -11z"/>
<path d="M1760 1150 l0 -110 60 0 60 0 0 110 0 110 -60 0 -60 0 0 -110z m98
-3 l3 -77 -41 0 -40 0 0 74 c0 78 3 82 48 80 27 -1 27 -2 30 -77z"/>
<path d="M1794 1187 c-3 -8 -4 -30 -2 -49 2 -28 7 -33 28 -33 23 0 25 4 25 45
0 39 -3 45 -23 48 -13 2 -24 -3 -28 -11z"/>
<path d="M2440 1174 c0 -5 -5 -16 -10 -24 -8 -13 -11 -12 -24 5 -14 18 -14 18
-4 -12 9 -24 9 -38 0 -60 -11 -26 -11 -27 3 -9 15 20 15 20 30 0 13 -17 13
-16 3 13 -9 24 -9 38 0 59 7 14 10 29 7 32 -3 3 -5 1 -5 -4z"/>
<path d="M2543 1160 c-6 -24 -19 -26 -31 -5 -5 10 -8 -4 -8 -38 1 -42 3 -51
12 -39 10 13 13 13 23 -4 10 -16 10 -14 6 16 -4 19 -2 48 4 63 6 15 8 27 5 27
-3 0 -8 -9 -11 -20z"/>
<path d="M2753 1161 c-3 -13 -11 -20 -19 -17 -10 4 -12 -2 -8 -23 4 -16 1 -32
-5 -35 -6 -4 -11 -15 -10 -24 0 -11 4 -8 10 8 10 25 11 25 25 5 14 -19 15 -18
9 16 -4 22 -2 46 5 59 6 12 9 25 5 28 -3 3 -8 -4 -12 -17z"/>
<path d="M3351 1172 c-1 -7 5 -21 11 -32 10 -15 10 -27 1 -52 -11 -28 -10 -30
1 -15 17 22 22 22 29 -5 4 -12 9 -19 12 -16 4 3 1 16 -5 28 -6 12 -9 33 -6 46
5 17 3 22 -7 18 -8 -3 -18 5 -25 18 -6 13 -11 17 -11 10z"/>
<path d="M3615 1161 c-8 -26 -21 -27 -34 -3 -6 9 -11 12 -11 5 0 -6 5 -15 11
-19 6 -3 9 -19 7 -34 -3 -20 -1 -27 9 -23 7 3 13 -2 13 -10 0 -9 4 -18 9 -21
5 -4 4 10 -2 29 -8 26 -7 42 2 61 6 15 10 29 7 31 -2 2 -7 -5 -11 -16z"/>
<path d="M2822 1145 c8 -18 8 -35 1 -60 -6 -19 -7 -33 -2 -29 5 3 9 12 9 21 0
14 2 14 19 -1 19 -17 19 -16 11 21 -5 21 -14 39 -19 41 -6 2 -11 10 -11 18 0
8 -4 14 -10 14 -6 0 -5 -10 2 -25z"/>
<path d="M2920 1168 c0 -4 5 -19 12 -33 8 -19 8 -31 -1 -51 -6 -15 -9 -29 -6
-32 3 -4 8 4 12 16 6 24 19 29 26 10 3 -7 3 1 0 18 -3 17 0 42 7 55 11 23 10
23 -4 5 -16 -20 -16 -20 -31 0 -8 10 -15 16 -15 12z"/>
<path d="M3030 1163 c0 -7 5 -23 11 -37 9 -20 9 -29 -1 -41 -7 -8 -10 -18 -6
-22 3 -3 6 -1 6 5 0 18 21 14 37 -5 13 -16 13 -15 2 6 -6 13 -9 42 -6 65 3 22
3 33 0 24 -2 -10 -8 -18 -13 -18 -5 0 -14 8 -19 18 -6 9 -11 12 -11 5z"/>
<path d="M3142 1143 c9 -24 9 -38 0 -59 -7 -14 -10 -29 -7 -32 3 -4 8 4 12 16
7 28 17 28 32 0 8 -16 9 -17 4 -3 -4 11 -7 34 -7 52 0 18 -4 30 -8 26 -5 -3
-16 3 -23 13 -13 17 -13 15 -3 -13z"/>
<path d="M3256 1145 c2 -11 4 -30 4 -43 0 -13 4 -21 9 -17 6 3 15 -3 21 -12 9
-15 10 -14 4 7 -4 14 -7 33 -6 43 0 9 -5 17 -13 17 -7 0 -15 6 -18 13 -2 6 -3
3 -1 -8z"/>
<path d="M3464 1150 c10 -35 10 -42 2 -68 -8 -24 -8 -24 11 -5 11 11 23 35 26
54 5 25 4 30 -3 19 -9 -13 -13 -12 -26 5 -16 19 -16 19 -10 -5z"/>
<path d="M2614 1108 c0 -37 2 -45 9 -32 9 15 11 15 24 -7 10 -17 12 -18 7 -4
-3 11 -9 31 -12 45 -11 50 -27 49 -28 -2z"/>
<path d="M1901 1070 c0 -29 1 -32 10 -17 7 11 7 23 0 35 -9 14 -10 11 -10 -18z"/>
<path d="M2120 995 c0 -8 5 -15 10 -15 6 0 10 7 10 15 0 8 -4 15 -10 15 -5 0
-10 -7 -10 -15z"/>
<path d="M2506 935 c14 -40 16 -73 5 -79 -6 -4 -11 -15 -11 -24 1 -14 2 -14
12 3 16 30 17 30 33 9 13 -17 14 -16 4 14 -9 25 -9 40 0 59 7 14 10 28 7 30
-2 2 -7 -5 -11 -16 -8 -27 -19 -27 -34 2 -9 16 -10 17 -5 2z"/>
<path d="M2616 925 c8 -35 8 -42 -1 -75 -6 -23 -5 -23 6 -6 11 19 12 19 25 1
11 -15 12 -13 7 21 -3 22 -9 41 -13 44 -4 3 -12 14 -19 25 -11 18 -11 17 -5
-10z"/>
<path d="M2715 934 c5 -10 9 -37 9 -58 0 -22 2 -34 4 -27 3 9 9 7 23 -5 22
-20 24 -15 7 21 -8 19 -8 32 1 53 10 23 10 25 -2 10 -17 -22 -27 -23 -27 -4 0
8 -5 18 -12 22 -8 5 -9 2 -3 -12z"/>
<path d="M2826 925 c9 -39 9 -45 0 -75 -6 -21 -5 -22 4 -7 6 9 15 17 20 17 5
0 11 -8 14 -17 2 -10 2 0 -1 22 -3 22 -9 42 -13 45 -4 3 -12 14 -19 25 -11 18
-11 17 -5 -10z"/>
<path d="M2866 933 c-6 -14 -5 -15 5 -6 7 7 10 15 7 18 -3 3 -9 -2 -12 -12z"/>
<path d="M2404 889 c1 -35 4 -45 13 -38 8 7 15 4 22 -8 8 -14 9 -9 4 21 -3 22
-14 47 -23 56 -15 15 -16 13 -16 -31z"/>
<path d="M1764 677 c-2 -7 -3 -58 -2 -113 l3 -99 55 0 55 0 3 113 3 112 -56 0
c-37 0 -57 -4 -61 -13z m94 -104 l-3 -78 -35 0 -35 0 -3 78 -3 77 41 0 41 0
-3 -77z"/>
<path d="M1797 624 c-9 -9 -9 -66 -1 -88 10 -25 43 -19 50 8 10 43 1 81 -21
84 -12 2 -24 0 -28 -4z"/>
<path d="M1937 553 c-11 -10 -8 -83 3 -83 6 0 10 20 10 45 0 46 -2 50 -13 38z"/>
<path d="M3473 175 c0 -38 2 -53 4 -32 2 20 2 52 0 70 -2 17 -4 1 -4 -38z"/>
<path d="M4120 175 c0 -38 3 -65 6 -62 8 7 6 118 -1 125 -3 3 -5 -25 -5 -63z"/>
<path d="M1566 215 c-3 -9 -5 -38 -5 -63 2 -46 2 -46 9 13 7 64 6 76 -4 50z"/>
<path d="M3681 184 c0 -11 3 -14 6 -6 3 7 2 16 -1 19 -3 4 -6 -2 -5 -13z"/>
<path d="M2981 164 c0 -11 3 -14 6 -6 3 7 2 16 -1 19 -3 4 -6 -2 -5 -13z"/>
<path d="M3553 145 c0 -22 2 -30 4 -17 2 12 2 30 0 40 -3 9 -5 -1 -4 -23z"/>
<path d="M1005 160 c-3 -5 -1 -10 4 -10 6 0 11 5 11 10 0 6 -2 10 -4 10 -3 0
-8 -4 -11 -10z"/>
<path d="M3122 145 c0 -16 2 -22 5 -12 2 9 2 23 0 30 -3 6 -5 -1 -5 -18z"/>
<path d="M3392 150 c0 -14 2 -19 5 -12 2 6 2 18 0 25 -3 6 -5 1 -5 -13z"/>
<path d="M970 145 c0 -8 2 -15 4 -15 2 0 6 7 10 15 3 8 1 15 -4 15 -6 0 -10
-7 -10 -15z"/>
<path d="M1240 145 c0 -8 2 -15 4 -15 2 0 6 7 10 15 3 8 1 15 -4 15 -6 0 -10
-7 -10 -15z"/>
<path d="M1705 140 c-3 -5 -1 -10 4 -10 6 0 11 5 11 10 0 6 -2 10 -4 10 -3 0
-8 -4 -11 -10z"/>
</g>
</svg>
