<?xml version="1.0" standalone="no"?>
<!DOCTYPE svg PUBLIC "-//W3C//DTD SVG 20010904//EN"
 "http://www.w3.org/TR/2001/REC-SVG-20010904/DTD/svg10.dtd">
<svg version="1.0" xmlns="http://www.w3.org/2000/svg"
 width="448.000000pt" height="500.000000pt" viewBox="0 0 448.000000 500.000000"
 preserveAspectRatio="xMidYMid meet">

<g transform="translate(0.000000,500.000000) scale(0.100000,-0.100000)"
fill="#000000" stroke="none">
<path d="M4070 4840 c-11 -7 -12 -12 -3 -21 15 -15 48 -7 48 11 0 18 -24 24
-45 10z"/>
<path d="M374 4789 c-3 -5 6 -9 20 -9 31 0 34 6 6 13 -11 3 -23 1 -26 -4z"/>
<path d="M450 4790 c0 -5 5 -10 11 -10 5 0 7 5 4 10 -3 6 -8 10 -11 10 -2 0
-4 -4 -4 -10z"/>
<path d="M4175 4776 c-15 -11 -15 -13 -1 -25 18 -15 46 -8 46 13 0 20 -25 27
-45 12z"/>
<path d="M355 4750 c-7 -12 39 -24 60 -16 8 3 15 11 15 17 0 8 -5 7 -16 -2
-12 -10 -20 -10 -34 -1 -12 7 -21 8 -25 2z"/>
<path d="M323 4736 c3 -7 -1 -23 -9 -35 -8 -12 -12 -26 -9 -31 4 -6 -4 -5 -19
1 -21 10 -24 17 -19 37 3 14 2 23 -3 19 -17 -10 -15 -64 2 -78 18 -15 74 -22
157 -20 32 0 57 -3 57 -9 0 -19 16 -10 33 19 21 37 21 38 -4 44 -17 5 -18 3
-7 -11 11 -13 11 -14 0 -8 -8 5 -18 2 -25 -8 -10 -14 -12 -13 -13 9 -1 14 2
25 8 25 5 0 6 5 3 10 -8 13 -35 -6 -35 -25 0 -7 -11 -15 -25 -17 -14 -3 -25
-1 -25 3 0 5 -6 9 -14 9 -8 0 -12 9 -10 27 1 16 -4 32 -14 40 -22 17 -35 16
-29 -1z"/>
<path d="M490 4735 c0 -14 21 -45 30 -45 18 0 10 29 -10 40 -11 6 -20 8 -20 5z"/>
<path d="M405 4720 c-17 -7 -15 -9 13 -9 17 -1 32 4 32 9 0 12 -17 12 -45 0z"/>
<path d="M990 4715 c0 -13 37 -15 270 -15 233 0 270 2 270 15 0 13 -37 15
-270 15 -233 0 -270 -2 -270 -15z"/>
<path d="M1882 4713 c3 -17 29 -18 353 -21 193 -1 360 0 372 3 15 3 20 10 17
20 -5 13 -58 15 -376 15 -346 0 -369 -1 -366 -17z"/>
<path d="M2985 4710 c-3 -6 0 -12 7 -15 7 -3 125 -4 262 -3 189 2 250 6 254
16 5 16 -513 18 -523 2z"/>
<path d="M4277 4714 c-16 -16 -6 -34 19 -34 19 0 25 5 22 17 -3 19 -29 29 -41
17z"/>
<path d="M4200 4647 c-20 -18 -55 -49 -79 -71 -38 -33 -41 -40 -29 -53 13 -12
25 -6 96 54 44 37 81 71 81 75 1 4 -7 12 -17 17 -13 7 -25 2 -52 -22z"/>
<path d="M3846 4625 c25 -19 40 -19 24 0 -7 8 -20 15 -28 15 -13 0 -12 -3 4
-15z"/>
<path d="M3940 4566 c0 -2 7 -7 16 -10 8 -3 12 -2 9 4 -6 10 -25 14 -25 6z"/>
<path d="M306 4534 c-10 -25 1 -29 14 -5 6 12 7 21 1 21 -5 0 -12 -7 -15 -16z"/>
<path d="M408 4532 c-4 -15 -2 -22 7 -22 8 0 18 -8 24 -17 5 -10 12 -15 16
-11 4 3 -2 15 -13 26 -11 11 -22 26 -24 33 -3 8 -7 5 -10 -9z"/>
<path d="M450 4536 c0 -2 7 -9 15 -16 13 -11 14 -10 9 4 -5 14 -24 23 -24 12z"/>
<path d="M500 4515 c0 -14 6 -25 13 -25 21 0 27 11 16 31 -14 27 -29 23 -29
-6z"/>
<path d="M353 4523 c-7 -2 -13 -17 -12 -31 0 -26 1 -26 9 -4 5 12 17 22 25 22
9 0 13 5 10 10 -7 11 -13 11 -32 3z"/>
<path d="M241 4506 c-15 -18 -11 -59 7 -62 7 -1 8 0 2 3 -14 7 -13 50 3 56 6
2 9 7 6 11 -3 4 -12 0 -18 -8z"/>
<path d="M850 4465 l0 -45 45 0 c25 0 45 5 45 10 0 6 -16 10 -36 10 -21 0 -33
4 -29 10 3 6 17 10 31 10 13 0 24 5 24 11 0 7 -10 9 -25 7 -14 -3 -28 -1 -31
3 -3 5 8 9 25 9 16 0 33 5 36 10 4 6 -12 10 -39 10 l-46 0 0 -45z"/>
<path d="M964 4496 c-3 -8 -4 -27 -2 -43 3 -25 7 -28 46 -31 25 -2 42 1 42 7
0 6 -13 11 -30 11 -28 0 -30 3 -30 35 0 35 -16 48 -26 21z"/>
<path d="M1070 4465 l0 -45 51 0 c31 0 48 4 44 10 -3 6 -19 10 -36 10 -16 0
-29 5 -29 10 0 6 14 10 30 10 17 0 30 5 30 11 0 6 -9 9 -19 6 -10 -2 -25 -1
-32 4 -10 6 -4 9 19 9 17 0 32 5 32 10 0 6 -20 10 -45 10 l-45 0 0 -45z"/>
<path d="M1208 4499 c-10 -5 -18 -21 -18 -34 0 -41 58 -59 96 -30 17 14 16 14
-23 9 -42 -6 -43 -6 -43 21 0 26 2 27 36 22 25 -4 34 -2 31 6 -5 16 -57 20
-79 6z"/>
<path d="M1320 4500 c0 -5 7 -10 15 -10 11 0 15 -11 15 -36 0 -45 24 -42 28 4
2 20 9 32 18 32 8 0 14 5 14 10 0 6 -20 10 -45 10 -25 0 -45 -4 -45 -10z"/>
<path d="M1434 4496 c-8 -20 -1 -66 11 -69 11 -3 15 72 3 79 -4 3 -11 -1 -14
-10z"/>
<path d="M1492 4498 c-18 -18 -14 -56 7 -68 44 -23 101 1 101 43 0 32 -82 51
-108 25z m73 -33 c0 -13 -8 -21 -24 -23 -28 -4 -46 11 -37 33 9 25 61 16 61
-10z"/>
<path d="M1620 4465 c0 -25 5 -45 10 -45 6 0 10 12 10 27 l0 27 28 -27 c40
-39 52 -35 52 19 0 32 -4 44 -12 42 -7 -3 -14 -15 -16 -27 -3 -22 -4 -22 -23
4 -32 39 -49 33 -49 -20z"/>
<path d="M1811 4501 c-7 -5 -13 -21 -13 -36 0 -39 39 -57 86 -39 29 11 17 23
-21 21 -32 -2 -38 1 -38 18 0 17 6 20 38 19 38 -1 49 9 21 20 -22 9 -57 7 -73
-3z"/>
<path d="M1936 4495 c-33 -34 -6 -75 49 -75 45 0 72 34 51 65 -17 26 -77 32
-100 10z m82 -27 c2 -9 -5 -21 -16 -27 -25 -14 -58 9 -49 33 9 23 61 18 65 -6z"/>
<path d="M2067 4503 c-3 -5 -4 -23 -3 -42 2 -42 26 -55 26 -14 l0 28 13 -24
c16 -33 32 -36 44 -9 l11 23 10 -25 c8 -21 11 -22 17 -8 3 9 5 29 3 45 -4 35
-37 45 -45 14 -7 -26 -19 -27 -33 -1 -11 20 -35 27 -43 13z"/>
<path d="M2217 4503 c-11 -10 -8 -71 3 -78 6 -3 14 4 20 17 l9 23 7 -22 c8
-29 31 -29 40 -1 l7 23 8 -23 c14 -37 29 -25 29 23 0 39 -3 45 -21 45 -12 0
-23 -8 -26 -20 -3 -11 -11 -20 -18 -20 -7 0 -15 9 -18 20 -5 19 -27 27 -40 13z"/>
<path d="M2360 4489 c0 -24 23 -21 28 4 2 10 -3 17 -12 17 -10 0 -16 -9 -16
-21z"/>
<path d="M2415 4501 c-3 -6 -5 -11 -3 -12 36 -6 88 -3 85 5 -5 15 -73 20 -82
7z"/>
<path d="M2530 4465 c0 -33 4 -45 15 -45 11 0 15 12 15 45 0 33 -4 45 -15 45
-11 0 -15 -12 -15 -45z"/>
<path d="M2587 4492 c-22 -24 -21 -35 1 -55 36 -32 112 -13 112 28 0 42 -82
61 -113 27z m78 -27 c0 -31 -49 -28 -53 3 -3 20 0 23 25 20 20 -2 28 -8 28
-23z"/>
<path d="M2720 4464 c0 -32 4 -44 13 -42 6 3 13 14 15 26 3 21 4 21 28 -3 35
-35 44 -31 44 20 0 25 -4 45 -10 45 -5 0 -10 -12 -10 -27 l0 -27 -28 27 c-40
39 -52 35 -52 -19z"/>
<path d="M2907 4492 c-23 -25 -21 -38 5 -56 42 -30 108 -12 108 29 0 42 -82
61 -113 27z m78 -27 c0 -13 -8 -21 -24 -23 -28 -4 -46 11 -37 33 9 25 61 16
61 -10z"/>
<path d="M3040 4465 c0 -46 14 -61 23 -25 3 14 14 20 34 21 27 2 27 2 3 6 -40
7 -48 23 -13 23 18 0 35 5 38 10 4 6 -12 10 -39 10 l-46 0 0 -45z"/>
<path d="M3194 4496 c-9 -23 0 -69 14 -74 8 -2 12 10 12 42 0 44 -15 62 -26
32z"/>
<path d="M3245 4498 c-2 -7 0 -29 4 -48 8 -32 10 -33 16 -12 9 27 13 27 42 0
29 -27 46 -14 41 32 -4 42 -28 53 -28 13 l0 -28 -25 28 c-28 29 -43 34 -50 15z"/>
<path d="M3374 4496 c-3 -8 -4 -27 -2 -43 2 -23 8 -29 35 -31 18 -2 41 2 53 8
26 14 26 56 1 70 -28 15 -81 12 -87 -4z m76 -31 c0 -20 -5 -25 -25 -25 -20 0
-25 5 -25 25 0 20 5 25 25 25 20 0 25 -5 25 -25z"/>
<path d="M3504 4496 c-8 -21 -1 -66 11 -69 6 -1 11 17 13 41 3 41 -12 59 -24
28z"/>
<path d="M3571 4477 c-11 -19 -21 -39 -21 -46 0 -14 17 -15 25 -1 3 6 17 10
30 10 13 0 27 -4 30 -10 3 -5 13 -10 21 -10 12 0 10 9 -10 43 -14 23 -32 43
-40 45 -7 2 -23 -12 -35 -31z m44 -7 c3 -5 -1 -10 -9 -10 -9 0 -16 5 -16 10 0
6 4 10 9 10 6 0 13 -4 16 -10z"/>
<path d="M4052 4494 c10 -10 20 -15 24 -12 3 4 -5 12 -18 18 -22 12 -22 12 -6
-6z"/>
<path d="M2466 4473 c-3 -3 0 -13 7 -21 10 -13 7 -14 -27 -8 -29 6 -37 4 -34
-6 9 -27 98 -21 98 7 0 16 -34 38 -44 28z"/>
<path d="M515 4450 c-3 -5 -19 -10 -36 -10 -16 0 -29 -4 -29 -10 0 -17 44 -11
70 10 14 11 20 20 13 20 -6 0 -15 -4 -18 -10z"/>
<path d="M270 4430 c0 -5 16 -10 36 -10 21 0 33 4 29 10 -3 6 -19 10 -36 10
-16 0 -29 -4 -29 -10z"/>
<path d="M255 4380 c-3 -5 3 -10 15 -10 12 0 18 5 15 10 -3 6 -10 10 -15 10
-5 0 -12 -4 -15 -10z"/>
<path d="M310 4380 c0 -5 13 -10 29 -10 17 0 33 5 36 10 4 6 -8 10 -29 10 -20
0 -36 -4 -36 -10z"/>
<path d="M450 4379 c0 -6 6 -9 14 -6 7 3 19 0 25 -6 8 -8 11 -7 11 6 0 11 -8
17 -25 17 -14 0 -25 -5 -25 -11z"/>
<path d="M515 4380 c-3 -5 -1 -10 4 -10 6 0 11 5 11 10 0 6 -2 10 -4 10 -3 0
-8 -4 -11 -10z"/>
<path d="M2378 4272 c-38 -8 -29 -72 11 -72 22 0 47 17 38 26 -3 4 -12 2 -20
-4 -18 -15 -42 2 -33 23 4 12 13 15 31 11 14 -4 25 -2 25 3 0 11 -29 18 -52
13z"/>
<path d="M2548 4273 c-34 -9 -32 -57 3 -68 34 -11 59 4 59 36 0 16 -4 29 -9
29 -5 0 -15 2 -23 4 -7 2 -20 2 -30 -1z m42 -32 c0 -19 -23 -35 -34 -24 -14
15 -5 43 14 43 13 0 20 -7 20 -19z"/>
<path d="M2100 4235 c0 -34 1 -35 37 -35 38 0 36 14 -2 23 -18 4 -18 5 3 6 12
0 22 6 22 11 0 6 -10 11 -22 11 -19 1 -17 3 7 9 30 8 30 8 -7 9 -37 1 -38 0
-38 -34z"/>
<path d="M2180 4240 c0 -33 15 -44 52 -37 l23 4 -22 8 c-15 5 -23 15 -23 31 0
15 -6 24 -15 24 -10 0 -15 -10 -15 -30z"/>
<path d="M2262 4238 c3 -31 6 -33 43 -36 41 -3 41 11 0 21 -18 4 -18 5 3 6 12
0 22 6 22 11 0 6 -10 11 -22 11 -19 1 -17 3 7 9 28 7 27 8 -13 9 -43 1 -43 1
-40 -31z"/>
<path d="M2453 4263 c10 -3 17 -14 17 -28 0 -13 5 -27 10 -30 6 -4 10 6 10 24
0 20 6 31 18 34 9 3 -3 5 -28 5 -25 0 -37 -2 -27 -5z"/>
<path d="M2630 4233 c1 -35 2 -37 15 -19 14 18 16 18 33 3 25 -23 35 -21 22 2
-7 14 -7 22 0 26 19 12 -1 25 -36 25 -33 0 -34 -1 -34 -37z m50 23 c0 -11 -19
-15 -25 -6 -3 5 1 10 9 10 9 0 16 -2 16 -4z"/>
<path d="M2760 4241 c0 -17 5 -33 10 -36 6 -3 10 1 10 9 0 10 9 16 25 16 18 0
25 5 25 20 0 16 -7 20 -35 20 -32 0 -35 -2 -35 -29z m45 9 c-3 -5 -10 -10 -16
-10 -5 0 -9 5 -9 10 0 6 7 10 16 10 8 0 12 -4 9 -10z"/>
<path d="M2850 4233 c1 -34 2 -36 14 -20 16 21 32 22 40 1 9 -24 26 -6 26 27
0 19 -5 29 -15 29 -8 0 -15 -4 -15 -10 0 -5 -7 -10 -15 -10 -8 0 -15 5 -15 10
0 6 -4 10 -10 10 -5 0 -10 -17 -10 -37z"/>
<path d="M2947 4263 c-4 -3 -7 -16 -7 -29 0 -29 54 -44 77 -21 25 25 8 57 -31
57 -18 0 -36 -3 -39 -7z m60 -19 c8 -22 -18 -37 -36 -20 -7 8 -10 19 -7 25 10
16 36 13 43 -5z"/>
<path d="M3046 4262 c7 -4 14 -18 15 -32 2 -14 9 -25 14 -25 6 0 12 11 14 25
1 14 8 28 15 32 6 4 -7 8 -29 8 -22 0 -35 -4 -29 -8z"/>
<path d="M3125 4249 c-10 -32 15 -53 54 -44 28 6 32 11 29 33 -3 23 -8 27 -40
30 -30 3 -38 -1 -43 -19z m61 0 c3 -6 0 -17 -7 -25 -18 -17 -44 -2 -36 20 7
18 33 21 43 5z"/>
<path d="M3260 4234 c0 -21 4 -33 10 -29 6 3 10 19 10 36 0 16 -4 29 -10 29
-5 0 -10 -16 -10 -36z"/>
<path d="M3300 4235 c0 -28 4 -35 19 -35 37 0 51 12 51 41 0 26 -3 29 -35 29
-33 0 -35 -2 -35 -35z m55 5 c0 -8 -8 -16 -17 -18 -13 -2 -18 3 -18 18 0 15 5
20 18 18 9 -2 17 -10 17 -18z"/>
<path d="M3394 4238 c1 -30 5 -33 36 -36 37 -4 33 12 -5 21 -18 4 -18 5 3 6
12 0 22 6 22 11 0 6 -10 11 -22 11 -19 1 -17 3 7 9 l30 8 -36 1 c-35 1 -37 0
-35 -31z"/>
<path d="M3480 4233 c1 -35 2 -37 15 -19 13 17 15 17 30 2 22 -21 35 -12 35
25 0 20 -5 29 -16 29 -8 0 -13 -4 -9 -9 3 -5 1 -12 -5 -16 -6 -3 -13 1 -16 9
-12 32 -34 17 -34 -21z"/>
<path d="M3576 4262 c7 -4 14 -18 15 -32 2 -14 9 -25 14 -25 6 0 12 11 14 25
1 14 8 28 15 32 6 4 -7 8 -29 8 -22 0 -35 -4 -29 -8z"/>
<path d="M3650 4241 c0 -17 5 -33 10 -36 6 -4 10 8 10 29 0 20 -4 36 -10 36
-5 0 -10 -13 -10 -29z"/>
<path d="M3693 4263 c10 -3 17 -14 17 -28 0 -34 18 -40 22 -8 5 42 42 44 57 3
10 -30 31 -34 31 -5 0 7 7 21 16 29 13 14 13 16 1 16 -9 0 -17 -6 -20 -12 -4
-10 -7 -10 -18 0 -7 7 -36 12 -68 11 -31 -1 -48 -3 -38 -6z"/>
<path d="M3893 4254 c-8 -22 9 -48 33 -52 22 -3 51 14 41 24 -3 4 -12 2 -20
-4 -18 -15 -42 2 -33 23 4 12 13 15 31 11 14 -4 25 -2 25 4 0 17 -70 12 -77
-6z"/>
<path d="M3996 4239 c-19 -31 -15 -52 6 -31 15 15 48 16 48 1 0 -5 4 -8 9 -5
12 8 -17 66 -33 66 -6 0 -20 -14 -30 -31z"/>
<path d="M4080 4241 c0 -17 5 -33 10 -36 6 -3 10 1 10 9 0 9 7 16 15 16 8 0
15 -4 15 -9 0 -5 6 -11 13 -14 9 -3 13 6 14 29 1 33 0 34 -38 34 -36 0 -39 -2
-39 -29z m52 7 c-9 -9 -15 -9 -24 0 -9 9 -7 12 12 12 19 0 21 -3 12 -12z"/>
<path d="M4180 4235 c0 -30 3 -35 24 -35 30 0 59 27 52 47 -3 8 -6 17 -6 19 0
2 -16 4 -35 4 -33 0 -35 -2 -35 -35z m55 5 c0 -8 -8 -16 -17 -18 -13 -2 -18 3
-18 18 0 15 5 20 18 18 9 -2 17 -10 17 -18z"/>
<path d="M520 4245 c0 -13 23 -15 145 -15 122 0 145 2 145 15 0 13 -23 15
-145 15 -122 0 -145 -2 -145 -15z"/>
<path d="M925 4249 c-4 -6 -5 -12 -3 -14 2 -2 80 -5 173 -6 148 -1 170 1 173
15 3 14 -16 16 -167 16 -109 0 -172 -4 -176 -11z"/>
<path d="M1380 4245 c0 -13 26 -15 175 -15 149 0 175 2 175 15 0 13 -26 15
-175 15 -149 0 -175 -2 -175 -15z"/>
<path d="M1905 4250 c-4 -7 -3 -16 2 -21 12 -12 45 0 40 15 -5 15 -34 19 -42
6z"/>
<path d="M354 3765 c0 -77 2 -107 3 -67 2 40 2 103 0 140 -2 37 -3 4 -3 -73z"/>
<path d="M414 3765 c0 -77 2 -107 3 -67 2 40 2 103 0 140 -2 37 -3 4 -3 -73z"/>
<path d="M436 3893 c-10 -11 -7 -263 4 -263 6 0 10 40 11 98 0 53 1 112 2 130
2 34 -5 47 -17 35z"/>
<path d="M520 3765 l0 -135 25 0 25 0 0 129 c0 131 -3 141 -41 141 -5 0 -9
-60 -9 -135z"/>
<path d="M626 3893 c-3 -3 -6 -64 -6 -135 0 -107 2 -128 15 -128 13 0 15 21
15 129 0 118 -6 152 -24 134z"/>
<path d="M670 3766 l0 -136 50 0 50 0 0 130 0 130 -34 0 c-19 0 -41 3 -50 6
-14 5 -16 -10 -16 -130z"/>
<path d="M800 3765 c0 -113 2 -135 15 -135 13 0 15 22 15 135 0 113 -2 135
-15 135 -13 0 -15 -22 -15 -135z"/>
<path d="M840 3765 c0 -113 2 -135 15 -135 13 0 15 22 15 135 0 113 -2 135
-15 135 -13 0 -15 -22 -15 -135z"/>
<path d="M910 3765 c0 -83 4 -135 10 -135 6 0 10 52 10 135 0 83 -4 135 -10
135 -6 0 -10 -52 -10 -135z"/>
<path d="M947 3893 c-3 -5 -5 -64 -4 -133 2 -111 4 -125 20 -128 16 -3 17 6
15 129 -2 89 -7 134 -15 136 -6 2 -13 0 -16 -4z"/>
<path d="M994 3765 c0 -77 2 -107 3 -67 2 40 2 103 0 140 -2 37 -3 4 -3 -73z"/>
<path d="M1053 3893 c-22 -4 -23 -8 -23 -134 l0 -129 25 0 25 0 0 135 c0 74
-1 134 -2 134 -2 -1 -13 -4 -25 -6z"/>
<path d="M1094 3886 c-3 -7 -3 -66 -2 -131 3 -105 5 -120 21 -123 15 -3 17 9
19 125 l2 128 6 -130 6 -130 2 135 2 135 -26 1 c-14 1 -27 -3 -30 -10z"/>
<path d="M1160 3765 c0 -113 2 -135 15 -135 13 0 15 22 15 135 0 113 -2 135
-15 135 -13 0 -15 -22 -15 -135z"/>
<path d="M1220 3763 l0 -133 35 0 35 0 0 133 0 134 -35 -1 -35 -1 0 -132z"/>
<path d="M1318 3893 c-16 -4 -18 -18 -16 -136 l2 -132 6 130 6 130 2 -127 c2
-121 3 -128 22 -128 19 0 20 7 20 135 0 140 0 139 -42 128z"/>
<path d="M1397 3893 c-4 -3 -7 -64 -7 -135 0 -107 2 -128 15 -128 13 0 15 22
15 135 0 123 -4 147 -23 128z"/>
<path d="M1440 3766 l0 -136 25 0 25 0 0 130 c0 72 -4 130 -9 130 -5 0 -16 3
-25 6 -14 5 -16 -10 -16 -130z"/>
<path d="M1524 3765 c0 -77 2 -107 3 -67 2 40 2 103 0 140 -2 37 -3 4 -3 -73z"/>
<path d="M1544 3891 c-2 -2 -4 -62 -4 -133 0 -106 3 -128 15 -128 11 0 15 20
18 98 l3 97 2 -97 2 -98 40 0 41 0 -3 132 -3 132 -53 0 c-30 1 -55 -1 -58 -3z
m33 -43 c-3 -7 -5 -2 -5 12 0 14 2 19 5 13 2 -7 2 -19 0 -25z"/>
<path d="M1696 3892 c-3 -3 -6 -63 -6 -134 l0 -128 25 0 26 0 -3 132 c-3 114
-5 131 -20 134 -9 1 -19 -1 -22 -4z"/>
<path d="M1813 3893 c-10 -3 -13 -40 -13 -134 l0 -129 25 0 26 0 -3 132 c-3
127 -7 143 -35 131z"/>
<path d="M1866 3892 c-3 -3 -6 -63 -6 -134 l0 -128 24 0 c13 0 26 4 28 10 2 5
2 63 0 129 -3 107 -5 119 -22 124 -10 3 -21 2 -24 -1z"/>
<path d="M1940 3763 l0 -133 59 0 60 0 4 33 4 32 1 -32 c1 -22 7 -33 17 -33
13 0 15 22 15 135 0 113 -2 135 -15 135 -12 0 -15 -19 -17 -102 l-2 -103 -3
98 c-3 83 -6 97 -21 98 -9 1 -36 2 -59 3 l-43 1 0 -132z m57 -25 c-2 -29 -3
-8 -3 47 0 55 1 79 3 53 2 -26 2 -71 0 -100z"/>
<path d="M310 3760 c0 -109 2 -130 15 -130 13 0 15 21 15 130 0 109 -2 130
-15 130 -13 0 -15 -21 -15 -130z"/>
<path d="M475 3760 c0 -71 3 -130 8 -130 4 0 7 59 7 130 0 72 -3 130 -7 130
-5 0 -8 -58 -8 -130z"/>
<path d="M604 3760 c0 -74 1 -105 3 -67 2 37 2 97 0 135 -2 37 -3 6 -3 -68z"/>
<path d="M884 3760 c0 -74 1 -105 3 -67 2 37 2 97 0 135 -2 37 -3 6 -3 -68z"/>
<path d="M1764 3760 c0 -74 1 -105 3 -67 2 37 2 97 0 135 -2 37 -3 6 -3 -68z"/>
<path d="M2553 3802 c-25 -36 -58 -111 -50 -118 3 -3 13 6 22 20 24 36 76 36
104 0 11 -14 25 -23 31 -19 8 5 7 12 -2 23 -7 10 -24 38 -38 64 -30 59 -42 64
-67 30z m41 -24 c9 -35 8 -38 -19 -38 -29 0 -29 0 -13 35 14 31 24 32 32 3z"/>
<path d="M2695 3818 c-3 -8 -5 -42 -3 -74 l3 -59 36 -3 c72 -6 118 31 84 68
-11 12 -13 20 -7 20 14 0 16 36 2 45 -5 3 -32 9 -60 12 -39 4 -51 2 -55 -9z
m94 -21 c15 -19 4 -27 -41 -27 -36 0 -50 15 -31 33 11 12 60 7 72 -6z m-5 -53
c9 -3 16 -12 16 -19 0 -16 -22 -25 -61 -25 -21 0 -29 5 -29 18 0 10 3 22 7 25
8 9 46 9 67 1z"/>
<path d="M2910 3823 c-56 -22 -68 -87 -24 -122 15 -12 38 -21 51 -21 28 0 83
26 83 40 0 15 -26 12 -40 -6 -21 -24 -72 -14 -89 17 -13 24 -13 29 2 53 20 30
66 35 92 10 11 -11 20 -13 26 -7 22 22 -62 52 -101 36z"/>
<path d="M3093 3809 c-37 -24 -42 -34 -13 -26 18 5 20 0 20 -43 0 -33 5 -50
15 -54 13 -4 15 7 15 69 0 41 -1 75 -2 75 -2 0 -18 -10 -35 -21z"/>
<path d="M3230 3823 c-25 -10 -40 -25 -34 -35 3 -5 14 -2 25 8 12 11 27 14 44
10 41 -10 36 -17 -54 -85 -14 -10 -21 -23 -17 -29 9 -15 102 -16 111 -2 4 6
-10 10 -34 10 -23 0 -41 3 -41 8 1 4 19 19 40 34 40 28 47 42 32 65 -9 14 -52
24 -72 16z"/>
<path d="M3363 3820 c-13 -5 -23 -14 -23 -20 0 -13 13 -13 27 1 13 13 63 4 63
-11 0 -5 -9 -12 -20 -15 -26 -8 -26 -21 1 -28 31 -8 21 -41 -14 -45 -15 -2
-27 1 -27 7 0 6 -7 11 -16 11 -24 0 -11 -24 19 -34 51 -18 107 28 74 61 -12
12 -13 20 -4 34 7 12 8 22 2 28 -16 15 -58 21 -82 11z"/>
<path d="M3522 3787 c-53 -54 -53 -67 -3 -67 33 0 40 -4 44 -22 3 -22 4 -22
12 -3 5 11 13 24 19 28 8 6 7 10 -1 14 -7 2 -13 22 -13 43 0 21 -4 41 -8 44
-5 3 -27 -14 -50 -37z m38 -27 c0 -15 -7 -20 -25 -20 -28 0 -30 5 -12 25 18
21 37 18 37 -5z"/>
<path d="M3812 3820 c-28 -12 -44 -53 -35 -88 12 -52 67 -68 103 -32 25 25 25
35 -1 61 -16 16 -29 20 -51 15 -32 -6 -35 9 -5 28 12 8 23 7 38 -2 27 -17 40
-5 15 14 -22 16 -32 16 -64 4z m53 -80 c8 -27 -1 -40 -30 -40 -25 0 -38 21
-29 45 9 22 51 19 59 -5z"/>
<path d="M3647 3813 c-2 -5 -7 -20 -11 -35 -6 -28 -6 -28 37 -22 36 5 45 3 51
-11 7 -20 -10 -45 -30 -45 -8 0 -23 5 -34 12 -26 16 -40 0 -16 -18 41 -29 106
-4 106 41 0 27 -26 45 -64 45 -40 0 -21 28 22 33 33 3 32 4 -10 5 -26 1 -49
-1 -51 -5z"/>
<path d="M3958 3813 c23 -2 42 -6 42 -7 0 -2 -12 -24 -26 -50 -15 -27 -23 -53
-20 -63 5 -13 13 -4 30 34 13 27 34 60 47 72 l23 21 -70 -2 c-48 -1 -56 -3
-26 -5z"/>
<path d="M1867 3150 c4 -16 0 -20 -22 -20 -22 0 -25 -3 -20 -20 5 -14 2 -20
-9 -20 -12 0 -16 -10 -16 -39 0 -26 -5 -41 -16 -45 -8 -3 -13 -10 -9 -16 3 -5
-1 -53 -11 -107 -15 -90 -15 -136 2 -205 5 -23 4 -26 -15 -21 -28 7 -34 -13
-21 -72 16 -71 36 -109 69 -128 21 -12 30 -27 35 -56 3 -24 22 -59 46 -90 58
-73 56 -105 -11 -168 -42 -40 -64 -51 -132 -71 -435 -123 -545 -170 -560 -239
-19 -88 -47 -226 -47 -234 0 -5 434 -9 1056 -9 l1056 0 -5 28 c-3 15 -12 65
-21 111 -22 117 -41 150 -101 183 -57 32 -197 79 -405 138 -155 44 -165 49
-222 102 -32 29 -38 41 -38 75 0 28 6 46 21 59 l21 19 -23 5 c-36 9 -33 27 6
34 21 4 35 13 35 21 0 16 16 37 67 88 42 43 63 95 63 158 0 50 0 51 -26 45
-24 -6 -26 -5 -20 16 4 13 12 68 17 123 6 55 15 108 21 118 10 21 -2 45 -46
88 -16 16 -24 33 -20 42 6 16 -12 23 -101 42 -16 4 -64 20 -105 35 -81 30
-204 50 -311 50 -62 0 -67 -1 -62 -20 l5 -20 -47 20 c-61 26 -85 26 -78 0z
m608 -690 c0 -9 -11 -16 -27 -18 -19 -2 -28 -10 -30 -25 -2 -14 -11 -23 -25
-25 -18 -3 -23 1 -23 20 0 27 17 53 40 61 27 10 65 3 65 -13z"/>
<path d="M1242 1411 c9 -15 9 -23 -1 -35 -11 -13 -11 -16 3 -16 9 0 16 5 16
11 0 8 4 8 13 1 15 -12 155 -13 163 -1 3 6 11 5 20 -2 18 -15 31 -4 16 14 -9
10 -9 16 0 25 16 16 2 28 -15 14 -10 -9 -16 -9 -25 0 -16 16 -28 2 -13 -15 17
-22 -13 -45 -34 -27 -11 9 -13 16 -5 24 17 17 12 22 -24 22 -30 0 -32 -2 -23
-18 14 -22 -4 -44 -28 -34 -13 4 -15 13 -11 32 6 23 5 24 -14 14 -13 -7 -20
-7 -20 0 0 5 -7 10 -15 10 -12 0 -13 -3 -3 -19z"/>
<path d="M1500 1421 c0 -6 5 -13 11 -16 7 -5 5 -13 -6 -25 -15 -16 -13 -17 24
-17 34 0 39 2 32 16 -6 9 -5 23 0 33 11 20 -1 24 -18 7 -8 -8 -13 -8 -17 0 -9
13 -26 14 -26 2z"/>
<path d="M1620 1420 c0 -5 5 -10 10 -10 6 0 10 -7 10 -15 0 -8 -4 -15 -10 -15
-5 0 -10 -4 -10 -8 0 -4 16 -8 35 -8 35 0 45 9 25 21 -8 5 -7 11 1 21 6 8 9
17 6 21 -4 3 -13 0 -21 -6 -10 -8 -16 -9 -21 -1 -8 13 -25 13 -25 0z"/>
<path d="M1710 1422 c0 -4 5 -13 11 -19 7 -7 6 -15 -4 -25 -13 -13 -4 -14 69
-15 72 0 82 2 72 14 -9 11 -9 19 0 34 7 10 8 19 3 19 -6 0 -13 -5 -16 -10 -4
-7 -13 -7 -26 0 -18 10 -19 9 -13 -14 4 -19 2 -28 -11 -32 -22 -9 -37 14 -24
38 11 20 -1 24 -18 7 -8 -8 -13 -8 -17 0 -8 13 -26 15 -26 3z"/>
<path d="M1893 1413 c15 -16 15 -18 0 -35 -15 -17 -15 -18 0 -18 10 0 17 5 17
11 0 8 4 8 13 1 13 -11 117 -12 117 -1 0 3 -5 10 -11 16 -8 8 -8 13 0 17 21
13 11 22 -24 22 -37 0 -42 -5 -23 -24 16 -16 -4 -37 -27 -28 -13 4 -15 13 -11
32 6 23 5 24 -14 14 -13 -7 -20 -7 -20 0 0 5 -8 10 -17 10 -16 0 -16 -1 0 -17z"/>
<path d="M2105 1410 c4 -11 2 -27 -4 -34 -9 -11 -3 -13 28 -13 35 0 38 2 28
18 -8 13 -8 21 2 33 11 13 11 16 -3 16 -9 0 -16 -5 -16 -10 0 -7 -7 -7 -21 1
-19 10 -20 9 -14 -11z"/>
<path d="M2180 1421 c0 -6 5 -13 11 -17 8 -4 8 -9 0 -17 -21 -21 -10 -25 69
-24 75 1 94 7 70 22 -8 5 -7 11 1 21 15 18 4 31 -14 16 -10 -9 -16 -9 -25 0
-6 6 -15 9 -19 5 -4 -4 -1 -13 5 -19 16 -16 15 -25 -4 -32 -24 -9 -47 13 -33
31 16 18 4 29 -15 14 -10 -8 -16 -9 -21 -1 -8 13 -25 13 -25 1z"/>
<path d="M2365 1410 c4 -12 2 -27 -4 -34 -9 -11 -4 -13 28 -12 27 0 37 4 31
11 -5 6 -6 22 -3 36 6 21 4 22 -9 11 -11 -9 -18 -10 -23 -2 -11 18 -27 11 -20
-10z"/>
<path d="M2455 1410 c4 -11 2 -27 -4 -34 -9 -11 -3 -13 28 -13 35 0 38 2 28
18 -8 13 -8 21 2 33 11 13 11 16 -3 16 -9 0 -16 -5 -16 -10 0 -7 -7 -7 -21 1
-19 10 -20 9 -14 -11z"/>
<path d="M2542 1409 c10 -17 10 -23 1 -26 -18 -6 -16 -23 2 -23 8 0 15 5 15
11 0 8 4 8 13 1 13 -11 117 -12 117 -1 0 3 -5 10 -11 16 -8 8 -8 13 0 17 21
13 11 22 -24 22 -37 0 -42 -5 -25 -22 8 -8 6 -15 -5 -24 -21 -18 -51 5 -34 27
16 18 3 29 -16 13 -10 -8 -15 -9 -15 -1 0 6 -7 11 -15 11 -13 0 -13 -3 -3 -21z"/>
<path d="M215 1389 c-15 -24 17 -29 151 -27 116 3 139 6 139 18 0 12 -24 15
-142 18 -96 2 -144 -1 -148 -9z"/>
<path d="M210 1053 c0 -10 5 -25 10 -33 8 -12 10 -12 10 5 1 19 1 19 19 -2 11
-13 27 -23 36 -23 13 0 16 6 11 23 -3 12 -6 28 -6 35 0 6 -4 12 -10 12 -5 0
-10 -7 -10 -17 0 -15 -1 -15 -18 0 -24 22 -42 22 -42 0z"/>
<path d="M1230 1061 c0 -5 7 -12 16 -15 16 -6 16 -8 0 -24 -18 -21 -21 -37 -5
-26 14 8 120 13 134 5 15 -8 45 -9 50 -1 5 8 119 5 134 -4 15 -9 14 7 -1 22
-8 8 -8 15 2 27 17 20 5 32 -16 15 -13 -12 -17 -11 -24 0 -5 8 -12 11 -16 7
-4 -3 -2 -13 4 -20 9 -10 8 -17 0 -25 -26 -26 -60 -4 -37 24 15 18 4 31 -14
16 -10 -9 -16 -9 -25 0 -6 6 -15 9 -19 5 -4 -4 -2 -12 4 -18 15 -15 5 -39 -17
-39 -22 0 -32 24 -17 39 6 6 7 14 3 18 -4 4 -11 1 -16 -7 -7 -11 -11 -12 -24
0 -9 7 -20 10 -23 6 -4 -4 -1 -11 6 -16 19 -11 5 -42 -16 -38 -13 3 -17 12
-16 32 2 23 0 26 -13 15 -11 -9 -18 -9 -26 -1 -14 14 -28 16 -28 3z"/>
<path d="M1620 1060 c0 -5 5 -10 10 -10 17 0 11 -28 -7 -40 -15 -9 -13 -10 10
-5 17 3 35 1 43 -6 16 -13 18 -1 4 21 -5 9 -5 19 2 27 15 18 2 29 -16 14 -10
-8 -16 -9 -21 -1 -8 13 -25 13 -25 0z"/>
<path d="M1710 1062 c0 -4 5 -13 11 -19 7 -7 6 -15 -5 -26 -9 -9 -12 -18 -7
-22 5 -3 12 -1 15 3 6 10 119 8 135 -2 14 -9 14 0 -1 24 -11 17 -10 22 2 30 8
5 11 12 7 16 -3 4 -13 1 -22 -6 -12 -10 -18 -10 -31 1 -13 11 -14 9 -9 -14 5
-20 3 -28 -10 -33 -24 -10 -41 11 -25 31 17 21 5 31 -16 14 -13 -11 -18 -11
-21 -1 -5 13 -23 17 -23 4z"/>
<path d="M1880 1061 c0 -5 7 -12 16 -15 16 -6 16 -8 0 -24 -18 -21 -21 -37 -5
-26 16 10 129 12 135 2 3 -4 10 -6 15 -3 5 4 2 13 -6 22 -12 12 -13 18 -4 29
7 8 9 18 5 21 -4 4 -11 1 -16 -7 -7 -11 -11 -12 -24 0 -21 17 -33 5 -16 -15
16 -20 -1 -41 -25 -31 -12 4 -15 13 -11 31 7 26 -8 35 -18 13 -5 -10 -7 -10
-12 0 -6 14 -34 17 -34 3z"/>
<path d="M2105 1048 c4 -15 2 -29 -4 -33 -6 -3 -9 -11 -5 -16 4 -6 11 -6 19 1
10 8 19 8 34 0 24 -12 26 -8 9 20 -11 17 -10 22 2 30 8 5 11 12 7 16 -3 4 -13
1 -22 -6 -12 -10 -18 -10 -31 1 -13 11 -14 9 -9 -13z"/>
<path d="M2180 1062 c0 -4 5 -13 12 -20 9 -9 9 -15 0 -24 -15 -15 -16 -31 -1
-22 18 11 123 12 137 1 14 -11 16 2 2 23 -5 9 -5 19 2 27 6 8 8 17 4 20 -4 4
-11 1 -16 -7 -7 -11 -11 -12 -24 0 -21 16 -33 6 -17 -14 14 -17 7 -36 -13 -36
-22 0 -37 25 -24 38 6 6 8 15 4 19 -4 4 -11 1 -16 -7 -7 -12 -12 -12 -22 -2
-14 14 -28 16 -28 4z"/>
<path d="M2367 1040 c3 -20 1 -30 -6 -30 -7 0 -9 -5 -6 -10 5 -8 11 -8 19 -1
8 7 24 7 46 1 22 -6 38 -6 46 1 9 7 19 7 33 -1 24 -12 26 -8 9 20 -11 17 -10
22 2 30 8 5 11 12 7 16 -3 4 -13 1 -22 -6 -12 -10 -18 -10 -31 1 -13 11 -14 9
-9 -14 5 -20 3 -28 -10 -33 -25 -10 -39 10 -26 35 13 23 2 28 -18 9 -11 -10
-14 -10 -18 0 -9 25 -22 11 -16 -18z"/>
<path d="M2530 1062 c0 -4 5 -13 12 -20 9 -9 9 -15 0 -24 -19 -19 -14 -30 9
-17 14 7 25 7 31 1 6 -6 22 -7 45 0 23 6 39 6 47 -1 19 -16 28 -1 10 16 -11
12 -12 18 -3 29 7 8 8 18 4 22 -4 4 -10 1 -12 -5 -3 -7 -11 -13 -18 -13 -7 0
-15 6 -18 13 -2 6 -8 9 -12 5 -4 -4 -2 -14 4 -22 14 -17 7 -36 -13 -36 -22 0
-37 25 -24 38 6 6 8 15 4 19 -4 4 -12 1 -17 -7 -8 -11 -12 -12 -16 -2 -5 13
-33 17 -33 4z"/>
<path d="M335 1040 c16 -7 17 -9 3 -9 -20 -1 -33 -20 -22 -31 5 -5 21 -6 35
-3 21 4 25 9 21 29 -3 18 -10 24 -31 23 -23 0 -24 -1 -6 -9z"/>
<path d="M390 1026 c0 -32 15 -34 25 -3 l8 22 4 -22 c2 -13 8 -23 13 -23 4 0
11 10 15 23 l8 22 4 -22 c2 -13 11 -23 19 -23 10 0 14 8 12 23 -3 19 -10 22
-55 25 -51 3 -53 2 -53 -22z"/>
<path d="M517 1043 c-15 -14 -6 -42 15 -49 24 -7 50 19 41 42 -5 14 -44 19
-56 7z m40 -29 c-3 -3 -12 -4 -19 -1 -8 3 -5 6 6 6 11 1 17 -2 13 -5z"/>
<path d="M1010 1040 c0 -5 5 -10 10 -10 6 0 10 5 10 10 0 6 -4 10 -10 10 -5 0
-10 -4 -10 -10z"/>
<path d="M1327 714 c-4 -4 -2 -13 5 -21 9 -11 8 -18 -4 -30 -21 -20 -41 -7
-34 21 5 19 1 22 -30 23 -29 1 -33 -1 -23 -13 9 -11 8 -18 -1 -29 -17 -20 -5
-32 15 -15 12 10 19 10 27 2 16 -16 51 -15 67 1 11 10 14 10 18 0 6 -16 37
-17 63 -3 13 7 21 7 25 0 8 -14 48 -13 63 2 8 8 15 8 27 -2 20 -17 32 -5 15
15 -9 11 -10 18 -1 29 10 12 6 14 -24 13 -27 -1 -34 -5 -30 -16 2 -9 0 -23 -5
-31 -8 -13 -11 -13 -26 2 -14 14 -15 20 -5 31 10 13 6 15 -22 15 -30 0 -33 -3
-29 -23 5 -29 -15 -42 -36 -22 -13 14 -13 18 -1 33 12 15 12 16 -10 9 -14 -4
-26 -3 -30 4 -4 6 -10 8 -14 5z"/>
<path d="M1635 710 c-3 -6 -18 -7 -33 -3 -24 6 -26 5 -13 -10 11 -14 11 -20 1
-32 -17 -20 -5 -32 15 -15 12 10 19 10 27 2 16 -16 51 -15 66 0 10 10 15 10
22 -2 5 -8 12 -11 16 -7 4 3 1 13 -6 22 -9 11 -9 19 -2 28 9 10 4 13 -23 13
-28 0 -32 -3 -23 -14 9 -10 7 -17 -4 -29 -23 -22 -40 -7 -33 28 7 29 2 38 -10
19z"/>
<path d="M1803 701 c3 -13 2 -33 -4 -43 -11 -20 1 -24 19 -6 8 8 15 8 27 -2
20 -17 32 -5 15 15 -10 12 -10 18 1 32 13 15 11 16 -10 10 -14 -3 -31 -1 -40
6 -12 10 -14 8 -8 -12z"/>
<path d="M1977 714 c-4 -4 -2 -13 5 -21 9 -11 8 -18 -4 -30 -21 -20 -41 -7
-34 21 5 19 1 22 -30 23 -29 1 -33 -1 -23 -13 9 -11 8 -18 -1 -29 -17 -20 -5
-32 15 -15 12 10 19 10 27 2 16 -16 51 -15 67 1 11 10 14 10 18 0 6 -16 37
-17 63 -3 13 7 21 7 25 0 9 -14 48 -13 63 2 9 9 15 9 24 0 19 -19 30 -14 18 9
-8 15 -8 24 0 34 9 10 4 13 -25 12 -27 -1 -34 -5 -30 -16 2 -9 0 -23 -5 -31
-8 -13 -11 -13 -26 2 -15 15 -15 19 -3 34 13 16 12 17 -10 11 -14 -3 -31 -1
-38 5 -10 8 -12 4 -7 -20 7 -36 -11 -51 -34 -29 -13 14 -13 18 -1 33 12 15 12
16 -10 9 -14 -4 -26 -3 -30 4 -4 6 -10 8 -14 5z"/>
<path d="M2277 714 c-4 -4 -2 -13 4 -21 9 -10 8 -18 -6 -33 -14 -16 -15 -20
-4 -20 8 0 21 6 27 12 10 10 15 10 22 -2 5 -8 12 -11 16 -7 4 3 1 13 -6 22
-10 12 -10 18 1 31 12 15 11 16 -10 9 -14 -4 -26 -3 -30 4 -4 6 -10 8 -14 5z"/>
<path d="M2365 697 c5 -17 2 -33 -5 -42 -15 -18 1 -20 18 -3 9 9 15 9 24 0 15
-15 51 -15 66 0 8 8 15 8 27 -2 20 -17 32 -5 15 15 -9 11 -10 18 -1 29 10 12
6 14 -24 13 -27 -1 -34 -5 -30 -16 2 -9 0 -23 -5 -31 -8 -13 -11 -13 -26 2
-15 15 -15 19 -3 34 13 16 12 17 -10 11 -14 -3 -31 -1 -39 5 -11 9 -12 7 -7
-15z"/>
<path d="M2541 694 c9 -11 8 -18 -1 -29 -16 -19 -6 -32 13 -17 8 7 18 7 27 2
20 -13 60 -13 60 0 0 6 7 10 15 10 8 0 15 -4 15 -10 0 -13 40 -13 60 0 9 5 19
5 27 -2 19 -15 29 -2 13 17 -9 11 -10 18 -1 29 10 12 6 14 -22 13 -29 -1 -33
-4 -29 -23 5 -28 -16 -41 -36 -21 -11 12 -13 19 -4 29 9 11 5 14 -23 14 -28 0
-32 -3 -23 -14 9 -10 7 -17 -4 -29 -20 -20 -41 -7 -36 21 4 19 0 22 -29 23
-28 1 -32 -1 -22 -13z"/>
<path d="M212 688 c4 -10 55 -14 201 -16 171 -2 197 0 197 13 0 13 -28 15
-201 15 -156 0 -200 -3 -197 -12z"/>
<path d="M217 353 c-11 -10 -8 -61 3 -68 6 -3 10 1 10 9 0 9 9 16 20 16 27 0
25 18 -2 23 -20 4 -19 4 5 6 15 0 27 6 27 11 0 11 -53 14 -63 3z"/>
<path d="M420 320 c0 -42 14 -54 23 -20 3 11 10 20 16 20 6 0 11 -9 11 -20 0
-11 5 -20 11 -20 6 0 9 12 7 28 -2 19 -9 28 -25 30 -13 2 -23 8 -23 13 0 5 -4
9 -10 9 -5 0 -10 -18 -10 -40z"/>
<path d="M640 351 c0 -6 5 -13 10 -16 6 -3 10 1 10 9 0 9 -4 16 -10 16 -5 0
-10 -4 -10 -9z"/>
<path d="M376 342 c-8 -13 6 -62 18 -62 15 0 14 59 -1 64 -7 3 -14 2 -17 -2z"/>
<path d="M309 336 c-1 -3 -2 -9 -3 -13 -1 -5 -4 -13 -8 -19 -11 -16 1 -24 34
-24 26 0 29 3 26 28 -2 19 -9 28 -25 30 -13 2 -24 1 -24 -2z"/>
<path d="M513 333 c-18 -7 -16 -40 3 -47 27 -11 42 -7 47 13 8 31 -17 48 -50
34z"/>
<path d="M580 310 c0 -37 17 -39 30 -4 13 34 13 34 -10 34 -16 0 -20 -7 -20
-30z"/>
<path d="M677 333 c-7 -11 -3 -40 6 -49 3 -3 18 -3 32 0 20 5 24 10 17 19 -6
7 -10 17 -9 22 2 13 -39 19 -46 8z"/>
<path d="M1242 269 c10 -17 10 -23 1 -26 -18 -6 -16 -23 2 -23 8 0 15 4 15 9
0 5 14 4 30 -2 24 -9 35 -9 52 2 16 10 23 10 26 2 2 -6 11 -11 19 -11 14 0 14
2 -1 19 -11 12 -14 21 -7 26 21 12 11 21 -23 21 -30 0 -32 -2 -22 -18 9 -15 8
-21 -4 -28 -23 -15 -35 -6 -33 24 2 28 -6 33 -25 14 -9 -9 -12 -9 -12 0 0 7
-7 12 -15 12 -13 0 -13 -3 -3 -21z"/>
<path d="M1419 272 c7 -13 6 -23 -1 -30 -7 -7 -9 -15 -5 -19 4 -4 13 -1 19 5
9 9 15 9 25 0 19 -16 29 -2 12 18 -11 13 -11 18 -1 21 17 6 15 23 -3 23 -8 0
-15 -5 -15 -12 0 -9 -3 -9 -12 0 -18 18 -30 14 -19 -6z"/>
<path d="M1500 279 c0 -4 5 -11 11 -14 7 -5 4 -14 -7 -26 -15 -17 -15 -19 -1
-19 9 0 19 5 23 11 4 8 9 8 17 0 18 -18 28 -12 17 10 -8 15 -8 24 0 34 9 10 4
13 -25 12 -19 -1 -35 -4 -35 -8z"/>
<path d="M1592 269 c10 -17 10 -23 1 -26 -18 -6 -16 -23 2 -23 8 0 15 4 15 9
0 5 14 4 30 -2 24 -9 35 -9 52 2 16 10 23 10 26 2 2 -6 11 -11 19 -11 14 0 14
2 -1 19 -11 12 -14 21 -7 26 21 12 11 21 -24 21 -27 0 -32 -3 -23 -14 9 -10 7
-17 -4 -29 -21 -21 -41 -7 -34 23 7 26 -3 31 -22 12 -9 -9 -12 -9 -12 0 0 7
-7 12 -15 12 -13 0 -13 -3 -3 -21z"/>
<path d="M1806 268 c3 -11 0 -25 -6 -33 -14 -17 -6 -19 20 -5 13 7 21 7 25 0
3 -5 10 -10 16 -10 5 0 4 9 -3 19 -9 15 -9 23 1 34 10 13 7 15 -24 14 -29 -1
-34 -4 -29 -19z"/>
<path d="M1892 269 c10 -17 10 -23 1 -26 -18 -6 -16 -23 2 -23 8 0 15 5 15 12
0 9 3 9 12 0 15 -15 60 -16 75 -1 8 8 13 8 17 0 9 -14 63 -14 71 -1 5 8 11 7
21 -1 19 -16 30 -4 14 16 -10 12 -10 18 0 30 10 12 10 15 -4 15 -9 0 -16 -5
-16 -11 0 -8 -5 -7 -15 1 -19 16 -32 5 -16 -13 17 -22 -13 -45 -34 -27 -11 9
-13 16 -5 24 17 17 12 22 -25 22 -27 0 -32 -3 -23 -14 9 -10 7 -17 -4 -29 -21
-21 -41 -7 -34 23 7 26 -3 31 -22 12 -9 -9 -12 -9 -12 0 0 7 -7 12 -15 12 -13
0 -13 -3 -3 -21z"/>
<path d="M2156 268 c3 -11 0 -25 -6 -33 -10 -12 -10 -15 2 -15 8 0 19 5 25 11
8 8 13 8 17 0 13 -21 27 -12 16 10 -8 15 -8 24 0 34 9 10 4 13 -25 12 -29 -1
-34 -4 -29 -19z"/>
<path d="M2270 279 c0 -4 6 -9 13 -12 8 -3 7 -10 -7 -26 -16 -18 -17 -21 -3
-21 9 0 19 5 22 10 5 8 11 7 21 -1 19 -15 30 -4 15 15 -8 10 -9 16 -1 21 20
12 10 21 -25 21 -19 0 -35 -3 -35 -7z"/>
<path d="M2368 268 c2 -10 -1 -25 -8 -33 -10 -12 -10 -15 3 -15 9 0 19 5 23
11 4 8 9 8 17 0 18 -18 28 -12 17 10 -8 15 -8 24 0 34 9 10 4 13 -23 12 -28
-1 -33 -4 -29 -19z"/>
<path d="M2456 268 c3 -11 0 -25 -6 -33 -15 -18 -6 -19 21 -5 13 7 19 7 19 0
0 -5 7 -10 15 -10 12 0 13 3 3 19 -9 15 -9 23 1 34 10 13 7 15 -24 14 -29 -1
-34 -4 -29 -19z"/>
<path d="M2540 275 c10 -12 10 -19 2 -27 -16 -16 -15 -28 3 -28 8 0 15 5 15
12 0 9 3 9 12 0 15 -15 60 -16 75 -1 8 8 13 8 17 0 9 -14 63 -14 71 -1 5 8 11
7 21 -1 19 -16 30 -4 14 16 -10 12 -10 18 0 30 10 12 10 15 -4 15 -9 0 -16 -5
-16 -12 0 -9 -3 -9 -12 0 -19 19 -29 14 -22 -12 7 -29 -11 -43 -32 -25 -10 8
-12 15 -4 23 17 17 12 22 -25 22 -27 0 -32 -3 -23 -14 9 -10 7 -17 -4 -29 -21
-21 -41 -7 -34 23 7 26 -3 31 -22 12 -9 -9 -12 -9 -12 0 0 7 -7 12 -16 12 -14
0 -14 -3 -4 -15z"/>
<path d="M210 196 c0 -19 5 -38 10 -41 6 -3 10 3 10 14 0 25 15 27 28 4 15
-26 44 -9 40 24 -3 29 -28 45 -28 17 0 -16 -1 -16 -18 -1 -29 26 -42 20 -42
-17z"/>
<path d="M315 186 c0 -32 9 -39 34 -31 14 4 21 15 21 31 0 20 -5 24 -28 24
-23 0 -28 -4 -27 -24z"/>
<path d="M390 186 c0 -32 15 -34 25 -3 l8 22 4 -22 c2 -13 8 -23 13 -23 4 0
11 10 15 23 l8 22 4 -22 c2 -13 11 -23 19 -23 10 0 14 8 12 23 -3 19 -10 22
-55 25 -51 3 -53 2 -53 -22z"/>
<path d="M517 204 c-15 -15 -6 -43 15 -50 22 -7 52 19 45 41 -4 12 -50 19 -60
9z"/>
</g>
</svg>
