<svg width="24" height="24" viewBox="0 0 24 24" fill="none" xmlns="http://www.w3.org/2000/svg">
<path d="M12 0C14.3734 0 16.6934 0.703788 18.6668 2.02236C20.6402 3.34094 22.1783 5.21508 23.0865 7.4078C23.9948 9.60051 24.2324 12.0133 23.7694 14.3411C23.3064 16.6689 22.1635 18.807 20.4853 20.4853C18.807 22.1635 16.6689 23.3064 14.3411 23.7694C12.0133 24.2324 9.60051 23.9948 7.4078 23.0865C5.21508 22.1783 3.34094 20.6402 2.02236 18.6668C0.703788 16.6934 0 14.3734 0 12C0 8.8174 1.26428 5.76515 3.51472 3.51472C5.76515 1.26428 8.8174 0 12 0V0Z" fill="#FF7171"/>
<path d="M9.51172 9.52539L14.4615 14.4751" stroke="white" stroke-width="2" stroke-linecap="round" stroke-linejoin="round"/>
<path d="M9.51172 14.4746L14.4615 9.52486" stroke="white" stroke-width="2" stroke-linecap="round" stroke-linejoin="round"/>
</svg>
