<svg width="48" height="48" viewBox="0 0 48 48" fill="none" xmlns="http://www.w3.org/2000/svg">
<path d="M24 0C28.7467 0 33.3869 1.40758 37.3337 4.04473C41.2805 6.68188 44.3566 10.4302 46.1731 14.8156C47.9896 19.201 48.4649 24.0266 47.5388 28.6822C46.6128 33.3377 44.327 37.6141 40.9706 40.9706C37.6141 44.327 33.3377 46.6128 28.6822 47.5388C24.0266 48.4649 19.201 47.9896 14.8156 46.1731C10.4302 44.3566 6.68188 41.2805 4.04473 37.3337C1.40758 33.3869 0 28.7467 0 24C0 17.6348 2.52856 11.5303 7.02944 7.02944C11.5303 2.52856 17.6348 0 24 0V0Z" fill="#442477"/>
<path d="M14 15.998V21.998H20" stroke="white" stroke-width="2" stroke-linecap="round" stroke-linejoin="round"/>
<path d="M36.002 31.9961V25.9961H30.002" stroke="white" stroke-width="2" stroke-linecap="round" stroke-linejoin="round"/>
<path d="M33.49 20.9976C32.9828 19.5644 32.1209 18.283 30.9845 17.2731C29.8482 16.2631 28.4745 15.5574 26.9917 15.2219C25.5089 14.8864 23.9652 14.932 22.5048 15.3544C21.0444 15.7768 19.7147 16.5623 18.64 17.6376L14 21.9976M36 25.9976L31.36 30.3576C30.2853 31.4329 28.9556 32.2184 27.4952 32.6409C26.0348 33.0633 24.4911 33.1089 23.0083 32.7734C21.5255 32.4379 20.1518 31.7322 19.0155 30.7222C17.8791 29.7122 17.0172 28.4308 16.51 26.9976" stroke="white" stroke-width="2" stroke-linecap="round" stroke-linejoin="round"/>
</svg>
