<svg width="144" height="144" viewBox="0 0 144 144" fill="none" xmlns="http://www.w3.org/2000/svg">
<path d="M140.062 61.2566V82.5473H117.759L117.703 82.6316C113.694 79.3565 108.677 77.568 103.5 77.5691C102.37 77.5674 101.242 77.652 100.125 77.8223C100.04 75.8937 99.5443 74.0055 98.6713 72.2837C97.7983 70.562 96.5679 69.0463 95.0625 67.8379V61.2566C95.0625 58.3823 96.2024 55.6252 98.2323 53.59C100.262 51.5549 103.016 50.4078 105.891 50.4004C107.237 52.2314 108.994 53.72 111.022 54.746C113.05 55.772 115.29 56.3066 117.562 56.3066C119.835 56.3066 122.075 55.772 124.103 54.746C126.131 53.72 127.888 52.2314 129.234 50.4004C132.109 50.4078 134.863 51.5549 136.893 53.59C138.923 55.6252 140.063 58.3823 140.062 61.2566Z" fill="#95E540"/>
<path d="M117.562 45.5346C124.225 45.5346 129.627 40.1326 129.627 33.4689C129.627 26.8053 124.225 21.4033 117.562 21.4033C110.898 21.4033 105.496 26.8053 105.496 33.4689C105.496 40.1326 110.898 45.5346 117.562 45.5346Z" fill="#FFCDAC"/>
<path d="M81.5629 105.048C80.5316 100.5 80.9391 95.7436 82.7291 91.4373C84.5191 87.131 87.6031 83.4874 91.5544 81.0105C95.5058 78.5337 100.129 77.346 104.785 77.6118C109.441 77.8775 113.899 79.5836 117.543 82.4941C121.187 85.4045 123.836 89.3753 125.125 93.8573C126.413 98.3393 126.277 103.111 124.735 107.512C123.192 111.913 120.321 115.726 116.516 118.424C112.712 121.121 108.164 122.57 103.5 122.57C102.56 122.57 101.621 122.514 100.688 122.401C96.1039 121.822 91.8092 119.846 88.3875 116.742C84.9658 113.637 82.583 109.554 81.5629 105.048ZM112.444 99.1977C112.45 97.2552 111.879 95.3547 110.804 93.7368C109.728 92.1189 108.197 90.8565 106.404 90.1092C104.611 89.362 102.637 89.1636 100.731 89.5391C98.825 89.9147 97.0734 90.8473 95.6978 92.2189C94.3223 93.5905 93.3847 95.3395 93.0036 97.2443C92.6226 99.1491 92.8153 101.124 93.5574 102.919C94.2995 104.715 95.5576 106.249 97.1724 107.329C98.7871 108.409 100.686 108.985 102.629 108.985C103.916 108.987 105.191 108.736 106.381 108.245C107.571 107.754 108.652 107.034 109.564 106.125C110.475 105.216 111.199 104.136 111.693 102.948C112.187 101.759 112.442 100.485 112.444 99.1977Z" fill="#E5C140"/>
<path d="M102.628 89.4102C104.563 89.4157 106.452 89.9945 108.058 91.0733C109.664 92.1522 110.914 93.6827 111.651 95.4716C112.387 97.2605 112.577 99.2276 112.196 101.124C111.815 103.021 110.881 104.762 109.511 106.128C108.141 107.494 106.397 108.424 104.499 108.799C102.601 109.174 100.635 108.979 98.848 108.237C97.0612 107.496 95.5343 106.241 94.4601 104.632C93.3858 103.023 92.8125 101.132 92.8125 99.1977C92.8142 97.9105 93.0695 96.6362 93.5637 95.4477C94.0579 94.2591 94.7814 93.1796 95.6929 92.2707C96.6044 91.3618 97.686 90.6414 98.876 90.1506C100.066 89.6598 101.341 89.4082 102.628 89.4102Z" fill="white"/>
<path d="M95.0625 67.8658C96.5681 69.0741 97.7985 70.5897 98.6715 72.3115C99.5445 74.0333 100.04 75.9216 100.125 77.8502C97.0668 78.3117 94.1368 79.3993 91.5181 81.045C88.8995 82.6907 86.6486 84.8591 84.9063 87.4144C83.164 89.9698 81.9678 92.8572 81.3924 95.8961C80.8171 98.9349 80.875 102.06 81.5625 105.075H43.875V78.4689C43.8726 76.688 44.2216 74.9241 44.902 73.2783C45.5824 71.6325 46.5809 70.1371 47.8402 68.8779C49.0995 67.6186 50.5949 66.6201 52.2407 65.9397C53.8865 65.2593 55.6504 64.9103 57.4313 64.9127C59.1119 67.1972 61.3061 69.0544 63.8369 70.3344C66.3676 71.6145 69.164 72.2814 72 72.2814C74.8361 72.2814 77.6324 71.6145 80.1631 70.3344C82.6939 69.0544 84.8882 67.1972 86.5688 64.9127C89.6596 64.8652 92.6678 65.9111 95.0625 67.8658Z" fill="#A5DDFF"/>
<path d="M72.0008 58.7818C80.3265 58.7818 87.0758 52.0325 87.0758 43.7068C87.0758 35.3811 80.3265 28.6318 72.0008 28.6318C63.6751 28.6318 56.9258 35.3811 56.9258 43.7068C56.9258 52.0325 63.6751 58.7818 72.0008 58.7818Z" fill="#FFCDAC"/>
<path d="M48.9375 61.2566V67.866C47.3533 69.1351 46.0756 70.7448 45.1991 72.5756C44.3227 74.4064 43.8701 76.4112 43.875 78.441V82.5473H3.9375V61.2566C3.93749 58.3823 5.07741 55.6252 7.10727 53.59C9.13713 51.5549 11.8912 50.4078 14.7656 50.4004C16.1108 52.2322 17.8684 53.7214 19.8962 54.7475C21.9239 55.7736 24.1649 56.3078 26.4375 56.3066C28.7078 56.3169 30.9479 55.7866 32.9726 54.7596C34.9973 53.7326 36.7485 52.2383 38.0812 50.4004C40.96 50.4021 43.7203 51.5464 45.7559 53.582C47.7915 55.6176 48.9358 58.3779 48.9375 61.2566Z" fill="#95E540"/>
<path d="M26.4367 45.5346C33.1004 45.5346 38.5023 40.1326 38.5023 33.4689C38.5023 26.8053 33.1004 21.4033 26.4367 21.4033C19.7731 21.4033 14.3711 26.8053 14.3711 33.4689C14.3711 40.1326 19.7731 45.5346 26.4367 45.5346Z" fill="#FFCDAC"/>
<path d="M72.0008 61.0316C75.4273 61.0316 78.777 60.0155 81.626 58.1119C84.4751 56.2082 86.6957 53.5024 88.007 50.3366C89.3183 47.1709 89.6614 43.6874 88.9929 40.3267C88.3244 36.966 86.6744 33.879 84.2514 31.456C81.8285 29.0331 78.7414 27.383 75.3807 26.7145C72.02 26.046 68.5365 26.3891 65.3708 27.7004C62.2051 29.0117 59.4993 31.2323 57.5956 34.0814C55.6919 36.9305 54.6758 40.2801 54.6758 43.7066C54.6778 48.3009 56.5037 52.7064 59.7524 55.955C63.001 59.2037 67.4065 61.0296 72.0008 61.0316ZM72.0008 30.9098C74.5345 30.9125 77.0106 31.6666 79.1158 33.0766C81.221 34.4866 82.8608 36.4892 83.8278 38.8312C84.7949 41.1731 85.0458 43.7492 84.5487 46.2338C84.0517 48.7183 82.8291 50.9997 81.0355 52.7893C79.2419 54.579 76.9578 55.7966 74.4722 56.2882C71.9866 56.7798 69.411 56.5233 67.0712 55.5511C64.7314 54.5789 62.7324 52.9347 61.327 50.8264C59.9216 48.7181 59.173 46.2404 59.1758 43.7066C59.1865 40.3111 60.542 37.0581 62.9457 34.6598C65.3493 32.2614 68.6052 30.913 72.0008 30.9098ZM117.563 47.7848C120.391 47.782 123.154 46.9412 125.504 45.3687C127.853 43.7961 129.684 41.5624 130.765 38.9497C131.846 36.337 132.128 33.4626 131.575 30.6897C131.023 27.9167 129.661 25.3697 127.662 23.3705C125.663 21.3712 123.116 20.0094 120.343 19.4571C117.57 18.9049 114.695 19.1869 112.083 20.2676C109.47 21.3483 107.236 23.1792 105.664 25.5289C104.091 27.8786 103.25 30.6418 103.248 33.4691C103.254 37.2641 104.764 40.9019 107.447 43.5853C110.131 46.2688 113.768 47.7789 117.563 47.7848ZM117.563 23.6816C119.505 23.6816 121.402 24.2573 123.017 25.3359C124.631 26.4144 125.889 27.9474 126.632 29.741C127.375 31.5346 127.569 33.5082 127.19 35.4122C126.812 37.3162 125.877 39.0652 124.504 40.438C123.131 41.8107 121.382 42.7455 119.478 43.1243C117.574 43.503 115.601 43.3086 113.807 42.5657C112.013 41.8228 110.48 40.5647 109.402 38.9505C108.323 37.3364 107.748 35.4386 107.748 33.4973C107.75 30.8947 108.785 28.3995 110.625 26.5592C112.465 24.7189 114.961 23.684 117.563 23.6816Z" fill="black"/>
<path d="M129.234 48.1504H128.081L127.406 49.0785C126.271 50.6219 124.788 51.8765 123.078 52.7413C121.368 53.606 119.479 54.0565 117.562 54.0565C115.646 54.0565 113.757 53.606 112.047 52.7413C110.337 51.8765 108.854 50.6219 107.719 49.0785L107.044 48.1504H105.891C102.419 48.1549 99.0905 49.5381 96.6381 51.9958C94.1856 54.4536 92.8096 57.7846 92.8125 61.2566V63.9004C90.8407 63.0496 88.7163 62.6094 86.5687 62.6066H85.4156L84.7406 63.5348C83.2696 65.5398 81.3471 67.1702 79.1288 68.294C76.9104 69.4179 74.4586 70.0035 71.9719 70.0035C69.4851 70.0035 67.0333 69.4179 64.815 68.294C62.5966 67.1702 60.6741 65.5398 59.2031 63.5348L58.5281 62.6066H57.375C55.2275 62.6094 53.103 63.0496 51.1313 63.9004V61.2566C51.1293 57.7861 49.7517 54.4579 47.3003 52.0012C44.8489 49.5445 41.5236 48.1598 38.0531 48.1504H36.9L36.225 49.0785C35.0893 50.6219 33.6066 51.8765 31.8967 52.7413C30.1867 53.606 28.2974 54.0565 26.3813 54.0565C24.4651 54.0565 22.5758 53.606 20.8658 52.7413C19.1559 51.8765 17.6732 50.6219 16.5375 49.0785L15.8625 48.1504H14.7094C11.2477 48.1715 7.93498 49.5618 5.49505 52.0175C3.05511 54.4733 1.68625 57.7949 1.6875 61.2566V84.7973H41.625V107.297H79.8187C81.2151 111.865 83.9007 115.932 87.5528 119.011C91.2048 122.089 95.6681 124.047 100.406 124.65C101.432 124.787 102.465 124.853 103.5 124.847C108.144 124.846 112.694 123.538 116.63 121.074C120.567 118.609 123.73 115.088 125.76 110.911C127.79 106.734 128.604 102.07 128.109 97.4525C127.615 92.8348 125.831 88.4495 122.963 84.7973H142.312V61.2566C142.311 57.7861 140.933 54.4579 138.482 52.0012C136.03 49.5445 132.705 48.1598 129.234 48.1504ZM6.1875 80.2973V61.2566C6.19566 59.1559 6.96784 57.1299 8.35995 55.5567C9.75207 53.9834 11.669 52.9704 13.7531 52.7066C15.3187 54.5409 17.2634 56.0138 19.4533 57.0237C21.6431 58.0337 24.026 58.5567 26.4375 58.5567C28.849 58.5567 31.2319 58.0337 33.4217 57.0237C35.6116 56.0138 37.5563 54.5409 39.1219 52.7066C41.2078 52.9661 43.1273 53.9779 44.5203 55.552C45.9132 57.1262 46.6838 59.1546 46.6875 61.2566V66.8535C45.0856 68.3278 43.8081 70.1194 42.9365 72.1144C42.0649 74.1094 41.6183 76.264 41.625 78.441V80.2973H6.1875ZM46.125 78.4129C46.1264 75.6003 47.1761 72.8892 49.0691 70.8089C50.9621 68.7287 53.5625 67.4288 56.3625 67.1629C58.2749 69.4521 60.6666 71.2934 63.3686 72.557C66.0706 73.8205 69.0171 74.4754 72 74.4754C74.9829 74.4754 77.9294 73.8205 80.6314 72.557C83.3334 71.2934 85.7251 69.4521 87.6375 67.1629C89.8434 67.3578 91.9401 68.2102 93.6562 69.6098L95.0625 67.866L93.6562 69.6098C95.6733 71.2302 97.0731 73.4938 97.6219 76.0223C92.2411 77.3444 87.4584 80.4313 84.0376 84.7901C80.6168 89.1489 78.7552 94.5283 78.75 100.069C78.75 100.969 78.8063 101.869 78.8906 102.769H46.125V78.4129ZM103.5 120.319C102.653 120.319 101.808 120.263 100.969 120.15C96.8401 119.63 92.9723 117.849 89.8923 115.051C86.8122 112.252 84.6696 108.573 83.7562 104.513C83.4183 103.046 83.2484 101.546 83.25 100.041C83.25 90.1129 90.6469 81.5066 100.434 80.016C101.45 79.8701 102.474 79.795 103.5 79.791C108.15 79.7881 112.659 81.3872 116.269 84.3191C119.515 86.9597 121.865 90.5403 122.996 94.5696C124.127 98.5988 123.983 102.879 122.584 106.823C121.185 110.768 118.599 114.182 115.183 116.598C111.766 119.015 107.685 120.314 103.5 120.319ZM137.812 80.2973H118.378C114.084 77.083 108.864 75.3463 103.5 75.3473C103.022 75.3473 102.544 75.3754 102.066 75.4035C101.411 72.128 99.7488 69.1388 97.3125 66.8535V61.2566C97.3207 59.1559 98.0928 57.1299 99.485 55.5567C100.877 53.9834 102.794 52.9704 104.878 52.7066C106.444 54.5409 108.388 56.0138 110.578 57.0237C112.768 58.0337 115.151 58.5567 117.562 58.5567C119.974 58.5567 122.357 58.0337 124.547 57.0237C126.737 56.0138 128.681 54.5409 130.247 52.7066C132.333 52.9661 134.252 53.9779 135.645 55.552C137.038 57.1262 137.809 59.1546 137.812 61.2566V80.2973ZM26.4375 47.7848C29.2649 47.782 32.028 46.9412 34.3777 45.3687C36.7274 43.7961 38.5583 41.5624 39.639 38.9497C40.7197 36.337 41.0018 33.4626 40.4495 30.6897C39.8972 27.9167 38.5354 25.3697 36.5362 23.3705C34.5369 21.3712 31.9899 20.0094 29.217 19.4571C26.4441 18.9049 23.5697 19.1869 20.957 20.2676C18.3443 21.3483 16.1105 23.1792 14.538 25.5289C12.9654 27.8786 12.1247 30.6418 12.1219 33.4691C12.1278 37.2641 13.6379 40.9019 16.3213 43.5853C19.0047 46.2688 22.6426 47.7789 26.4375 47.7848ZM26.4375 23.6816C28.38 23.6816 30.2789 24.258 31.8937 25.3378C33.5085 26.4176 34.7665 27.9523 35.5086 29.7475C36.2507 31.5427 36.4434 33.5178 36.0624 35.4226C35.6814 37.3274 34.7437 39.0763 33.3682 40.4479C31.9926 41.8195 30.241 42.7521 28.3351 43.1277C26.4292 43.5033 24.4548 43.3049 22.6617 42.5576C20.8686 41.8104 19.3376 40.5479 18.2624 38.93C17.1873 37.3122 16.6163 35.4117 16.6219 33.4691C16.6317 30.8715 17.6699 28.3834 19.5093 26.5492C21.3488 24.715 23.8398 23.684 26.4375 23.6816Z" fill="black"/>
<path d="M112.585 105.975C114.268 103.501 114.967 100.488 114.547 97.525C114.126 94.5623 112.615 91.8631 110.31 89.9552C108.005 88.0473 105.071 87.068 102.082 87.2086C99.0925 87.3493 96.2633 88.5998 94.1474 90.7158C92.0315 92.8317 90.7809 95.6608 90.6402 98.6499C90.4996 101.639 91.479 104.573 93.3869 106.878C95.2948 109.184 97.994 110.694 100.957 111.115C103.919 111.536 106.932 110.836 109.407 109.153L113.71 113.456C113.916 113.664 114.161 113.828 114.432 113.939C114.702 114.05 114.992 114.106 115.285 114.103C115.73 114.101 116.165 113.968 116.535 113.72C116.906 113.472 117.194 113.12 117.366 112.709C117.537 112.297 117.583 111.845 117.498 111.407C117.413 110.97 117.201 110.567 116.888 110.25L112.585 105.975ZM95.0628 99.1968C95.0573 97.6993 95.4963 96.2338 96.3242 94.986C97.1521 93.7381 98.3318 92.764 99.7137 92.1871C101.096 91.6101 102.618 91.4563 104.087 91.745C105.557 92.0338 106.907 92.7521 107.968 93.809C109.029 94.866 109.752 96.214 110.047 97.6824C110.341 99.1507 110.193 100.673 109.621 102.057C109.049 103.441 108.079 104.625 106.835 105.457C105.59 106.29 104.126 106.734 102.628 106.734C100.627 106.735 98.7059 105.942 97.2876 104.529C95.8694 103.116 95.0693 101.199 95.0628 99.1968Z" fill="black"/>
</svg>
