<svg width="32" height="32" viewBox="0 0 32 32" fill="none" xmlns="http://www.w3.org/2000/svg">
<path d="M16 0C19.1645 0 22.2579 0.938383 24.8891 2.69649C27.5203 4.45459 29.5711 6.95345 30.7821 9.87706C31.9931 12.8007 32.3099 16.0177 31.6926 19.1214C31.0752 22.2251 29.5513 25.0761 27.3137 27.3137C25.0761 29.5513 22.2251 31.0752 19.1214 31.6926C16.0177 32.3099 12.8007 31.9931 9.87706 30.7821C6.95345 29.5711 4.45459 27.5203 2.69649 24.8891C0.938383 22.2579 0 19.1645 0 16C0 11.7565 1.68571 7.68687 4.68629 4.68629C7.68687 1.68571 11.7565 0 16 0V0Z" fill="#442477"/>
<path d="M15.5 23C19.6421 23 23 19.6421 23 15.5C23 11.3579 19.6421 8 15.5 8C11.3579 8 8 11.3579 8 15.5C8 19.6421 11.3579 23 15.5 23Z" stroke="white" stroke-width="2" stroke-linecap="round" stroke-linejoin="round"/>
<path d="M25 25L21 21" stroke="white" stroke-width="2" stroke-linecap="round" stroke-linejoin="round"/>
</svg>
