<svg width="144" height="144" viewBox="0 0 144 144" fill="none" xmlns="http://www.w3.org/2000/svg">
<path d="M141.303 71.9965C141.303 33.7233 110.276 2.69678 72.0028 2.69678C33.7297 2.69678 2.70312 33.7233 2.70312 71.9965C2.70312 110.27 33.7297 141.296 72.0028 141.296C110.276 141.296 141.303 110.27 141.303 71.9965Z" fill="#95E540"/>
<path d="M96.7 46.9422L64.2908 79.3513L47.3063 62.3667C46.5314 61.5917 45.6115 60.9768 44.599 60.5573C43.5865 60.1377 42.5013 59.9217 41.4053 59.9216C40.3093 59.9214 39.2241 60.1372 38.2115 60.5564C37.1989 60.9757 36.2788 61.5903 35.5037 62.3652C34.7287 63.1401 34.1138 64.06 33.6943 65.0725C33.2747 66.085 33.0587 67.1702 33.0586 68.2661C33.0585 69.3621 33.2742 70.4474 33.6935 71.4599C34.1127 72.4725 34.7273 73.3926 35.5022 74.1677L58.3865 97.052C59.1612 97.8269 60.0809 98.4416 61.0932 98.861C62.1055 99.2804 63.1905 99.4963 64.2862 99.4963C65.3819 99.4963 66.4669 99.2804 67.4792 98.861C68.4915 98.4416 69.4113 97.8269 70.1859 97.052L108.498 58.7508C110.063 57.1861 110.942 55.0639 110.942 52.8509C110.942 50.6379 110.063 48.5155 108.499 46.9506C106.934 45.3857 104.812 44.5065 102.599 44.5063C100.386 44.5062 98.2634 45.3852 96.6985 46.9499L96.7 46.9422Z" fill="white"/>
<path d="M102.598 41.8016C101.147 41.7973 99.7106 42.0809 98.3706 42.636C97.0306 43.1912 95.8141 44.0068 94.7917 45.0355L64.2875 75.5367L49.2079 60.4586C47.1375 58.3884 44.3296 57.2255 41.4019 57.2257C38.4741 57.2258 35.6663 58.389 33.5962 60.4593C31.526 62.5297 30.3631 65.3376 30.3633 68.2653C30.3634 71.1931 31.5266 74.0009 33.597 76.071L56.4828 98.9553C58.5529 101.025 61.3602 102.188 64.2875 102.188C67.2147 102.188 70.0221 101.025 72.0922 98.9553L110.403 60.6449C111.946 59.1011 112.997 57.1344 113.423 54.9933C113.849 52.8522 113.63 50.633 112.795 48.6161C111.959 46.5993 110.545 44.8754 108.73 43.6624C106.915 42.4495 104.781 41.8019 102.598 41.8016ZM106.591 56.835L68.2807 95.1438C67.2045 96.1707 65.7742 96.7435 64.2867 96.7435C62.7992 96.7435 61.3689 96.1707 60.2927 95.1438L37.4084 72.2611C36.3488 71.2018 35.7533 69.765 35.753 68.2667C35.7527 66.7683 36.3476 65.3313 37.4069 64.2716C38.4662 63.2119 39.903 62.6164 41.4013 62.6162C42.8996 62.6159 44.3367 63.2108 45.3964 64.2701L62.381 81.2546C62.6311 81.5051 62.9282 81.7038 63.2552 81.8394C63.5822 81.9749 63.9327 82.0447 64.2867 82.0447C64.6407 82.0447 64.9912 81.9749 65.3182 81.8394C65.6452 81.7038 65.9423 81.5051 66.1924 81.2546L98.6031 48.8439C99.6793 47.8176 101.109 47.245 102.596 47.245C104.083 47.245 105.513 47.8176 106.59 48.8439C107.648 49.9044 108.242 51.3411 108.242 52.8391C108.243 54.3372 107.649 55.7741 106.591 56.835Z" fill="black"/>
<path d="M72.0005 2.35001e-07C60.9128 -0.000895552 49.9746 2.55917 40.039 7.48059C30.1033 12.402 21.4386 19.5518 14.7205 28.3725C8.00231 37.1931 3.41226 47.4463 1.30819 58.3326C-0.795883 69.2188 -0.357106 80.444 2.59031 91.1328C5.53772 101.822 10.9141 111.685 18.3003 119.955C25.6865 128.224 34.8828 134.675 45.1724 138.806C55.4619 142.937 66.5664 144.636 77.6203 143.769C88.6741 142.903 99.3784 139.495 108.899 133.812C109.213 133.635 109.489 133.397 109.709 133.112C109.93 132.827 110.091 132.501 110.184 132.153C110.276 131.805 110.298 131.441 110.247 131.084C110.197 130.727 110.075 130.384 109.89 130.075C109.704 129.766 109.459 129.498 109.168 129.285C108.877 129.073 108.546 128.921 108.195 128.838C107.844 128.756 107.48 128.745 107.125 128.805C106.77 128.866 106.43 128.997 106.127 129.192C92.2576 137.455 75.8569 140.393 59.9818 137.458C44.1067 134.523 29.8404 125.916 19.8421 113.24C9.84385 100.565 4.7958 84.6862 5.63892 68.5641C6.48204 52.4421 13.1588 37.1766 24.4247 25.6133C35.6906 14.0499 50.7769 6.97762 66.8715 5.71469C82.9661 4.45176 98.9708 9.08436 111.902 18.749C124.834 28.4136 133.81 42.4508 137.158 58.244C140.505 74.0372 137.996 90.5089 130.097 104.589C129.923 104.897 129.813 105.237 129.77 105.588C129.728 105.939 129.756 106.295 129.851 106.636C129.947 106.976 130.109 107.295 130.327 107.573C130.546 107.851 130.817 108.084 131.125 108.257C131.434 108.43 131.773 108.541 132.125 108.583C132.476 108.625 132.832 108.598 133.173 108.502C133.513 108.407 133.832 108.245 134.11 108.026C134.388 107.808 134.62 107.537 134.794 107.228C140.94 96.2713 144.113 83.8968 143.997 71.334C143.881 58.7713 140.479 46.4577 134.13 35.6165C127.782 24.7753 118.707 15.784 107.808 9.53589C96.9083 3.28773 84.5638 0.00023176 72.0005 2.35001e-07Z" fill="black"/>
<path d="M122.188 115.78C121.202 116.912 120.161 118.027 119.094 119.092C118.431 119.758 117.752 120.408 117.058 121.042C116.789 121.279 116.57 121.567 116.414 121.889C116.258 122.212 116.168 122.562 116.148 122.919C116.129 123.277 116.181 123.635 116.302 123.972C116.423 124.309 116.609 124.619 116.851 124.883C117.093 125.148 117.385 125.361 117.71 125.511C118.035 125.661 118.387 125.745 118.745 125.758C119.103 125.77 119.46 125.712 119.795 125.585C120.13 125.458 120.436 125.265 120.696 125.019C121.45 124.329 122.187 123.624 122.907 122.904C124.061 121.751 125.187 120.545 126.254 119.316C126.486 119.049 126.664 118.739 126.777 118.403C126.89 118.067 126.935 117.713 126.911 117.36C126.886 117.006 126.793 116.661 126.635 116.344C126.477 116.027 126.259 115.744 125.992 115.512C125.725 115.279 125.415 115.101 125.079 114.989C124.744 114.876 124.389 114.83 124.036 114.855C123.682 114.879 123.337 114.973 123.02 115.13C122.703 115.288 122.42 115.507 122.188 115.774V115.78Z" fill="black"/>
</svg>
