<svg width="200" height="180" viewBox="0 0 200 180" fill="none" xmlns="http://www.w3.org/2000/svg">
<path fill-rule="evenodd" clip-rule="evenodd" d="M100.037 157.383C26.532 157.383 26.6726 22.6167 100.037 22.6167C173.381 22.6167 173.356 157.383 100.037 157.383Z" fill="#5F4687"/>
<path fill-rule="evenodd" clip-rule="evenodd" d="M136.852 118.238C134.658 118.238 133.021 116.187 133.528 114.041C135.16 107.122 135.069 96.8625 136.468 89.1093C140.798 65.1198 127.717 47.5674 103.133 47.8873C84.2419 48.0525 72.4258 56.9412 71.5223 71.6636C70.4817 88.6546 67.6316 100.075 62.2867 108.69C59.916 112.509 54.1117 108.906 56.4847 105.089C61.2051 97.4883 63.7422 87.0515 64.7066 71.2487C66.7926 37.1822 116.824 32.3142 135.298 54.2295C142.952 63.3045 145.75 76.1237 143.186 90.3257C141.003 102.422 142.935 118.236 136.852 118.236V118.238Z" fill="white"/>
<path fill-rule="evenodd" clip-rule="evenodd" d="M115.536 138.142C113.121 138.142 111.421 135.623 112.412 133.359C120.423 115.055 141.618 69.1884 110.983 60.6923C97.3993 56.9247 83.2711 64.0251 82.4813 78.9806C81.3363 100.614 76.8269 113.862 68.2851 120.67C64.7847 123.459 60.5284 118.123 64.0312 115.331C70.8398 109.905 74.6449 97.8971 75.6644 78.6197C77.2957 47.7418 119.781 45.1485 130.779 68.2708C138.818 85.1634 129.71 110.852 118.669 136.097C118.106 137.375 116.852 138.142 115.536 138.142Z" fill="white"/>
<path fill-rule="evenodd" clip-rule="evenodd" d="M100.926 138.942C98.2399 138.942 96.5313 135.872 98.1285 133.577C105.728 122.658 125.636 81.9632 105.641 74.9788C98.084 72.3386 94.8039 81.4558 94.4113 88.8304C93.7914 100.505 79.9761 136.377 73.0339 127.668C71.8585 126.193 72.0999 124.048 73.5765 122.871C77.9605 119.374 87.0754 98.2254 87.5945 88.4671C89.0664 60.6866 114.21 63.621 119.727 80.639C125.384 98.0871 111.394 126.463 103.735 137.47C103.066 138.428 102.003 138.94 100.925 138.94L100.926 138.942Z" fill="white"/>
<path fill-rule="evenodd" clip-rule="evenodd" d="M87.0077 134.601C84.1249 134.601 82.51 131.19 84.4143 128.966C102.844 107.433 100.071 82.6556 100.04 82.4095C99.4906 77.9259 106.282 77.1442 106.821 81.5845C106.958 82.7177 109.964 109.615 89.6046 133.407C88.9296 134.2 87.971 134.603 87.0089 134.603L87.0077 134.601Z" fill="white"/>
<path fill-rule="evenodd" clip-rule="evenodd" d="M183.046 179.954H149.503C146.417 179.954 146.419 175.267 149.503 175.267H183.046C189.804 175.267 195.302 169.77 195.302 163.01V134.285C195.302 131.2 199.99 131.201 199.99 134.285V163.01C199.991 172.354 192.39 179.954 183.046 179.954ZM51.5713 179.954H16.9493C7.60589 179.954 0.00390625 172.352 0.00390625 163.009V134.277C0.00390625 131.191 4.69142 131.193 4.69142 134.277V163.009C4.69142 169.767 10.1911 175.266 16.9493 175.266H51.5701C54.6545 175.266 54.6545 179.954 51.5713 179.954ZM197.647 50.7805C196.353 50.7805 195.303 49.7305 195.303 48.4367V16.9893C195.303 10.2311 189.805 4.73146 183.047 4.73146H149.512C146.427 4.73146 146.428 0.0439453 149.512 0.0439453H183.047C192.39 0.0439453 199.992 7.64593 199.992 16.9893V48.4367C199.991 49.7316 198.941 50.7793 197.647 50.7793V50.7805ZM2.34767 50.3867C1.05391 50.3867 0.00390625 49.3367 0.00390625 48.043V16.9905C0.00390625 7.6471 7.60589 0.0451174 16.9493 0.0451174H51.6322C54.7178 0.0451174 54.7178 4.73264 51.6322 4.73264H16.9493C10.1911 4.73264 4.69142 10.2323 4.69142 16.9905V48.043C4.69142 49.3367 3.64142 50.3867 2.34767 50.3867Z" fill="#BCC7DD"/>
<path fill-rule="evenodd" clip-rule="evenodd" d="M186.275 95.2603H13.7195C10.6352 95.2603 10.6352 90.5728 13.7195 90.5728H186.274C189.359 90.5728 189.36 95.2603 186.276 95.2603H186.275Z" fill="#BCC7DD"/>
</svg>
