<svg width="144" height="144" viewBox="0 0 144 144" fill="none" xmlns="http://www.w3.org/2000/svg">
<g clip-path="url(#clip0_542_85407)">
<path d="M131.4 59.4L105.9 84.9C97.2 93.6 84.3 96.9 72.3 93C62.4 89.7 54.6 81.9 51 72.3V72C57 66.3 66.3 66.3 72 72.3C77.7 78 87 78 92.7 72.6C93 72.3 92.1 73.2 118.5 46.8C123.9 40.5 123.6 31.2 117.3 25.5C111.6 20.4 102.9 20.4 97.2 25.5C79.5 43.2 71.7 51 71.4 51.3C64.8 49.2 57.6 49.2 51 51.3C52.5 46.2 55.2 41.7 59.1 38.1L84.6 12.6C96.9 -0.900027 117.9 -1.80003 131.1 10.5C144.3 22.8 145.5 43.8 133.2 57C132.9 57.9 132 58.5 131.4 59.4Z" fill="#A5DDFF"/>
<path d="M23.0996 50.1001C22.1996 50.1001 21.5996 49.8001 20.9996 49.2001L10.4996 38.7001C9.29961 37.5001 9.29961 35.7001 10.4996 34.5001C11.6996 33.3001 13.4996 33.3001 14.6996 34.5001L25.1996 45.0001C26.3996 46.2001 26.3996 48.0001 25.1996 49.2001C24.5996 49.8001 23.6996 50.1001 23.0996 50.1001Z" fill="#FF5046"/>
<path d="M16.1997 62.1C15.5997 62.1 16.4997 62.4 3.89967 58.8C2.39967 58.2 1.49967 56.7 1.79967 55.2C2.39967 53.7 3.89967 52.8 5.39967 53.1L17.0997 56.1C18.8997 56.4 19.7997 57.9 19.7997 59.4C19.1997 61.2 17.6997 62.4 16.1997 62.1Z" fill="#FF5046"/>
<path d="M35.1005 43.2002C33.6005 43.2002 32.4004 42.3002 32.1004 41.1002L29.1004 29.4002C28.8004 27.9002 29.7004 26.1002 31.2004 25.8002C32.7004 25.5002 34.2005 26.4002 34.8005 27.9002L37.8005 39.6002C38.1005 41.1002 37.2004 42.9002 35.7004 43.2002C35.7004 42.9002 35.4005 43.2002 35.1005 43.2002Z" fill="#FF5046"/>
<path d="M133.5 10.5C119.4 -3.59995 96.6 -3.59995 82.5 10.5L57.3 36C53.7 39.6 50.7 44.1 49.2 48.9C45.3 50.4 41.7 52.5 40.2 53.7C39.6 54.3 39.3 54.9 39.3 55.8C39.3 56.7001 39.3 53.7 39.3 66C39.3 68.1 41.4 69.6 43.2 68.7L48.3 66.9C48.3 68.1 48.3 72.0001 48.3 72.6001C51 80.7001 57.9 89.1001 67.2 93.6001L44.4 116.4C39.6 121.2 32.1 121.2 27.6 116.4C22.8 111.6 22.8 104.1 27.6 99.6001L41.1 86.1001C42.3 84.9001 42 84 42 78C42 76.2 40.8 75 39 75H33V67.5C33 64.8 29.7 63.6 27.9 65.4L10.5 82.8C3.6 89.4 0 98.4001 0 108C0 140.1 39 155.7 61.5 133.5L87 108C90.6 104.4 93.6 99.9001 95.1 95.1001C99.9 93.3 104.4 90.6 108 87L133.5 61.5C147.6 47.4 147.6 24.6 133.5 10.5ZM45 61.8V57.6001C60.6 47.4001 81.9 53.7 89.1 71.4C84.3 74.4 78.3 74.1 74.1 69.9C68.7 64.5 60.6 63.3 54 66.3V63C54 60.9 51.9 59.4 50.1 60.3L45 61.8ZM93.9 67.2C90.3 60 84.6 54.0001 76.8 50.1001L99.3 27.6C104.1 22.8 111.6 22.8 116.1 27.6C120.9 32.4 120.9 39.9 116.1 44.4L93.9 67.2ZM57.3 129.3C45.6 141 26.4 141 14.7 129.3C3 117.6 3 98.7 14.7 86.7L27 74.7V78C27 79.8 28.2 81 30 81H36V82.5L23.4 95.1001C12 106.8 20.1 126 36 126C40.5 126 45.3 124.2 48.6 120.6L73.2 96.0001C78 97.2001 82.8 97.5001 87.6 96.9001C84.9 102.3 84.6 101.7 57.3 129.3ZM129.3 57.3L103.8 82.8C92.1 94.5 73.2 94.5 61.5 82.8C58.2 79.5 56.1 76.5 54.6 72.9C59.4 69.6 65.7 69.9001 69.9 74.1001C76.8 81.0001 87.6 81.3 94.8 74.7C95.4 74.4 102.6 66.9001 120.9 48.6001C127.8 41.7001 127.8 30.3 120.9 23.1C114 16.2 102.6 16.2 95.4 23.1L70.8 48C66 46.8 61.2 46.5 56.4 47.1C59.1 42 59.1 42.9 87 15C98.7 3.00005 117.6 3.00005 129.3 14.7C141 26.4001 141 45.6 129.3 57.3Z" fill="black"/>
</g>
<defs>
<clipPath id="clip0_542_85407">
<rect width="144" height="144" fill="white"/>
</clipPath>
</defs>
</svg>
