<svg width="144" height="92" viewBox="0 0 144 92" fill="none" xmlns="http://www.w3.org/2000/svg">
<path d="M117.726 3.26929H12.5232C6.98971 3.26929 2.50391 7.75509 2.50391 13.2886V73.4046C2.50391 78.9381 6.98971 83.4239 12.5232 83.4239H117.726C123.26 83.4239 127.745 78.9381 127.745 73.4046V13.2886C127.745 7.75509 123.26 3.26929 117.726 3.26929Z" fill="white"/>
<path d="M117.726 3.26929H105.202C107.859 3.26929 110.408 4.32489 112.287 6.20388C114.166 8.08287 115.221 10.6313 115.221 13.2886V65.8901C115.221 68.5474 114.166 71.0958 112.287 72.9748C110.408 74.8538 107.859 75.9094 105.202 75.9094H12.5232C9.86594 75.9094 7.31749 74.8538 5.4385 72.9748C3.55951 71.0958 2.50391 68.5474 2.50391 65.8901V73.4046C2.50391 76.0618 3.55951 78.6103 5.4385 80.4893C7.31749 82.3683 9.86594 83.4239 12.5232 83.4239H117.726C120.383 83.4239 122.932 82.3683 124.811 80.4893C126.69 78.6103 127.745 76.0618 127.745 73.4046V13.2886C127.745 10.6313 126.69 8.08287 124.811 6.20388C122.932 4.32489 120.383 3.26929 117.726 3.26929Z" fill="white"/>
<path d="M35.0682 38.337C40.6017 38.337 45.0875 33.8512 45.0875 28.3177C45.0875 22.7841 40.6017 18.2983 35.0682 18.2983C29.5346 18.2983 25.0488 22.7841 25.0488 28.3177C25.0488 33.8512 29.5346 38.337 35.0682 38.337Z" fill="#FF5046" fill-opacity="0.7"/>
<path d="M45.0871 28.3175C45.0875 29.6333 44.8286 30.9363 44.3252 32.1521C43.8218 33.3679 43.0838 34.4725 42.1533 35.403C41.2229 36.3334 40.1182 37.0714 38.9024 37.5748C37.6867 38.0782 36.3837 38.3371 35.0678 38.3368C33.7771 38.3467 32.4982 38.0909 31.3105 37.5853C33.1599 36.8416 34.7444 35.5616 35.8604 33.91C36.9763 32.2584 37.5726 30.3107 37.5726 28.3175C37.5726 26.3242 36.9763 24.3765 35.8604 22.7249C34.7444 21.0733 33.1599 19.7933 31.3105 19.0496C32.4981 18.544 33.7771 18.2882 35.0678 18.2981C36.3837 18.2978 37.6867 18.5567 38.9025 19.06C40.1182 19.5634 41.2229 20.3014 42.1534 21.2319C43.0838 22.1623 43.8218 23.267 44.3252 24.4828C44.8286 25.6986 45.0875 27.0016 45.0871 28.3175Z" fill="#FF5046" fill-opacity="0.6"/>
<path d="M40.5 38H30.5C27.1848 38 24.0054 39.4926 21.6612 42.1493C19.317 44.8061 18 48.4094 18 52.1667V55H53V52.1667C53 50.3063 52.6767 48.4641 52.0485 46.7453C51.4203 45.0265 50.4996 43.4648 49.3388 42.1493C48.1781 40.8338 46.8001 39.7903 45.2835 39.0784C43.767 38.3664 42.1415 38 40.5 38Z" fill="#A5DDFF"/>
<path d="M112.717 25.8127H67.6305C66.9661 25.8127 66.329 25.5488 65.8593 25.0791C65.3895 24.6093 65.1256 23.9722 65.1256 23.3079C65.1256 22.6436 65.3895 22.0065 65.8593 21.5367C66.329 21.067 66.9661 20.8031 67.6305 20.8031H112.717C113.382 20.8031 114.019 21.067 114.489 21.5367C114.958 22.0065 115.222 22.6436 115.222 23.3079C115.222 23.9722 114.958 24.6093 114.489 25.0791C114.019 25.5488 113.382 25.8127 112.717 25.8127ZM80.1546 83.4238C80.1548 83.7528 80.0901 84.0786 79.9643 84.3826C79.8385 84.6866 79.654 84.9628 79.4214 85.1954C79.1888 85.4281 78.9125 85.6126 78.6086 85.7384C78.3046 85.8642 77.9788 85.9289 77.6498 85.9287H12.5242C9.20374 85.9248 6.02044 84.604 3.67255 82.2561C1.32466 79.9082 0.00389794 76.7249 0 73.4045V13.2886C0.00389794 9.96814 1.32466 6.78484 3.67255 4.43695C6.02044 2.08906 9.20374 0.768302 12.5242 0.764404H117.727C121.048 0.768302 124.231 2.08906 126.579 4.43695C128.927 6.78484 130.247 9.96814 130.251 13.2886V28.3175C130.251 28.9819 129.987 29.619 129.518 30.0887C129.048 30.5585 128.411 30.8224 127.746 30.8224C127.082 30.8224 126.445 30.5585 125.975 30.0887C125.505 29.619 125.242 28.9819 125.242 28.3175V13.2886C125.239 11.2963 124.447 9.38618 123.038 7.97741C121.629 6.56864 119.719 5.77624 117.727 5.77407H12.5242C10.5319 5.77624 8.62178 6.56864 7.21301 7.97741C5.80424 9.38618 5.01184 11.2963 5.00966 13.2886V73.4045C5.01184 75.3968 5.80424 77.3069 7.21301 78.7157C8.62178 80.1244 10.5319 80.9168 12.5242 80.919H77.6498C77.9788 80.9188 78.3046 80.9835 78.6086 81.1093C78.9125 81.2351 79.1888 81.4196 79.4214 81.6522C79.654 81.8849 79.8385 82.1611 79.9643 82.4651C80.0901 82.7691 80.1548 83.0948 80.1546 83.4238ZM90.1739 35.832C90.8383 35.832 91.4754 36.0959 91.9451 36.5657C92.4149 37.0354 92.6788 37.6726 92.6788 38.3369C92.6788 39.0012 92.4149 39.6383 91.9451 40.1081C91.4754 40.5778 90.8383 40.8417 90.1739 40.8417H67.6305C66.9661 40.8417 66.329 40.5778 65.8593 40.1081C65.3895 39.6383 65.1256 39.0012 65.1256 38.3369C65.1256 37.6726 65.3895 37.0354 65.8593 36.5657C66.329 36.0959 66.9661 35.832 67.6305 35.832H90.1739ZM44.4779 36.4925C46.067 34.6831 47.1009 32.454 47.4555 30.0722C47.8102 27.6903 47.4707 25.2567 46.4777 23.0628C45.4846 20.869 43.8802 19.0079 41.8565 17.7026C39.8328 16.3973 37.4758 15.703 35.0676 15.703C32.6595 15.703 30.3024 16.3973 28.2788 17.7026C26.2551 19.0079 24.6507 20.869 23.6576 23.0628C22.6646 25.2567 22.3251 27.6903 22.6797 30.0722C23.0344 32.454 24.0683 34.6831 25.6574 36.4925C22.5832 37.4378 19.8926 39.343 17.98 41.9287C16.0673 44.5144 15.0331 47.6448 15.029 50.861V53.3659C15.029 54.0302 15.2929 54.6673 15.7626 55.137C16.2324 55.6068 16.8695 55.8707 17.5338 55.8707C18.1981 55.8707 18.8353 55.6068 19.305 55.137C19.7748 54.6673 20.0387 54.0302 20.0387 53.3659V50.861C20.0413 48.2046 21.0978 45.6576 22.9762 43.7792C24.8546 41.9008 27.4015 40.8444 30.058 40.8417H40.0773C42.7338 40.8444 45.2807 41.9008 47.1591 43.7792C49.0375 45.6576 50.094 48.2046 50.0966 50.861V53.3659C50.0966 54.0302 50.3605 54.6673 50.8303 55.137C51.3 55.6068 51.9371 55.8707 52.6015 55.8707C53.2658 55.8707 53.9029 55.6068 54.3726 55.137C54.8424 54.6673 55.1063 54.0302 55.1063 53.3659V50.861C55.1021 47.6448 54.068 44.5144 52.1553 41.9287C50.2426 39.343 47.5521 37.4378 44.4779 36.4925ZM35.0676 35.832C33.5814 35.832 32.1286 35.3913 30.8928 34.5656C29.6571 33.7399 28.6939 32.5663 28.1252 31.1932C27.5564 29.8201 27.4076 28.3092 27.6975 26.8515C27.9875 25.3939 28.7032 24.0549 29.7541 23.004C30.805 21.9531 32.144 21.2374 33.6016 20.9474C35.0593 20.6575 36.5702 20.8063 37.9433 21.3751C39.3164 21.9438 40.49 22.907 41.3157 24.1427C42.1414 25.3785 42.5821 26.8313 42.5821 28.3175C42.58 30.3098 41.7876 32.2199 40.3788 33.6287C38.97 35.0375 37.0599 35.8299 35.0676 35.832ZM85.1643 53.3659C85.1645 53.6949 85.0998 54.0207 84.974 54.3246C84.8482 54.6286 84.6637 54.9048 84.431 55.1375C84.1984 55.3701 83.9222 55.5546 83.6182 55.6804C83.3142 55.8062 82.9884 55.8709 82.6594 55.8707H67.6305C66.9661 55.8707 66.329 55.6068 65.8593 55.137C65.3895 54.6673 65.1256 54.0302 65.1256 53.3659C65.1256 52.7015 65.3895 52.0644 65.8593 51.5947C66.329 51.1249 66.9661 50.861 67.6305 50.861H82.6594C82.9884 50.8608 83.3142 50.9255 83.6182 51.0513C83.9222 51.1771 84.1984 51.3616 84.431 51.5943C84.6637 51.8269 84.8482 52.1031 84.974 52.4071C85.0998 52.7111 85.1645 53.0369 85.1643 53.3659ZM17.5338 65.89H67.6305C68.2948 65.89 68.9319 66.1539 69.4016 66.6237C69.8714 67.0934 70.1353 67.7305 70.1353 68.3949C70.1353 69.0592 69.8714 69.6963 69.4016 70.166C68.9319 70.6358 68.2948 70.8997 67.6305 70.8997H17.5338C16.8695 70.8997 16.2324 70.6358 15.7626 70.166C15.2929 69.6963 15.029 69.0592 15.029 68.3949C15.029 67.7305 15.2929 67.0934 15.7626 66.6237C16.2324 66.1539 16.8695 65.89 17.5338 65.89Z" fill="black"/>
<path d="M140.662 64.6026C140.662 78.5924 129.321 89.9336 115.331 89.9336C101.341 89.9336 90 78.5924 90 64.6026C90 50.6124 101.341 39.2716 115.331 39.2716C129.321 39.2716 140.662 50.6124 140.662 64.6026Z" fill="#FF5046"/>
<path d="M111.5 66.2931C111.5 68.5214 113.384 70.1875 115.531 70.1875C117.678 70.1875 119.562 68.5214 119.562 66.2931V51.3944C119.562 49.1661 117.678 47.5 115.531 47.5C113.384 47.5 111.5 49.1661 111.5 51.3944V66.2931Z" fill="white" stroke="black" stroke-width="3"/>
<path d="M115.531 82.5625C117.758 82.5625 119.562 80.7577 119.562 78.5312C119.562 76.3048 117.758 74.5 115.531 74.5C113.305 74.5 111.5 76.3048 111.5 78.5312C111.5 80.7577 113.305 82.5625 115.531 82.5625Z" fill="white" stroke="black" stroke-width="3"/>
<path d="M115.729 39.2715C113.953 39.2715 112.22 39.4559 110.547 39.8039C122.051 42.1961 130.695 52.3889 130.695 64.6025C130.695 76.8164 122.051 87.0092 110.547 89.4014C112.22 89.7493 113.953 89.9338 115.729 89.9338C129.719 89.9338 141.06 78.5926 141.06 64.6025C141.06 50.6127 129.719 39.2715 115.729 39.2715Z" fill="#FF5046" fill-opacity="0.8"/>
<path d="M137.687 51.964C139.833 55.684 141.061 59.9999 141.061 64.6026C141.061 78.5924 129.72 89.9336 115.729 89.9336C101.74 89.9336 90.3984 78.5924 90.3984 64.6026C90.3984 50.6124 101.74 39.2716 115.729 39.2716C120.789 39.2716 125.501 40.7544 129.456 43.3094" stroke="black" stroke-width="4" stroke-miterlimit="10" stroke-linecap="round" stroke-linejoin="round"/>
</svg>
