<svg width="121" height="145" viewBox="0 0 121 145" fill="none" xmlns="http://www.w3.org/2000/svg">
<path d="M71.9991 3.00098H12C7.02944 3.00098 3 7.03041 3 12.001V132.002C3 136.972 7.02944 141.002 12 141.002H71.9991C76.9696 141.002 80.9991 136.972 80.9991 132.002V12.001C80.9991 7.03041 76.9696 3.00098 71.9991 3.00098Z" fill="#A5DDFF"/>
<path d="M72.0028 144H67.7166C67.3149 144.012 66.9149 143.944 66.5403 143.799C66.1656 143.653 65.8239 143.434 65.5354 143.155C65.247 142.875 65.0177 142.54 64.8611 142.17C64.7045 141.8 64.6238 141.402 64.6238 141C64.6238 140.599 64.7045 140.201 64.8611 139.831C65.0177 139.461 65.247 139.126 65.5354 138.846C65.8239 138.567 66.1656 138.348 66.5403 138.202C66.9149 138.057 67.3149 137.989 67.7166 138.001H72.0028C73.5937 137.999 75.1187 137.366 76.2433 136.24C77.368 135.115 78.0004 133.59 78.0019 131.999V12.0009C77.9996 10.4106 77.3669 8.88598 76.2423 7.76143C75.1178 6.63687 73.5932 6.00411 72.0028 6.00187H12.0009C10.4106 6.00411 8.88598 6.63687 7.76142 7.76143C6.63687 8.88598 6.00411 10.4106 6.00187 12.0009V131.999C6.00411 133.589 6.63687 135.114 7.76142 136.239C8.88598 137.363 10.4106 137.996 12.0009 137.998H43.7175C44.1191 137.986 44.5191 138.054 44.8938 138.2C45.2685 138.345 45.6102 138.564 45.8986 138.843C46.1871 139.123 46.4164 139.458 46.573 139.828C46.7296 140.198 46.8103 140.596 46.8103 140.998C46.8103 141.399 46.7296 141.797 46.573 142.167C46.4164 142.537 46.1871 142.872 45.8986 143.152C45.6102 143.432 45.2685 143.651 44.8938 143.796C44.5191 143.941 44.1191 144.009 43.7175 143.997H12.0009C8.819 143.994 5.76825 142.729 3.51828 140.479C1.26831 138.229 0.00297864 135.178 0 131.996V12.0009C0.00372173 8.81923 1.2693 5.76891 3.5191 3.5191C5.76891 1.2693 8.81923 0.00372173 12.0009 0L72.0028 0C75.1845 0.00372173 78.2348 1.2693 80.4846 3.5191C82.7345 5.76891 84 8.81923 84.0037 12.0009V131.999C84.0008 135.181 82.7354 138.232 80.4855 140.482C78.2355 142.732 75.1847 143.997 72.0028 144ZM58.7166 144H52.7175C51.9379 143.976 51.1982 143.65 50.6551 143.09C50.1121 142.53 49.8084 141.78 49.8084 141C49.8084 140.22 50.1121 139.471 50.6551 138.911C51.1982 138.351 51.9379 138.025 52.7175 138.001H58.7166C59.1182 137.989 59.5182 138.057 59.8929 138.202C60.2675 138.348 60.6092 138.567 60.8977 138.846C61.1861 139.126 61.4154 139.461 61.5721 139.831C61.7287 140.201 61.8094 140.599 61.8094 141C61.8094 141.402 61.7287 141.8 61.5721 142.17C61.4154 142.54 61.1861 142.875 60.8977 143.155C60.6092 143.434 60.2675 143.653 59.8929 143.799C59.5182 143.944 59.1182 144.012 58.7166 144Z" fill="black"/>
<path d="M55.3158 14.999H28.687C27.3506 14.9969 26.0532 14.5486 25.0005 13.7252C23.9479 12.9018 23.2003 11.7505 22.8764 10.454L21.0117 2.99805H63.0023L61.1264 10.454C60.8025 11.7505 60.0549 12.9018 59.0023 13.7252C57.9496 14.5486 56.6522 14.9969 55.3158 14.999Z" fill="white"/>
<path d="M55.3175 18H28.6887C26.6837 17.9972 24.737 17.3249 23.1575 16.0899C21.5781 14.8548 20.4562 13.1277 19.97 11.1825L18.0969 3.72656C17.9868 3.28477 17.9786 2.82373 18.0731 2.37834C18.1676 1.93294 18.3621 1.51488 18.6421 1.15581C18.922 0.796744 19.28 0.506079 19.6889 0.30583C20.0978 0.105581 20.5469 0.00099742 21.0022 0L63.0041 0C63.4594 0.00099742 63.9085 0.105581 64.3174 0.30583C64.7262 0.506079 65.0842 0.796744 65.3642 1.15581C65.6441 1.51488 65.8387 1.93294 65.9331 2.37834C66.0276 2.82373 66.0195 3.28477 65.9094 3.72656L64.0447 11.1825C63.5581 13.1291 62.435 14.8573 60.8538 16.0925C59.2726 17.3277 57.324 17.9991 55.3175 18ZM24.8469 5.99906L25.7778 9.72563C25.9393 10.3752 26.3138 10.952 26.8414 11.3639C27.369 11.7757 28.0194 11.9991 28.6887 11.9981H55.3203C55.9897 11.9991 56.64 11.7757 57.1677 11.3639C57.6953 10.952 58.0697 10.3752 58.2312 9.72563L59.1594 5.99906H24.8469Z" fill="black"/>
<path d="M118.121 105.06C118.121 119.452 106.453 131.12 92.0604 131.12C77.6676 131.12 66 119.452 66 105.06C66 90.6672 77.6676 79 92.0604 79C106.453 79 118.121 90.6672 118.121 105.06Z" fill="#FFA71C"/>
<path d="M87.5 106.293C87.5 108.521 89.3844 110.188 91.5312 110.188C93.6781 110.188 95.5625 108.521 95.5625 106.293V91.3944C95.5625 89.1661 93.6781 87.5 91.5312 87.5C89.3844 87.5 87.5 89.1661 87.5 91.3944V106.293Z" fill="white" stroke="black" stroke-width="3"/>
<path d="M91.5312 122.562C93.7577 122.562 95.5625 120.758 95.5625 118.531C95.5625 116.305 93.7577 114.5 91.5312 114.5C89.3048 114.5 87.5 116.305 87.5 118.531C87.5 120.758 89.3048 122.562 91.5312 122.562Z" fill="white" stroke="black" stroke-width="3"/>
<path d="M92.0581 78.9996C90.2308 78.9996 88.448 79.1894 86.7266 79.5473C98.5616 82.0084 107.455 92.4946 107.455 105.06C107.455 117.625 98.5616 128.111 86.7266 130.572C88.448 130.93 90.2308 131.12 92.0581 131.12C106.451 131.12 118.118 119.452 118.118 105.06C118.118 90.6672 106.451 78.9996 92.0581 78.9996Z" fill="#FFA71C"/>
<path d="M114.65 92.0577C116.858 95.8847 118.121 100.325 118.121 105.06C118.121 119.452 106.453 131.12 92.0601 131.12C77.6676 131.12 66 119.452 66 105.06C66 90.6672 77.6676 79 92.0601 79C97.2648 79 102.113 80.5255 106.182 83.154" stroke="black" stroke-width="5" stroke-miterlimit="10" stroke-linecap="round" stroke-linejoin="round"/>
</svg>
