<svg width="122" height="145" viewBox="0 0 122 145" fill="none" xmlns="http://www.w3.org/2000/svg">
<path d="M72.9991 3H13C8.02944 3 4 7.02944 4 12V132.001C4 136.971 8.02944 141.001 13 141.001H72.9991C77.9696 141.001 81.9991 136.971 81.9991 132.001V12C81.9991 7.02944 77.9696 3 72.9991 3Z" fill="#A5DDFF"/>
<path d="M73.0009 144H68.7146C68.313 144.012 67.913 143.944 67.5383 143.799C67.1636 143.653 66.8219 143.434 66.5335 143.155C66.245 142.875 66.0157 142.54 65.8591 142.17C65.7025 141.8 65.6218 141.402 65.6218 141C65.6218 140.599 65.7025 140.201 65.8591 139.831C66.0157 139.461 66.245 139.126 66.5335 138.846C66.8219 138.567 67.1636 138.348 67.5383 138.202C67.913 138.057 68.313 137.989 68.7146 138.001H73.0009C74.5917 137.999 76.1167 137.366 77.2414 136.24C78.366 135.115 78.9984 133.59 78.9999 131.999V12.0009C78.9977 10.4106 78.3649 8.88598 77.2404 7.76143C76.1158 6.63687 74.5912 6.00411 73.0009 6.00187H12.999C11.4086 6.00411 9.88403 6.63687 8.75947 7.76143C7.63491 8.88598 7.00215 10.4106 6.99992 12.0009V131.999C7.00215 133.589 7.63491 135.114 8.75947 136.239C9.88403 137.363 11.4086 137.996 12.999 137.998H44.7155C45.1172 137.986 45.5172 138.054 45.8919 138.2C46.2665 138.345 46.6082 138.564 46.8967 138.843C47.1851 139.123 47.4144 139.458 47.571 139.828C47.7276 140.198 47.8083 140.596 47.8083 140.998C47.8083 141.399 47.7276 141.797 47.571 142.167C47.4144 142.537 47.1851 142.872 46.8967 143.152C46.6082 143.432 46.2665 143.651 45.8919 143.796C45.5172 143.941 45.1172 144.009 44.7155 143.997H12.999C9.81705 143.994 6.7663 142.729 4.51633 140.479C2.26636 138.229 1.00103 135.178 0.998047 131.996V12.0009C1.00177 8.81923 2.26734 5.76891 4.51715 3.5191C6.76696 1.2693 9.81728 0.00372173 12.999 0L73.0009 0C76.1826 0.00372173 79.2329 1.2693 81.4827 3.5191C83.7325 5.76891 84.9981 8.81923 85.0018 12.0009V131.999C84.9988 135.181 83.7335 138.232 81.4835 140.482C79.2335 142.732 76.1828 143.997 73.0009 144ZM59.7146 144H53.7155C52.9359 143.976 52.1962 143.65 51.6532 143.09C51.1102 142.53 50.8065 141.78 50.8065 141C50.8065 140.22 51.1102 139.471 51.6532 138.911C52.1962 138.351 52.9359 138.025 53.7155 138.001H59.7146C60.1162 137.989 60.5163 138.057 60.8909 138.202C61.2656 138.348 61.6073 138.567 61.8957 138.846C62.1842 139.126 62.4135 139.461 62.5701 139.831C62.7267 140.201 62.8074 140.599 62.8074 141C62.8074 141.402 62.7267 141.8 62.5701 142.17C62.4135 142.54 62.1842 142.875 61.8957 143.155C61.6073 143.434 61.2656 143.653 60.8909 143.799C60.5163 143.944 60.1162 144.012 59.7146 144Z" fill="black"/>
<path d="M56.3138 14.999H29.6851C28.3487 14.9969 27.0512 14.5486 25.9986 13.7252C24.946 12.9018 24.1984 11.7505 23.8745 10.454L22.0098 2.99805H64.0004L62.1245 10.454C61.8005 11.7505 61.053 12.9018 60.0003 13.7252C58.9477 14.5486 57.6502 14.9969 56.3138 14.999Z" fill="white"/>
<path d="M56.3136 18H29.6848C27.6798 17.9972 25.7331 17.3249 24.1536 16.0899C22.5741 14.8548 21.4523 13.1277 20.9661 11.1825L19.093 3.72656C18.9829 3.28477 18.9747 2.82373 19.0692 2.37834C19.1637 1.93294 19.3582 1.51488 19.6382 1.15581C19.9181 0.796744 20.2761 0.506079 20.685 0.30583C21.0939 0.105581 21.543 0.00099742 21.9983 0L64.0002 0C64.4554 0.00099742 64.9045 0.105581 65.3134 0.30583C65.7223 0.506079 66.0803 0.796744 66.3603 1.15581C66.6402 1.51488 66.8348 1.93294 66.9292 2.37834C67.0237 2.82373 67.0156 3.28477 66.9055 3.72656L65.0408 11.1825C64.5542 13.1291 63.4311 14.8573 61.8499 16.0925C60.2687 17.3277 58.3201 17.9991 56.3136 18ZM25.843 5.99906L26.7739 9.72563C26.9354 10.3752 27.3099 10.952 27.8375 11.3639C28.3651 11.7757 29.0155 11.9991 29.6848 11.9981H56.3164C56.9858 11.9991 57.6361 11.7757 58.1637 11.3639C58.6914 10.952 59.0658 10.3752 59.2273 9.72563L60.1555 5.99906H25.843Z" fill="black"/>
<path d="M119.121 105.061C119.121 119.453 107.453 131.121 93.0604 131.121C78.6676 131.121 67 119.453 67 105.061C67 90.6682 78.6676 79.0009 93.0604 79.0009C107.453 79.0009 119.121 90.6682 119.121 105.061Z" fill="#FFA71C"/>
<path d="M88.5 106.293C88.5 108.521 90.3844 110.188 92.5312 110.188C94.6781 110.188 96.5625 108.521 96.5625 106.293V91.3944C96.5625 89.1661 94.6781 87.5 92.5312 87.5C90.3844 87.5 88.5 89.1661 88.5 91.3944V106.293Z" fill="white" stroke="black" stroke-width="3"/>
<path d="M92.5312 122.562C94.7577 122.562 96.5625 120.758 96.5625 118.531C96.5625 116.305 94.7577 114.5 92.5312 114.5C90.3048 114.5 88.5 116.305 88.5 118.531C88.5 120.758 90.3048 122.562 92.5312 122.562Z" fill="white" stroke="black" stroke-width="3"/>
<path d="M93.0601 79.0006C91.2328 79.0006 89.4499 79.1904 87.7285 79.5483C99.5636 82.0094 108.457 92.4955 108.457 105.061C108.457 117.626 99.5636 128.112 87.7285 130.573C89.4499 130.931 91.2328 131.121 93.0601 131.121C107.453 131.121 119.12 119.453 119.12 105.061C119.12 90.6682 107.453 79.0006 93.0601 79.0006Z" fill="#FFA71C"/>
<path d="M115.65 92.0587C117.858 95.8857 119.121 100.326 119.121 105.061C119.121 119.453 107.453 131.121 93.0601 131.121C78.6676 131.121 67 119.453 67 105.061C67 90.6682 78.6676 79.0009 93.0601 79.0009C98.2648 79.0009 103.113 80.5265 107.182 83.1549" stroke="black" stroke-width="5" stroke-miterlimit="10" stroke-linecap="round" stroke-linejoin="round"/>
</svg>
