<svg width="107" height="145" viewBox="0 0 107 145" fill="none" xmlns="http://www.w3.org/2000/svg">
<path d="M104.518 142.107H2V1.99939H104.518V142.107Z" fill="white"/>
<path d="M49.5428 59.56C50.5863 60.594 51.1725 61.9963 51.1725 63.4586C51.1668 63.7509 51.137 64.0423 51.0835 64.3298L62.3157 70.3946C62.9556 69.8153 63.7248 69.3946 64.5605 69.1668C65.3961 68.939 66.2744 68.9107 67.1232 69.0842L72.8617 59.5992C72.0334 58.6204 71.5779 57.3846 71.5745 56.1073C71.5745 55.0168 71.9009 53.9508 72.5123 53.0441C73.1237 52.1374 73.9927 51.4308 75.0094 51.0134C76.0261 50.5961 77.1449 50.487 78.2242 50.6997C79.3036 50.9124 80.295 51.4375 81.0732 52.2086C81.8514 52.9797 82.3813 53.9621 82.596 55.0316C82.8107 56.1012 82.7005 57.2097 82.2794 58.2172C81.8582 59.2247 81.145 60.0858 80.23 60.6916C79.315 61.2974 78.2392 61.6208 77.1387 61.6208C76.7649 61.621 76.392 61.5834 76.0259 61.5087L70.2873 70.9937C71.1157 71.9725 71.5712 73.2083 71.5745 74.4856C71.5745 75.9479 70.9883 77.3503 69.9448 78.3843C68.9013 79.4183 67.4861 79.9992 66.0103 79.9992C64.5346 79.9992 63.1194 79.4183 62.0759 78.3843C61.0324 77.3503 60.4462 75.9479 60.4462 74.4856C60.4519 74.1933 60.4817 73.902 60.5352 73.6145L49.3029 67.5496C48.4557 68.3233 47.382 68.8096 46.2372 68.9382C45.0924 69.0667 43.9361 68.8308 42.9357 68.2646L34.0645 76.0919C34.3374 76.7484 34.4785 77.4513 34.4799 78.1613C34.4799 79.2518 34.1536 80.3178 33.5422 81.2245C32.9308 82.1312 32.0618 82.8378 31.0451 83.2551C30.0284 83.6724 28.9096 83.7816 27.8302 83.5689C26.7509 83.3561 25.7594 82.831 24.9813 82.06C24.2031 81.2889 23.6732 80.3065 23.4585 79.2369C23.2438 78.1674 23.354 77.0589 23.7751 76.0514C24.1963 75.0439 24.9094 74.1828 25.8245 73.577C26.7395 72.9712 27.8153 72.6478 28.9158 72.6478C29.853 72.6538 30.7731 72.8974 31.5884 73.3554L40.4596 65.528C40.1867 64.8715 40.0456 64.1686 40.0441 63.4586C40.0441 61.9963 40.6304 60.594 41.6738 59.56C42.7173 58.526 44.1326 57.9451 45.6083 57.9451C47.084 57.9451 48.4993 58.526 49.5428 59.56Z" fill="black"/>
<path d="M27.8848 79.6895C28.1899 79.8915 28.5484 79.9993 28.9153 79.9993C29.4072 79.9993 29.8789 79.8056 30.2268 79.461C30.5746 79.1163 30.77 78.6488 30.77 78.1614C30.77 77.7979 30.6612 77.4426 30.4574 77.1404C30.2536 76.8381 29.964 76.6026 29.625 76.4635C29.2861 76.3244 28.9132 76.288 28.5534 76.3589C28.1937 76.4298 27.8632 76.6048 27.6038 76.8619C27.3444 77.1189 27.1678 77.4464 27.0962 77.8029C27.0246 78.1594 27.0614 78.5289 27.2017 78.8647C27.3421 79.2006 27.5798 79.4876 27.8848 79.6895Z" fill="#FF5046"/>
<path d="M44.5774 64.9868C44.8824 65.1888 45.241 65.2966 45.6078 65.2966C46.0997 65.2966 46.5715 65.1029 46.9193 64.7583C47.2672 64.4136 47.4626 63.9461 47.4626 63.4587C47.4626 63.0952 47.3538 62.7399 47.15 62.4377C46.9462 62.1354 46.6565 61.8999 46.3176 61.7608C45.9787 61.6217 45.6058 61.5853 45.246 61.6562C44.8862 61.7271 44.5557 61.9021 44.2964 62.1592C44.037 62.4162 43.8603 62.7437 43.7888 63.1002C43.7172 63.4567 43.7539 63.8262 43.8943 64.162C44.0347 64.4979 44.2724 64.7849 44.5774 64.9868Z" fill="#FF5046"/>
<path d="M78.1687 54.5793C77.8637 54.3773 77.5051 54.2695 77.1382 54.2695C76.6463 54.2695 76.1746 54.4632 75.8267 54.8078C75.4789 55.1525 75.2835 55.6199 75.2835 56.1074C75.2835 56.4709 75.3923 56.8262 75.5961 57.1284C75.7999 57.4306 76.0896 57.6662 76.4285 57.8053C76.7674 57.9444 77.1403 57.9808 77.5001 57.9099C77.8599 57.839 78.1903 57.6639 78.4497 57.4069C78.7091 57.1499 78.8858 56.8224 78.9573 56.4659C79.0289 56.1094 78.9922 55.7399 78.8518 55.4041C78.7114 55.0682 78.4737 54.7812 78.1687 54.5793Z" fill="#FF5046"/>
<path d="M67.0403 72.9576C66.7353 72.7557 66.3767 72.6479 66.0099 72.6479C65.518 72.6479 65.0462 72.8415 64.6984 73.1862C64.3505 73.5309 64.1551 73.9983 64.1551 74.4857C64.1551 74.8492 64.2639 75.2046 64.4677 75.5068C64.6715 75.809 64.9612 76.0446 65.3001 76.1837C65.639 76.3228 66.0119 76.3592 66.3717 76.2883C66.7315 76.2174 67.062 76.0423 67.3214 75.7853C67.5808 75.5283 67.7574 75.2008 67.829 74.8443C67.9005 74.4878 67.8638 74.1183 67.7234 73.7824C67.583 73.4466 67.3453 73.1596 67.0403 72.9576Z" fill="#FF5046"/>
<path d="M27.8848 79.6895C28.1899 79.8915 28.5484 79.9993 28.9153 79.9993C29.4072 79.9993 29.8789 79.8056 30.2268 79.461C30.5746 79.1163 30.77 78.6488 30.77 78.1614C30.77 77.7979 30.6612 77.4426 30.4574 77.1404C30.2536 76.8381 29.964 76.6026 29.625 76.4635C29.2861 76.3244 28.9132 76.288 28.5534 76.3589C28.1937 76.4298 27.8632 76.6048 27.6038 76.8619C27.3444 77.1189 27.1678 77.4464 27.0962 77.8029C27.0246 78.1594 27.0614 78.5289 27.2017 78.8647C27.3421 79.2006 27.5798 79.4876 27.8848 79.6895Z" stroke="#FF5046" stroke-width="2"/>
<path d="M44.5774 64.9868C44.8824 65.1888 45.241 65.2966 45.6078 65.2966C46.0997 65.2966 46.5715 65.1029 46.9193 64.7583C47.2672 64.4136 47.4626 63.9461 47.4626 63.4587C47.4626 63.0952 47.3538 62.7399 47.15 62.4377C46.9462 62.1354 46.6565 61.8999 46.3176 61.7608C45.9787 61.6217 45.6058 61.5853 45.246 61.6562C44.8862 61.7271 44.5557 61.9021 44.2964 62.1592C44.037 62.4162 43.8603 62.7437 43.7888 63.1002C43.7172 63.4567 43.7539 63.8262 43.8943 64.162C44.0347 64.4979 44.2724 64.7849 44.5774 64.9868Z" stroke="#FF5046" stroke-width="2"/>
<path d="M78.1687 54.5793C77.8637 54.3773 77.5051 54.2695 77.1382 54.2695C76.6463 54.2695 76.1746 54.4632 75.8267 54.8078C75.4789 55.1525 75.2835 55.6199 75.2835 56.1074C75.2835 56.4709 75.3923 56.8262 75.5961 57.1284C75.7999 57.4306 76.0896 57.6662 76.4285 57.8053C76.7674 57.9444 77.1403 57.9808 77.5001 57.9099C77.8599 57.839 78.1903 57.6639 78.4497 57.4069C78.7091 57.1499 78.8858 56.8224 78.9573 56.4659C79.0289 56.1094 78.9922 55.7399 78.8518 55.4041C78.7114 55.0682 78.4737 54.7812 78.1687 54.5793Z" stroke="#FF5046" stroke-width="2"/>
<path d="M67.0403 72.9576C66.7353 72.7557 66.3767 72.6479 66.0099 72.6479C65.518 72.6479 65.0462 72.8415 64.6984 73.1862C64.3505 73.5309 64.1551 73.9983 64.1551 74.4857C64.1551 74.8492 64.2639 75.2046 64.4677 75.5068C64.6715 75.809 64.9612 76.0446 65.3001 76.1837C65.639 76.3228 66.0119 76.3592 66.3717 76.2883C66.7315 76.2174 67.062 76.0423 67.3214 75.7853C67.5808 75.5283 67.7574 75.2008 67.829 74.8443C67.9005 74.4878 67.8638 74.1183 67.7234 73.7824C67.583 73.4466 67.3453 73.1596 67.0403 72.9576Z" stroke="#FF5046" stroke-width="2"/>
<path d="M67.7187 115.285C46.009 129.657 23.1599 138.648 2.31055 142.107H104.519V83.4151C94.4923 94.8718 82.0935 105.77 67.7187 115.285Z" fill="#A5DDFF" fill-opacity="0.2"/>
<path d="M81.0547 133.193H94.6919V82.054H81.0547V133.193Z" fill="#95E540"/>
<path d="M94.6919 94.416C90.4459 98.4868 85.895 102.446 81.0547 106.251V133.193H94.6919V94.416Z" fill="#95E540"/>
<path d="M94.6914 99.3373V133.191H81.0566V82.0545H94.6914V89.4936" stroke="black" stroke-width="4" stroke-miterlimit="10" stroke-linecap="round" stroke-linejoin="round"/>
<path d="M25.3519 32.1657V17.9271C17.4881 17.9271 11.1133 24.3019 11.1133 32.1657C11.1133 40.0295 17.4881 46.4043 25.3519 46.4043C33.216 46.4043 39.5905 40.0295 39.5905 32.1657H25.3519Z" fill="#FFA71C"/>
<path d="M25.3516 17.9274V32.166H39.5901C39.5901 24.3022 33.2157 17.9274 25.3516 17.9274Z" fill="#95E540"/>
<path opacity="0.3" d="M12.252 132.996H25.9211V123.883H12.252V132.996Z" fill="#A5DDFF"/>
<path opacity="0.3" d="M35.0332 132.996H48.7021V110.214H35.0332V132.996Z" fill="#FFA71C"/>
<path d="M48.7021 126.383C44.1464 128.702 39.5812 130.791 35.0332 132.648V132.996H48.7021V126.383Z" fill="#FFA71C"/>
<path opacity="0.3" d="M57.8164 132.996H71.4853V93.1279H57.8164V132.996Z" fill="#FF5046"/>
<path d="M71.4853 112.723C70.2435 113.586 68.9915 114.444 67.7187 115.287C64.4404 117.457 61.1356 119.502 57.8164 121.426V132.996H71.4853V112.723Z" fill="#FF5046"/>
<path d="M2 102.432V1.99927H104.518V17.4055" stroke="black" stroke-width="4" stroke-miterlimit="10" stroke-linecap="round" stroke-linejoin="round"/>
<path d="M104.518 27.2724V142.107H2V112.299" stroke="black" stroke-width="4" stroke-miterlimit="10" stroke-linecap="round" stroke-linejoin="round"/>
<path d="M25.3516 17.9274V32.166H39.5901" stroke="black" stroke-width="4" stroke-miterlimit="10" stroke-linecap="round" stroke-linejoin="round"/>
<path d="M39.5905 32.1657C39.5905 40.0295 33.216 46.4043 25.3519 46.4043C17.4883 46.4043 11.1133 40.0295 11.1133 32.1657C11.1133 24.3019 17.4883 17.9271 25.3519 17.9271C33.216 17.9271 39.5905 24.3019 39.5905 32.1657Z" stroke="black" stroke-width="4" stroke-miterlimit="10" stroke-linecap="round" stroke-linejoin="round"/>
<path d="M12.252 132.996H25.9211V123.883H12.252V132.996Z" stroke="black" stroke-width="4" stroke-miterlimit="10" stroke-linecap="round" stroke-linejoin="round"/>
<path d="M35.0332 132.996H48.7021V110.214H35.0332V132.996Z" stroke="black" stroke-width="4" stroke-miterlimit="10" stroke-linecap="round" stroke-linejoin="round"/>
<path d="M57.8164 132.996H71.4853V93.1279H57.8164V132.996Z" stroke="black" stroke-width="4" stroke-miterlimit="10" stroke-linecap="round" stroke-linejoin="round"/>
<path d="M53.5684 27.2969H95.7147" stroke="#95E540" stroke-width="4" stroke-miterlimit="10" stroke-linecap="round" stroke-linejoin="round"/>
<path d="M53.5684 37.3809H78.6285" stroke="#FFA71C" stroke-width="4" stroke-miterlimit="10" stroke-linecap="round" stroke-linejoin="round"/>
</svg>
