<svg width="36" height="36" viewBox="0 0 36 36" fill="none" xmlns="http://www.w3.org/2000/svg">
<path d="M18 0C21.5601 0 25.0402 1.05568 28.0003 3.03355C30.9603 5.01141 33.2674 7.82263 34.6298 11.1117C35.9922 14.4008 36.3487 18.02 35.6541 21.5116C34.9596 25.0033 33.2453 28.2106 30.7279 30.7279C28.2106 33.2453 25.0033 34.9596 21.5116 35.6541C18.02 36.3487 14.4008 35.9922 11.1117 34.6298C7.82263 33.2674 5.01141 30.9603 3.03355 28.0003C1.05568 25.0402 0 21.5601 0 18C0 13.2261 1.89642 8.64773 5.27208 5.27208C8.64773 1.89642 13.2261 0 18 0V0Z" fill="#442477"/>
<g clip-path="url(#clip0_542_75842)">
<path d="M25 11.875H11V24.125L19.1305 15.9927C19.2946 15.8287 19.5171 15.7366 19.7491 15.7366C19.9811 15.7366 20.2037 15.8287 20.3678 15.9927L25 20.6337V11.875ZM9.25 10.9939C9.2516 10.7641 9.34354 10.5441 9.50595 10.3816C9.66836 10.219 9.88821 10.1268 10.118 10.125H25.882C26.3615 10.125 26.75 10.5144 26.75 10.9939V25.0061C26.7484 25.2359 26.6565 25.4559 26.4941 25.6184C26.3316 25.781 26.1118 25.8732 25.882 25.875H10.118C9.88771 25.8748 9.66693 25.7831 9.50418 25.6202C9.34142 25.4573 9.25 25.2364 9.25 25.0061V10.9939ZM14.5 17.125C14.0359 17.125 13.5908 16.9406 13.2626 16.6124C12.9344 16.2842 12.75 15.8391 12.75 15.375C12.75 14.9109 12.9344 14.4658 13.2626 14.1376C13.5908 13.8094 14.0359 13.625 14.5 13.625C14.9641 13.625 15.4092 13.8094 15.7374 14.1376C16.0656 14.4658 16.25 14.9109 16.25 15.375C16.25 15.8391 16.0656 16.2842 15.7374 16.6124C15.4092 16.9406 14.9641 17.125 14.5 17.125Z" fill="white"/>
</g>
<defs>
<clipPath id="clip0_542_75842">
<rect width="21" height="21" fill="white" transform="translate(7.5 7.5)"/>
</clipPath>
</defs>
</svg>
